<svg width="250" height="100" viewBox="0 0 250 100" fill="none" xmlns="http://www.w3.org/2000/svg">
<path d="M211.914 12.1642L218.675 5.74356L220.289 27.4445L233.103 29.2178L223.301 42.4403L235.679 43.6388L221.34 68.6986L215.82 72.122L222.885 52.6912L213.993 50.4969L218.784 36.6215L207.91 35.6189L211.914 12.1642Z" fill="#FF009E"/>
<path d="M218.673 5.74405L231.285 8.31955L223.532 24.7089L236.277 26.6285L226.475 39.8511L238.921 40.9032L221.338 68.6991L227.512 47.0289L217.859 46.4443L224.09 33.2743L213.285 32.1254L218.673 5.74405Z" fill="#EAFC00"/>
<path d="M37.5394 10.3739L30.2918 4.52864L30.4015 26.2913L17.769 29.1098L28.5859 41.4855L16.3438 43.6951L32.6195 67.4975L38.3932 70.4571L29.8129 51.6688L38.5019 48.7525L32.6277 35.3151L43.387 33.424L37.5394 10.3739Z" fill="#FF009E"/>
<path d="M30.2944 4.52821L17.927 8.12967L26.9532 23.8298L14.4013 26.7885L25.2182 39.1642L12.8955 41.2336L32.6222 67.4971L24.7527 46.4037L34.3283 45.0294L27.0751 32.4132L37.7538 30.3819L30.2944 4.52821Z" fill="#F9FF00"/>
<g filter="url(#filter0_d)">
<rect x="69.7578" y="25" width="119.871" height="37" rx="5" fill="#FF06A4"/>
</g>
<path d="M49.124 7L202.402 12L190.611 64L57.967 70L49.124 7Z" fill="#8D57FF"/>
<path d="M85.5421 24.6675V55.4492H74.2845V35.2156L67.793 37.4143V27.7289L75.161 24.6675H85.5421Z" fill="white"/>
<path d="M105.234 45.7643H113.89V55.4496H90.5255V46.6549C90.5255 46.6549 102.66 39.1682 102.66 35.2161C102.66 33.908 101.783 33.0174 100.277 33.0174C96.6062 33.0174 94.0041 35.4388 94.0041 35.4388L89.8955 28.8427C89.8955 28.8427 93.785 24 102.03 24C109.617 24 114.355 28.8427 114.355 33.908C114.328 41.3669 105.234 45.7643 105.234 45.7643Z" fill="white"/>
<path d="M118.246 40.0588C118.246 30.5961 124.738 24 132.955 24C141.172 24 147.664 30.5961 147.664 40.0588C147.664 49.5215 141.172 56.1176 132.955 56.1176C124.738 56.1176 118.246 49.5215 118.246 40.0588ZM129.476 40.0588C129.476 44.4562 131.202 46.2096 132.927 46.2096C134.653 46.2096 136.379 44.4562 136.379 40.0588C136.379 35.6614 134.653 33.908 132.927 33.908C131.202 33.908 129.476 35.6614 129.476 40.0588Z" fill="white"/>
<path d="M150.265 31.2645C150.265 27.3124 153.305 24.2231 157.194 24.2231C161.084 24.2231 164.124 27.3124 164.124 31.2645C164.124 35.2166 161.084 38.3059 157.194 38.3059C153.305 38.3059 150.265 35.2166 150.265 31.2645ZM151.99 55.4501L172.341 24.6684H180.997L160.673 55.4501H151.99ZM155.469 31.2645C155.469 32.5726 156.345 33.4632 157.194 33.4632C158.044 33.4632 158.92 32.5726 158.92 31.2645C158.92 29.9564 158.044 29.0658 157.194 29.0658C156.345 29.0658 155.469 29.9286 155.469 31.2645ZM168.89 48.854C168.89 44.902 171.931 41.8127 175.82 41.8127C179.71 41.8127 182.75 44.902 182.75 48.854C182.75 52.8061 179.71 55.8954 175.82 55.8954C171.931 55.8954 168.89 52.8061 168.89 48.854ZM174.094 48.854C174.094 50.1621 174.971 51.0527 175.82 51.0527C176.669 51.0527 177.546 50.1621 177.546 48.854C177.546 47.546 176.669 46.6553 175.82 46.6553C174.971 46.6553 174.094 47.546 174.094 48.854Z" fill="white"/>
<defs>
<filter id="filter0_d" x="45.7578" y="15" width="167.871" height="85" filterUnits="userSpaceOnUse" color-interpolation-filters="sRGB">
<feFlood flood-opacity="0" result="BackgroundImageFix"/>
<feColorMatrix in="SourceAlpha" type="matrix" values="0 0 0 0 0 0 0 0 0 0 0 0 0 0 0 0 0 0 127 0"/>
<feOffset dy="14"/>
<feGaussianBlur stdDeviation="12"/>
<feColorMatrix type="matrix" values="0 0 0 0 0.310326 0 0 0 0 0.104479 0 0 0 0 0.491667 0 0 0 0.4 0"/>
<feBlend mode="normal" in2="BackgroundImageFix" result="effect1_dropShadow"/>
<feBlend mode="normal" in="SourceGraphic" in2="effect1_dropShadow" result="shape"/>
</filter>
</defs>
</svg>
