<svg width="27" height="38" viewBox="0 0 27 38" fill="none" xmlns="http://www.w3.org/2000/svg">
<path d="M24.7397 4.21161C22.7807 1.69122 19.0134 -0.384398 11.3283 0.0603771C4.69792 0.653411 2.73895 3.76684 1.9855 4.65639C0.478607 6.43549 0.132021 11.4763 0.0416076 13.5074C-0.13922 17.5401 0.327917 20.3718 0.327917 20.3718L1.53344 22.5957C1.53344 22.5957 1.9855 27.7847 1.9855 28.2295C1.9855 28.6743 8.16378 36.0872 8.16378 36.0872L10.1228 37.125H17.3559C17.3559 37.125 18.7121 36.2355 19.1641 35.9389C19.6162 35.6424 24.7397 28.8225 24.8903 28.0812C25.041 27.3399 25.4931 22.5957 25.4931 22.5957L26.6986 20.52L27 13.9967C27 13.9967 26.6986 6.73201 24.7397 4.21161ZM20.0683 32.9738L18.5614 35.4942L16.9038 34.9011H14.3421L14.1914 34.4563H12.9859L12.8352 34.9011H10.2734L8.61585 35.4942L6.80758 32.8255L6.95827 31.1947L8.76654 33.5668L9.82137 32.3807H17.2052L18.26 33.5668L20.0683 31.1947V32.9738ZM18.26 32.529L17.2052 31.6394H9.82137L8.76654 32.529C8.76654 32.529 1.9855 21.2613 1.9855 20.6683C1.9855 20.0753 3.04033 16.5171 3.04033 16.5171V4.95291C3.04033 4.95291 6.05413 2.87729 9.3693 2.87729C9.67068 7.02853 10.5748 13.1071 10.5748 13.1071C10.5748 13.1071 11.931 13.4036 13.4379 13.4036C14.9448 13.4036 16.6024 13.1071 16.6024 13.1071C16.6024 13.1071 17.3559 3.76684 17.6572 2.87729C21.2738 2.87729 24.1369 4.95291 24.1369 4.95291V16.6653C24.1369 16.6653 25.1917 19.927 25.1917 20.6683C25.1917 21.4096 18.26 32.529 18.26 32.529Z" fill="#FFF774"/>
<path d="M4.24548 19.6295L5.75238 21.4086L9.821 22.0016L10.7251 20.8156L4.39617 17.7021L4.24548 19.6295Z" fill="#FFF774"/>
<path d="M17.2053 22.0016L21.4246 21.2604L22.7808 19.6295V17.7021L16.3011 20.6673L17.2053 22.0016Z" fill="#FFF774"/>
</svg>
