<svg width="28" height="28" viewBox="0 0 28 28"  xmlns="http://www.w3.org/2000/svg">
<path d="M15.2075 7.80103C14.4272 7.80103 13.8203 8.17673 13.8203 9.57838V10.4454C13.8203 11.6881 14.3983 12.0927 15.2075 12.0927C15.9878 12.0927 16.5947 11.6881 16.5947 10.4454V9.57838C16.5947 8.19118 15.9878 7.80103 15.2075 7.80103Z" fill="#979797"/>
<path d="M15.2075 14.3325C14.3405 14.3325 13.8203 14.8672 13.8203 16.0954V17.5404C13.8203 18.9276 14.4272 19.3033 15.2075 19.3033C15.9878 19.3033 16.5658 18.9276 16.5947 17.5404V16.0954C16.5947 14.8672 16.0745 14.3325 15.2075 14.3325Z" fill="#979797"/>
<path d="M14.1674 0.0703125C6.72566 0.0703125 0.685547 6.11043 0.685547 13.5522C0.685547 20.994 6.72566 27.0341 14.1674 27.0341C21.6092 27.0341 27.6493 20.994 27.6493 13.5522C27.6493 6.11043 21.6092 0.0703125 14.1674 0.0703125ZM9.65902 21.3552H7.20251V9.44839H5.32401V7.71438C7.21696 7.71438 7.63601 6.80403 8.02617 5.74918H9.67347V21.3552H9.65902ZM19.0371 9.98304C19.0371 11.5147 18.5313 12.5696 17.5198 13.1187C18.5891 13.7256 19.0371 14.8816 19.0371 16.37V17.5982C19.0371 20.0981 17.6788 21.5142 15.2078 21.5142C12.7369 21.5142 11.3786 20.0836 11.3786 17.5982V16.37C11.3786 14.8816 11.8265 13.7256 12.8958 13.1187C11.8699 12.5551 11.3786 11.5147 11.3786 9.98304V9.49174C11.3786 6.99188 12.7369 5.57578 15.2078 5.57578C17.6788 5.57578 19.0371 7.00633 19.0371 9.49174V9.98304ZM23.0831 13.7689V15.7631H21.9415V13.7689H19.9908V12.6274H21.9415V10.6622H23.0831V12.6274H25.0339V13.7689H23.0831Z" fill="#979797"/>
</svg>
