<svg xmlns="http://www.w3.org/2000/svg" width="32" height="49" viewBox="0 0 32 49"><g><g><g><g><g><g><g><path fill="#fff" d="M30.758 42.195H.452a.501.501 0 0 0-.466.466v5.595c0 .233.233.466.466.466h30.306a.501.501 0 0 0 .466-.466v-5.595a.501.501 0 0 0-.466-.466z"/></g><g><path fill="#fff" d="M1.152 30.073c.466-.933 8.858-24.245 9.325-25.41C11.176 2.33 12.34 0 15.605 0c3.497 0 4.43 2.331 5.362 4.662.233 1.166 8.859 24.711 9.325 25.41.233.234 0 .467-.233.7-.467 0-4.896 1.865-5.129 1.865-.233.233-.7 0-.7-.233s-1.864-5.595-2.097-6.061H9.31c-.233.699-2.098 5.828-2.098 6.06-.233.234-.466.234-.7.234-.466 0-4.895-1.865-5.128-1.865-.233-.233-.233-.466-.233-.7zm10.257-9.325h8.625L15.605 7.693z"/></g></g></g></g></g></g></g></svg>