<svg width="98" height="32" viewBox="0 0 98 32" fill="none" xmlns="http://www.w3.org/2000/svg">
<path d="M0.804283 21.4233C1.10451 21.3733 1.40474 21.3232 1.70497 21.3232C2.0052 21.3232 2.30543 21.3232 2.60566 21.3733C3.80657 21.4733 4.85738 21.4733 5.75806 21.4733C6.25844 21.4733 6.50864 21.3733 6.50864 21.1731C6.50864 20.973 6.20841 20.9229 5.65799 20.8729C4.7573 20.8228 4.25692 20.7728 4.20688 20.7728C3.95669 20.7228 3.85661 20.5727 3.85661 20.2724C3.85661 19.8221 4.45707 18.0207 5.60795 14.8683H11.8627C12.5633 16.9199 12.9636 18.2709 13.1637 18.8714L13.3138 19.2717L13.564 20.0723C13.6141 20.2224 13.6141 20.2724 13.6141 20.3225C13.6141 20.6727 12.7634 20.8228 11.0121 20.8228C10.4616 20.8228 10.2115 20.9229 10.2115 21.1731C10.2115 21.3733 10.4116 21.4733 10.8119 21.4733C10.962 21.4733 11.1121 21.4733 11.2623 21.4233L15.0151 21.3232L18.7179 21.4233C18.8681 21.4233 19.0682 21.4733 19.2684 21.4733C19.5686 21.4733 19.7187 21.3733 19.7187 21.2231C19.7187 21.073 19.4685 20.973 18.9681 20.9229C18.2176 20.9229 17.7172 20.8228 17.467 20.7228C17.2168 20.6227 17.0166 20.3225 16.8665 19.8721C14.0644 12.2663 12.3131 7.51269 11.6125 5.61124C10.7118 3.20941 10.1114 1.60819 9.86119 0.807574C9.81115 0.707498 9.76112 0.607422 9.71108 0.607422C9.611 0.607422 9.51093 0.707497 9.46089 0.90765L9.36081 1.50811C9.2107 1.80834 9.11062 2.05853 9.11062 2.30872C7.5094 6.71208 5.45783 12.4665 2.95592 19.722C2.80581 20.1723 2.60566 20.5226 2.30543 20.6727C2.05524 20.8228 1.60489 20.9229 0.954398 20.973C0.35394 20.973 0.0537109 21.073 0.0537109 21.2732C0.0537109 21.4733 0.203825 21.5234 0.454016 21.5234C0.554093 21.4733 0.654169 21.4733 0.804283 21.4233ZM8.76035 5.76135L10.1614 9.81444C10.912 11.866 11.4124 13.3171 11.7626 14.1678H5.8081C6.95898 10.7652 7.95974 7.91299 8.76035 5.76135Z" fill="white"/>
<path d="M22.7714 8.56337C23.4719 8.56337 23.9223 8.66345 24.0724 8.76352C24.2225 8.8636 24.2725 9.2639 24.2725 9.9144V19.872C24.2725 20.4224 24.2225 20.7226 24.1725 20.8227C24.1224 20.9228 23.8722 20.9728 23.4219 20.9728C22.7714 20.9728 22.4712 21.0729 22.4712 21.223C22.4712 21.3731 22.6213 21.4732 22.9215 21.4732C23.1717 21.4732 23.3719 21.4732 23.572 21.4732H25.2233C25.4735 21.4732 25.6736 21.4732 25.8237 21.4732H26.224C26.6243 21.4732 26.8245 21.3731 26.8245 21.223C26.8245 21.0729 26.6744 21.0229 26.4242 21.0229C25.9738 21.0229 25.6236 21.0229 25.3734 20.9728C25.1732 20.9228 25.0732 20.7727 25.0732 20.5225V10.4648C27.2748 15.8189 28.5758 19.1715 29.0262 20.5225C29.2263 21.0729 29.3764 21.3231 29.5266 21.3231C29.6266 21.3231 29.7767 21.0229 29.9769 20.4224C30.6774 18.2708 31.2278 16.5695 31.6782 15.2184C32.4788 12.9667 33.0292 11.3655 33.3795 10.3647V19.822C33.3795 20.4725 33.3295 20.8227 33.2794 20.9228C33.2294 20.9728 32.9792 21.0229 32.5789 21.0229C32.0285 21.0229 31.6782 21.0729 31.5781 21.0729C31.478 21.0729 31.428 21.123 31.428 21.223C31.428 21.3731 31.6282 21.4232 31.9784 21.4232H32.1285C32.5288 21.4232 32.9291 21.4232 33.4295 21.4232C33.8799 21.4232 34.2802 21.4232 34.5804 21.4232H35.6312C36.2317 21.4232 36.682 21.4232 36.9322 21.4232C37.0823 21.4232 37.1824 21.4232 37.2324 21.4232C37.5827 21.4232 37.7828 21.3231 37.7828 21.173C37.7828 21.0229 37.6327 20.9228 37.3325 20.9228C36.5819 20.9228 36.1316 20.8728 35.9815 20.8227C35.8314 20.7727 35.7813 20.3223 35.7813 19.5718V9.26391C35.7813 8.91364 35.9314 8.71349 36.1816 8.61341C36.2817 8.61341 36.5819 8.56337 37.0823 8.56337C37.4326 8.56337 37.6327 8.46329 37.6327 8.31318C37.6327 8.11303 37.3825 8.06299 36.8822 8.06299H35.5812H33.3294L30.7775 15.2685C30.6274 15.7188 30.3772 16.4194 30.077 17.3701L28.5758 13.5171C28.1255 12.3663 27.7752 11.5657 27.5751 11.0653L26.8745 9.31394C26.7244 8.91364 26.5743 8.61341 26.4742 8.41326L26.3741 8.11303C24.3726 8.11303 23.1717 8.11303 22.8715 8.16307C22.5212 8.16307 22.3711 8.26314 22.3711 8.36322C22.3711 8.46329 22.5212 8.56337 22.7714 8.56337Z" fill="white"/>
<path d="M41.5853 21.4734H41.6354L41.9356 21.4234L42.1858 21.3733H42.436C42.9364 21.3733 43.4868 21.3733 44.1373 21.4234C44.7878 21.4734 45.1381 21.4734 45.1881 21.4734C45.5884 21.4734 45.7885 21.4234 45.7885 21.2733C45.7885 21.1732 45.6885 21.0731 45.4383 21.0731L45.2381 20.973H44.7878L44.3875 20.923C44.1373 20.923 44.0372 20.8229 44.0372 20.6228C44.0372 20.3225 44.4375 19.1216 45.2381 17.1201H49.4413L49.7916 18.1209C50.1919 19.2717 50.4421 19.9222 50.4421 20.0723C50.5422 20.4226 50.6423 20.5727 50.6423 20.6228C50.6423 20.8229 50.2419 20.8729 49.3913 20.923C48.6908 20.923 48.3405 21.0231 48.3405 21.1732C48.3405 21.3233 48.5406 21.4234 48.8909 21.4234H49.041H49.5914H50.4921C51.0926 21.4234 51.5429 21.4234 51.8932 21.4234H52.6938H54.4952H54.6953C55.0956 21.4234 55.2958 21.3733 55.2958 21.2232C55.2958 21.0731 55.0956 20.973 54.7454 20.973C54.195 20.923 53.8447 20.923 53.7947 20.8729C53.5945 20.8229 53.3443 20.5227 53.1442 19.9222C50.6923 13.8176 49.1911 10.0147 48.5907 8.6136C48.3905 8.06318 48.2905 7.81299 48.1904 7.81299C48.0903 7.81299 47.9402 7.9631 47.8401 8.26333L47.64 8.81375L47.1396 10.0147C46.5391 11.6659 46.0387 12.8668 45.7385 13.6675C45.6384 13.9176 45.5384 14.1678 45.4883 14.2679C45.4383 14.418 45.3882 14.6182 45.2381 14.8684C44.9379 15.6189 44.5876 16.4696 44.2874 17.3202C43.4368 19.5219 42.9864 20.6228 42.8363 20.6728C42.7362 20.7729 42.5361 20.8729 42.1858 20.923C42.0857 20.923 41.8355 20.973 41.4853 20.973C41.2351 20.973 41.085 21.0731 41.085 21.2232C41.135 21.3733 41.2851 21.4734 41.5853 21.4734ZM47.3898 11.6659L49.2912 16.6697H45.4383C46.2889 14.5181 46.9394 12.8168 47.3898 11.6659Z" fill="white"/>
<path d="M58.4985 12.0162C58.6986 12.0162 58.7987 11.8161 58.8988 11.3657C59.0489 10.1648 59.3491 9.36419 59.7995 9.01393C60.2498 8.66366 61.2506 8.51354 62.8018 8.56358V19.1216C62.8018 19.9222 62.8018 20.4226 62.7517 20.6228C62.7517 20.7729 62.6516 20.873 62.5015 20.923C62.4014 20.9731 62.2513 20.9731 62.0512 20.9731C61.4007 20.9731 61.1005 21.0731 61.1005 21.2232C61.1005 21.3734 61.3006 21.4234 61.7009 21.4234H62.4014C63.0519 21.4234 63.5523 21.4234 64.0027 21.4234C64.453 21.4234 64.6532 21.4234 64.6532 21.4234C64.8033 21.4234 65.0535 21.4234 65.4538 21.4234C65.804 21.4234 66.1043 21.4234 66.2544 21.4234H66.4545C66.8048 21.4234 66.9549 21.3734 66.9549 21.2232C66.9549 21.0731 66.6547 21.0231 66.1043 20.9731C65.5539 20.9731 65.2536 20.7729 65.2536 20.3726V8.61362C65.6539 8.61362 65.9542 8.56358 66.1543 8.56358C67.5053 8.56358 68.356 8.91385 68.7063 9.56435C68.9564 10.0647 69.1566 10.7152 69.2066 11.4658C69.2066 11.8161 69.3568 12.0162 69.6069 12.0162C69.8571 12.0162 69.9572 11.8661 69.9572 11.6159C69.9572 11.5659 69.9572 11.4658 69.9072 11.2656L69.8571 10.7653L69.7571 9.56435L69.657 8.51354L69.6069 7.91309C69.3568 7.96312 69.1566 8.01316 69.0065 8.01316C67.1551 8.0632 65.9041 8.0632 65.3037 8.0632H58.4484C58.2483 9.71446 58.1982 10.8153 58.1982 11.3657C58.1982 11.8161 58.2983 12.0162 58.4985 12.0162Z" fill="white"/>
<path d="M74.6608 8.4633H74.961H75.5615C75.8117 8.4633 75.9618 8.56337 76.0118 8.66345C76.0619 8.81356 76.0619 9.26391 76.0619 10.0145V19.5217C76.0619 20.2723 76.0619 20.6726 76.0118 20.7727C75.9618 20.8728 75.6616 20.9228 75.1112 20.9728C74.6608 20.9728 74.4607 21.0729 74.4607 21.223C74.4607 21.3231 74.6108 21.3731 74.961 21.3731H75.0611C75.3113 21.3731 75.7617 21.3731 76.262 21.3731C76.8125 21.3731 77.1627 21.3731 77.3629 21.3731C77.4129 21.3731 77.513 21.3731 77.6631 21.3731C77.8633 21.3731 78.0134 21.3731 78.1635 21.3731H78.9141H79.5145H79.8147C80.0149 21.3731 80.0649 21.3231 80.0649 21.173C80.0649 21.0729 79.9649 20.9728 79.7147 20.9728C79.1642 20.9228 78.814 20.8728 78.6639 20.8227C78.5137 20.7727 78.4637 20.6226 78.4637 20.4224V9.46406C78.4637 9.01372 78.5138 8.76352 78.5638 8.66345C78.6138 8.56337 78.7639 8.51333 79.0642 8.51333C79.7147 8.51333 80.0649 8.41326 80.0649 8.31318C80.0649 8.16306 79.9148 8.06299 79.6146 8.06299H78.864C78.6639 8.06299 78.4637 8.06299 78.2135 8.06299C77.9633 8.06299 77.8132 8.06299 77.6631 8.06299H75.5615C75.2613 8.06299 75.0611 8.06299 74.911 8.06299C74.7609 8.06299 74.7108 8.06299 74.7108 8.06299C74.4607 8.06299 74.3105 8.11303 74.3105 8.26314C74.4106 8.41326 74.4607 8.4633 74.6608 8.4633Z" fill="white"/>
<path d="M92.0237 21.6236C93.5748 21.6236 94.7758 21.1732 95.6765 20.3226C95.7265 20.4226 95.7265 20.4727 95.7765 20.5227L96.0267 21.0731C96.1768 21.4234 96.3269 21.5735 96.4771 21.5735C96.6272 21.5735 96.7272 21.4734 96.7272 21.2733V21.0731C96.6772 20.5227 96.6272 20.0724 96.6272 19.7721C96.6272 19.3218 96.6772 18.6213 96.7272 17.5204C96.7272 17.2702 96.7773 17.0701 96.7773 17.02C96.7773 16.6698 96.6772 16.4696 96.4771 16.4696C96.3269 16.4696 96.1768 16.7198 96.0768 17.2202C95.8766 18.4211 95.4263 19.3718 94.7257 20.0724C94.0752 20.7729 93.2246 21.1232 92.1738 21.1232C90.8227 21.1232 89.7719 20.5728 89.0214 19.4219C88.2208 18.271 87.8705 16.7198 87.8705 14.7683C87.8705 12.8168 88.2208 11.2657 88.9213 10.1148C89.6218 8.9639 90.5726 8.41348 91.7735 8.41348C93.2246 8.41348 94.2253 8.9639 94.8758 10.0647C95.126 10.5651 95.3762 11.3657 95.5764 12.4165C95.6264 12.7168 95.7265 12.8669 95.8766 12.8669C96.0768 12.8669 96.1768 12.4666 96.1768 11.6159C96.1768 10.3149 96.2769 9.31416 96.377 8.66367C96.427 8.51355 96.427 8.41348 96.427 8.41348C96.427 8.26336 96.377 8.16329 96.2269 8.16329C96.0267 8.16329 95.8766 8.36344 95.7265 8.81378C95.6264 9.06397 95.5764 9.21409 95.4763 9.21409C95.3762 9.21409 95.3262 9.16405 95.2261 9.11401C94.2253 8.36344 92.9744 7.96313 91.5233 7.96313C89.6218 7.96313 88.1207 8.61363 86.8697 9.86458C85.6688 11.1656 85.0684 12.7668 85.0684 14.7683C85.0684 16.7698 85.7189 18.4211 87.0198 19.7221C88.4209 20.9731 90.0722 21.6236 92.0237 21.6236Z" fill="white"/>
<path d="M1.50476 26.6772H0.904297V31.3308H1.50476V26.6772Z" fill="white"/>
<path d="M11.9632 30.0298L10.7623 26.6772H10.0117V31.3308H10.5621V27.5779L11.9132 31.3308H12.5136V26.6772H11.9632V30.0298Z" fill="white"/>
<path d="M22.2705 26.6772H21.0195V31.3308H22.2705C23.0711 31.3308 23.4714 30.8805 23.4714 30.1799V27.8281C23.4714 27.1276 23.1211 26.6772 22.2705 26.6772ZM22.921 30.23C22.921 30.6803 22.7208 30.8804 22.3205 30.8804H21.67V27.1776H22.3205C22.7709 27.1776 22.971 27.4278 22.971 27.8281V30.23H22.921Z" fill="white"/>
<path d="M33.7799 30.23C33.7799 30.6303 33.5797 30.8804 33.1794 30.8804C32.7291 30.8804 32.579 30.6303 32.579 30.23V26.6772H31.9785V30.23C31.9785 30.9305 32.3288 31.4309 33.1294 31.4309C33.93 31.4309 34.3303 30.9805 34.3303 30.23V26.6772H33.7799V30.23Z" fill="white"/>
<path d="M43.3864 27.7781C43.3864 27.3778 43.5865 27.1276 43.9868 27.1276C44.3871 27.1276 44.5873 27.3778 44.5873 27.7781V27.9282H45.1377V27.7781C45.1377 27.0775 44.7374 26.6272 43.9868 26.6272C43.1862 26.6272 42.8359 27.0775 42.8359 27.7781C42.8359 29.0791 44.5873 29.1791 44.5873 30.2299C44.5873 30.6303 44.3871 30.8804 43.9868 30.8804C43.5865 30.8804 43.3864 30.6303 43.3864 30.2299V29.9297H42.8359V30.1799C42.8359 30.8804 43.2362 31.3308 44.0369 31.3308C44.8375 31.3308 45.2378 30.8804 45.2378 30.1799C45.1377 28.929 43.3864 28.8289 43.3864 27.7781Z" fill="white"/>
<path d="M53.3945 27.1276H54.3453V31.3308H54.9457V27.1276H55.8964V26.6772H53.3945V27.1276Z" fill="white"/>
<path d="M66.6047 30.0298C66.6047 29.5294 66.4046 29.1792 65.9542 29.0791C66.4046 28.929 66.6047 28.6287 66.6047 28.1283V27.728C66.6047 27.0275 66.2545 26.6772 65.4538 26.6772H64.2529V31.3308H64.8534V29.3293H65.2537C65.7541 29.3293 66.0043 29.4794 66.0043 30.0298V30.7804C66.0043 31.0806 66.0543 31.2307 66.1043 31.3308H66.7048C66.6047 31.1807 66.6047 30.9805 66.6047 30.7804V30.0298ZM65.3037 28.8789H64.8534V27.1276H65.4038C65.8542 27.1276 66.0043 27.3277 66.0043 27.7781V28.2284C66.0543 28.7288 65.7541 28.8789 65.3037 28.8789Z" fill="white"/>
<path d="M75.8114 26.6772H75.2109V31.3308H75.8114V26.6772Z" fill="white"/>
<path d="M84.3184 31.3308H86.47V30.8804H84.9188V29.2292H86.2198V28.7288H84.9188V27.1276H86.47V26.6772H84.3184V31.3308Z" fill="white"/>
<path d="M95.527 27.7781C95.527 27.3778 95.7271 27.1276 96.1274 27.1276C96.5277 27.1276 96.7279 27.3778 96.7279 27.7781V27.9282H97.2783V27.7781C97.2783 27.0775 96.878 26.6272 96.1274 26.6272C95.3268 26.6272 94.9766 27.0775 94.9766 27.7781C94.9766 29.0791 96.7279 29.1791 96.7279 30.2299C96.7279 30.6303 96.5277 30.8804 96.1274 30.8804C95.7271 30.8804 95.527 30.6303 95.527 30.2299V29.9297H94.9766V30.1799C94.9766 30.8804 95.3769 31.3308 96.1775 31.3308C96.9781 31.3308 97.3784 30.8804 97.3784 30.1799C97.2783 28.929 95.527 28.8289 95.527 27.7781Z" fill="white"/>
<path d="M97.128 23.625H0.204102V24.1254H97.128V23.625Z" fill="white"/>
</svg>
