<svg xmlns="http://www.w3.org/2000/svg" width="114" height="33" viewBox="0 0 114 33"><g><g><g><path fill="#ffe31c" d="M73.954 14.222c0-.343-5.708-.6-12.961-.644 3.734-3.777 6.438-6.78 6.266-6.953-.172-.171-3.219 2.576-6.953 6.267-.043-7.254-.3-12.962-.644-12.962-.343 0-.6 5.708-.644 12.962-3.777-3.734-6.78-6.438-6.953-6.267-.171.172 2.576 3.22 6.267 6.953-7.254.043-12.962.3-12.962.644 0 .344 5.708.601 12.962.644-3.734 3.777-6.438 6.781-6.267 6.953.172.172 3.22-2.575 6.953-6.266.043 7.253.3 12.961.644 12.961.344 0 .601-5.708.644-12.961 3.777 3.734 6.781 6.438 6.953 6.266.172-.172-2.575-3.219-6.266-6.953 7.296-.043 12.961-.343 12.961-.644z"/></g><g><g><path fill="#fff" d="M5.793 24.57l3.734 7.34H8.411l-1.158-2.318H2.875l-1.16 2.317H.6l3.734-7.339zm-.73.73l-1.845 3.69H6.91z"/></g><g><path fill="#fff" d="M11.85 24.57h3.863c.515 0 .944.043 1.33.172.387.128.687.3.944.472.258.214.473.429.601.687.13.257.215.515.215.73 0 .257-.086.514-.215.772-.128.257-.343.472-.6.686-.258.215-.601.344-.945.473-.386.128-.815.171-1.287.171h-2.833v3.176H11.85zm1.073 3.52h2.79c.257 0 .515-.044.772-.13.258-.085.43-.171.644-.3.215-.129.343-.3.43-.472.085-.172.171-.343.171-.558 0-.214-.043-.386-.129-.558-.086-.171-.257-.3-.429-.429s-.386-.215-.644-.3c-.257-.086-.515-.086-.772-.086h-2.833z"/></g><g><path fill="#fff" d="M29.659 28.22c0 .558-.086 1.073-.3 1.545a3.545 3.545 0 0 1-.902 1.202c-.386.343-.858.6-1.416.815-.558.215-1.202.3-1.932.3s-1.373-.085-1.93-.3c-.559-.214-1.031-.472-1.417-.815a3.545 3.545 0 0 1-.902-1.202c-.214-.472-.3-.987-.3-1.545 0-.558.086-1.073.3-1.545.215-.472.515-.859.902-1.202.386-.343.858-.6 1.416-.773a6.514 6.514 0 0 1 1.931-.3c.73 0 1.374.086 1.932.3.558.172 1.03.473 1.416.773.386.343.687.73.902 1.202.171.472.3.987.3 1.545zm-1.116 0c0-.515-.086-.944-.257-1.33a2.822 2.822 0 0 0-.73-.988 3.1 3.1 0 0 0-1.116-.6 4.606 4.606 0 0 0-1.373-.215c-.473 0-.945.086-1.374.214-.43.13-.772.344-1.116.601-.3.258-.558.601-.73.987-.171.387-.257.816-.257 1.33 0 .516.086.945.258 1.331.171.387.429.73.73.987.3.258.686.473 1.115.644.43.129.859.215 1.374.215.472 0 .944-.086 1.373-.215.43-.128.773-.343 1.116-.644.3-.257.558-.6.73-.987.171-.386.257-.815.257-1.33z"/></g><g><path fill="#fff" d="M33.053 24.57v6.61h5.107v.73h-6.18v-7.34z"/></g><g><path fill="#fff" d="M41.503 24.57v6.61h5.107v.73h-6.18v-7.34z"/></g><g><path fill="#fff" d="M57.429 28.22c0 .558-.086 1.073-.3 1.545a3.546 3.546 0 0 1-.902 1.202c-.386.343-.858.6-1.416.815-.558.215-1.202.3-1.932.3s-1.373-.085-1.93-.3c-.559-.214-1.031-.472-1.417-.815a3.545 3.545 0 0 1-.902-1.202c-.214-.472-.3-.987-.3-1.545 0-.558.086-1.073.3-1.545.215-.472.515-.859.902-1.202.386-.343.858-.6 1.416-.773a6.514 6.514 0 0 1 1.931-.3c.73 0 1.374.086 1.932.3.558.172 1.03.473 1.416.773.386.343.687.73.901 1.202.172.472.3.987.3 1.545zm-1.116 0c0-.515-.086-.944-.258-1.33a2.822 2.822 0 0 0-.73-.988 3.1 3.1 0 0 0-1.115-.6 4.606 4.606 0 0 0-1.373-.215c-.473 0-.945.086-1.374.214-.43.13-.772.344-1.116.601-.3.258-.558.601-.73.987-.171.387-.257.816-.257 1.33 0 .516.086.945.258 1.331.171.387.429.73.73.987.3.258.686.473 1.115.644.43.129.859.215 1.374.215.472 0 .944-.086 1.373-.215.43-.128.773-.343 1.116-.644.3-.257.558-.6.73-.987.171-.386.257-.815.257-1.33z"/></g><g><path fill="#fff" d="M63.653 28.213c0 .515.086.944.3 1.33.172.387.43.73.773.987a3.1 3.1 0 0 0 1.116.601c.43.129.858.215 1.33.215.258 0 .558-.043.816-.086.257-.086.515-.172.772-.3.258-.13.473-.258.687-.43.215-.171.386-.343.558-.558.172-.214.258-.386.386-.6.086-.215.13-.43.13-.644h-3.177v-.687h4.206v3.863h-.687l-.3-1.288a4.3 4.3 0 0 1-.644.558c-.257.172-.515.344-.815.472-.3.13-.601.258-.944.344a3.897 3.897 0 0 1-.988.128c-.73 0-1.33-.085-1.931-.3-.558-.215-1.073-.472-1.46-.815a3.709 3.709 0 0 1-.9-1.245c-.215-.472-.301-.987-.301-1.545 0-.3.043-.644.129-.944.086-.3.214-.601.386-.902.172-.3.386-.558.644-.772.257-.258.558-.472.901-.644.343-.172.687-.3 1.116-.43.43-.085.858-.171 1.33-.171.601 0 1.16.043 1.631.172.473.128.902.257 1.245.472.344.214.644.429.901.73.215.3.43.6.558.944h-1.158a2.432 2.432 0 0 0-1.16-1.202c-.514-.258-1.158-.386-1.974-.386-.515 0-.987.085-1.373.257s-.773.386-1.073.687c-.3.3-.558.6-.73.987a2.38 2.38 0 0 0-.3 1.202z"/></g><g><path fill="#fff" d="M79.106 24.57l3.691 7.34h-1.116l-1.158-2.318h-4.335l-1.16 2.317H73.87l3.734-7.339zm-.772.73l-1.846 3.69h3.734z"/></g><g><path fill="#fff" d="M86.523 24.57l3.22 6.266 3.304-6.266h1.417v7.34H93.39V25.9l-3.048 6.01h-.987l-3.133-6.01v6.01H85.15v-7.34z"/></g><g><path fill="#fff" d="M104.171 24.57v.73h-5.708v2.489h5.365v.687h-5.365v2.704h5.966v.73H97.39v-7.34z"/></g><g><path fill="#fff" d="M107.385 29.63c.043.257.085.514.257.729.172.214.344.429.558.558.215.171.515.3.816.386.3.086.686.129 1.03.129.343 0 .686-.043.987-.086.3-.043.6-.129.815-.258.258-.128.43-.257.558-.472.129-.171.215-.429.215-.686 0-.215-.086-.387-.215-.558a1.455 1.455 0 0 0-.6-.387 4.004 4.004 0 0 0-.859-.3 6.668 6.668 0 0 0-.987-.215c-.258-.043-.558-.128-.816-.171-.257-.086-.558-.13-.815-.215a5.236 5.236 0 0 1-.73-.3c-.214-.13-.429-.258-.558-.387-.171-.128-.3-.3-.386-.515a1.568 1.568 0 0 1-.129-.644c0-.3.086-.557.258-.815.171-.215.386-.43.687-.6.3-.173.643-.258 1.072-.344.43-.086.859-.129 1.374-.129.43 0 .815.043 1.159.086.343.043.644.129.901.257.258.13.472.215.644.387.172.128.3.3.429.472.129.171.215.343.258.515.042.171.085.343.085.515h-1.116a1.454 1.454 0 0 0-.257-.644 1.83 1.83 0 0 0-.515-.472c-.215-.129-.472-.215-.73-.3a5.357 5.357 0 0 0-.901-.086c-.3 0-.558 0-.858.043a3.625 3.625 0 0 0-.73.214 1.172 1.172 0 0 0-.515.386c-.129.172-.215.344-.215.558 0 .215.086.43.215.558.172.172.343.3.6.387.258.128.559.214.86.3.343.086.643.172.986.258.258.042.558.128.816.171.257.086.558.129.772.215.258.086.472.172.687.3.215.086.386.215.558.387.172.171.3.3.386.472.086.171.13.386.13.643 0 .344-.087.687-.258.945-.172.257-.43.515-.773.686-.343.172-.73.3-1.159.43-.429.128-.944.128-1.46.128-.471 0-.943-.043-1.373-.171a4.41 4.41 0 0 1-1.201-.515 2.991 2.991 0 0 1-.859-.773 1.746 1.746 0 0 1-.343-1.03h1.245z"/></g></g></g></g></svg>