<svg width="154" height="32" viewBox="0 0 154 32" fill="none" xmlns="http://www.w3.org/2000/svg">
<path d="M150.59 32H110.096C108.559 32 107.384 30.8249 107.384 29.2881V2.71186C107.384 1.26554 108.559 0 110.096 0H150.59C152.037 0 153.302 1.26554 153.302 2.71186V29.2881C153.302 30.7345 152.127 32 150.59 32Z" fill="#FF0636"/>
<path d="M9.85257 6.41797C11.7508 6.41797 13.5586 6.86995 15.3664 7.95469L14.824 12.4745C13.4682 11.3897 12.0219 10.8473 10.3949 10.8473C8.76788 10.8473 7.32163 11.2993 6.32734 12.2937C5.24265 13.288 4.70031 14.5536 4.70031 16.0903C4.70031 17.5366 5.15226 18.7118 6.14656 19.6157C7.05046 20.5197 8.31593 20.9716 9.76218 20.9716C11.2084 20.9716 12.5643 20.6101 13.9201 19.7965L13.3778 24.4067C11.7508 24.949 10.3045 25.3106 9.12944 25.3106C6.41773 25.3106 4.24835 24.4971 2.62133 22.7795C0.813515 20.9716 0 18.8925 0 16.1807C0 13.4688 0.994296 11.1185 2.8925 9.22023C4.7907 7.32192 7.14085 6.41797 9.85257 6.41797Z" fill="white"/>
<path d="M27.6597 21.7849H21.2419L19.8861 24.8584H14.8242L23.7729 6.7793H28.9251L33.2639 24.8584H28.4732L27.6597 21.7849ZM24.6768 14.1917L22.869 18.2595H26.7558L26.0326 14.8245C25.8519 13.8301 25.6711 13.1974 25.5807 12.7454C25.4903 12.4742 25.4903 12.203 25.4903 12.1126C25.3095 12.655 25.0383 13.3782 24.6768 14.1917Z" fill="white"/>
<path d="M42.7541 6.41797C44.5619 6.41797 46.2793 6.96034 47.9967 8.04509L46.0082 11.4801C44.8331 10.5762 43.7484 10.1242 42.8445 10.1242C42.2117 10.1242 41.6694 10.305 41.3982 10.5762C41.0367 10.8473 40.8559 11.2089 40.8559 11.7513C40.8559 12.2033 41.0367 12.5649 41.3078 12.836C41.579 13.1072 42.2117 13.4688 43.1157 13.9208C44.6523 14.644 45.6466 15.3671 46.2793 16.0903C46.8217 16.8134 47.1832 17.8078 47.1832 18.9829C47.1832 20.7908 46.5505 22.2372 45.285 23.4123C44.0196 24.5875 42.3021 25.1298 40.3135 25.1298C39.2289 25.1298 38.2346 24.949 37.3307 24.6779C36.4268 24.4067 35.4325 23.8643 34.167 23.1411L36.246 19.7061C37.6922 20.7005 38.9577 21.2428 40.0424 21.2428C40.7655 21.2428 41.3078 21.062 41.7598 20.7005C42.2117 20.3389 42.3925 19.8869 42.3925 19.3445C42.3925 18.9829 42.2117 18.6214 41.9406 18.3502C41.6694 18.079 41.1271 17.7174 40.2232 17.2654C38.5961 16.4519 37.5114 15.6383 36.9691 14.9151C36.4268 14.192 36.0652 13.1976 36.0652 12.0225C36.0652 10.3954 36.6979 9.03944 37.9634 7.95469C39.2289 6.96034 40.8559 6.41797 42.7541 6.41797Z" fill="white"/>
<path d="M51.3408 6.7793H55.9507L53.691 24.8584H49.0811L51.3408 6.7793Z" fill="white"/>
<path d="M73.0349 6.7793H77.6448L75.3851 24.8584H70.4136L65.6229 16.7228C64.8998 15.5477 64.1766 14.0109 63.3631 12.2934V13.107C63.3631 14.3725 63.2727 15.4573 63.1823 16.542L62.188 24.8584H57.5781L59.8379 6.7793H64.8094L69.9616 15.5477L70.7751 16.994L71.4983 18.3499L71.8598 19.0731C71.8598 17.8979 71.9502 16.9036 72.0406 15.9996L73.0349 6.7793Z" fill="white"/>
<path d="M89.6678 6.41797C92.3795 6.41797 94.6393 7.23153 96.3567 8.76825C98.0741 10.305 98.978 12.3841 99.0684 14.9151V15.2767C99.0684 18.2598 98.1645 20.6101 96.3567 22.5084C94.5489 24.3163 92.1987 25.2202 89.2158 25.2202C86.233 25.2202 83.8828 24.4067 82.075 22.6892C80.2672 20.9716 79.3633 18.8021 79.3633 16.0903C79.3633 13.288 80.3576 10.9377 82.2558 9.12983C84.2444 7.32192 86.6849 6.41797 89.6678 6.41797ZM94.4585 15.7287C94.4585 15.5479 94.4585 15.4575 94.4585 15.3671C94.3681 13.9208 93.9162 12.836 93.0123 11.9321C92.1083 11.1185 90.9333 10.6666 89.487 10.6666C87.9504 10.6666 86.6849 11.1185 85.6906 12.1129C84.6963 13.1072 84.154 14.2824 84.154 15.8191C84.154 17.2654 84.6059 18.531 85.5098 19.4349C86.4137 20.3389 87.6792 20.7908 89.2158 20.7908C90.7525 20.7908 92.018 20.3389 93.0123 19.3445C94.0065 18.4406 94.4585 17.2654 94.4585 15.7287Z" fill="white"/>
<path d="M124.016 22.9597H117.508L116.152 26.0332H111L111.09 25.1292L120.039 7.9541H125.191L129.53 25.1292V26.0332H124.739L124.016 22.9597ZM121.033 15.3665L119.226 19.4343H123.112L122.389 15.9993C122.208 15.0049 122.028 14.3722 121.937 13.9202C121.847 13.649 121.847 13.3778 121.847 13.2874C121.666 13.8298 121.395 14.553 121.033 15.3665Z" fill="#201333"/>
<path d="M139.745 19.6158V18.7118L148.874 15.096C148.874 15.096 148.513 19.6158 147.97 20.9717C147.338 22.6892 146.253 23.9548 144.716 24.9491C143.18 25.9435 141.462 26.3955 139.474 26.3955C136.852 26.3955 134.683 25.5819 132.966 23.9548C131.248 22.3277 130.435 20.1582 130.435 17.5367C130.435 14.644 131.338 12.2938 133.237 10.4859C135.135 8.58755 137.485 7.68359 140.287 7.68359C142.547 7.68359 144.535 8.31636 146.072 9.67229C146.614 10.1243 147.066 10.6666 147.428 11.0282C147.699 11.3898 148.422 12.0226 148.422 12.0226V12.9265L144.445 14.4633C143.541 12.4746 142.185 11.4802 140.197 11.4802C138.751 11.4802 137.575 12.0226 136.581 13.1977C135.587 14.2825 135.135 15.7288 135.135 17.4463C135.135 18.8926 135.587 20.0678 136.491 21.0621C137.395 21.9661 138.479 22.5085 139.926 22.5085C140.92 22.5085 141.733 22.2373 142.457 21.6949C143.18 21.1525 143.632 20.5198 143.812 19.6158H139.745Z" fill="#201333"/>
<path d="M124.016 22.0559H117.508L116.152 25.1294H111.09L120.039 7.05029H125.191L129.53 25.1294H124.739L124.016 22.0559ZM121.033 14.4627L119.225 18.5305H123.112L122.389 15.0955C122.208 14.1011 122.027 13.4684 121.937 13.0164C121.846 12.7452 121.846 12.474 121.846 12.3836C121.666 12.926 121.394 13.6492 121.033 14.4627Z" fill="#FFF774"/>
<path d="M139.744 18.712L140.196 15.0962H148.873C148.783 17.0849 148.512 18.712 147.969 20.0679C147.337 21.7854 146.252 23.051 144.715 24.0453C143.179 25.0397 141.461 25.4917 139.473 25.4917C136.851 25.4917 134.682 24.6781 132.965 23.051C131.247 21.4239 130.434 19.2544 130.434 16.6329C130.434 13.7402 131.337 11.39 133.236 9.58205C135.134 7.68374 137.484 6.77979 140.286 6.77979C142.546 6.77979 144.535 7.41255 146.071 8.76849C146.614 9.22046 147.065 9.76284 147.427 10.1244C147.789 10.486 148.06 11.2092 148.421 12.0227L144.444 13.5594C143.54 11.5707 142.184 10.5764 140.196 10.5764C138.75 10.5764 137.574 11.1188 136.58 12.2939C135.586 13.3787 135.134 14.825 135.134 16.5425C135.134 17.9888 135.586 19.164 136.49 20.1583C137.394 21.0623 138.478 21.6046 139.925 21.6046C140.919 21.6046 141.732 21.3335 142.456 20.7911C143.179 20.2487 143.631 19.6159 143.811 18.712H139.744Z" fill="#FFF774"/>
</svg>
