<svg xmlns="http://www.w3.org/2000/svg" width="90" height="29" viewBox="0 0 90 29"><g><g><path fill="#fff" d="M45.343 9.902c5.13 0 9.287 4.105 9.287 9.168 0 5.063-4.157 9.168-9.287 9.168-5.13 0-9.288-4.105-9.288-9.168 0-.647.069-1.277.197-1.886l.045-.202h1.825a7.343 7.343 0 0 0-.303 2.088c0 4.1 3.37 7.426 7.524 7.426 4.155 0 7.522-3.327 7.522-7.426 0-4.101-3.367-7.426-7.522-7.426a7.557 7.557 0 0 0-5.419 2.275l-.097.1H37.59a9.312 9.312 0 0 1 7.753-4.117zm17.166 4.032c1.1 0 2.144.241 3.077.676l.154.074v2.043a5.491 5.491 0 0 0-3.231-1.043c-3.024 0-5.472 2.419-5.472 5.4 0 2.984 2.448 5.402 5.472 5.402a5.49 5.49 0 0 0 3.122-.967l.11-.077v2.044c-.973.48-2.071.75-3.232.75-4 0-7.244-3.203-7.244-7.152 0-3.949 3.244-7.15 7.244-7.15zm-46.464.883c1.79.602 3.357 1.68 3.326 4.455-.024 2.07-1.028 3.539-2.772 4.283.248.735.5 1.144 1.05 1.695.806.807 2.145 1.209 2.21 1.228h.002v1.652s-1.879-.407-2.801-1.128c-1.096-.857-1.905-2.982-1.935-3.064l-.001-.002h-.507v4.075h-1.765V14.513s2.009-.095 3.193.304zm54.33 0c1.79.602 3.357 1.68 3.323 4.455-.022 2.07-1.027 3.539-2.769 4.283.25.735.499 1.144 1.051 1.695.803.807 2.143 1.209 2.208 1.228h.002v1.652s-1.879-.407-2.801-1.128c-1.096-.857-1.904-2.982-1.935-3.064v-.002h-.507v4.075h-1.765V14.513s2.009-.095 3.193.304zm17.84 12.512l.172.479.17-.479h.214v.702h-.132v-.55h-.003l-.197.55h-.104l-.197-.55h-.004v.55h-.133v-.702zm-.367 0v.119h-.209v.583h-.132v-.583h-.21v-.119zM75.305 14.445c.735.44 4.627 2.273 7.024 7.83.427.988 1.141 2.412 1.107 5.57l-.003.17-1.765-.01c0-.88-.028-2.143-.432-3.371l-.052-.153h-4.112v3.524h-1.767zm-64.15 13.567H9.393v-4.896H3.056c-.208.524-.829 3.204-1.125 4.797l-.018.098H-.05s.86-6.473 3.825-10.787c2.823-4.115 7.38-6.854 7.38-6.854zm78.54-13.382v1.741h-3.32v11.634H84.61V16.371h-3.32v-1.74zm-42.529 0v1.742h-12.57l-.004 11.633h-1.764V16.371h-2.765v-1.74zm-24.421 0v13.375H20.98V14.631zm4.374.042c.855 0 1.616.277 2.264.666l.107.066v2.203c-.58-.605-1.41-1.232-2.371-1.232-.583 0-1.938.177-1.938 1.825 0 1.068.396 2.2 1.578 3.366.95.937 2.364 2.286 2.364 3.908 0 .9-.278 1.695-.703 2.418l-.068.113h-2.125c.638-.74 1.173-1.58 1.173-2.53 0-.909-1.187-2.086-1.848-2.695-1.516-1.396-2.094-3.113-2.094-4.58 0-2.11 1.47-3.528 3.661-3.528zm49.953 8.066h3.45c0-.504-2.14-4.058-3.45-5.128zm-62.456-.602h.006c.15-.003 3.076-.092 3.069-3.154-.006-2.623-3.074-2.795-3.074-2.795zm54.33 0h.006c.148-.003 3.074-.092 3.069-3.154-.007-2.623-3.074-2.795-3.074-2.795zm-59.553-8.26c-1.387 1.167-4.161 3.143-5.67 7.302l-.07.197h5.74zM65.74 10.99v1.742h-9.286v-1.742zM61.097.33c2.565 0 4.643 2.054 4.643 4.585 0 2.53-2.078 4.584-4.643 4.584s-4.643-2.053-4.643-4.584c0-2.531 2.078-4.585 4.643-4.585z"/></g></g></svg>