<svg width="15" height="17" viewBox="0 0 15 17" fill="none" xmlns="http://www.w3.org/2000/svg">
<path fill-rule="evenodd" clip-rule="evenodd" d="M10.7887 2.5647V1.89469C10.7887 1.15224 10.2199 0.717638 9.50894 0.93494L2.96799 3.4158H10.7709V2.5647H10.7887ZM10.3801 12.0533C9.91792 12.0533 9.54465 11.673 9.54465 11.2022C9.54465 10.7314 9.91792 10.3511 10.3801 10.3511C10.8422 10.3511 11.2154 10.7314 11.2154 11.2022C11.2154 11.673 10.8422 12.0533 10.3801 12.0533ZM10.789 4.86367H13.2774C14.2017 4.86367 14.9304 5.62423 14.9304 6.54776V9.08294H10.3624C9.2071 9.08294 8.28284 10.0427 8.28284 11.2016C8.28284 12.3787 9.22488 13.3203 10.3624 13.3203H14.9304V15.0044C14.9304 15.9461 14.1839 16.7066 13.2774 16.7066H1.65301C0.746522 16.7066 0 15.9461 0 15.0044V6.56587C0 5.64234 0.710973 4.88178 1.61746 4.86367H2.43508H2.96831H10.789Z" fill="#FFF774"/>
</svg>
