<svg xmlns="http://www.w3.org/2000/svg" width="40" height="41" viewBox="0 0 40 41"><defs><linearGradient id="hftya" x1="-.07" x2="39.66" y1="20.29" y2="20.29" gradientUnits="userSpaceOnUse"><stop offset="0" stop-color="#faa61a"/><stop offset="1" stop-color="#ffe100"/></linearGradient></defs><g><g><g><g><path fill="url(#hftya)" d="M-.05 20.274c0 10.977 8.916 19.845 19.892 19.845 10.977 0 19.845-8.916 19.845-19.845C39.637 9.346 30.77.43 19.793.43 8.818.43-.05 9.346-.05 20.274z"/></g></g><g><g><path fill="#34373d" d="M4.75 33.26c3.643 4.218 9.011 6.902 15.051 6.902 5.992 0 11.408-2.684 15.05-6.902z"/></g><g><path fill="#34373d" d="M-.05 20.269c0 1.342.144 2.636.383 3.93h38.97c.24-1.246.384-2.588.384-3.93 0-1.774-.24-3.5-.672-5.129H.621c-.48 1.678-.671 3.355-.671 5.129z"/></g><g><path fill="#34373d" d="M5.9 6.086h27.801C30.106 2.587 25.217.43 19.801.43 14.384.43 9.495 2.587 5.9 6.086z"/></g></g></g></g></svg>