<svg width="150" height="20" viewBox="0 0 150 20" fill="none" xmlns="http://www.w3.org/2000/svg">
<path d="M0 6.2168H4.32056C6.24556 6.2168 6.93 6.2588 7.48611 6.5108C8.55556 7.0148 9.19722 8.0228 9.19722 9.1988C9.19722 10.3328 8.855 10.8788 7.7 11.4248C8.89778 11.8028 9.71056 12.9368 9.58222 14.1548C9.58222 16.0028 8.085 17.2208 5.94611 17.2208H0V15.4148H0.855556V7.9808H0V6.2168ZM3.16556 7.9808V10.6688H5.39C6.20278 10.7108 6.93 10.1648 6.97278 9.3668C6.97278 9.3248 6.97278 9.2408 6.97278 9.2408C6.97278 8.5268 6.24556 7.9388 5.21889 7.9388H3.16556V7.9808ZM3.16556 12.3908V15.4148H5.56111C6.45944 15.4568 7.27222 14.8688 7.315 13.9448C7.315 13.9448 7.315 13.9448 7.315 13.9028C7.315 12.9368 6.50222 12.3488 5.30444 12.3488L3.16556 12.3908Z" fill="#979797"/>
<path d="M19.036 14.4484C18.651 16.2964 17.111 17.3884 15.0576 17.3884C12.6621 17.3884 10.9082 15.5404 10.9082 12.9784C10.9082 10.4164 12.6621 8.56836 15.0576 8.56836C16.3838 8.56836 17.6243 9.19836 18.3515 10.2904C18.9076 11.2564 19.2499 12.3064 19.2071 13.3984H13.0471C13.261 15.5824 14.7154 15.6664 15.1004 15.6664C15.9132 15.7084 16.6404 15.1624 16.8543 14.4484H19.036ZM16.8543 12.0124C16.8543 11.0464 16.0415 10.3324 15.1432 10.3324H15.1004C14.1165 10.3324 13.3465 11.0464 13.1754 11.9704L16.8543 12.0124Z" fill="#979797"/>
<path d="M26.1371 11.7186H30.0726V17.1786H28.8321V15.4566C28.6182 15.8346 28.3187 16.1706 27.9765 16.5066C27.2493 17.1366 26.3082 17.4726 25.4098 17.4726C22.8004 17.4726 20.7471 14.9526 20.7471 11.7186C20.7471 8.48456 22.8004 5.92256 25.3671 5.92256C26.7787 5.88056 28.0193 6.63656 28.7037 7.81256V6.09056H29.9015V9.61856H28.661C28.5326 9.11456 28.3187 8.65256 28.0193 8.27456C27.4632 7.56056 26.5221 7.09856 25.6237 7.05656C24.2548 7.05656 22.2015 8.23256 22.2015 11.6346C22.2015 14.3226 23.6987 16.2546 25.6237 16.2546C27.1637 16.2126 28.4043 15.0786 28.7037 13.6506C28.7465 13.3566 28.7465 13.0206 28.7465 12.7686H26.0943L26.1371 11.7186Z" fill="#979797"/>
<path d="M39.6122 17.2623H37.1738V15.7503C36.6177 16.8003 35.4627 17.4303 34.2649 17.4303C32.8533 17.5563 31.6127 16.4223 31.4844 15.0363C31.4844 14.9943 31.4844 14.9103 31.4844 14.8683C31.4844 13.2303 32.896 12.4743 36.3183 12.1383L37.131 12.0963V11.2563C37.131 10.2903 36.4038 9.70232 35.206 9.70232C34.0083 9.70232 33.3666 10.0803 33.1527 11.2143H31.8266C31.9549 10.5423 32.2972 9.91232 32.8105 9.49232C33.4522 8.98832 34.3077 8.77832 35.0777 8.77832C36.8316 8.77832 38.3288 9.57632 38.3288 11.6763V16.2963H39.5266L39.6122 17.2623ZM37.1738 12.8943L36.361 13.0203C33.7516 13.3563 32.896 13.8183 32.896 14.8683C32.9388 15.8343 33.7516 16.5063 34.6499 16.5063C35.8905 16.4643 36.9599 15.5403 37.131 14.3223V12.8943H37.1738Z" fill="#979797"/>
<path d="M43.2053 10.3744C43.5903 9.82835 44.3603 8.65235 45.9431 8.65235C47.0981 8.65235 47.697 9.19835 47.9537 10.3744C48.1676 9.99635 48.4242 9.66035 48.7664 9.32435C49.2798 8.86235 49.9215 8.61035 50.6059 8.61035C51.932 8.61035 52.6592 9.45035 52.6592 10.8784V16.1704H53.857V17.1784H51.4615V11.3404C51.4615 10.1644 51.0765 9.61835 50.2209 9.61835C48.7237 9.61835 47.9537 11.3404 47.9537 11.9704V16.2124H49.1942V17.2204H46.6276V11.1724C46.6276 10.1224 46.2426 9.66035 45.387 9.66035C44.0609 9.66035 43.1198 11.2984 43.1198 12.0544V16.2544H44.3603V17.2624H40.6387V16.2544H41.8792V9.78635H40.6387V8.77835H43.1198L43.2053 10.3744Z" fill="#979797"/>
<path d="M55.0975 5.71289H57.493V10.5849C57.8352 9.95489 58.8191 8.73689 60.2736 8.73689C62.1986 8.73689 63.6958 10.7109 63.6958 13.1469C63.6958 15.4149 62.113 17.3889 60.2736 17.3889C58.7336 17.3889 58.0064 16.3809 57.493 15.7089V17.2629H55.0547V16.2549H56.2525V6.67889H55.0975V5.71289ZM57.4502 13.6929C57.4502 15.0789 58.5197 16.2129 59.8886 16.2969C61.3858 16.2969 62.2841 14.9949 62.2841 12.9369C62.2841 10.8789 61.3002 9.66089 59.8886 9.66089C58.648 9.66089 57.4075 11.0049 57.4075 12.2229L57.4502 13.6929Z" fill="#979797"/>
<path d="M64.3807 5.71289H66.819V16.2549H67.974V17.2629H64.3379V16.2549H65.5785V6.63689H64.3807V5.71289Z" fill="#979797"/>
<path d="M76.3156 14.9103C76.1873 15.4143 75.9734 15.7923 75.6311 16.2123C74.9467 17.0103 73.9628 17.4303 72.8934 17.4303C70.5834 17.4303 68.915 15.6243 68.915 13.0623C68.915 10.6263 70.5834 8.69434 72.6795 8.69434C74.7756 8.69434 76.4867 10.3323 76.4867 13.2723H70.2839C70.4123 14.4903 70.6689 15.2463 71.2678 15.7923C71.7384 16.1703 72.2945 16.4223 72.8506 16.4223C73.8345 16.4223 74.4334 15.9603 74.9039 14.9523L76.3156 14.9103ZM75.075 12.3483C75.075 11.5503 74.7756 10.8363 74.2195 10.2063C73.8345 9.87034 73.3211 9.66034 72.8078 9.70234C71.7384 9.74434 70.7973 10.5003 70.5406 11.5083C70.4978 11.8023 70.3695 12.0543 70.3695 12.3483H75.075Z" fill="#979797"/>
<path d="M81.7482 6.2168H84.486L87.6088 15.4988H88.4644V17.3048H85.8977L85.1705 14.9108H81.1921L80.4649 17.3048H77.8555V15.4988H78.711L81.7482 6.2168ZM83.1171 8.2748L81.6199 13.1888H84.5716L83.1171 8.2748Z" fill="#979797"/>
<path d="M88.3359 8.82031H91.7582V10.4583H90.9026L92.1004 15.4143L93.5121 8.82031H95.7365L97.1482 15.2883L98.3032 10.4163H97.4476V8.82031H100.87V10.4583H100.1L98.2604 17.2203H95.9932L94.5815 11.4243L93.2126 17.2203H90.9454L89.0632 10.4583H88.3359V8.82031Z" fill="#979797"/>
<path d="M108.912 15.6243H109.639V17.2623H106.987V16.2543C106.345 17.0523 105.404 17.4303 104.377 17.4303C102.666 17.4303 101.383 16.2963 101.383 14.8263C101.383 12.3903 104.206 12.0963 106.944 11.8863C106.944 10.5843 106.473 10.2063 105.404 10.2063C104.334 10.2063 103.907 10.7103 103.864 11.5083V11.5503L101.811 11.5083C101.939 9.82832 103.308 8.77832 105.318 8.77832C107.714 8.77832 108.954 9.82832 108.954 11.7183L108.912 15.6243ZM106.858 13.2723C104.848 13.4403 103.564 13.6083 103.564 14.7843C103.564 15.4563 104.121 15.9183 104.976 15.9183C106.003 15.9183 106.858 15.1203 106.901 14.1123V14.0703V13.2723H106.858Z" fill="#979797"/>
<path d="M113.661 10.1643C114.217 9.11434 114.859 8.65234 115.843 8.65234C116.185 8.65234 116.484 8.69434 116.827 8.77834V10.7523C116.484 10.7103 116.142 10.6263 115.8 10.6263C114.73 10.5843 113.789 11.3403 113.747 12.3483V15.5823H114.773V17.2203H110.795V15.5823H111.65V10.4583H110.795V8.82034H113.704V10.1643H113.661Z" fill="#979797"/>
<path d="M125.382 14.4484C124.997 16.2964 123.457 17.3884 121.403 17.3884C119.008 17.3884 117.254 15.5404 117.254 12.9784C117.254 10.4164 119.008 8.56836 121.403 8.56836C122.729 8.56836 123.97 9.19836 124.697 10.2904C125.253 11.2564 125.596 12.3064 125.553 13.3984H119.393C119.607 15.5824 121.061 15.6664 121.446 15.6664C122.259 15.7084 122.986 15.1624 123.2 14.4484H125.382ZM123.157 12.0124C123.157 11.0464 122.344 10.3324 121.446 10.3324H121.403C120.419 10.3324 119.649 11.0464 119.478 11.9704L123.157 12.0124Z" fill="#979797"/>
<path d="M147.198 1.21777C147.455 1.21777 147.669 1.30177 147.84 1.42777C148.011 1.55377 148.054 1.72177 148.054 1.97377C148.054 2.14177 148.011 2.30977 147.925 2.43577C147.84 2.56177 147.712 2.64577 147.54 2.68777C147.626 2.68777 147.712 2.72977 147.754 2.77177C147.797 2.81377 147.84 2.85577 147.883 2.89777C147.925 2.93977 147.925 3.02377 147.968 3.06577C147.968 3.14977 148.011 3.19177 148.011 3.27577C148.011 3.35977 148.011 3.40177 148.011 3.48577C148.011 3.56977 148.011 3.61177 148.011 3.69577C148.011 3.77977 148.054 3.82177 148.054 3.90577C148.054 3.94777 148.097 4.03177 148.139 4.07377H147.712C147.669 4.03177 147.669 3.98977 147.669 3.94777C147.669 3.90577 147.669 3.82177 147.669 3.77977C147.669 3.73777 147.669 3.65377 147.669 3.56977C147.669 3.48577 147.669 3.44377 147.626 3.35977C147.626 3.27577 147.583 3.23377 147.583 3.14977C147.583 3.10777 147.54 3.02377 147.498 2.98177C147.455 2.93977 147.412 2.89777 147.369 2.85577C147.327 2.81377 147.241 2.81377 147.155 2.81377H146.214V4.03177H145.872V1.21777H147.198ZM147.284 2.51977C147.369 2.51977 147.455 2.47777 147.498 2.43577C147.54 2.39377 147.626 2.35177 147.626 2.26777C147.669 2.18377 147.669 2.09977 147.669 2.01577C147.669 1.88977 147.626 1.76377 147.54 1.67977C147.455 1.59577 147.327 1.55377 147.155 1.55377H146.214V2.51977H147.027C147.113 2.51977 147.198 2.51977 147.284 2.51977Z" fill="#979797"/>
<path d="M146.942 5.46C145.402 5.46 144.161 4.242 144.161 2.73C144.161 1.218 145.402 0 146.942 0C148.482 0 149.722 1.218 149.722 2.73C149.722 4.242 148.482 5.46 146.942 5.46ZM146.942 0.462C145.658 0.462 144.632 1.47 144.632 2.73C144.632 3.99 145.658 4.998 146.942 4.998C148.225 4.998 149.252 3.99 149.252 2.73C149.252 1.47 148.225 0.462 146.942 0.462Z" fill="#979797"/>
<path d="M126.579 16.1277H127.649V17.1357H126.579V16.1277Z" fill="#979797"/>
<path d="M128.59 14.1541C128.59 12.3061 129.745 11.0461 131.413 11.0461C133.039 11.0461 134.237 12.3481 134.237 14.1541C134.237 16.0441 133.082 17.3041 131.413 17.3041C129.702 17.3041 128.59 16.0021 128.59 14.1541ZM131.37 16.5481C132.525 16.5481 133.253 15.6241 133.253 14.1121C133.253 12.6841 132.525 11.7601 131.37 11.7601C130.258 11.7601 129.574 12.6841 129.574 14.1541C129.574 15.6661 130.258 16.5481 131.37 16.5481Z" fill="#979797"/>
<path d="M136.632 12.5159C136.931 11.8859 137.102 11.7179 137.359 11.4239C137.658 11.1719 138.086 11.0039 138.471 11.0039C138.599 11.0039 138.813 11.0459 139.113 11.0879V11.9699C138.813 11.9279 138.642 11.8859 138.471 11.8859C136.803 11.8859 136.589 13.5659 136.589 13.6499V16.4219H137.658V17.1359H134.835V16.4219H135.733V11.8019H134.835V11.0879H136.632V12.5159Z" fill="#979797"/>
<path d="M143.947 15.6661C143.39 16.4221 142.749 16.7161 142.107 16.7161C140.653 16.7161 139.626 15.5401 139.626 13.8181C139.626 12.1801 140.61 11.0461 142.022 11.0461C143.134 11.0461 143.647 11.7601 143.989 12.2221V11.1301H145.743V11.8441H144.888V16.8001C144.888 18.2701 143.947 19.0681 142.278 19.0681C141.252 19.0681 140.396 18.6481 139.968 17.9341C139.883 17.8081 139.84 17.6401 139.712 17.3461H140.695C141.08 18.0601 141.508 18.3541 142.321 18.3541C143.348 18.3541 143.989 17.8081 143.989 16.9681V15.6661H143.947ZM143.947 13.3561C143.947 12.6841 143.134 11.7601 142.193 11.7601C141.209 11.7601 140.567 12.5581 140.567 13.8601C140.567 15.2041 141.209 16.0021 142.235 16.0021C143.134 16.0021 143.947 15.1201 143.947 14.4481V13.3561Z" fill="#979797"/>
</svg>
