<svg xmlns="http://www.w3.org/2000/svg" width="41" height="41" viewBox="0 0 41 41"><g><g><g><path fill="#f7931a" d="M40.383 25.46C37.644 36.441 26.52 43.124 15.537 40.386 4.56 37.649-2.125 26.525.614 15.543 3.35 4.56 14.474-2.125 25.454.613 36.437 3.351 43.12 14.477 40.382 25.46z"/></g><g><path fill="#fff" d="M29.54 17.576c-.294 1.997-1.401 2.964-2.871 3.304 2.018 1.051 3.044 2.663 2.066 5.456-1.213 3.468-4.098 3.76-7.933 3.035l-.93 3.73-2.25-.56.919-3.68a84.378 84.378 0 0 1-1.792-.466l-.923 3.698-2.246-.56.93-3.739c-.524-.134-1.058-.277-1.602-.413l-2.928-.73 1.117-2.575s1.657.44 1.634.408c.637.157.92-.258 1.031-.535l1.472-5.897.237.06a1.872 1.872 0 0 0-.234-.076l1.05-4.21c.028-.477-.138-1.08-1.049-1.307.035-.024-1.633-.406-1.633-.406l.598-2.403 3.102.775-.003.011c.467.116.947.226 1.437.338l.921-3.694 2.248.56-.903 3.622c.604.138 1.21.277 1.802.424l.897-3.598 2.25.56-.922 3.696c2.84.978 4.917 2.445 4.51 5.172zm-5.138 7.207c.725-2.913-4.164-3.666-5.688-4.047l-1.235 4.951c1.525.38 6.227 1.889 6.923-.904zm-4.004-10.804l-1.12 4.49c1.27.317 5.185 1.608 5.819-.933.661-2.65-3.429-3.24-4.7-3.557z"/></g></g></g></svg>