<svg width="15" height="16" viewBox="0 0 15 16" fill="none" xmlns="http://www.w3.org/2000/svg">
<path fill-rule="evenodd" clip-rule="evenodd" d="M2.45595 0C2.69913 0 3.33612 0.139352 3.93088 0.438434C4.38283 0.665757 4.68979 0.92769 4.79825 1.16899L2.16078 1.16904V0.296135C2.16078 0.132847 2.29322 0 2.45595 0ZM8.03221 0C8.19489 0 8.32728 0.132847 8.32728 0.296135H8.32733V1.16899L5.69012 1.16904C5.79857 0.927639 6.10543 0.665757 6.55738 0.438434C7.15204 0.139352 7.78898 0 8.03221 0ZM0.0693359 2.71312V4.08315H4.84226V1.97266L0.808072 1.97271C0.40069 1.97271 0.0693359 2.30487 0.0693359 2.71312ZM5.64616 1.97271L9.68004 1.97266C10.0874 1.97266 10.4187 2.30487 10.4187 2.71317V4.08321H5.64616V1.97271ZM0.417982 13.0185C0.417982 13.4271 0.749335 13.7594 1.15672 13.7594H4.84222V4.88704H0.417982V13.0185ZM10.9097 7.83407L14.4008 7.83402C14.7311 7.83402 14.9997 8.10337 14.9997 8.43442V9.58766H10.9097V7.83407ZM10.9098 15.0949H14.0949C14.425 15.0949 14.6937 14.8253 14.6937 14.4941V10.3933H10.9098V15.0949ZM6.01582 9.5876V8.43437C6.01582 8.10332 6.28451 7.83402 6.61475 7.83407L10.1059 7.83402V9.5876H6.01582ZM6.32164 14.4941C6.32164 14.8253 6.59043 15.0949 6.92077 15.0949H10.1058V10.3933H6.32158V14.4941H6.32164ZM7.04725 6.31359V7.03048H6.61482C6.2394 7.03048 5.89819 7.17918 5.64616 7.42043V4.88704H10.0702V5.97599C9.39484 5.52891 8.49027 5.29885 8.06099 5.29885C7.502 5.29885 7.04725 5.75405 7.04725 6.31359ZM9.33319 6.48281C8.81838 6.22382 8.26976 6.10323 8.06104 6.10323C7.94537 6.10323 7.85125 6.19775 7.85125 6.31403V7.27465L10.1062 7.24736L10.106 7.24248C10.106 7.01018 9.81706 6.72619 9.33319 6.48281ZM12.9546 6.10323C13.0702 6.10323 13.1644 6.19781 13.1644 6.31403V7.27466L10.9095 7.24737L10.9098 7.24249C10.9098 7.01019 11.1986 6.72614 11.6825 6.48276C12.1972 6.22388 12.7458 6.10323 12.9546 6.10323Z" fill="white"/>
</svg>
