<svg width="74" height="35" viewBox="0 0 74 35" fill="none" xmlns="http://www.w3.org/2000/svg">
<path d="M12.1132 8.7022H18.749L18.1113 10.8739H13.7851L13.0439 13.3903H17.3701L16.7669 15.5448H12.4407L11.4927 18.7852H15.8534L15.2156 20.9052H8.54538L12.1132 8.7022ZM39.9835 0.135986C59.4083 2.89372 73.0763 9.28821 73.0763 16.6996C73.0763 26.6275 48.5498 34.7455 18.5077 34.7455C12.2683 34.7455 6.25301 34.3664 0.651367 33.7286C2.47837 33.7803 4.30536 33.832 6.20131 33.832C36.2434 33.832 60.7527 25.3348 60.7527 14.9416C60.7355 8.9435 52.6174 3.58315 39.9835 0.135986ZM52.9277 21.1637C56.3748 21.1637 59.1843 18.3543 59.1843 14.9071C59.1843 11.4599 56.3748 8.65049 52.9277 8.65049C49.4805 8.65049 46.671 11.4599 46.671 14.9071C46.671 18.337 49.4805 21.1637 52.9277 21.1637ZM33.8476 8.7022H41.2762L40.673 10.8911H38.0876L35.1403 20.9224H32.8824L35.7952 10.8911H33.1926L33.8476 8.7022ZM31.3484 10.9946L29.2284 12.2183C28.7803 11.5806 28.3321 11.1497 27.8495 10.9084C27.3669 10.6498 26.8154 10.5292 26.1432 10.5292C24.7298 10.5292 23.4888 11.0807 22.4202 12.2355C21.5757 13.1318 21.0586 14.1487 20.8862 15.2346C20.6966 16.3204 20.9207 17.2339 21.524 17.9751C22.1272 18.7162 22.9545 19.0954 24.0232 19.0954C24.816 19.0954 25.5571 18.9058 26.2466 18.5094C26.9705 18.1302 27.5737 17.5614 28.1081 16.803H24.3162L24.9194 14.6313H28.6768H31.0898C30.6934 16.6479 29.7972 18.2681 28.4355 19.4574C27.0567 20.6294 25.471 21.2326 23.6267 21.2326C21.6618 21.2326 20.1968 20.5432 19.3005 19.1643C18.5594 18.0785 18.3181 16.7513 18.5594 15.2346C18.8524 13.3731 19.7831 11.7874 21.3516 10.4258C22.8856 9.06415 24.5919 8.37471 26.4534 8.37471C27.1428 8.37471 27.7806 8.47813 28.4183 8.68496C29.0215 8.87455 29.5903 9.16756 30.0385 9.51228C30.5383 9.9087 30.952 10.3741 31.3484 10.9946Z" fill="white"/>
</svg>
