<svg width="19" height="16" viewBox="0 0 19 16" fill="none" xmlns="http://www.w3.org/2000/svg">
<path fill-rule="evenodd" clip-rule="evenodd" d="M9.5 9.6C9.5 9.6 0 4.46933 0 4.26667V2.13333C0 1.56754 0.200177 1.02508 0.556496 0.625C0.912815 0.224922 1.39609 0 1.9 0H17.1C17.6039 0 18.0872 0.224922 18.4435 0.625C18.7998 1.02508 19 1.56754 19 2.13333V4.26667L9.5 9.6ZM19 6.4V13.8667C19 14.4325 18.7998 14.9749 18.4435 15.375C18.0872 15.7751 17.6039 16 17.1 16H1.9C1.39609 16 0.912815 15.7751 0.556496 15.375C0.200177 14.9749 0 14.4325 0 13.8667V6.5L9.5 11.7333" fill="white"/>
</svg>
