<svg xmlns="http://www.w3.org/2000/svg" width="111" height="51" viewBox="0 0 111 51"><g><g><g><g><g><g><path fill="#2f98d5" d="M7.245 15.948l12.123 5.629c-.285-.19-6.05-4.06-7.827-7.122-1.827-3.134-1.693-5.456-.15-7.7 1.541-2.244 5.362-3.658 11.172-3.285 5.81.373 12.201 2.127 16.995 6.425 0 0-4.09-7.243-14.497-9.27C14.653-1.402 6.64 2.69 2.02 6.883.798 7.997.167 9.055-.04 10.068c.095 3.085 7.285 5.88 7.285 5.88z"/></g><g><path fill="#f9ae00" d="M11.39 43.967c-1.547-2.243-1.676-4.565.151-7.7s7.838-7.127 7.838-7.127L7.245 34.775S.049 37.57-.04 40.655c.207 1.013.838 2.07 2.061 3.184 4.62 4.193 12.626 8.28 23.034 6.253 10.413-2.021 14.503-9.265 14.503-9.265-4.793 4.298-11.184 6.058-16.995 6.425-5.81.373-9.63-1.035-11.173-3.285z"/></g><g><path fill="#e40e20" d="M7.244 34.775l12.134-5.635s3.447-1.837 3.447-3.658c0-.039 0-.084-.005-.123 0-.039.005-.083.005-.122 0-1.82-3.447-3.658-3.447-3.658s-.005-.006-.01-.006L7.243 15.944S.054 13.154-.04 10.07c-.575 2.8 2.095 5.223 4.296 7.3 2.945 2.767 4.252 5.517 4.23 7.99.022 2.472-1.285 5.222-4.23 7.995-2.2 2.071-4.871 4.493-4.296 7.3.09-3.085 7.285-5.88 7.285-5.88z"/></g></g></g></g><g><g><path fill="#fff" d="M29.636 26.576c0 .29.145.506.436.646.29.144.653.217 1.1.222.442.006.877-.016 1.302-.055.425-.045.827-.09 1.201-.145.38-.056.592-.084.648-.084.04.808-.123 1.381-.48 1.715-.358.334-1.078.501-2.162.501-1.492 0-2.587-.3-3.29-.907-.7-.607-1.051-1.648-1.051-3.14 0-.747.095-1.376.285-1.888.19-.518.47-.908.838-1.18a3.503 3.503 0 0 1 1.229-.574 6.7 6.7 0 0 1 1.587-.167c1.156 0 2.01.245 2.553.735.547.49.82 1.27.82 2.338 0 .413-.077.735-.24.986a1.167 1.167 0 0 1-.62.496 4.637 4.637 0 0 1-.921.183c-.358.04-.715.05-1.062.034-.352-.017-.726 0-1.134.05a4.155 4.155 0 0 0-1.039.234zm-.073-1.465c.157-.111.42-.183.777-.222.358-.04.693-.056 1.006-.062a1.89 1.89 0 0 0 .832-.195.61.61 0 0 0 .352-.59c0-.24-.19-.44-.575-.601-.531-.223-1.05-.24-1.554-.056-.698.25-.977.824-.838 1.726z"/></g><g><path fill="#fff" d="M43.664 24.183v5.078a5.875 5.875 0 0 1-.838-.005 2.42 2.42 0 0 1-.665-.162.865.865 0 0 1-.464-.412c-.1-.19-.14-.429-.134-.718V24.228c-.14-.68-.776-.947-1.905-.807-.586.072-.927.128-1.022.167.028.155.045.345.045.556v3.82c.01.29-.04.529-.14.718a.885.885 0 0 1-.464.412c-.207.084-.424.14-.659.162a5.161 5.161 0 0 1-.838.005v-6.793c0-.606.978-.93 2.927-.974 2.766-.072 4.151.824 4.157 2.69z"/></g><g><path fill="#fff" d="M50.99 18.51c.14.1.312.167.525.195.212.028.402.044.575.044.173 0 .341.028.497.078.157.05.28.173.37.368.088.195.133.479.133.852v8.23a2.317 2.317 0 0 0-.134.16c-.078.1-.15.179-.218.24a2.1 2.1 0 0 1-.363.24c-.179.1-.374.172-.586.228a7.884 7.884 0 0 1-.866.156c-.364.044-.777.072-1.23.072-1.435 0-2.469-.312-3.094-.93-.626-.618-.939-1.648-.939-3.09 0-.557.073-1.058.223-1.498.151-.44.347-.802.593-1.08.245-.278.536-.512.877-.696a3.712 3.712 0 0 1 1.022-.39 5.244 5.244 0 0 1 1.078-.111c.721 0 1.23.111 1.542.334zm0 4.989a3.746 3.746 0 0 0-.397-.1 3.986 3.986 0 0 0-.536-.062 3.682 3.682 0 0 0-.61.006c-.19.017-.39.072-.591.167-.207.095-.38.217-.531.367-.151.156-.268.368-.363.64-.095.274-.14.597-.14.97 0 .35.056.662.168.918.111.262.251.462.413.602.162.139.363.245.603.311.24.067.453.112.643.128.19.017.396.012.62-.016a6.03 6.03 0 0 0 .47-.061c.089-.017.167-.04.245-.056H51c-.005-.011-.005-.623-.01-1.832zm.01 3.814z"/></g><g><path fill="#fff" d="M55.073 25.39a1.741 1.741 0 0 1-.022-.222 3.844 3.844 0 0 1 .045-.546c.033-.267.084-.528.162-.773.072-.245.206-.518.39-.819a3.03 3.03 0 0 1 .694-.768c.273-.212.648-.396 1.111-.535.464-.145 1-.217 1.598-.217.419 0 .805.033 1.162.1.352.067.66.156.916.267.257.112.486.251.687.418.202.167.37.334.498.496.128.161.24.356.33.579.089.222.156.417.2.579.045.161.079.35.1.573.018.217.029.384.034.496.006.111.006.256 0 .423-.005.173-.005.267-.005.284 0 .15-.006.284-.017.406-.011.123-.039.312-.084.574a3.215 3.215 0 0 1-.195.696 3.11 3.11 0 0 1-.397.668c-.184.24-.397.445-.642.607-.246.161-.57.3-.967.412a4.949 4.949 0 0 1-1.335.167 8.45 8.45 0 0 1-1.374-.1 5.45 5.45 0 0 1-1.023-.256 2.336 2.336 0 0 1-.737-.44 2.8 2.8 0 0 1-.508-.574 2.642 2.642 0 0 1-.324-.724 7.284 7.284 0 0 1-.19-.83 10.663 10.663 0 0 1-.107-.94zm2.084.129c.028.323.067.585.118.774.05.19.145.378.279.562.134.184.34.323.609.407.268.083.614.128 1.033.128.324 0 .61-.05.838-.156.235-.1.408-.217.52-.351.112-.128.201-.29.268-.473.067-.184.1-.323.112-.418.01-.095.017-.195.017-.306v-.145-.223c0-.06-.006-.15-.017-.272a2.025 2.025 0 0 0-.151-.624 1.356 1.356 0 0 0-.397-.585 1.34 1.34 0 0 0-.33-.228 1.708 1.708 0 0 0-.44-.145 2.586 2.586 0 0 0-.565-.055c-.374 0-.693.05-.95.156-.262.1-.452.222-.575.356a1.361 1.361 0 0 0-.28.529c-.066.217-.1.39-.106.507-.005.122 0 .272.006.462a.405.405 0 0 1 .011.1z"/></g><g><path fill="#fff" d="M70.097 21.52c-.01.017-.005.117.006.295.017.178.011.345-.006.507-.016.161-.056.34-.111.523a.79.79 0 0 1-.341.446c-.173.111-.397.167-.665.167-.391 0-.693.016-.91.044-.213.028-.408.1-.576.212a.796.796 0 0 0-.335.473c-.056.206-.084.484-.084.835v4.466a1.881 1.881 0 0 0-.665-.284 12.41 12.41 0 0 0-.698-.162.863.863 0 0 1-.509-.328c-.15-.184-.223-.446-.223-.79v-3.737c0-.056 0-.134.006-.228.005-.1.022-.234.05-.407a2.341 2.341 0 0 1 .436-1.052c.128-.184.29-.35.474-.49a2.41 2.41 0 0 1 .721-.35c.296-.095.62-.14.989-.14H70.097z"/></g><g><path fill="#fff" d="M73.905 32.343c-.168-.122-.391-.195-.665-.217a8.847 8.847 0 0 0-.698-.034c-.19 0-.363-.1-.509-.3-.15-.2-.223-.53-.223-.986v-8.23c.011-.01.056-.06.134-.16.078-.1.15-.173.218-.229.067-.056.184-.133.363-.24.179-.1.374-.183.587-.239.212-.055.502-.105.866-.156.363-.044.776-.072 1.229-.072 1.435 0 2.469.312 3.095.93.625.618.938 1.648.938 3.09 0 .696-.112 1.303-.335 1.815-.223.512-.525.902-.905 1.18-.38.273-.777.474-1.201.602-.425.128-.877.19-1.352.19-.643 0-1.157-.068-1.542-.196zm0-4.994c.15.044.313.083.48.11.174.029.391.051.648.073.263.017.503-.01.727-.083.223-.073.435-.184.642-.323.207-.14.369-.362.492-.668.123-.307.184-.674.184-1.103 0-.35-.056-.662-.173-.918-.117-.262-.251-.463-.408-.602a1.464 1.464 0 0 0-.609-.312 3.612 3.612 0 0 0-.631-.128 3.175 3.175 0 0 0-.631.023c-.252.027-.408.044-.464.055-.056.011-.14.028-.251.056h-.017s0 .612.011 1.837z"/></g><g><path fill="#fff" d="M83.306 21.788c.458-.184 1.224-.279 2.296-.279.525 0 .972.09 1.341.267.374.179.643.379.81.607.168.229.296.49.386.78.089.295.14.512.145.657.011.145.011.267 0 .367v5.078c-1.402.184-2.1-.245-2.1-1.297V26.43c.01-1.386-.057-2.227-.196-2.533-.14-.3-.581-.462-1.313-.48-.458 0-.916.084-1.374.251v4.299c.016.557-.157.924-.526 1.097-.368.172-.893.24-1.575.2V18.38c.168.122.391.195.665.217.274.022.508.034.698.034.19 0 .363.1.509.3.15.2.223.53.223.986v1.87h.011z"/></g><g><path fill="#fff" d="M91.423 21.048c.313 0 .575-.111.793-.328.218-.223.33-.485.33-.79 0-.313-.112-.574-.33-.791a1.1 1.1 0 0 0-.793-.329c-.313 0-.576.111-.793.329-.218.222-.33.484-.33.79a1.107 1.107 0 0 0 1.123 1.12zm1.033 1.866c0-.457-.072-.786-.223-.986-.15-.2-.318-.3-.508-.3s-.425-.012-.699-.034c-.273-.022-.497-.095-.665-.217v7.878c.682.04 1.207-.028 1.576-.2.369-.173.542-.535.525-1.097z"/></g><g><path fill="#fff" d="M101.614 24.183v5.078a5.875 5.875 0 0 1-.838-.005 2.42 2.42 0 0 1-.665-.162.865.865 0 0 1-.464-.412c-.1-.19-.14-.429-.134-.718V24.228c-.14-.68-.776-.947-1.905-.807-.586.072-.927.128-1.022.167.028.155.045.345.045.556v3.82c.01.29-.04.529-.14.718a.885.885 0 0 1-.464.412c-.206.084-.424.14-.659.162a5.161 5.161 0 0 1-.838.005v-6.793c0-.606.978-.93 2.927-.974 2.76-.072 4.146.824 4.157 2.69z"/></g><g><path fill="#fff" d="M104.162 23.473a.488.488 0 0 0-.017-.112 1.26 1.26 0 0 1-.005-.273 1.99 1.99 0 0 1 .184-.796c.073-.156.162-.284.28-.39a1.52 1.52 0 0 1 .474-.272c.202-.073.436-.112.71-.112h.391c.24-.01.492-.01.749 0l.77.034c.257.016.509.055.75.117.24.066.474.144.692.24.218.094.419.227.603.394.185.173.341.368.475.59.134.223.24.496.313.825.073.323.112.69.112 1.102v1.542c0 .385-.045.73-.129 1.042-.084.311-.19.562-.313.762a2.296 2.296 0 0 1-.469.518c-.184.15-.363.256-.525.329a2.496 2.496 0 0 1-.564.167c-.213.044-.38.067-.498.078a4.47 4.47 0 0 1-.413.016h-1.933c-.028 0-.073 0-.128-.005a3.64 3.64 0 0 1-.313-.045 2.221 2.221 0 0 1-.91-.334 1.82 1.82 0 0 1-.442-.378 1.848 1.848 0 0 1-.307-.563 2.305 2.305 0 0 1-.129-.78c0-.511.067-.94.196-1.291.128-.35.33-.618.592-.807.268-.19.564-.323.888-.396.324-.072.72-.111 1.19-.111.81 0 1.363-.056 1.66-.161.295-.106.44-.273.44-.496 0-.317-.307-.529-.916-.64a7.22 7.22 0 0 0-1.944-.073c-.681.05-1.19.145-1.514.279zm4.436 2.104c-.04.045-.09.1-.162.167-.073.067-.23.15-.47.257-.24.105-.497.161-.754.161-.458 0-.826.056-1.111.167-.285.111-.425.267-.425.473 0 .24.1.423.307.546.207.122.615.184 1.23.184.25 0 .446 0 .58-.006a.828.828 0 0 0 .38-.106.99.99 0 0 0 .246-.183c.045-.056.084-.173.117-.357.034-.183.05-.356.056-.523 0-.167.006-.429.006-.78z"/></g></g></g></g></svg>