<svg width="18" height="18" viewBox="0 0 18 18" fill="none" xmlns="http://www.w3.org/2000/svg">
<path d="M8.95706 15.9658H2.45399C2.20859 15.9658 2.02454 15.7808 2.02454 15.5342V2.46575C2.02454 2.21918 2.20859 2.03425 2.45399 2.03425H8.95706C9.5092 2.03425 10 1.5411 10 0.986301C10 0.431507 9.5092 0 8.95706 0H2.45399C1.10429 0 0 1.10959 0 2.46575V15.5342C0 16.8904 1.10429 18 2.45399 18H8.95706C9.5092 18 10 17.5068 10 16.9521C10 16.3973 9.5092 15.9658 8.95706 15.9658Z" fill="#FFF774"/>
<path d="M17.5746 8.31818L13.1989 4.28409C13.0166 4.11364 12.7735 4 12.4696 4C12.2265 4 11.9227 4.11364 11.7403 4.28409C11.558 4.45455 11.4365 4.68182 11.4365 4.96591C11.4365 5.19318 11.558 5.47727 11.7403 5.64773L14.2928 8.03409H8.03315C7.48619 8.03409 7 8.48864 7 9C7 9.51136 7.48619 9.96591 8.03315 9.96591H14.4144L11.8619 12.3523C11.4365 12.6932 11.4365 13.3182 11.8619 13.7159C12.0442 13.8864 12.2873 14 12.5912 14C12.8343 14 13.1381 13.8864 13.3204 13.7159L17.6961 9.68182C17.8785 9.51136 18 9.28409 18 9C17.8785 8.77273 17.8177 8.54545 17.5746 8.31818Z" fill="#FFF774"/>
</svg>
