<svg width="96" height="39" viewBox="0 0 96 39" fill="none" xmlns="http://www.w3.org/2000/svg">
<path d="M28.4123 12.0808L28.1179 25.6532C28.1179 25.6532 27.6782 20.2993 28.4123 12.0808Z" fill="white"/>
<path d="M68.6579 29.1174C68.6576 29.2057 68.6228 29.2903 68.5609 29.3533C68.499 29.4163 68.4149 29.4527 68.3265 29.4548C67.4287 29.4798 66.6101 29.576 65.6383 29.6248C64.6996 29.6709 63.7898 29.7065 63.0663 29.858C63.0126 29.8697 62.9569 29.8682 62.904 29.8535C62.851 29.8388 62.8025 29.8114 62.7626 29.7737C62.7292 29.7421 62.7027 29.7041 62.6845 29.662C62.6663 29.6198 62.657 29.5744 62.657 29.5286V27.6838C62.657 27.6218 62.6398 27.561 62.6074 27.5081C62.575 27.4552 62.5287 27.4123 62.4734 27.3839C62.4182 27.3556 62.3562 27.343 62.2942 27.3476C62.2323 27.3521 62.1728 27.3736 62.1223 27.4097C61.3651 27.9752 60.5745 28.4949 59.7549 28.9659C58.6181 29.5984 57.7942 29.8975 56.7353 29.8975C54.1078 29.8975 51.8712 28.3703 51.8712 24.3474V17.0499C51.8712 15.0734 51.557 14.653 50.5773 14.4303L49.7309 14.2577C49.6596 14.2419 49.5953 14.2034 49.5477 14.1481C49.5 14.0927 49.4717 14.0235 49.4669 13.9507L49.4365 13.5224C49.4331 13.4773 49.4388 13.432 49.4534 13.3892C49.468 13.3464 49.491 13.3069 49.5212 13.2732C49.5515 13.2395 49.5882 13.2122 49.6292 13.193C49.6702 13.1738 49.7147 13.163 49.76 13.1614C50.8743 13.1218 53.5969 13.0415 54.698 12.9558C54.7463 12.9519 54.7949 12.9584 54.8404 12.975C54.8859 12.9916 54.9272 13.0178 54.9616 13.0519C54.996 13.0859 55.0226 13.127 55.0395 13.1723C55.0565 13.2176 55.0634 13.266 55.0598 13.3142C54.9766 14.4606 54.9766 16.0919 54.9766 18.3149V23.3433C54.9766 26.6586 56.6627 27.552 58.428 27.552C59.7998 27.552 61.2469 27.0249 62.5501 25.8667C62.5858 25.8346 62.6144 25.7954 62.634 25.7516C62.6536 25.7078 62.6636 25.6603 62.6636 25.6124V17.0499C62.6636 15.0734 62.3111 14.6161 61.0158 14.4303L59.8764 14.2485C59.7968 14.2359 59.7244 14.1954 59.6721 14.1343C59.6198 14.0732 59.5911 13.9955 59.5912 13.9151V13.5C59.5908 13.4127 59.6245 13.3286 59.6851 13.2657C59.7457 13.2027 59.8285 13.1658 59.916 13.1627C61.1756 13.1232 64.2546 13.0401 65.3861 12.9519C65.4324 12.9484 65.4789 12.9545 65.5227 12.9699C65.5665 12.9852 65.6066 13.0094 65.6406 13.041C65.6746 13.0725 65.7016 13.1107 65.7201 13.1532C65.7386 13.1957 65.748 13.2416 65.7479 13.2879V25.3515C65.7479 27.2134 66.0608 28.2754 67.5964 28.3822L68.3292 28.4085C68.4167 28.4116 68.4997 28.4485 68.5605 28.5114C68.6214 28.5744 68.6553 28.6584 68.6553 28.7459L68.6579 29.1174Z" fill="white"/>
<path d="M48.6527 25.2039C48.1734 26.4623 47.6255 27.8736 47.1225 29.1505C47.0874 29.2393 47.0263 29.3155 46.9471 29.3691C46.868 29.4227 46.7745 29.4512 46.6788 29.4509H34.3931C34.3043 29.4511 34.2172 29.4266 34.1416 29.38C34.066 29.3334 34.005 29.2667 33.9653 29.1874L33.9469 29.1478C33.9092 29.0711 33.893 28.9857 33.9 28.9006C33.907 28.8155 33.9369 28.7338 33.9865 28.6642C37.1315 24.2446 40.1088 19.7895 43.11 15.1788C43.1565 15.1072 43.183 15.0244 43.1865 14.939C43.1901 14.8537 43.1706 14.7689 43.1301 14.6937C43.0897 14.6184 43.0297 14.5554 42.9565 14.5111C42.8832 14.4669 42.7994 14.4431 42.7139 14.4422H40.1022C37.2781 14.4422 36.7684 15.001 35.6699 17.0869L35.3134 17.7457C35.2596 17.8444 35.1726 17.9209 35.0677 17.9616C34.9628 18.0024 34.8469 18.0048 34.7404 17.9684L34.578 17.9131C34.4611 17.873 34.3643 17.7892 34.3081 17.6793C34.252 17.5694 34.2408 17.442 34.2769 17.3241C34.644 16.1381 35.0573 14.8679 35.3411 13.562C35.3635 13.4554 35.4219 13.3597 35.5064 13.2908C35.591 13.222 35.6967 13.1842 35.8059 13.1838H47.17C47.2618 13.1839 47.3516 13.2104 47.4287 13.2602C47.5057 13.31 47.5667 13.3809 47.6044 13.4645C47.6377 13.5384 47.6515 13.6195 47.6446 13.7002C47.6376 13.7809 47.6102 13.8586 47.5648 13.9257C44.5597 18.3677 41.618 22.8373 38.6182 27.4862C38.572 27.5578 38.5458 27.6405 38.5424 27.7257C38.5391 27.8108 38.5586 27.8953 38.599 27.9704C38.6395 28.0454 38.6993 28.1083 38.7723 28.1525C38.8454 28.1966 38.9289 28.2205 39.0143 28.2215H42.0246C44.9994 28.2215 45.7863 27.4427 47.2703 25.2197L47.2888 25.1894L47.5714 24.6953C47.631 24.5909 47.728 24.513 47.8429 24.477C47.9577 24.4411 48.082 24.4499 48.1906 24.5016L48.4137 24.607C48.5212 24.6586 48.6053 24.7486 48.6495 24.8591C48.6938 24.9696 48.6949 25.0926 48.6527 25.2039Z" fill="white"/>
<path d="M85.6748 28.9435C85.6751 28.8177 85.7221 28.6965 85.8068 28.6033C85.8914 28.5101 86.0076 28.4515 86.133 28.4388C88.3023 28.2201 89.4153 27.8735 89.4153 25.5016V17.8287C89.4153 15.6663 89.3123 14.9508 87.3661 14.5937C87.2485 14.5727 87.1419 14.5113 87.065 14.4201C86.988 14.3288 86.9456 14.2135 86.945 14.0943V13.6674C86.9449 13.5353 86.9965 13.4084 87.0887 13.3137C87.1809 13.2189 87.3065 13.1638 87.4388 13.16C88.2877 13.1363 90.09 13.0757 91.7206 12.9558C91.7903 12.9505 91.8604 12.9597 91.9264 12.9828C91.9924 13.0058 92.0529 13.0423 92.1041 13.0898C92.1553 13.1373 92.1961 13.1949 92.224 13.2589C92.2518 13.3229 92.2661 13.392 92.2659 13.4618V25.5016C92.2659 27.8735 92.7241 28.2201 94.8405 28.4375C94.9662 28.4499 95.0827 28.5084 95.1676 28.6016C95.2525 28.6948 95.2997 28.8162 95.3 28.9422C95.3 29.0088 95.2869 29.0748 95.2613 29.1363C95.2358 29.1979 95.1983 29.2538 95.1511 29.3009C95.1039 29.348 95.0479 29.3854 94.9862 29.4109C94.9245 29.4364 94.8584 29.4495 94.7917 29.4495H86.1831C86.0485 29.4495 85.9194 29.3962 85.8242 29.3014C85.7289 29.2065 85.6752 29.0778 85.6748 28.9435Z" fill="white"/>
<path d="M4.38233 7.8524L31.0346 0.710449L30.0641 38.7842L0.460938 33.1853L4.38233 7.8524Z" fill="url(#paint0_linear)"/>
<path d="M31.0349 0.710449L32.4767 1.75407L31.5393 37.1133L30.0645 38.7842L31.0349 0.710449Z" fill="url(#paint1_linear)"/>
<path opacity="0.15" d="M4.38237 7.85241L3.99684 9.66293C3.99684 9.74726 3.99023 9.8316 3.99023 9.91725C3.99023 20.9425 12.8153 29.8805 24.4277 29.8805C26.4159 29.8806 28.3951 29.612 30.3111 29.0819L31.0346 0.710449L4.38237 7.85241Z" fill="white"/>
<path d="M27.7551 27.0145C27.2771 28.4982 25.7904 32.6332 25.1923 33.9522L3.15332 30.7541L3.23254 29.8924C7.29125 30.1559 7.67678 29.9253 7.95141 27.1792L9.3074 13.7557C9.61767 10.725 9.2493 10.675 5.57613 11.2732L5.66195 10.3824L27.5782 5.19067C27.4461 6.29755 27.3273 9.25711 27.2019 11.4933L25.7218 11.911C25.4907 10.165 25.1025 9.30982 24.5559 8.54159C23.9631 7.75097 22.6428 7.76151 19.0581 8.55082L15.3268 9.36648C13.819 9.69327 13.7107 9.82372 13.5972 10.8779L12.7099 19.132L17.1766 18.8131C21.572 18.4982 21.8545 18.1542 22.7735 15.2988L24.206 15.1327L23.2303 23.2841H21.8294C21.5482 20.3469 21.2379 20.1216 17.0551 20.3179L12.566 20.5367L11.8372 27.3281C11.6589 29.0121 11.849 29.8317 12.6294 30.3588C13.4466 30.9386 15.0535 31.1376 17.3667 31.4262C20.9197 31.8755 22.2823 31.7055 23.4601 30.7146C24.3777 29.924 25.4775 28.4679 26.3648 26.7733L27.7551 27.0145Z" fill="white"/>
<path d="M85.262 13.8559C85.2634 14.0324 85.1972 14.2027 85.0769 14.332C84.9567 14.4613 84.7914 14.5399 84.615 14.5517C83.8941 14.6057 83.2076 14.7823 82.9065 15.2883C82.85 15.3529 82.8188 15.4357 82.8188 15.5215C82.8188 15.6073 82.85 15.6902 82.9065 15.7547C83.4319 16.5872 83.7069 17.5526 83.6987 18.5364C83.6987 22.5594 80.1682 24.4964 76.833 24.4964C76.3028 24.4921 75.7734 24.4521 75.2486 24.3765C75.105 24.3546 74.9584 24.3644 74.819 24.4051C74.6797 24.4459 74.5509 24.5166 74.4419 24.6124C74.0352 24.9787 73.6497 25.4794 73.6497 25.8734C73.6497 26.581 74.356 27.0264 76.1213 27.0264C77.5737 27.0264 78.9442 26.9025 80.2236 27.0172C82.6398 27.2333 85.3914 29.1334 85.3914 32.1193C85.3914 35.2515 81.5875 37.5799 76.3709 37.5799C71.9781 37.5799 69.2979 35.4215 69.2979 33.2973C69.2979 30.6764 72.1234 29.8502 73.0489 29.1492C73.0915 29.1179 73.1249 29.0757 73.1455 29.0271C73.1661 28.9784 73.1732 28.9252 73.166 28.8728C73.1589 28.8205 73.1377 28.7711 73.1048 28.7298C73.0719 28.6884 73.0284 28.6567 72.9789 28.6379C71.8421 28.1886 70.9245 28.0384 70.5918 27.4731C69.3744 25.4043 72.6726 24.864 73.3249 24.2105C73.359 24.1772 73.3845 24.1362 73.3992 24.091C73.4138 24.0457 73.4172 23.9976 73.409 23.9507C73.4008 23.9039 73.3813 23.8597 73.3521 23.8221C73.323 23.7844 73.2851 23.7545 73.2417 23.7348C71.6177 22.9441 70.16 21.2628 70.16 18.908C70.16 14.6993 74.1606 12.7253 77.1816 12.7253H77.2212C78.0366 12.7264 78.8464 12.86 79.6189 13.1207C79.7213 13.1558 79.8288 13.1741 79.9371 13.1747H84.5583C84.7404 13.1747 84.9152 13.2463 85.0447 13.3741C85.1742 13.5019 85.248 13.6755 85.2501 13.8572L85.262 13.8559ZM72.4112 32.1061C72.4112 34.1552 74.4379 35.9183 77.34 35.9183C80.934 35.9183 82.4761 34.4385 82.7402 33.0523C83.0584 31.3775 82.1764 30.4603 81.0475 29.758C80.1616 29.2111 79.5238 28.9674 77.8008 28.8751C74.1474 28.6841 72.4112 31.0625 72.4112 32.1061ZM73.548 18.3137C73.548 21.2127 75.0783 23.3052 77.2357 23.3052C78.9614 23.2683 80.4916 21.8149 80.4916 18.8724C80.4916 15.9735 79.0393 13.881 76.7657 13.881C75.1179 13.8876 73.5493 15.4451 73.5493 18.3137H73.548Z" fill="white"/>
<path d="M87.7124 8.40978C87.9765 9.56145 89.2374 10.2084 90.53 9.85925C91.8226 9.51006 92.6571 8.27801 92.3943 7.13292C92.1316 5.98784 90.8693 5.33426 89.5767 5.68345C88.2841 6.03264 87.4497 7.25811 87.7124 8.40978Z" fill="#3D91CF"/>
<defs>
<linearGradient id="paint0_linear" x1="28.3662" y1="-0.530828" x2="10.5013" y2="37.8575" gradientUnits="userSpaceOnUse">
<stop stop-color="#70ABDC"/>
<stop offset="0.17" stop-color="#67A6DA"/>
<stop offset="0.46" stop-color="#4D9AD4"/>
<stop offset="0.6" stop-color="#3E93D0"/>
<stop offset="0.99" stop-color="#1B7CC1"/>
</linearGradient>
<linearGradient id="paint1_linear" x1="31.67" y1="0.723626" x2="30.8941" y2="38.8014" gradientUnits="userSpaceOnUse">
<stop stop-color="#3E93D0"/>
<stop offset="0.99" stop-color="#1B7CC1"/>
</linearGradient>
</defs>
</svg>
