<svg width="29" height="29" viewBox="0 0 29 29" fill="none" xmlns="http://www.w3.org/2000/svg">
<path d="M7.25039 15.2249H11.6004C11.7927 15.2249 11.9771 15.1485 12.113 15.0126C12.249 14.8766 12.3254 14.6922 12.3254 14.4999C12.3254 14.3076 12.249 14.1232 12.113 13.9873C11.9771 13.8513 11.7927 13.7749 11.6004 13.7749H7.25039C7.05811 13.7749 6.8737 13.8513 6.73774 13.9873C6.60177 14.1232 6.52539 14.3076 6.52539 14.4999C6.52539 14.6922 6.60177 14.8766 6.73774 15.0126C6.8737 15.1485 7.05811 15.2249 7.25039 15.2249Z" fill="white"/>
<path d="M15.9504 16.6748H7.25039C7.05811 16.6748 6.8737 16.7512 6.73774 16.8872C6.60177 17.0231 6.52539 17.2075 6.52539 17.3998C6.52539 17.5921 6.60177 17.7765 6.73774 17.9125C6.8737 18.0484 7.05811 18.1248 7.25039 18.1248H15.9504C16.1427 18.1248 16.3271 18.0484 16.463 17.9125C16.599 17.7765 16.6754 17.5921 16.6754 17.3998C16.6754 17.2075 16.599 17.0231 16.463 16.8872C16.3271 16.7512 16.1427 16.6748 15.9504 16.6748Z" fill="white"/>
<path d="M15.9289 19.5752H7.25039C7.05811 19.5752 6.8737 19.6516 6.73774 19.7875C6.60177 19.9235 6.52539 20.1079 6.52539 20.3002C6.52539 20.4925 6.60177 20.6769 6.73774 20.8128C6.8737 20.9488 7.05811 21.0252 7.25039 21.0252H15.9289C16.1211 21.0252 16.3055 20.9488 16.4415 20.8128C16.5775 20.6769 16.6539 20.4925 16.6539 20.3002C16.6539 20.1079 16.5775 19.9235 16.4415 19.7875C16.3055 19.6516 16.1211 19.5752 15.9289 19.5752Z" fill="white"/>
<path d="M23.9246 18.9078V8.7L15.2325 0H4.34961C3.3882 0 2.46617 0.381919 1.78635 1.06174C1.10653 1.74156 0.724609 2.66359 0.724609 3.625V25.375C0.724609 26.3364 1.10653 27.2584 1.78635 27.9383C2.46617 28.6181 3.3882 29 4.34961 29H20.2996C20.7521 28.9996 21.2005 28.9137 21.621 28.7468C22.2891 28.9657 22.9954 29.0434 23.6951 28.9748C24.3947 28.9062 25.0725 28.693 25.6854 28.3485C26.2982 28.004 26.8328 27.5359 27.2551 26.9738C27.6774 26.4118 27.9782 25.768 28.1385 25.0835C28.2987 24.399 28.3149 23.6887 28.186 22.9975C28.0571 22.3064 27.7859 21.6497 27.3897 21.0689C26.9935 20.4882 26.4808 19.9962 25.8843 19.6242C25.2878 19.2521 24.6204 19.0082 23.9246 18.9078ZM21.1317 7.97613H18.1246C17.5479 7.97553 16.9951 7.74619 16.5873 7.33843C16.1796 6.93067 15.9502 6.37779 15.9496 5.80113V2.77992L21.1317 7.97613ZM4.34961 27.55C3.77295 27.5494 3.22008 27.3201 2.81231 26.9123C2.40455 26.5045 2.17521 25.9517 2.17461 25.375V3.625C2.17521 3.04834 2.40455 2.49547 2.81231 2.08771C3.22008 1.67994 3.77295 1.4506 4.34961 1.45H14.4996V5.8C14.4996 6.76141 14.8815 7.68344 15.5613 8.36326C16.2412 9.04308 17.1632 9.425 18.1246 9.425H22.4746V18.9078C21.5383 19.0423 20.6583 19.4362 19.9342 20.0448C19.2101 20.6535 18.6708 21.4527 18.3773 22.3519C18.0838 23.2512 18.0478 24.2146 18.2734 25.1332C18.499 26.0519 18.9772 26.889 19.6539 27.55H4.34961ZM23.1996 27.55C22.4827 27.55 21.7818 27.3374 21.1857 26.9391C20.5895 26.5408 20.1249 25.9746 19.8505 25.3122C19.5762 24.6498 19.5044 23.921 19.6443 23.2178C19.7841 22.5146 20.1294 21.8687 20.6363 21.3617C21.1433 20.8548 21.7892 20.5095 22.4924 20.3697C23.1956 20.2298 23.9245 20.3016 24.5868 20.5759C25.2492 20.8503 25.8154 21.3149 26.2137 21.9111C26.612 22.5072 26.8246 23.208 26.8246 23.925C26.8236 24.8861 26.4413 25.8075 25.7617 26.4871C25.0821 27.1667 24.1607 27.549 23.1996 27.55Z" fill="white"/>
<path d="M23.7136 21.9624C23.7028 21.9517 23.6903 21.9443 23.679 21.9347C23.6677 21.925 23.6535 21.9132 23.6399 21.903C23.592 21.8651 23.5395 21.8335 23.4836 21.8089L23.4785 21.8055C23.4193 21.7821 23.3572 21.7667 23.2939 21.7597L23.2468 21.7551C23.1853 21.7503 23.1235 21.7534 23.0628 21.7642L23.052 21.7676C22.9948 21.7797 22.9392 21.7987 22.8866 21.8242C22.8719 21.8316 22.8583 21.8384 22.8441 21.8469C22.7879 21.8776 22.7361 21.9157 22.6901 21.9602L21.2401 23.4102C21.1074 23.5468 21.0338 23.7301 21.0352 23.9206C21.0366 24.111 21.1128 24.2933 21.2475 24.4279C21.3822 24.5626 21.5644 24.6389 21.7549 24.6403C21.9453 24.6416 22.1286 24.568 22.2653 24.4354L22.4777 24.223V25.375C22.4777 25.5673 22.554 25.7517 22.69 25.8877C22.826 26.0236 23.0104 26.1 23.2027 26.1C23.3949 26.1 23.5794 26.0236 23.7153 25.8877C23.8513 25.7517 23.9277 25.5673 23.9277 25.375V24.2252L24.1401 24.4376C24.2767 24.5703 24.46 24.6439 24.6505 24.6425C24.8409 24.6411 25.0232 24.5649 25.1578 24.4302C25.2925 24.2955 25.3688 24.1133 25.3702 23.9228C25.3716 23.7324 25.298 23.5491 25.1653 23.4124L23.7136 21.9624Z" fill="white"/>
</svg>
