<svg width="23" height="22" viewBox="0 0 23 22" fill="none" xmlns="http://www.w3.org/2000/svg">
<path fill-rule="evenodd" clip-rule="evenodd" d="M23 7C23 7.55228 22.5523 8 22 8C21.4477 8 21 7.55228 21 7V2L16 2C15.4477 2 15 1.55228 15 0.999999C15 0.447715 15.4477 0 16 0H22C22.5523 0 23 0.447715 23 1V7ZM0 15C0 14.4477 0.447715 14 1 14C1.55228 14 2 14.4477 2 15V20H7C7.55228 20 8 20.4477 8 21C8 21.5523 7.55228 22 7 22H1C0.447715 22 0 21.5523 0 21V15ZM8 1C8 0.447716 7.55228 0 7 0H1C0.447715 0 0 0.447716 0 1V7C0 7.55229 0.447715 8 1 8C1.55228 8 2 7.55229 2 7L2 2L7 2C7.55228 2 8 1.55229 8 1ZM16 22C15.4477 22 15 21.5523 15 21C15 20.4477 15.4477 20 16 20L21 20L21 15C21 14.4477 21.4477 14 22 14C22.5523 14 23 14.4477 23 15V21C23 21.5523 22.5523 22 22 22H16Z" fill="#FFF774"/>
</svg>
