<svg width="24" height="30" viewBox="0 0 24 30" fill="none" xmlns="http://www.w3.org/2000/svg">
<path d="M9.52473 28.9014L8.2699 25.9756L7.56445 29.6601H7.95651L8.40058 27.3091H8.42723L9.52473 29.7908L10.6489 27.3091H10.6755L11.1196 29.6601H11.5116L10.8062 25.9756L9.52473 28.9014Z" fill="#979797"/>
<path d="M5.78752 26.001L4.16602 29.6589H4.61009L5.02879 28.6667H6.51961L6.91166 29.6589H7.35574L5.78752 26.001ZM5.18485 28.3L5.78625 26.9158L6.36101 28.3H5.18485Z" fill="#979797"/>
<path d="M2.65 27.9101V28.2755H3.6701C3.6701 28.9023 3.04332 29.3464 2.44192 29.3464C2.07524 29.3464 1.70983 29.1637 1.44846 28.9023C1.18709 28.6409 1.02976 28.3009 1.02976 27.9355C1.02976 27.1514 1.65654 26.4726 2.46729 26.4726C2.99003 26.4726 3.38209 26.7073 3.6701 27.126L3.95811 26.8646C3.56479 26.3939 3.0687 26.1072 2.46729 26.1072C1.47384 26.1072 0.663086 26.9179 0.663086 27.9101C0.663086 28.9036 1.47384 29.7131 2.44065 29.7131C2.93674 29.7131 3.40746 29.5037 3.7475 29.1383C4.06089 28.7716 4.11417 28.3808 4.08753 27.9101H2.65Z" fill="#979797"/>
<path d="M23.7193 26.9426V26.1584H21.7324V29.659H23.7193V28.8749H22.6218V28.2748H23.6673V27.5173H22.6218V26.9426H23.7193Z" fill="#979797"/>
<path d="M12.2444 26.6292C11.9044 26.9946 11.7217 27.4387 11.7217 27.9094C11.7217 28.4321 11.9044 28.8762 12.2964 29.2416C12.6365 29.555 13.1072 29.7377 13.6033 29.7377C13.8647 29.7377 14.0994 29.6844 14.3874 29.5804V28.5095C14.2047 28.7176 13.9167 28.8749 13.6033 28.8749C13.0539 28.8749 12.6618 28.4829 12.6618 27.9081C12.6618 27.3854 13.0539 26.9413 13.6033 26.9413C13.9167 26.9413 14.2047 27.0986 14.3874 27.3333L14.3887 26.2638C14.1273 26.1331 13.8647 26.0811 13.5779 26.0811C13.0805 26.0811 12.5845 26.2891 12.2444 26.6292Z" fill="#979797"/>
<path d="M21.1333 27.2293C21.1333 26.4985 20.6105 26.1584 19.9305 26.1584H18.5703V29.659H19.4597V28.3002H19.4851L20.3212 29.659H21.472L20.3745 28.2215C20.8719 28.1441 21.1333 27.7254 21.1333 27.2293ZM19.5625 27.7267H19.4585V26.8639H19.5625C19.8492 26.8639 20.1893 26.9159 20.1893 27.308C20.1893 27.6746 19.8505 27.7267 19.5625 27.7267Z" fill="#979797"/>
<path d="M16.9764 26.1597H15.9829L14.6494 29.6602H15.5909L15.8522 29.0588H17.0817L17.3164 29.6602H18.2832L16.9764 26.1597ZM16.0869 28.3534L16.4536 27.2559H16.479L16.8457 28.3534H16.0869Z" fill="#979797"/>
<path d="M12.556 11.6333L13.3148 12.9402C15.171 12.8882 17.0272 12.9135 18.8835 13.0442C16.6352 14.2724 13.9948 15.7087 12.1652 16.4408C11.9039 16.5448 11.6425 16.6501 11.3545 16.7808V18.401C11.9026 18.1904 12.4 17.9544 12.9227 17.7463C14.4655 17.0929 15.9551 16.3355 17.4193 15.526C15.8764 17.3543 14.4123 18.9745 13.7068 20.2281L14.4656 21.5083C15.3803 19.9667 22.1633 13.4515 22.1633 11.9797C21.8588 11.4468 15.223 11.608 12.556 11.6333Z" fill="#979797"/>
<path d="M0.566406 0.589844V25.0786H23.9996V0.589844H0.566406ZM11.3549 7.29537C10.8575 7.53009 10.3881 7.76482 9.89069 8.05283C6.38758 10.0118 4.00862 13.6697 4.19132 17.6144C6.41296 18.8679 9.10532 17.7184 11.3536 16.7783V18.3985C9.26265 19.2334 7.01436 19.8868 4.89676 18.9986C4.40067 18.4772 3.98197 17.9278 3.7206 17.353L3.69396 17.301C3.45923 16.7783 3.32855 16.2301 3.38057 15.6554C3.61656 12.6509 4.92341 9.88242 7.38104 7.94879C8.63587 6.98325 9.96936 6.25116 11.3549 5.6764V7.29537ZM23.4413 24.5204H11.3549V7.29664C14.4659 5.91112 17.8117 5.41503 21.1321 5.07499L20.3734 3.79479C17.3143 4.10818 14.2299 4.52688 11.3549 5.6764V1.14811H23.4413V24.5204Z" fill="#979797"/>
</svg>
