<svg width="48" height="59" viewBox="0 0 48 59" fill="none" xmlns="http://www.w3.org/2000/svg">
<path d="M46.993 16.7017C47.2714 15.7316 47.0208 12.1283 44.9607 9.91089L43.7079 10.7147L43.6523 10.6038C43.1233 11.1582 42.4273 12.2115 41.7035 13.3202C41.1467 13.2924 40.6177 13.4865 40.2001 13.8745C39.0587 15.0386 38.14 15.399 36.748 15.1495C36.6923 15.1495 36.6645 15.1218 36.6088 15.1218C35.189 18.2539 32.6278 22.6056 28.424 25.5159C28.3961 25.5159 28.3961 25.5436 28.3683 25.5436C28.0064 25.7654 27.6723 25.9871 27.3104 26.2089L27.2825 26.2366C26.1411 26.9849 24.944 27.7056 23.7191 28.4817C21.3527 29.9507 18.9028 31.4752 16.62 33.0274C7.54424 39.1807 0.862721 44.8905 0.0275317 46.9694C-0.167346 47.4683 1.75359 52.9009 1.97631 53.3721C2.19902 53.8433 2.64446 54.2037 3.14557 54.3422L17.8449 58.6108C18.8193 58.8879 19.8494 58.3336 20.1556 57.3635C22.0765 50.9053 24.6935 46.0824 33.6857 37.8503C43.179 29.0638 46.4362 18.6974 46.993 16.7017ZM34.0197 24.9616L34.0476 24.9061C34.0754 24.9061 34.1033 24.9061 34.1311 24.9061C34.0754 24.9338 34.0476 24.9338 34.0197 24.9616Z" fill="url(#paint0_linear)"/>
<path d="M30.7069 12.3507C29.4541 11.5192 28.1456 10.66 26.5031 9.93931C23.5799 8.6643 21.1857 8.44256 19.4875 8.52571C19.6545 7.61103 19.0977 6.66863 18.179 6.41917L14.6712 5.39362C13.6969 5.11644 12.6389 5.67079 12.3606 6.64091L6.40287 15.9263L6.26367 16.4252L6.45855 17.5617C6.45855 17.5617 8.40732 22.2459 8.71356 22.6617C9.15899 23.2438 9.74363 23.7427 10.3283 23.909L11.8873 24.3525C12.6389 24.5742 13.4463 24.297 13.9196 23.6873C15.1167 22.1073 17.483 22.1073 19.2648 22.634C19.8216 22.8003 20.5732 23.0775 21.4363 23.3824C23.1345 24.0199 25.306 24.8237 27.4775 25.2949L31.1801 12.6556C31.0131 12.5725 30.8739 12.4616 30.7069 12.3507ZM13.9474 12.3785L15.0053 8.74745L16.0911 9.05234L15.9519 9.55126C15.8127 9.99474 15.8683 10.4382 16.0354 10.854L13.9474 12.3785Z" fill="url(#paint1_linear)"/>
<path d="M43.8748 10.6593L39.8103 9.46743C38.3069 11.1028 36.8036 11.6848 34.827 11.3245C30.0942 10.493 28.1176 7.72121 24.1922 6.03044C18.847 3.72988 15.5898 5.19891 15.5898 5.19891L16.3414 2.64889L12.249 1.45703L7.79467 16.7017L10.857 17.5887C12.4439 15.3158 15.4784 15.0664 18.0118 15.8148C20.1276 16.4245 24.4706 18.4479 28.2011 18.7805C29.4261 18.8914 30.5397 18.8637 31.5419 18.7805C26.8648 22.1621 20.9628 25.4605 15.8125 28.9529C6.15213 35.522 1.55859 47.4129 1.55859 47.4129L16.8704 51.8477C18.7913 45.2509 21.3526 40.1231 30.9294 31.3366C41.1187 21.9681 43.8748 10.6593 43.8748 10.6593Z" fill="url(#paint2_linear)"/>
<path opacity="0.3" d="M45.5449 11.6575C45.8233 10.6873 45.4614 10.0221 44.487 9.74494L41.1184 9.30145C40.4503 9.10743 39.7264 9.30145 39.2532 9.80037C38.1117 10.9645 37.193 11.3248 35.801 11.0754C33.212 10.6319 31.5973 9.55091 29.732 8.30362C28.4792 7.47209 27.1986 6.61284 25.5282 5.89219C22.6051 4.61718 20.2108 4.36772 18.5126 4.47859C18.6797 3.56391 18.1229 2.62151 17.2042 2.37205L13.6964 1.3465C12.722 1.06932 11.6641 1.62367 11.3857 2.59379L7.09837 17.2564C6.81998 18.2265 7.37677 19.2798 8.35116 19.557L10.9124 20.3054C11.6641 20.5271 12.4714 20.2499 12.9169 19.6401C14.114 18.0602 16.4803 18.0602 18.2621 18.5869C18.8189 18.7532 19.5427 19.0303 20.4336 19.3352C22.3823 20.0559 24.9714 20.9983 27.4492 21.4418C25.9458 22.4119 24.359 23.4097 22.7443 24.4076C20.3779 25.8766 17.928 27.4011 15.6451 28.9533C6.56942 35.1343 1.80884 45.7224 0.945815 47.8012C0.750937 48.2724 -0.0285726 47.6349 0.221984 48.1061C0.444701 48.5773 1.9202 49.686 2.42132 49.8246L16.2576 54.3703C17.761 54.8138 19.0416 54.0931 19.3478 53.0953C21.2688 46.6094 23.7186 42.0083 32.7108 33.7484C42.2042 25.0173 44.9881 13.6531 45.5449 11.6575ZM30.5672 31.4756C21.6585 39.6523 18.5683 44.8909 16.536 51.2105L4.39793 47.6904C5.98479 44.3088 10.2443 36.3816 17.399 31.5033C19.6541 29.9788 22.0761 28.482 24.4146 27.013C27.0872 25.35 29.8712 23.6315 32.3211 21.913C32.9892 21.4418 33.2676 20.5825 33.0171 19.8064C32.7387 19.0303 32.0149 18.5037 31.1797 18.5314C30.4837 18.5591 29.7877 18.5314 29.0639 18.476C26.5861 18.2542 23.663 17.1733 21.5471 16.3972C20.6284 16.0646 19.8211 15.7597 19.1808 15.5656C16.6195 14.8173 13.2509 14.8727 11.0516 17.0624L10.467 16.8961L14.0583 4.64489L15.144 4.94979L15.0048 5.44871C14.81 6.08621 15.0048 6.77915 15.4503 7.27807C15.9235 7.74927 16.6195 7.94329 17.2598 7.77699C18.1507 7.52753 20.6284 7.13948 24.3033 8.71938C25.6953 9.32917 26.8088 10.0775 28.0059 10.8536C29.9826 12.1841 32.0427 13.5423 35.2721 14.0966C37.4436 14.4847 39.281 13.958 40.9514 12.4613L42.6496 12.9602C41.5638 16.2863 38.2509 24.4353 30.5672 31.4756Z" fill="#FF0637"/>
<path d="M14.6989 52.2915L2.86709 48.3279C2.36597 48.1893 1.58646 48.3556 1.36375 47.8844C1.14103 47.4132 0.389359 47.635 0.612076 47.1361C1.47511 45.0849 6.20784 34.4691 15.3114 28.3158C17.5943 26.7636 20.0441 25.2391 22.4105 23.7701C24.0252 22.7445 25.6121 21.7744 27.1154 20.8043C24.6098 20.3885 22.0486 19.4461 20.0998 18.6978C19.2368 18.3652 18.4851 18.088 17.9283 17.9494C16.1188 17.4228 13.7802 17.4228 12.5831 19.0027C12.1098 19.6124 11.3025 19.8896 10.5787 19.6679L8.01742 18.9195C7.04303 18.6423 6.4584 17.5891 6.76464 16.6189L11.0241 1.95632C11.3025 0.986204 12.3604 0.404134 13.3348 0.709028L16.8426 1.73458C17.7613 2.01176 18.3181 2.92644 18.1511 3.84112C19.8771 3.75797 22.2435 4.00743 25.1666 5.25472C26.8092 5.97538 28.1176 6.83462 29.3704 7.66615C31.2357 8.91345 32.8782 9.99443 35.4395 10.4379C36.8315 10.6874 37.7502 10.327 38.8916 9.1629C39.3649 8.66399 40.0887 8.46996 40.7568 8.66399L44.376 9.71726C45.3504 9.99443 44.6544 10.9091 44.376 11.8792C43.8192 13.8749 41.1466 22.606 31.6254 31.3647C22.6332 39.6246 21.0464 41.7311 19.1254 48.217C18.847 49.1872 15.6733 52.5964 14.6989 52.2915ZM4.06419 47.0529L16.2023 50.573C18.2346 44.2534 21.3248 39.0148 30.2335 30.8381C37.9172 23.7978 41.2023 15.6488 42.3159 12.3504L40.6176 11.8515C38.9194 13.3483 37.1099 13.8749 34.9384 13.4869C31.709 12.9325 29.1477 11.408 27.1711 10.0776C25.974 9.27378 24.8604 8.5254 23.4684 7.94333C19.7658 6.39114 17.7891 6.91778 16.8983 7.16723C16.258 7.33354 15.562 7.16723 15.0887 6.66832C14.6154 6.19712 14.4484 5.50418 14.6433 4.83895L14.7825 4.34004L13.6967 4.03514L10.0776 16.2863L10.6622 16.4526C12.8615 14.2629 16.2301 14.2075 18.7914 14.9559C19.4317 15.1499 20.239 15.4271 21.1577 15.7874C23.3014 16.5635 26.2245 17.6445 28.6744 17.8662C29.3983 17.9217 30.0943 17.9494 30.7902 17.9217C31.6254 17.894 32.3493 18.3929 32.6277 19.1967C32.8782 19.9728 32.5998 20.832 31.9317 21.3032C29.4818 23.0217 26.7257 24.7402 24.0252 26.4033C21.6867 27.8723 19.2646 29.3691 17.0096 30.8935C9.91052 35.7441 5.62321 43.6713 4.06419 47.0529Z" fill="url(#paint3_linear)"/>
<path d="M45.3227 11.3524C45.601 10.3823 45.0164 9.35676 44.042 9.07958L40.4229 8.02631C39.7547 7.83229 39.0309 8.02631 38.5576 8.52523C37.4162 9.68937 36.4975 10.0497 35.1055 9.80024C32.5164 9.35676 30.9017 8.27577 29.0365 7.02847C27.7837 6.19695 26.5031 5.3377 24.8327 4.61704C21.9095 3.34203 19.5153 3.09257 17.8171 3.20344C17.9841 2.28876 17.4273 1.34636 16.5086 1.0969L12.973 0.0713503C11.9986 -0.205826 10.9407 0.348527 10.6623 1.31864L6.37499 15.9813C6.0966 16.9514 6.65339 18.0047 7.62778 18.2818L10.189 19.0302C10.9407 19.2519 11.748 18.9748 12.1935 18.365C13.3906 16.7851 15.757 16.7851 17.5387 17.3117C18.0955 17.478 18.8193 17.7552 19.7102 18.0601C21.659 18.7807 24.248 19.7231 26.7258 20.1666C25.2224 21.1367 23.6356 22.1346 22.0209 23.1324C19.6545 24.6014 17.2046 26.1259 14.9218 27.6781C5.87388 33.8314 1.1133 44.4473 0.250274 46.4984C0.0553967 46.9696 0.0553967 47.5239 0.278114 47.9951C0.500831 48.4663 0.918425 48.8267 1.44738 48.9652L16.1467 53.2615C17.1211 53.5386 18.1512 52.9843 18.4574 52.0142C20.3783 45.5283 22.9953 40.7331 31.9875 32.501C41.5086 23.7422 44.7659 13.3481 45.3227 11.3524ZM29.8717 30.2004C20.963 38.3771 17.8728 43.6157 15.8405 49.9354L3.70239 46.4152C5.28925 43.0337 9.54871 35.1064 16.7035 30.2281C18.9585 28.7037 21.3806 27.2069 23.7191 25.7379C26.3917 24.0748 29.1757 22.3563 31.6255 20.6378C32.2937 20.1666 32.5721 19.3074 32.3215 18.5313C32.0431 17.7552 31.3193 17.2286 30.4841 17.2563C29.7881 17.284 29.0921 17.2563 28.3683 17.2008C25.8906 16.9791 22.9674 15.8981 20.8516 15.122C19.9329 14.7894 19.1256 14.4845 18.4852 14.2905C15.8962 13.5698 12.5276 13.6253 10.3282 15.815L9.74359 15.6487L13.3349 3.39747L14.4207 3.70236L14.2815 4.20128C14.0866 4.83878 14.2815 5.53172 14.7269 6.03064C15.2002 6.50184 15.8962 6.69586 16.5365 6.52956C17.4273 6.2801 19.9051 5.89205 23.5799 7.47196C24.9719 8.08174 26.0855 8.83012 27.2826 9.60621C29.2592 10.9367 31.3193 12.2948 34.5487 12.8492C36.7202 13.2372 38.5576 12.7106 40.228 11.2138L41.9262 11.7128C40.8405 15.0112 37.5554 23.1601 29.8717 30.2004Z" fill="url(#paint4_linear)"/>
<path opacity="0.5" d="M12.8332 0.570267L16.3409 1.59582C17.2597 1.873 17.8164 2.78768 17.6494 3.70236C19.3755 3.61921 21.7418 3.86866 24.665 5.11596C26.3075 5.83662 27.616 6.69586 28.8688 7.52739C30.734 8.77468 32.3766 9.85567 34.9378 10.2992C36.3298 10.5486 37.2485 10.1883 38.3899 9.02414C38.8632 8.52523 39.587 8.3312 40.2552 8.52523L43.8744 9.5785C44.8487 9.85567 45.4055 10.8812 45.155 11.8513V11.8791C45.2107 11.6573 45.2663 11.491 45.2942 11.3524C45.5726 10.3823 44.9879 9.35676 44.0136 9.07958L40.3944 8.02631C39.7262 7.83229 39.0024 8.02631 38.5291 8.52523C37.3877 9.68937 36.469 10.0497 35.077 9.80024C32.4879 9.35676 30.8732 8.27577 29.008 7.02847C27.7552 6.19695 26.4746 5.3377 24.8042 4.61704C21.881 3.34203 19.4868 3.09257 17.7886 3.20344C17.9556 2.28876 17.3989 1.34636 16.4801 1.0969L12.9723 0.0713503C11.998 -0.205826 10.9401 0.348527 10.6617 1.31864L10.5225 1.81756C10.8287 0.847444 11.8588 0.265374 12.8332 0.570267Z" fill="white"/>
<path opacity="0.5" d="M21.9093 23.6312C23.524 22.6057 25.1108 21.6355 26.6142 20.6654C26.4471 20.6377 26.2801 20.61 26.1131 20.5823C24.8046 21.4138 23.4405 22.273 22.0485 23.16C19.6821 24.6013 17.2601 26.1258 14.9494 27.678C5.76228 33.8867 1.0017 44.4749 0.25003 46.4983C0.194351 46.6368 0.166512 46.7754 0.138672 46.914C1.05738 44.6966 5.81796 34.2471 14.8102 28.1492C17.093 26.6247 19.5429 25.1002 21.9093 23.6312Z" fill="white"/>
<path opacity="0.5" d="M10.1613 16.3136C12.3606 14.1239 15.7292 14.0685 18.2905 14.8168C18.9308 15.0109 19.7381 15.288 20.6568 15.6484C22.8005 16.4245 25.7236 17.5055 28.1735 17.7272C28.8974 17.7826 29.5934 17.8104 30.2893 17.7826C31.1245 17.7549 31.8484 18.2538 32.1268 19.0576C32.2103 19.3348 32.2381 19.6397 32.2103 19.8892C32.4052 19.4734 32.433 19.0022 32.266 18.5587C31.9876 17.7826 31.2637 17.256 30.4285 17.2837C29.7326 17.3114 29.0366 17.2837 28.3127 17.2283C25.835 17.0065 22.9118 15.9256 20.796 15.1495C19.8773 14.8168 19.07 14.512 18.4297 14.3179C15.8962 13.5696 12.5277 13.625 10.3283 15.8147L9.74369 15.6484L9.60449 16.1473L10.1613 16.3136Z" fill="white"/>
<path d="M15.8398 49.9354L3.78522 46.4429C3.7017 46.6092 3.61818 46.7756 3.5625 46.9141L15.6727 50.4343C17.705 44.1147 20.7952 38.876 29.7039 30.6993C37.3877 23.6591 40.6727 15.5101 41.7863 12.2117H41.7585C40.5057 15.7595 37.1649 23.4927 29.8431 30.2281C20.9623 38.4048 17.8721 43.6157 15.8398 49.9354Z" fill="white"/>
<defs>
<linearGradient id="paint0_linear" x1="0.709675" y1="53.9367" x2="53.1737" y2="20.5289" gradientUnits="userSpaceOnUse">
<stop stop-color="#FF0637"/>
<stop offset="0.1692" stop-color="#C90000"/>
<stop offset="0.2385" stop-color="#FF0637"/>
<stop offset="0.3051" stop-color="#FF3C3C"/>
<stop offset="0.4487" stop-color="#FF0637"/>
<stop offset="0.6821" stop-color="#FF0637"/>
<stop offset="1" stop-color="#C80027"/>
</linearGradient>
<linearGradient id="paint1_linear" x1="7.6368" y1="18.1424" x2="13.7514" y2="16.8084" gradientUnits="userSpaceOnUse">
<stop stop-color="#EE0426"/>
<stop offset="0.3026" stop-color="#87132F"/>
<stop offset="0.5513" stop-color="#FF0637"/>
<stop offset="0.6795" stop-color="#FF0637"/>
<stop offset="1" stop-color="#D90303"/>
</linearGradient>
<linearGradient id="paint2_linear" x1="11.651" y1="50.957" x2="27.6173" y2="7.07403" gradientUnits="userSpaceOnUse">
<stop stop-color="#FF0637"/>
<stop offset="0.2564" stop-color="#D70202"/>
<stop offset="0.8205" stop-color="#FF0637"/>
</linearGradient>
<linearGradient id="paint3_linear" x1="80.3737" y1="45.772" x2="69.1914" y2="42.4962" gradientUnits="userSpaceOnUse">
<stop stop-color="#C10100"/>
<stop offset="1" stop-color="#AC041A"/>
</linearGradient>
<linearGradient id="paint4_linear" x1="28.0274" y1="6.22631" x2="14.8428" y2="51.6296" gradientUnits="userSpaceOnUse">
<stop stop-color="#FFE3E9"/>
<stop offset="0.2351" stop-color="white"/>
<stop offset="0.7459" stop-color="#CBACB2"/>
<stop offset="1" stop-color="#AE8991"/>
</linearGradient>
</defs>
</svg>
