<svg width="37" height="38" viewBox="0 0 37 38" fill="none" xmlns="http://www.w3.org/2000/svg">
<path fill-rule="evenodd" clip-rule="evenodd" d="M27.5772 9.80762C27.1866 9.4171 26.5535 9.4171 26.1629 9.80762L18.3848 17.5858L10.6066 9.80762C10.2161 9.4171 9.5829 9.4171 9.19238 9.80762C8.80185 10.1981 8.80185 10.8313 9.19238 11.2218L16.9706 19L9.19238 26.7782C8.80185 27.1687 8.80185 27.8019 9.19238 28.1924C9.5829 28.5829 10.2161 28.5829 10.6066 28.1924L18.3848 20.4142L26.1629 28.1924C26.5535 28.5829 27.1866 28.5829 27.5772 28.1924C27.9677 27.8019 27.9677 27.1687 27.5772 26.7782L19.799 19L27.5772 11.2218C27.9677 10.8313 27.9677 10.1981 27.5772 9.80762Z" fill="#FFF774"/>
</svg>
