<svg width="29" height="31" viewBox="0 0 29 31" fill="none" xmlns="http://www.w3.org/2000/svg">
<g clip-path="url(#clip0)">
<path d="M26.1553 13.8945H2.81466C2.57015 13.8945 2.37207 14.108 2.37207 14.3712V29.1603C2.37207 29.4235 2.57015 29.6369 2.81466 29.6369H26.1553C26.3998 29.6369 26.5979 29.4235 26.5979 29.1603V14.3712C26.5979 14.1079 26.3997 13.8945 26.1553 13.8945Z" fill="#0FFFA9"/>
<path d="M26.1553 13.8945H2.81466C2.57015 13.8945 2.37207 14.108 2.37207 14.3712V16.2778H26.5979V14.3712C26.5979 14.1079 26.3997 13.8945 26.1553 13.8945Z" fill="#0FDD93"/>
<path d="M16.745 13.8945H12.2229C11.9784 13.8945 11.7803 14.108 11.7803 14.3712V29.1603C11.7803 29.4235 11.9784 29.6369 12.2229 29.6369H16.745C16.9894 29.6369 17.1876 29.4235 17.1876 29.1603V14.3712C17.1876 14.1079 16.9894 13.8945 16.745 13.8945Z" fill="#FFF500"/>
<path d="M16.745 13.8945H12.2229C11.9784 13.8945 11.7803 14.108 11.7803 14.3712V16.2676H17.1876V14.3712C17.1876 14.1079 16.9894 13.8945 16.745 13.8945Z" fill="#CCC40D"/>
<path d="M25.2924 5.09002C24.8584 3.87185 24.1737 2.68209 23.4607 1.9073C23.1991 1.62305 22.8468 1.47896 22.4457 1.48821C21.1169 1.52152 18.9515 3.31762 16.0097 6.82657C15.9362 6.91412 15.8955 7.02797 15.8955 7.14601V9.6672C15.8955 9.93045 16.0936 10.1438 16.3381 10.1438H23.1462C24.6632 10.1438 25.2893 9.34905 25.5473 8.68227C25.8916 7.79345 25.801 6.51761 25.2924 5.09002Z" fill="#FFF500"/>
<path d="M25.3151 6.05836C25.3027 6.00942 25.2832 5.9629 25.2572 5.92063C24.5888 4.8324 23.1447 5.23958 22.051 5.77276C18.8735 7.32175 17.5613 9.45546 17.507 9.54549C17.4185 9.69212 17.4118 9.87897 17.4892 10.0326C17.5666 10.1862 17.7159 10.2817 17.8782 10.2817H22.9157C23.8809 10.2817 24.5968 9.96263 25.0433 9.33335C25.5738 8.58574 25.6677 7.45324 25.3151 6.05836Z" fill="#CCC40D"/>
<path d="M12.959 6.82657C10.0172 3.31763 7.85174 1.52153 6.52289 1.48822C6.12081 1.4789 5.76949 1.62306 5.5079 1.9073C4.79497 2.68204 4.11017 3.87185 3.67624 5.09002C3.16768 6.51762 3.07707 7.7934 3.42111 8.68234C3.67919 9.34911 4.30524 10.1439 5.82227 10.1439H12.6304C12.8749 10.1439 13.073 9.93046 13.073 9.66726V7.14602C13.0731 7.02798 13.0325 6.91413 12.959 6.82657Z" fill="#FFF500"/>
<path d="M11.2315 9.40773C11.1772 9.3177 9.86498 7.18394 6.68743 5.635C5.59361 5.10182 4.14956 4.69482 3.48125 5.78281C3.4553 5.82514 3.43575 5.87161 3.42338 5.9206C3.07063 7.31547 3.16469 8.44798 3.69515 9.19553C4.14162 9.82481 4.85746 10.1439 5.82279 10.1439H10.8603C11.0226 10.1439 11.1718 10.0483 11.2492 9.89474C11.3267 9.7412 11.3199 9.55436 11.2315 9.40773Z" fill="#CCC40D"/>
<path d="M16.3387 6.19775H12.6311C12.3866 6.19775 12.1885 6.41119 12.1885 6.67439V9.66678C12.1885 9.93004 12.3866 10.1434 12.6311 10.1434H16.3387C16.5833 10.1434 16.7813 9.92998 16.7813 9.66678V6.67439C16.7813 6.41113 16.5833 6.19775 16.3387 6.19775Z" fill="#FFF500"/>
<path d="M28.0574 9.19043H0.911337C0.66683 9.19043 0.46875 9.40386 0.46875 9.66706V14.3705C0.46875 14.6337 0.66683 14.8471 0.911337 14.8471H28.0574C28.3019 14.8471 28.5 14.6337 28.5 14.3705V9.66706C28.5 9.40381 28.3019 9.19043 28.0574 9.19043Z" fill="#0FFFA9"/>
<path d="M17.8845 9.19043H11.085V14.8472H17.8845V9.19043Z" fill="#FFF500"/>
</g>
<defs>
<clipPath id="clip0">
<rect x="0.46875" y="0.46875" width="28.0312" height="30.1875" rx="5.03125" fill="white"/>
</clipPath>
</defs>
</svg>
