<svg width="47" height="39" viewBox="0 0 47 39" fill="none" xmlns="http://www.w3.org/2000/svg">
<path d="M42.3927 28.9272L46.9999 25.2889L42.9463 23.4428L43.0891 23.0665C43.0891 23.0665 41.3034 21.6147 38.1963 20.1271L38.6427 18.066L38.7141 17.7613L39.732 13.0297L37.0534 10.628L35.732 10.5205C35.857 10.2337 35.9284 9.8932 35.9106 9.4989C35.857 7.02556 34.8391 3.69192 31.0891 4.44467C30.3391 4.58806 29.7141 4.8569 29.1249 5.2512C28.107 5.57381 27.0713 7.4557 26.8213 7.9217C26.8391 6.4341 26.5891 4.51637 25.3927 3.51269C23.1784 1.64872 19.3034 3.74569 19.3391 3.79945C19.0891 3.92491 18.9463 3.9966 18.9463 3.9966C18.5177 4.2296 18.107 4.67767 17.7856 5.39458C17.6427 5.69927 17.4999 6.0398 17.3927 6.45203C17.3927 6.46995 17.3927 6.46995 17.3927 6.46995V6.45203C17.357 6.57749 17.3391 6.70295 17.3034 6.82841C17.2141 7.25855 17.2499 7.63493 17.3749 7.99339C17.3749 7.99339 17.3749 8.01131 17.3927 8.06508C17.3927 8.06508 17.3927 8.083 17.4106 8.083V8.10092C17.482 8.28015 17.5891 8.44146 17.7141 8.60276C17.8034 8.72822 17.9284 8.87161 18.0891 9.03291L14.4999 8.78199L10.5534 11.0403L11.9284 19.0338C10.232 19.5894 8.44629 20.2884 6.57129 21.1846L6.732 21.6506L2.44629 23.1919L7.08915 27.5472L5.92843 36.634L10.7677 34.1607L10.9641 34.77C10.9641 34.77 11.9999 34.0531 14.2677 33.3362L14.5713 35.1106C14.6249 35.0927 14.6606 35.0747 14.7141 35.0568L15.2499 38.1754L22.9284 38.498V38.5338L27.107 38.7131V38.6772L34.107 38.9819L34.7677 35.8992C34.7677 35.8992 34.7677 35.8992 34.7856 35.8992L35.2141 33.9456C37.232 34.6984 38.3927 35.3973 38.3927 35.3973L38.6249 34.788L42.732 37.3509L42.3927 28.9272ZM20.1963 7.99339C19.982 7.25855 20.4999 5.98603 21.3213 4.92859C21.4463 4.96444 21.5713 5.00028 21.6784 5.03613C22.1784 5.4842 22.5713 5.95019 22.7141 6.14734C22.9463 6.48787 23.4999 7.36609 23.9106 8.13677C24.0713 8.4773 24.232 8.81784 24.3391 9.1046C24.0177 9.23006 23.7499 9.35552 23.5534 9.51683L23.0891 9.48098C21.7677 9.19422 20.4284 8.72822 20.1963 7.99339ZM31.6963 10.1979L28.3391 9.91113V9.8932L27.3391 9.80359C27.5713 9.62436 27.6963 9.44513 27.6606 9.26591C27.6427 9.21214 27.6249 9.15837 27.5891 9.1046C28.3391 8.38769 29.4999 7.4557 30.732 6.9001C30.982 7.2944 31.2499 7.63493 31.4641 7.86793C31.732 8.85368 31.7141 9.76775 31.6963 10.1979ZM31.7141 10.1979C31.732 10.1083 31.732 10.0007 31.7499 9.91113C31.732 10.0187 31.732 10.1083 31.7141 10.1979Z" fill="#121216"/>
<path d="M7.58887 8.74658L13.4282 35.7025H32.321L36.821 9.53519L7.58887 8.74658Z" fill="url(#paint0_linear)"/>
<path d="M40.3391 19.7148L44.607 21.4534L40.1606 25.2709L40.8749 33.6946L35.3213 30.5402L40.3391 19.7148Z" fill="#13A86F"/>
<path opacity="0.5" d="M23.9826 8.89016C23.9826 8.89016 20.3397 10.1627 18.5361 12.4747C16.7326 14.7868 15.4468 16.812 15.4468 16.812L13.6968 15.1631L10.929 14.6792C10.929 14.6792 10.6968 14.2491 10.9111 13.9802C11.679 12.9228 14.2504 10.5391 18.2504 9.06938C20.3933 8.28078 20.9111 8.89016 23.9826 8.89016Z" fill="#257621"/>
<path opacity="0.5" d="M21.9463 7.38428C21.9463 7.38428 23.9641 9.23032 25.0356 12.8328C26.107 16.4353 26.6606 19.4642 26.6606 19.4642L29.5177 18.3351L33.0356 19.0699C33.0356 19.0699 33.4999 18.6756 33.3927 18.2455C32.982 16.6324 31.0356 12.564 26.9641 8.92564C24.8034 6.97205 25.607 8.85395 21.9463 7.38428Z" fill="#257621"/>
<path d="M7.58887 8.74673L11.446 6.32715L34.0353 7.24121L36.821 9.53533L7.58887 8.74673Z" fill="url(#paint1_linear)"/>
<path d="M20.6962 6.66748L19.1426 9.08706L21.1247 35.7382H25.3033L26.1426 9.28421L25.3033 6.86463L20.6962 6.66748Z" fill="#DDD814"/>
<path d="M11.446 6.32715L7.58887 8.74672L11.8746 8.85426L12.3924 8.58542L8.37458 8.45996L11.446 6.32715Z" fill="url(#paint2_linear)"/>
<path d="M4.625 19.3384L0 21.2382L4.82143 25.3963L4.05357 34.519L10.0893 31.1137L4.625 19.3384Z" fill="#13A86F"/>
<path d="M19.2683 9.66067L19.429 11.7039C19.429 11.7039 21.429 9.73236 22.8933 9.26637C22.8933 9.26637 24.2326 11.6501 24.8218 13.1735C25.4111 14.7149 25.3754 15.0017 25.3754 15.0017L25.929 14.9479L26.1433 11.9548L23.2861 8.78246L20.929 8.56738L19.1611 9.12299L19.2683 9.66067Z" fill="#A59D08"/>
<path d="M23.7675 8.6569C23.7675 8.6569 19.9104 8.85405 17.5354 10.5746C15.1604 12.2952 13.3747 13.8904 13.3747 13.8904L12.1425 11.8113L9.62468 10.5746C9.62468 10.5746 9.51754 10.1086 9.78539 9.89358C10.8211 9.10497 13.9461 7.50984 18.214 7.22308C20.4818 7.0797 20.8211 7.81453 23.7675 8.6569Z" fill="#A59D08"/>
<path d="M24.018 8.65694C24.018 8.65694 20.1609 8.67486 17.7144 10.27C15.2501 11.8651 13.393 13.3706 13.393 13.3706L12.268 11.2378L9.80371 9.87568C9.80371 9.87568 13.143 7.04389 18.5359 6.93635C20.8216 6.91843 21.1073 7.67118 24.018 8.65694Z" fill="#FFFF28"/>
<path opacity="0.3" d="M8.58887 13.3887L36.0174 14.1414L35.946 14.6074L8.69601 13.8905L8.58887 13.3887Z" fill="#257621"/>
<path d="M21.3037 7.90381C21.3037 7.90381 24.1966 9.60647 25.6787 11.7751C27.1609 13.9617 28.1966 15.8615 28.1966 15.8615L29.8751 14.4815L32.393 14.2126C32.393 14.2126 32.6966 14.1409 32.5359 13.8542C31.8394 12.5637 29.1073 10.0545 26.143 8.72826C24.2501 7.90381 24.0716 8.08304 21.3037 7.90381Z" fill="#A59D08"/>
<path d="M21.1426 7.90381C21.1426 7.90381 24.339 9.26594 25.839 11.4346C27.3211 13.6212 28.3569 15.521 28.3569 15.521L30.0354 14.1409L32.5533 13.8721C32.5533 13.8721 30.7497 10.3592 26.3033 8.40565C24.4104 7.56328 23.9104 8.08304 21.1426 7.90381Z" fill="#FFFF28"/>
<path opacity="0.5" d="M35.089 19.6796L32.8747 32.584C30.6783 31.7954 27.1426 30.8455 22.9283 30.953C18.089 31.0605 14.7319 31.885 12.6247 32.6557L9.76758 19.5003C14.3747 17.7439 18.3926 17.2062 22.1069 17.0808C27.5533 16.8836 32.0711 18.3174 35.089 19.6796Z" fill="#257621"/>
<path opacity="0.5" d="M23.6963 9.37402C23.6963 9.37402 25.2141 10.1626 26.6249 12.6539C28.0356 15.1452 28.2141 15.2885 28.2141 15.2885L29.482 14.5896L28.3034 15.3602C28.3034 15.3602 26.6606 10.8258 23.6963 9.37402Z" fill="white"/>
<path d="M4.05371 19.0344L9.00014 32.4407C9.00014 32.4407 13.0894 29.3221 23.2144 29.0891C30.8573 28.9278 36.4644 31.9209 36.4644 31.9209L40.6251 19.375C40.6251 19.375 33.1609 13.7831 22.3394 14.1415C17.0359 14.3387 11.1609 15.3065 4.05371 19.0344Z" fill="#0FFFA9"/>
<path d="M26.4823 8.28076C26.4823 8.28076 27.4644 8.92598 28.2144 9.44574C28.0894 9.46367 27.9466 9.49951 27.7859 9.51743C25.8573 9.76835 24.1609 9.0156 23.3037 8.5496C23.2144 8.58545 22.643 8.72883 22.1251 8.76468C21.768 8.80052 21.393 8.63922 21.2144 8.31661C19.143 8.33453 17.3394 7.97607 16.1787 7.25916L18.9287 6.75732C19.6787 7.00824 20.5894 7.16955 21.3037 7.25916C21.3394 7.20539 21.3751 7.16955 21.393 7.1337L23.393 7.51008L23.4823 7.528L26.4823 8.28076Z" fill="#7A7430"/>
<path d="M16.0177 1.20104C16.0177 1.20104 14.5534 1.64911 14.1248 4.30169C13.6962 6.93634 17.6248 8.15509 22.4284 7.86832L22.7498 6.97218C22.7498 6.97218 17.6248 6.77503 17.1248 5.32329C16.6248 3.85362 19.0534 -0.0535541 21.1248 0.466207C21.107 0.448284 18.1605 0.448284 16.0177 1.20104Z" fill="#A59D08"/>
<path d="M16.661 17.1698C14.7681 17.4207 13.7324 19.0517 14.286 22.3315C14.4288 23.1201 14.6431 23.855 14.9467 24.5002C14.5538 23.8908 13.911 23.622 13.2681 23.5323C13.9824 22.6721 14.1967 21.6325 13.8574 20.5392C12.9824 17.6537 9.01814 19.1592 9.01814 19.1592L7.94671 19.5535L6.85742 19.9657L10.5003 29.8412L12.5003 29.0346C14.6431 28.3357 15.6253 26.9018 15.2503 25.2171C15.2146 25.0916 15.1788 24.9662 15.1431 24.8586C15.8217 26.1312 16.786 26.9018 17.7681 26.7943C19.286 26.6151 20.1788 24.3389 19.9824 21.6684C19.7146 18.2272 18.1788 16.9726 16.661 17.1698ZM10.4646 23.1739L10.4288 23.138L9.69671 21.0769L9.83956 21.0232C9.83956 21.0232 11.2681 20.4855 11.5717 21.525C11.8039 22.224 11.3931 22.8513 10.4646 23.1739ZM11.9289 27.4216L11.1967 25.3605L11.4467 25.2888C11.4467 25.2888 12.8753 24.8586 13.1074 25.8802C13.286 26.5792 12.8574 27.1707 11.9289 27.4216ZM17.4467 24.1238C16.911 24.1776 16.3574 23.2277 16.161 21.9731C15.911 20.4138 16.2681 19.661 16.9288 19.5714C17.4646 19.4997 18.0181 20.1091 18.161 21.7401C18.2503 22.9947 17.9824 24.0521 17.4467 24.1238Z" fill="#FFFF28"/>
<path d="M24.2683 16.3813L24.179 22.0091L22.0718 16.5247L19.7861 16.6143L20.179 26.5615L22.304 26.436L22.1968 21.9553L24.0897 26.3464L25.8576 26.3823L26.554 16.5068L24.2683 16.3813Z" fill="#FFFF28"/>
<path d="M35.4461 23.6217C34.4283 22.8152 34.0176 22.4029 34.1604 21.919C34.1783 21.8294 34.2676 21.5247 34.8569 21.5068C35.6426 21.471 36.6604 21.9907 36.9997 22.9227L38.9819 22.1699C38.2854 20.306 36.4997 19.2665 34.6961 19.374C33.6783 19.4457 32.9104 19.9834 32.4819 20.772L32.964 18.2449L30.7319 17.9581L30.0354 23.1736C29.9104 24.1235 29.6604 25.5932 28.7497 25.5394C27.8033 25.5036 27.8926 24.5895 27.9819 23.9802L28.9104 17.6893L26.8211 17.4204L26.1069 23.4783C26.089 23.5679 26.0711 23.6575 26.0711 23.7472C26.0711 23.7651 26.0711 23.7651 26.0711 23.783C25.8926 25.6111 26.714 26.9912 28.0533 27.1346C28.6426 27.2063 29.1426 26.9733 29.5533 26.6148L29.4461 27.3676L31.1426 27.5826L32.1426 22.4029C32.1961 22.8689 32.3926 23.3349 32.7319 23.7651C33.1426 24.3207 33.714 24.7688 34.1961 25.1631C34.5533 25.4498 35.0176 25.8083 35.1247 26.0233C35.214 26.1847 35.2854 26.6327 35.0176 26.812C34.5176 27.1525 33.6426 27.2063 32.3211 26.2026L31.4104 27.9949C31.4283 28.0486 32.589 28.8014 33.339 28.9448C33.6247 28.9985 33.9104 29.0344 34.1604 29.0344C35.3569 29.0702 36.0711 28.6042 36.4461 28.2099C37.339 27.2779 37.3569 25.9337 36.8926 25.0734C36.589 24.5178 36.0354 24.0877 35.4461 23.6217Z" fill="#FFFF28"/>
<path d="M16.1959 16.5609C14.303 16.8118 13.2673 18.4428 13.8209 21.7227C13.9637 22.5113 14.178 23.2461 14.4816 23.8913C14.0887 23.282 13.4459 23.0131 12.803 22.9235C13.5173 22.0632 13.7316 21.0237 13.3923 19.9304C12.5352 17.0269 8.57087 18.5324 8.57087 18.5324L7.49944 18.9267L6.41016 19.339L10.053 29.2144L12.0352 28.4258C14.178 27.7268 15.1602 26.293 14.7852 24.6083C14.7494 24.4828 14.7137 24.3573 14.678 24.2498C15.3566 25.5223 16.3209 26.293 17.303 26.1855C18.8209 26.0062 19.7137 23.73 19.5173 21.0595C19.2494 17.6004 17.7316 16.3458 16.1959 16.5609ZM9.99944 22.5651L9.96373 22.5292L9.23158 20.4681L9.37444 20.4143C9.37444 20.4143 10.803 19.8766 11.1066 20.9162C11.3387 21.5972 10.928 22.2425 9.99944 22.5651ZM11.4637 26.8128L10.7494 24.7337L10.9994 24.662C10.9994 24.662 12.428 24.2319 12.6602 25.2535C12.8209 25.9525 12.3923 26.5439 11.4637 26.8128ZM16.9816 23.497C16.4459 23.5508 15.8923 22.6009 15.6959 21.3463C15.4459 19.787 15.803 19.0343 16.4637 18.9447C16.9994 18.873 17.553 19.4823 17.6959 21.1133C17.7852 22.3679 17.5173 23.4433 16.9816 23.497Z" fill="#FF009E"/>
<path d="M23.8025 15.772L23.7132 21.3818L21.606 15.9154L19.3203 15.987L19.7132 25.9342L21.8382 25.8087L21.731 21.346L23.6417 25.7191L25.3917 25.7729L26.106 15.8974L23.8025 15.772Z" fill="#FF009E"/>
<path d="M34.9813 22.9952C33.9634 22.1887 33.5527 21.7765 33.6956 21.2926C33.7134 21.203 33.8027 20.8983 34.392 20.8803C35.1777 20.8445 36.1956 21.3643 36.5349 22.2962L38.517 21.5435C37.8206 19.6795 36.0349 18.64 34.2313 18.7475C33.2134 18.8192 32.4456 19.3569 32.017 20.1455L32.4992 17.6184L30.267 17.3316L29.5706 22.5472C29.4456 23.4971 29.1956 24.9667 28.2849 24.913C27.3384 24.8771 27.4277 23.9631 27.517 23.3537L28.4456 17.0628L26.3563 16.7939L25.642 22.8518C25.6242 22.9415 25.6063 23.0311 25.6063 23.1207C25.6063 23.1386 25.6063 23.1386 25.6063 23.1565C25.4277 24.9847 26.2492 26.3647 27.5884 26.5081C28.1777 26.5798 28.6777 26.3468 29.0884 25.9883L28.9813 26.7411L30.6777 26.9562L31.6777 21.7765C31.7313 22.2425 31.9277 22.7085 32.267 23.1386C32.6777 23.6942 33.2492 24.1423 33.7313 24.5366C34.0884 24.8234 34.5527 25.1818 34.6599 25.3969C34.7492 25.5582 34.8206 26.0063 34.5527 26.1855C34.0527 26.526 33.1777 26.5798 31.8563 25.5761L30.9456 27.3684C30.9634 27.4222 32.1242 28.1749 32.8742 28.3183C33.1599 28.3721 33.4456 28.4079 33.6956 28.4079C34.892 28.4438 35.6063 27.9778 35.9813 27.5835C36.8742 26.6515 36.892 25.3073 36.4277 24.447C36.1242 23.9093 35.5706 23.4612 34.9813 22.9952Z" fill="#FF009E"/>
<path d="M21.7676 7.3842C21.7676 7.3842 19.4997 0.788607 15.6426 1.36214C15.6426 1.36214 19.839 -1.14705 22.0711 0.609379C24.3033 2.36581 23.589 7.09743 23.589 7.09743L21.7676 7.3842Z" fill="#FFFF28"/>
<path d="M25.4468 2.54526C25.4468 2.54526 23.1611 4.60638 22.9111 7.7608C22.9111 7.7608 25.4826 9.46346 28.6076 9.105C31.7326 8.74655 32.0183 7.20519 32.0183 7.20519C32.0183 7.20519 24.7504 7.45611 23.429 7.06181C23.429 7.06181 27.679 2.06135 30.8397 3.40556C30.8576 3.38763 28.179 0.107762 25.4468 2.54526Z" fill="#A59D08"/>
<path d="M30.8574 3.38751C27.8396 2.09707 23.7681 6.79284 23.6431 7.1513L23.1074 7.67106C23.1789 4.58833 25.4646 2.54514 25.4646 2.54514C28.1431 0.143481 30.786 3.31582 30.8574 3.38751Z" fill="#A59D08"/>
<path d="M28.4999 9.08694C28.0891 9.14071 27.6784 9.14071 27.2677 9.12279C28.1249 8.63887 29.2499 7.7965 28.4641 5.05431C27.9999 3.40542 26.6427 1.5056 25.4463 2.54512C26.1606 1.93575 26.8749 1.54145 27.8034 1.32637C31.5177 0.412311 32.6784 3.71011 32.8391 6.16553C32.9641 7.90404 31.607 8.74641 28.4999 9.08694Z" fill="#FFFF28"/>
<path d="M14.1963 3.9431C14.1963 3.9431 14.6249 2.18666 15.6427 1.59521C15.9106 1.43391 16.3749 1.34429 16.6963 1.38014C17.8749 1.54144 19.2677 2.99319 19.5534 3.36957C19.9284 3.85348 20.9999 5.46653 21.3034 6.23722C21.3034 6.23722 20.3034 3.42334 18.482 2.09705C17.5891 1.45183 16.7677 1.03961 16.0713 1.21883C15.3034 1.38014 14.607 2.20459 14.1963 3.9431Z" fill="white"/>
<path d="M18.75 7.63545L20.125 6.68555L21.6607 6.90062L21.1964 7.74299C21.2143 7.74299 19.2679 7.77884 18.75 7.63545Z" fill="#A59D08"/>
<path d="M14.2324 5.46631C14.2324 5.46631 14.7324 6.86429 16.8396 7.40197C18.9289 7.92173 21.5181 7.88589 21.5181 7.88589V7.7425C21.5181 7.72458 15.786 8.11888 14.2324 5.46631Z" fill="white"/>
<path d="M23.3029 6.255C23.0529 6.20123 22.3029 6.16538 21.7672 6.48799C21.5707 6.61345 21.1779 6.86437 21.1422 7.41998C21.1065 8.04728 21.6957 8.36989 22.2672 8.33404C22.8743 8.29819 23.5529 8.13689 23.5886 8.11897C23.6422 8.08312 23.8207 8.04728 23.7493 7.41998C23.6957 6.91814 23.4457 6.27292 23.3029 6.255Z" fill="#FFFF28"/>
<path d="M21.161 7.38428C21.161 7.38428 21.1968 7.77858 21.7503 7.85027C23.036 7.99365 23.7325 7.54558 23.7325 7.54558C23.7325 7.54558 23.786 7.90404 23.5718 8.0295C23.3575 8.15496 22.0896 8.33419 21.6789 8.15496C21.3039 7.99365 21.1075 7.70689 21.161 7.38428Z" fill="#A59D08"/>
<path d="M21.1611 7.25888C21.1611 7.25888 21.2326 6.82873 21.6433 6.55989C22.0718 6.27312 23.0004 6.20143 23.2861 6.32689C23.3933 6.38066 23.5004 6.59573 23.5004 6.59573C23.5004 6.59573 22.4826 6.54196 22.0718 6.6495C21.6611 6.73912 21.2504 6.99004 21.1611 7.25888Z" fill="white"/>
<path d="M23.5 8.119C23.5 8.119 25.7143 9.1406 27.25 9.1406C27.6964 9.1406 28.25 8.69253 28.5357 7.79639C28.5357 7.79639 28.0357 8.94345 27.2143 8.99721C25.7679 9.05098 23.5 8.119 23.5 8.119Z" fill="white"/>
<path d="M28.678 7.29432C28.678 7.29432 28.8744 5.21527 27.7852 3.49469C26.6959 1.7741 25.7494 2.24009 25.3209 2.67024C24.8744 3.11831 23.9994 4.40875 23.6602 5.07189C23.6602 5.07189 24.8387 2.4014 26.0352 2.15048C27.2137 1.89956 29.0709 4.2116 28.678 7.29432Z" fill="white"/>
<path opacity="0.5" d="M12.3926 11.5239L13.3747 13.3879C13.3747 13.3879 15.7676 11.5597 16.7854 10.8966C17.8033 10.2335 18.5354 9.78539 19.1426 9.57031C19.1426 9.57031 17.8569 9.98254 16.089 11.1475C14.9283 11.9182 13.3211 13.0653 13.3211 13.0653L12.3926 11.5239Z" fill="white"/>
<path opacity="0.5" d="M4.05371 19.0344C4.05371 19.0344 13.0359 14.5895 23.1073 14.5895C33.1787 14.5895 40.6251 19.3749 40.6251 19.3749C40.6251 19.3749 33.6966 14.1235 23.1073 14.1235C12.518 14.1235 4.05371 19.0344 4.05371 19.0344Z" fill="url(#paint3_linear)"/>
<defs>
<linearGradient id="paint0_linear" x1="16.0638" y1="23.7637" x2="32.4682" y2="17.305" gradientUnits="userSpaceOnUse">
<stop stop-color="#FF2D9E"/>
<stop offset="1" stop-color="#FF009E"/>
</linearGradient>
<linearGradient id="paint1_linear" x1="10.578" y1="6.47745" x2="16.6254" y2="7.36641" gradientUnits="userSpaceOnUse">
<stop stop-color="#FF739E"/>
<stop offset="1" stop-color="#FF009E"/>
</linearGradient>
<linearGradient id="paint2_linear" x1="8.2276" y1="7.34629" x2="9.21268" y2="7.4911" gradientUnits="userSpaceOnUse">
<stop stop-color="#CFF683"/>
<stop offset="1" stop-color="#CBF687"/>
</linearGradient>
<linearGradient id="paint3_linear" x1="4.04984" y1="16.7699" x2="40.6127" y2="16.7699" gradientUnits="userSpaceOnUse">
<stop stop-color="#005E50"/>
<stop offset="0.5054" stop-color="#129C7B"/>
<stop offset="0.6217" stop-color="#109475"/>
<stop offset="0.8047" stop-color="#097D66"/>
<stop offset="1" stop-color="#005E50"/>
</linearGradient>
</defs>
</svg>
