<svg width="39" height="42" viewBox="0 0 39 42" fill="none" xmlns="http://www.w3.org/2000/svg">
<path d="M35.7371 18.6802H3.26323C2.92305 18.6802 2.64746 18.9771 2.64746 19.3433V39.9195C2.64746 40.2857 2.92305 40.5826 3.26323 40.5826H35.7372C36.0774 40.5826 36.353 40.2857 36.353 39.9195V19.3434C36.3529 18.977 36.0772 18.6802 35.7371 18.6802Z" fill="#0FFFA9"/>
<path d="M35.7371 18.6802H3.26323C2.92305 18.6802 2.64746 18.9771 2.64746 19.3433V21.996H36.353V19.3433C36.3529 18.977 36.0772 18.6802 35.7371 18.6802Z" fill="#0FDD93"/>
<path d="M22.6457 18.6802H16.3541C16.0139 18.6802 15.7383 18.9771 15.7383 19.3433V39.9195C15.7383 40.2857 16.0139 40.5826 16.3541 40.5826H22.6457C22.9858 40.5826 23.2615 40.2857 23.2615 39.9195V19.3434C23.2615 18.977 22.9857 18.6802 22.6457 18.6802Z" fill="#FFF500"/>
<path d="M22.6457 18.6802H16.3541C16.0139 18.6802 15.7383 18.9771 15.7383 19.3433V21.9818H23.2615V19.3433C23.2615 18.977 22.9857 18.6802 22.6457 18.6802Z" fill="#CCC40D"/>
<path d="M34.5369 6.42927C33.9331 4.73442 32.9804 3.07911 31.9884 2.00114C31.6244 1.60567 31.1342 1.40519 30.5762 1.41806C28.7274 1.46441 25.7146 3.96333 21.6217 8.84534C21.5195 8.96715 21.4629 9.12556 21.4629 9.28978V12.7975C21.4629 13.1638 21.7385 13.4607 22.0787 13.4607H31.5509C33.6614 13.4607 34.5325 12.3549 34.8915 11.4272C35.3705 10.1906 35.2444 8.41549 34.5369 6.42927Z" fill="#FFF500"/>
<path d="M34.5683 7.77708C34.5511 7.70899 34.5239 7.64427 34.4877 7.58546C33.5579 6.0714 31.5487 6.63791 30.027 7.37972C25.6061 9.53485 23.7804 12.5035 23.7048 12.6287C23.5818 12.8328 23.5724 13.0927 23.6802 13.3064C23.7879 13.5201 23.9955 13.6531 24.2213 13.6531H31.23C32.573 13.6531 33.5689 13.2091 34.1902 12.3336C34.9282 11.2934 35.0589 9.71778 34.5683 7.77708Z" fill="#CCC40D"/>
<path d="M17.3779 8.84535C13.285 3.96334 10.2722 1.46442 8.4234 1.41807C7.86399 1.40511 7.3752 1.60568 7.01125 2.00115C6.01934 3.07904 5.06658 4.73443 4.46284 6.42928C3.75528 8.4155 3.62922 10.1905 4.10788 11.4273C4.46696 12.355 5.33798 13.4608 7.44863 13.4608H16.9208C17.261 13.4608 17.5366 13.1638 17.5366 12.7976V9.28979C17.5367 9.12556 17.4802 8.96716 17.3779 8.84535Z" fill="#FFF500"/>
<path d="M14.9733 12.4363C14.8978 12.311 13.0721 9.34229 8.65114 7.18725C7.1293 6.44544 5.12019 5.87918 4.19036 7.3929C4.15426 7.4518 4.12707 7.51644 4.10985 7.58461C3.61908 9.52531 3.74994 11.101 4.48797 12.141C5.10915 13.0166 6.1051 13.4605 7.44816 13.4605H14.4569C14.6827 13.4605 14.8903 13.3275 14.998 13.1138C15.1057 12.9002 15.0963 12.6403 14.9733 12.4363Z" fill="#CCC40D"/>
<path d="M22.079 7.97119H16.9205C16.5803 7.97119 16.3047 8.26814 16.3047 8.63433V12.7977C16.3047 13.1639 16.5803 13.4608 16.9205 13.4608H22.079C22.4192 13.4608 22.6948 13.1639 22.6948 12.7977V8.63433C22.6948 8.26806 22.4192 7.97119 22.079 7.97119Z" fill="#FFF500"/>
<path d="M38.3842 12.1357H0.615773C0.27559 12.1357 0 12.4327 0 12.7989V19.3428C0 19.709 0.27559 20.0059 0.615773 20.0059H38.3842C38.7244 20.0059 39 19.7089 39 19.3428V12.7989C39 12.4326 38.7244 12.1357 38.3842 12.1357Z" fill="#0FFFA9"/>
<path d="M24.2297 12.1353H14.7695V20.0056H24.2297V12.1353Z" fill="#FFF500"/>
</svg>
