<svg width="30" height="32" viewBox="0 0 30 32" fill="none" xmlns="http://www.w3.org/2000/svg">
<path d="M27.4897 14.2324H2.5098C2.24812 14.2324 2.03613 14.4587 2.03613 14.7377V30.4147C2.03613 30.6938 2.24812 30.92 2.5098 30.92H27.4898C27.7515 30.92 27.9635 30.6937 27.9635 30.4147V14.7377C27.9634 14.4586 27.7513 14.2324 27.4897 14.2324Z" fill="#FF009E"/>
<path d="M27.4897 14.2324H2.5098C2.24812 14.2324 2.03613 14.4587 2.03613 14.7377V16.7587H27.9635V14.7377C27.9634 14.4586 27.7513 14.2324 27.4897 14.2324Z" fill="#C01C82"/>
<path d="M17.4198 14.2324H12.5801C12.3184 14.2324 12.1064 14.4587 12.1064 14.7377V30.4147C12.1064 30.6938 12.3184 30.92 12.5801 30.92H17.4198C17.6815 30.92 17.8935 30.6937 17.8935 30.4147V14.7377C17.8935 14.4586 17.6814 14.2324 17.4198 14.2324Z" fill="#F0FD39"/>
<path d="M17.4198 14.2324H12.5801C12.3184 14.2324 12.1064 14.4587 12.1064 14.7377V16.7479H17.8935V14.7377C17.8935 14.4586 17.6814 14.2324 17.4198 14.2324Z" fill="#F5BA3D"/>
<path d="M26.5677 4.8981C26.1032 3.60678 25.3703 2.3456 24.6073 1.52428C24.3273 1.22297 23.9502 1.07022 23.521 1.08003C22.0988 1.11535 19.7813 3.01928 16.6329 6.73891C16.5543 6.83172 16.5107 6.95241 16.5107 7.07753V9.7501C16.5107 10.0292 16.7227 10.2553 16.9844 10.2553H24.2707C25.8942 10.2553 26.5643 9.41285 26.8405 8.70603C27.2089 7.76385 27.1119 6.41141 26.5677 4.8981Z" fill="#FFE818"/>
<path d="M26.5911 5.92567C26.5779 5.8738 26.557 5.82449 26.5292 5.77967C25.8139 4.62611 24.2684 5.05774 23.0979 5.62292C19.6971 7.26493 18.2928 9.52674 18.2346 9.62218C18.14 9.77762 18.1327 9.97568 18.2157 10.1385C18.2985 10.3013 18.4582 10.4026 18.6319 10.4026H24.0232C25.0563 10.4026 25.8224 10.0644 26.3003 9.3973C26.868 8.6048 26.9685 7.4043 26.5911 5.92567Z" fill="#CD9811"/>
<path d="M13.3679 6.7394C10.2194 3.01978 7.90195 1.11584 6.47976 1.08053C6.04945 1.07065 5.67345 1.22347 5.39349 1.52478C4.63049 2.34603 3.8976 3.60728 3.43318 4.89859C2.8889 6.4119 2.79193 7.76428 3.16013 8.70659C3.43635 9.4134 4.10637 10.2559 5.72994 10.2559H13.0162C13.2779 10.2559 13.4899 10.0297 13.4899 9.75065V7.07803C13.49 6.9529 13.4466 6.83222 13.3679 6.7394Z" fill="#FFE818"/>
<path d="M11.5182 9.47562C11.4601 9.38018 10.0557 7.11831 6.65503 5.47637C5.48438 4.91119 3.93891 4.47975 3.22366 5.63306C3.19588 5.67794 3.17497 5.72719 3.16172 5.77912C2.7842 7.25775 2.88487 8.45825 3.45258 9.25068C3.93042 9.91775 4.69653 10.256 5.72965 10.256H11.121C11.2947 10.256 11.4544 10.1547 11.5372 9.99187C11.6201 9.82912 11.6128 9.63106 11.5182 9.47562Z" fill="#CD9811"/>
<path d="M16.9838 6.07324H13.0157C12.754 6.07324 12.542 6.29949 12.542 6.57849V9.75056C12.542 10.0296 12.754 10.2558 13.0157 10.2558H16.9838C17.2454 10.2558 17.4574 10.0296 17.4574 9.75056V6.57849C17.4574 6.29943 17.2454 6.07324 16.9838 6.07324Z" fill="#ECD509"/>
<path d="M29.5263 9.24658H0.473672C0.211992 9.24658 0 9.47283 0 9.75183V14.7376C0 15.0167 0.211992 15.2429 0.473672 15.2429H29.5263C29.788 15.2429 30 15.0166 30 14.7376V9.75183C30 9.47277 29.788 9.24658 29.5263 9.24658Z" fill="#FF009E"/>
<path d="M18.6384 9.24658H11.3613V15.243H18.6384V9.24658Z" fill="#F0FD39"/>
</svg>
