<svg width="34" height="37" viewBox="0 0 34 37" fill="none" xmlns="http://www.w3.org/2000/svg">
<g clip-path="url(#clip0)">
<path d="M30.3515 16.4888H2.79511C2.50644 16.4888 2.27258 16.7408 2.27258 17.0515V34.5118C2.27258 34.8226 2.50644 35.0745 2.79511 35.0745H30.3516C30.6403 35.0745 30.8741 34.8226 30.8741 34.5118V17.0516C30.8741 16.7407 30.6401 16.4888 30.3515 16.4888Z" fill="#0FFFA9"/>
<path d="M30.3515 16.4888H2.79511C2.50644 16.4888 2.27258 16.7408 2.27258 17.0515V19.3025H30.8741V17.0515C30.8741 16.7407 30.6401 16.4888 30.3515 16.4888Z" fill="#0FDD93"/>
<path d="M19.2425 16.4888H13.9036C13.615 16.4888 13.3811 16.7408 13.3811 17.0515V34.5118C13.3811 34.8226 13.615 35.0746 13.9036 35.0746H19.2425C19.5311 35.0746 19.7651 34.8226 19.7651 34.5118V17.0516C19.7651 16.7407 19.5311 16.4888 19.2425 16.4888Z" fill="#FFF500"/>
<path d="M19.2425 16.4888H13.9036C13.615 16.4888 13.3811 16.7408 13.3811 17.0515V19.2904H19.7651V17.0515C19.7651 16.7407 19.5311 16.4888 19.2425 16.4888Z" fill="#CCC40D"/>
<path d="M29.3331 6.09368C28.8207 4.65548 28.0123 3.25084 27.1705 2.3361C26.8616 2.00051 26.4457 1.83039 25.9722 1.84132C24.4033 1.88064 21.8468 4.00116 18.3737 8.14389C18.2869 8.24726 18.2389 8.38167 18.2389 8.52103V11.4976C18.2389 11.8084 18.4728 12.0603 18.7614 12.0603H26.7993C28.5902 12.0603 29.3294 11.122 29.634 10.3348C30.0405 9.28541 29.9335 7.77913 29.3331 6.09368Z" fill="#FFF500"/>
<path d="M29.3597 7.2364C29.3451 7.17862 29.3221 7.1237 29.2914 7.07379C28.5023 5.78901 26.7974 6.26973 25.5061 6.89921C21.7547 8.72799 20.2054 11.2471 20.1413 11.3534C20.0369 11.5265 20.0289 11.7471 20.1204 11.9284C20.2118 12.1098 20.388 12.2226 20.5796 12.2226H26.527C27.6666 12.2226 28.5117 11.8459 29.0389 11.1029C29.6652 10.2203 29.7761 8.88322 29.3597 7.2364Z" fill="#CCC40D"/>
<path d="M14.7725 8.14389C11.2993 4.00116 8.7428 1.88065 7.17392 1.84132C6.69923 1.83032 6.28445 2.00052 5.97561 2.3361C5.1339 3.25077 4.32542 4.65549 3.81311 6.09369C3.21269 7.77914 3.10572 9.28535 3.5119 10.3349C3.8166 11.1221 4.55572 12.0604 6.34676 12.0604H14.3846C14.6733 12.0604 14.9071 11.8084 14.9071 11.4977V8.52104C14.9072 8.38168 14.8593 8.24726 14.7725 8.14389Z" fill="#FFF500"/>
<path d="M12.732 11.1912C12.6679 11.0849 11.1187 8.56573 7.3672 6.73703C6.07581 6.10755 4.37094 5.62703 3.58191 6.91154C3.55127 6.96152 3.52819 7.01637 3.51359 7.07421C3.09713 8.72103 3.20818 10.0581 3.83445 10.9407C4.36156 11.6836 5.2067 12.0603 6.34638 12.0603H12.2938C12.4854 12.0603 12.6616 11.9475 12.753 11.7662C12.8444 11.5849 12.8363 11.3643 12.732 11.1912Z" fill="#CCC40D"/>
<path d="M18.7617 7.40137H14.3843C14.0957 7.40137 13.8618 7.65335 13.8618 7.96409V11.497C13.8618 11.8078 14.0957 12.0597 14.3843 12.0597H18.7617C19.0504 12.0597 19.2842 11.8077 19.2842 11.497V7.96409C19.2842 7.65328 19.0504 7.40137 18.7617 7.40137Z" fill="#FFF500"/>
<path d="M32.5979 10.9351H0.548651C0.259981 10.9351 0.026123 11.187 0.026123 11.4978V17.0507C0.026123 17.3615 0.259981 17.6135 0.548651 17.6135H32.5979C32.8865 17.6135 33.1204 17.3615 33.1204 17.0507V11.4978C33.1204 11.187 32.8865 10.9351 32.5979 10.9351Z" fill="#0FFFA9"/>
<path d="M20.5867 10.9351H12.5591V17.6136H20.5867V10.9351Z" fill="#FFF500"/>
</g>
<defs>
<clipPath id="clip0">
<rect x="0.0257568" y="0.637207" width="33.0943" height="35.64" rx="5.94" fill="white"/>
</clipPath>
</defs>
</svg>
