<svg width="30" height="32" viewBox="0 0 30 32" fill="none" xmlns="http://www.w3.org/2000/svg">
<path d="M27.49 14.2324H2.51005C2.24837 14.2324 2.03638 14.4587 2.03638 14.7377V30.4147C2.03638 30.6938 2.24837 30.92 2.51005 30.92H27.49C27.7517 30.92 27.9637 30.6937 27.9637 30.4147V14.7377C27.9636 14.4586 27.7516 14.2324 27.49 14.2324Z" fill="#FF009E"/>
<path d="M27.49 14.2324H2.51005C2.24837 14.2324 2.03638 14.4587 2.03638 14.7377V16.7587H27.9637V14.7377C27.9636 14.4586 27.7516 14.2324 27.49 14.2324Z" fill="#C01C82"/>
<path d="M17.42 14.2324H12.5802C12.3186 14.2324 12.1066 14.4587 12.1066 14.7377V30.4147C12.1066 30.6938 12.3186 30.92 12.5802 30.92H17.42C17.6816 30.92 17.8936 30.6937 17.8936 30.4147V14.7377C17.8936 14.4586 17.6815 14.2324 17.42 14.2324Z" fill="#F0FD39"/>
<path d="M17.42 14.2324H12.5802C12.3186 14.2324 12.1066 14.4587 12.1066 14.7377V16.7479H17.8936V14.7377C17.8936 14.4586 17.6815 14.2324 17.42 14.2324Z" fill="#F5BA3D"/>
<path d="M26.5672 4.8981C26.1027 3.60678 25.3699 2.3456 24.6068 1.52428C24.3268 1.22297 23.9497 1.07022 23.5205 1.08003C22.0983 1.11535 19.7808 3.01928 16.6324 6.73891C16.5538 6.83172 16.5103 6.95241 16.5103 7.07753V9.7501C16.5103 10.0292 16.7222 10.2553 16.9839 10.2553H24.2702C25.8937 10.2553 26.5638 9.41285 26.84 8.70603C27.2084 7.76385 27.1114 6.41141 26.5672 4.8981Z" fill="#FFE818"/>
<path d="M26.5909 5.92567C26.5777 5.8738 26.5567 5.82449 26.5289 5.77967C25.8137 4.62611 24.2681 5.05774 23.0976 5.62292C19.6969 7.26493 18.2925 9.52674 18.2344 9.62218C18.1398 9.77762 18.1325 9.97568 18.2154 10.1385C18.2983 10.3013 18.458 10.4026 18.6317 10.4026H24.023C25.056 10.4026 25.8222 10.0644 26.3 9.3973C26.8678 8.6048 26.9683 7.4043 26.5909 5.92567Z" fill="#CD9811"/>
<path d="M13.3675 6.7394C10.2191 3.01978 7.90158 1.11584 6.4794 1.08053C6.04908 1.07065 5.67309 1.22347 5.39313 1.52478C4.63012 2.34603 3.89723 3.60728 3.43282 4.89859C2.88854 6.4119 2.79157 7.76428 3.15977 8.70659C3.43598 9.4134 4.106 10.2559 5.72957 10.2559H13.0159C13.2776 10.2559 13.4896 10.0297 13.4896 9.75065V7.07803C13.4896 6.9529 13.4462 6.83222 13.3675 6.7394Z" fill="#FFE818"/>
<path d="M11.5182 9.47562C11.4601 9.38018 10.0557 7.11831 6.65503 5.47637C5.48438 4.91119 3.93891 4.47975 3.22366 5.63306C3.19588 5.67794 3.17497 5.72719 3.16172 5.77912C2.7842 7.25775 2.88487 8.45825 3.45258 9.25068C3.93042 9.91775 4.69653 10.256 5.72965 10.256H11.121C11.2947 10.256 11.4544 10.1547 11.5372 9.99187C11.6201 9.82912 11.6128 9.63106 11.5182 9.47562Z" fill="#CD9811"/>
<path d="M16.984 6.07324H13.0159C12.7542 6.07324 12.5422 6.29949 12.5422 6.57849V9.75056C12.5422 10.0296 12.7542 10.2558 13.0159 10.2558H16.984C17.2457 10.2558 17.4577 10.0296 17.4577 9.75056V6.57849C17.4577 6.29943 17.2457 6.07324 16.984 6.07324Z" fill="#ECD509"/>
<path d="M29.5263 9.24658H0.473672C0.211992 9.24658 0 9.47283 0 9.75183V14.7376C0 15.0167 0.211992 15.2429 0.473672 15.2429H29.5263C29.788 15.2429 30 15.0166 30 14.7376V9.75183C30 9.47277 29.788 9.24658 29.5263 9.24658Z" fill="#FF009E"/>
<path d="M18.6385 9.24658H11.3615V15.243H18.6385V9.24658Z" fill="#F0FD39"/>
</svg>
