<svg width="32" height="32" viewBox="0 0 32 32" fill="none" xmlns="http://www.w3.org/2000/svg">
<rect width="32" height="32" rx="5" fill="#D91F40"/>
<path fill-rule="evenodd" clip-rule="evenodd" d="M22.0744 15.111H14.4829V17.5998H19.1172C18.7781 18.7249 18.082 19.7069 17.1353 20.3953C16.1887 21.0837 15.0439 21.4405 13.8766 21.4108C12.7093 21.3811 11.5838 20.9667 10.6729 20.2311C9.76192 19.4955 9.11582 18.4793 8.8335 17.3384C8.55119 16.1975 8.64832 14.9948 9.11 13.9148C9.57168 12.8348 10.3724 11.9371 11.3894 11.3594C12.4064 10.7817 13.5835 10.5559 14.7403 10.7165C15.897 10.8772 16.9694 11.4155 17.7932 12.2488L19.6293 10.2844C18.0989 8.81158 16.0614 7.99291 13.9445 8.00005C11.8375 8.00005 9.81683 8.84283 8.32695 10.3431C6.83707 11.8433 6 13.8781 6 15.9998C6 18.1215 6.83707 20.1563 8.32695 21.6566C9.81683 23.1568 11.8375 23.9996 13.9445 23.9996C15.8193 24.0185 17.6449 23.3955 19.122 22.2327C20.5991 21.0699 21.6402 19.4364 22.0744 17.5998V15.111ZM27 15.111H25.4464V13.5821H24.1135V15.111H22.5687V16.4176H24.1135V17.9464H25.4464V16.4176H27V15.111Z" fill="white"/>
</svg>
