<svg xmlns="http://www.w3.org/2000/svg" width="78" height="35" viewBox="0 0 78 35"><g><g><g><path fill="#9fcf67" d="M19.625 19.55c-1.166 0-2.175 1-2.175 2.157s1.009 2.158 2.175 2.158 2.175-1 2.175-2.158a2.16 2.16 0 0 0-2.175-2.157z"/></g><g><path fill="#fff" d="M8.213 5.533c0 1.637-1.219 2.963-2.725 2.963-1.507 0-2.726-1.3-2.726-2.963 0-1.742 1.219-3.016 2.726-3.016 1.506 0 2.725 1.352 2.725 3.016zm2.7 4.691v-4.73c0-3.042-2.241-5.524-5.425-5.524C2.29-.03.05 2.465.05 5.494c0 3.015 2.28 5.471 5.07 5.471 1.206 0 2.294-.403 3.093-1.17v.455c0 1.872-.865 3.12-2.778 3.12-.747 0-1.821-.312-2.175-1.157H.3c.406 2.222 2.594 3.678 5.136 3.665 3.394 0 5.49-2.17 5.49-5.654z"/></g><g><path fill="#fff" d="M18.649 2.59c-1.73-.299-2.883.611-2.883 2.106v6.082H13.08V4.696c0-2.977 2.083-5.069 5.582-4.627V2.59z"/></g><g><path fill="#fff" d="M22.029 5.38c.078-1.793 1.323-3.015 2.882-3.015.865 0 1.599.351 2.097.95zm8.019 2.028h-2.922c-.459.832-1.363 1.222-2.24 1.222-.931 0-1.743-.403-2.268-1.118l7.495-3.12C29.603 1.6 27.466 0 24.924 0c-3 0-5.424 2.495-5.424 5.524 0 3.028 2.424 5.484 5.424 5.484 2.634 0 4.508-1.455 5.124-3.587z"/></g><g><path fill="#fff" d="M33.909 5.38c.078-1.793 1.323-3.015 2.882-3.015.865 0 1.599.351 2.097.95zm8.019 2.028h-2.896c-.459.832-1.363 1.222-2.24 1.222-.93 0-1.743-.403-2.267-1.118l7.468-3.12C41.483 1.6 39.346 0 36.804 0c-3 0-5.424 2.495-5.424 5.524 0 3.028 2.424 5.484 5.424 5.484 2.634 0 4.508-1.455 5.124-3.587z"/></g><g><path fill="#fff" d="M48.502 0c2.962 0 4.704 1.95 4.704 4.692v6.082h-2.725V4.64c0-.598-.21-2.002-1.992-2.002-1.179 0-2.044.82-2.044 2.002v6.134H43.72V4.692C43.733 2.014 45.62 0 48.502 0z"/></g><g><path fill="#fff" d="M41.806 25.82c-3.105.338-4.756-1.521-4.756-4.393V12.68h2.725v2.664h1.913v2.379h-1.913v3.717c0 1.468.669 2.014 2.031 1.95z"/></g><g><path fill="#fff" d="M48.374 26.085c-2.961 0-4.704-1.95-4.704-4.692V15.35h2.725v6.134c0 .598.21 2.002 1.992 2.002 1.18 0 2.044-.845 2.044-2.002V15.35h2.725v6.056c-.026 2.665-1.913 4.68-4.782 4.68z"/></g><g><path fill="#fff" d="M63.433 20.622c0 1.69-1.219 2.964-2.725 2.964-1.507 0-2.726-1.339-2.726-2.964 0-1.663 1.219-3.015 2.726-3.015 1.506 0 2.699 1.287 2.725 3.015zm2.725-.026c0-3.015-2.266-5.484-5.057-5.484-1.232 0-2.293.377-3.093 1.222V10.68H55.27v9.916c0 3.029 2.227 5.485 5.438 5.485 3.184 0 5.424-2.43 5.45-5.485z"/></g><g><path fill="#fff" d="M69.876 20.458c.078-1.794 1.323-3.016 2.882-3.016.865 0 1.599.351 2.097.95zm8.032 2.027h-2.896c-.459.832-1.363 1.222-2.24 1.222-.93 0-1.743-.403-2.267-1.118l7.468-3.106c-.51-2.794-2.647-4.393-5.189-4.393-3 0-5.424 2.495-5.424 5.524 0 3.028 2.424 5.484 5.424 5.484 2.634 0 4.508-1.455 5.124-3.587z"/></g><g><path fill="#fff" d="M4.271 21.707c0-1.247-.917-2.157-2.096-2.157-1.166 0-2.175 1-2.175 2.157s1.009 2.158 2.175 2.158c1.18.013 2.096-.988 2.096-2.158z"/></g><g><path fill="#fff" d="M7.965 19.55c-1.166 0-2.175 1-2.175 2.157s.917 2.158 2.175 2.158c1.166 0 2.175-1 2.175-2.158 0-1.247-1.009-2.157-2.175-2.157z"/></g><g><path fill="#fff" d="M13.825 23.875c1.166 0 2.096-1 2.096-2.158 0-1.247-.917-2.157-2.096-2.157-1.258 0-2.175 1-2.175 2.157a2.169 2.169 0 0 0 2.175 2.158z"/></g><g><path fill="#fff" d="M27.66 21.707c0-1.247-1.009-2.157-2.175-2.157s-2.175 1-2.175 2.157 1.009 2.158 2.175 2.158c1.166.013 2.175-.988 2.175-2.158z"/></g><g><path fill="#fff" d="M31.355 19.55c-1.166 0-2.175 1-2.175 2.157s.917 2.158 2.175 2.158c1.18 0 2.175-1 2.175-2.158 0-1.247-.996-2.157-2.175-2.157z"/></g><g><path fill="#fff" d="M77.91 30.57H.12v.247H77.91z"/></g><g><g><path fill="#fff" d="M27.7 32.36h.642l.983 1.923V32.36h.498v2.6h-.642l-.983-1.924v1.923H27.7z"/></g><g><path fill="#fff" d="M31.761 32.32c.812 0 1.27.546 1.27 1.326s-.458 1.351-1.27 1.351c-.826 0-1.271-.559-1.271-1.351 0-.793.432-1.326 1.271-1.326zm0 2.261c.524 0 .72-.467.72-.948 0-.455-.209-.923-.72-.923s-.72.468-.72.923c-.014.494.183.948.72.948z"/></g><g><path fill="#fff" d="M33.44 32.36h.563l.669 2.027.655-2.027h.51l-.877 2.6h-.642z"/></g><g><path fill="#fff" d="M37.541 32.32c.812 0 1.27.546 1.27 1.326s-.458 1.351-1.27 1.351c-.826 0-1.271-.559-1.271-1.351 0-.793.432-1.326 1.271-1.326zm0 2.261c.524 0 .72-.467.72-.948 0-.455-.209-.923-.72-.923s-.72.468-.72.923c-.027.494.183.948.72.948z"/></g><g><path fill="#fff" d="M39.476 32.36h.826l.616 1.962.615-1.962h.826v2.6h-.498v-2.132l-.708 2.131h-.498l-.707-2.131v2.118h-.498z"/></g><g><path fill="#fff" d="M43.945 32.36h.577l1.022 2.6h-.577l-.236-.599H43.67l-.236.598h-.524zm.275.52l-.393 1.066h.76z"/></g><g><path fill="#fff" d="M46.257 32.773h-.747v-.403h2.018v.403h-.747v2.17h-.524z"/></g><g><path fill="#fff" d="M48 32.36h.524v2.586H48z"/></g><g><path fill="#fff" d="M51.17 34.906a2.33 2.33 0 0 1-.602.091c-.851 0-1.428-.416-1.428-1.3 0-.896.55-1.377 1.428-1.377.17 0 .406.039.577.104l-.04.442a1.135 1.135 0 0 0-.563-.143c-.524 0-.878.403-.878.949 0 .52.34.922.878.922.21 0 .445-.052.563-.104z"/></g><g><path fill="#fff" d="M54.32 32.36h.642l.983 1.923V32.36h.498v2.6h-.63l-.982-1.924v1.923h-.498V32.36z"/></g><g><path fill="#fff" d="M73.35 32.36h.563l.669 2.027.655-2.027h.51l-.877 2.6h-.642z"/></g><g><path fill="#fff" d="M65.171 32.36h.577l1.022 2.6h-.577l-.236-.599h-1.06l-.237.598h-.55zm.289.52l-.394 1.066h.76z"/></g><g><path fill="#fff" d="M57.667 32.763h-.747v-.403h2.018v.403h-.747v2.17h-.524z"/></g><g><path fill="#fff" d="M70.397 32.763h-.747v-.403h2.018v.403h-.747v2.17h-.524z"/></g><g><path fill="#fff" d="M53.03 32.36h.524v2.586h-.524z"/></g><g><path fill="#fff" d="M72.27 32.36h.524v2.586h-.524z"/></g><g><path fill="#fff" d="M69.09 34.906a2.33 2.33 0 0 1-.602.091c-.851 0-1.428-.416-1.428-1.3 0-.896.55-1.377 1.428-1.377.17 0 .406.039.577.104l-.04.442a1.135 1.135 0 0 0-.563-.143c-.524 0-.878.403-.878.949 0 .52.34.922.878.922.21 0 .445-.052.563-.104z"/></g><g><path fill="#fff" d="M61.87 32.36h.563c.564 0 1.232-.013 1.232.702 0 .299-.21.559-.524.598.144.013.236.156.288.26l.42 1.013h-.577l-.314-.805c-.066-.195-.145-.26-.367-.26h-.17v1.065h-.525zm.537 1.092h.17c.263 0 .55-.04.55-.364 0-.312-.3-.338-.55-.338h-.17z"/></g><g><g><path fill="#fff" d="M61.056 33.796h-1.048v.753h1.166v.39H59.51V32.34h1.612v.39H60.02v.663h1.048v.403z"/></g></g><g><g><path fill="#fff" d="M77.866 33.796h-1.048v.753h1.166v.39H76.32V32.34h1.612v.39h-1.114v.663h1.048v.403z"/></g></g></g></g></g></svg>