<svg width="96" height="89" viewBox="0 0 96 89" fill="none" xmlns="http://www.w3.org/2000/svg">
<path d="M84.3523 85.9373L71.2877 75.308L47.9946 89L33.2931 75.308L12.1651 85.9373L16.1266 59.544L0.543945 48L19.2124 31.8893L12.1651 21.26L16.1266 10L37.4306 27.8357L54.8612 13.3328L63.8406 31.8893L95.8515 21.26L75.2179 43L91.43 79L84.3523 85.9373Z" fill="#EAFC00"/>
<path d="M91.4304 79L75.3684 62.5716L54.7969 79L33.434 66.8807L19.9835 76.0375L23.7636 55.6591L12.335 43.5398L26.582 32.5L15.8515 10.3239L36.0713 14.3636L55.5881 0L75.3684 20.6477H95.8519L83.1045 41.2955L91.4304 79Z" fill="#8D57FF"/>
<path fill-rule="evenodd" clip-rule="evenodd" d="M38.0628 40.9943L38.6799 39.3886L37.9672 43.9905H38.7774L39.7887 37.4561H38.7993L37.6448 40.1537L37.0954 41.5912L37.7343 37.4558H36.9321L35.9209 43.9903H36.8465L38.0628 40.9943ZM40.4157 38.3898H41.3573L40.4894 43.9907H41.3911L42.257 38.3898H43.1986L43.3419 37.4563H40.561L40.4157 38.3898ZM44.7711 38.3898H46.3258L46.4711 37.4563H44.0147L43.0035 43.9907H45.4599L45.6032 43.0572H44.0485L44.3452 41.1434H45.5813L45.7246 40.2101H44.4905L44.7711 38.3898ZM46.29 44H46.4293C47.3291 44 47.779 43.5332 47.9959 42.3383L48.7066 38.3898H49.4909L48.625 43.9907H49.5406L50.5519 37.4563H48.0079L47.0962 42.3943C46.9847 43.0012 46.8454 43.0665 46.4353 43.0665L46.29 44ZM52.1085 43.9907C53.0103 43.9907 53.5398 43.4213 53.701 42.3757L53.8324 41.5263C53.9936 40.4808 53.6413 39.9114 52.7395 39.9114H52.3155L52.6938 37.4563H51.794L50.7828 43.9907H52.1085ZM51.8278 43.0572L52.1702 40.8449H52.5962C52.8829 40.8449 53.0142 40.9943 52.9426 41.461L52.7913 42.441C52.7176 42.9078 52.5405 43.0572 52.2538 43.0572H51.8278ZM55.6578 41.1901H56.6809L56.247 43.9907H57.1647L58.1759 37.4563H57.2582L56.8263 40.2568H55.8031L56.237 37.4563H55.3353L54.3241 43.9907H55.2258L55.6578 41.1901ZM59.5395 43.9907C60.4392 43.9907 60.9707 43.4213 61.1319 42.3757L61.2633 41.5263C61.4246 40.4808 61.0722 39.9114 60.1705 39.9114H59.7465L60.1247 37.4563H59.2249L58.2137 43.9907H59.5395ZM59.2588 43.0572L59.6012 40.8449H60.0271C60.3138 40.8449 60.4452 40.9943 60.3735 41.461L60.2222 42.441C60.1486 42.9078 59.9714 43.0572 59.6848 43.0572H59.2588ZM62.2984 43.9907L63.3097 37.4563H62.4079L61.3967 43.9907H62.2984ZM64.4204 43.9907H63.4968L64.506 37.4563H65.3082L64.6693 41.5916L65.2187 40.1541L66.3732 37.4565H67.3626L66.3513 43.9909H65.5411L66.2538 39.3891L65.6367 40.9947L64.4204 43.9907ZM66.5822 36C66.5767 36.0642 66.5598 36.1265 66.5327 36.1831C66.5055 36.2397 66.4687 36.2896 66.4243 36.3296C66.3799 36.3697 66.3289 36.3992 66.2743 36.4164C66.2197 36.4336 66.1626 36.438 66.1065 36.4296C65.8696 36.4296 65.7581 36.3455 65.788 36H65.2306C65.149 36.6347 65.3819 37.0362 66.0129 37.0362C66.2806 37.0614 66.5464 36.9675 66.7546 36.7743C66.9628 36.5811 67.0972 36.3036 67.1296 36H66.5822Z" fill="#F9FF00"/>
<path d="M40.0838 21.9841L40.0839 21.9841C40.1824 21.4096 40.3711 21.0277 40.6202 20.7894C40.8674 20.5528 41.1852 20.4474 41.5656 20.4474C41.9487 20.4474 42.2158 20.5537 42.3704 20.7745C42.5285 21.0003 42.5887 21.3725 42.4896 21.9503C42.4896 21.9503 42.4896 21.9503 42.4896 21.9503L40.9654 30.8234L40.9654 30.8235C40.8669 31.3979 40.6782 31.7799 40.4293 32.0182C40.1823 32.2548 39.865 32.3602 39.4857 32.3602C39.1036 32.3602 38.8358 32.2539 38.6805 32.0329C38.5217 31.8071 38.4606 31.4349 38.5597 30.8573C38.5597 30.8573 38.5597 30.8573 38.5597 30.8573L40.0838 21.9841ZM43.7034 30.6931L43.6049 30.6762L43.7034 30.6931L45.1694 22.1483C45.3974 20.8201 45.2404 19.7552 44.6936 19.0201C44.1447 18.2822 43.2207 17.9 41.9684 17.9C40.7144 17.9 39.6709 18.2826 38.8835 19.0062C38.0969 19.7289 37.5743 20.7839 37.3459 22.1145L37.3459 22.1145L35.8799 30.6593C35.6519 31.9874 35.8089 33.0524 36.356 33.7875C36.9051 34.5253 37.8296 34.9076 39.0828 34.9076C40.3377 34.9076 41.3808 34.5249 42.1675 33.8014C42.9534 33.0786 43.4751 32.0236 43.7034 30.6931ZM53.0531 20.6352L50.6544 34.603L50.6343 34.7199H50.7529H53.3112H53.3955L53.4098 34.6368L56.2314 18.2048L56.2515 18.0878H56.1329H48.2082H48.1239L48.1096 18.1709L45.2899 34.6032L45.2699 34.7201H45.3885H47.8983H47.9826L47.9969 34.637L50.4015 20.6352H53.0531ZM67.4197 18.2243L67.4731 18.0878H67.3266H64.7005H64.6311L64.6068 18.1528L62.4978 23.7867L62.4978 23.7867L62.4964 23.7907L61.4234 27.0725L61.3261 23.7953L61.3262 23.7953L61.3259 23.7911L60.9192 18.1806L60.9125 18.0878H60.8195H58.3309H58.2202L58.2314 18.198L59.5229 30.853L59.4836 30.9724C59.4835 30.9726 59.4834 30.9728 59.4834 30.973C59.2831 31.5538 59.0018 31.8863 58.6301 32.068C58.2526 32.2525 57.7664 32.2895 57.1395 32.2432L57.049 32.2365L57.0336 32.326L56.6385 34.6266L56.6198 34.7358L56.7303 34.7433C58.4728 34.8617 59.6738 34.5489 60.5783 33.8176C61.4785 33.0897 62.07 31.9588 62.621 30.4773C62.6211 30.477 62.6212 30.4768 62.6213 30.4765L67.4197 18.2243ZM44.3795 45.4679H44.3173L44.2898 45.5238L41.4508 51.2891L40.6421 45.554L40.6299 45.4679H40.543H37.9402H37.8233L37.8414 45.5835L39.0914 53.5329L34.8472 61.955L34.7742 62.1H34.9365H37.2876H37.3499L37.3773 62.0441L40.4283 55.8319L41.3214 62.0143L41.3337 62.1H41.4203H44.0696H44.187L44.1684 61.9841L42.8159 53.5652L46.7967 45.6127L46.8692 45.4679H46.7073H44.3795ZM54.852 45.5695L54.8537 45.4679H54.752H51.0744H51.0019L50.9794 45.5368L45.6014 61.9689L45.5584 62.1H45.6964H48.0029H48.0761L48.0982 62.0302L49.0212 59.1184H51.9284L51.8537 61.9974L51.851 62.1H51.9536H54.4867H54.5851L54.5867 62.0016L54.852 45.5695ZM62.844 62.0197L62.8602 62.1H62.942H65.5216H65.645L65.6194 61.9793L63.6991 52.9118L68.4272 45.6223L68.5273 45.4679H68.3433H65.8315H65.7763L65.7469 45.5146L61.4988 52.2493L62.6416 45.5848L62.6617 45.4679H62.5431H60.0313H59.947L59.9327 45.551L57.113 61.9831L57.0929 62.1H57.2115H59.7234H59.8077L59.8219 62.0169L60.6839 56.9916L61.5717 55.7018L62.844 62.0197ZM51.9743 56.6887H49.7876L52.1703 49.1824L51.9743 56.6887Z" fill="white" stroke="white" stroke-width="0.2"/>
</svg>
