<svg width="16" height="14" viewBox="0 0 16 14" fill="none" xmlns="http://www.w3.org/2000/svg">
<path d="M8.11044 13.3152C7.90529 13.3152 7.70751 13.2408 7.55337 13.1058C6.97122 12.5966 6.40997 12.1181 5.91479 11.6961L5.91226 11.6939C4.46047 10.4564 3.2068 9.38767 2.33452 8.33491C1.35944 7.158 0.905273 6.04212 0.905273 4.82309C0.905273 3.6387 1.31129 2.54602 2.04845 1.7462C2.79441 0.936924 3.81797 0.491211 4.93092 0.491211C5.76274 0.491211 6.52453 0.754262 7.19507 1.273C7.53347 1.53484 7.84021 1.85529 8.11044 2.22909C8.38079 1.85529 8.68742 1.53484 9.02593 1.273C9.69647 0.754262 10.4583 0.491211 11.2901 0.491211C12.4029 0.491211 13.4266 0.936924 14.1725 1.7462C14.9097 2.54602 15.3156 3.6387 15.3156 4.82309C15.3156 6.04212 14.8616 7.158 13.8865 8.3348C13.0142 9.38767 11.7606 10.4563 10.3091 11.6937C9.81301 12.1164 9.25087 12.5956 8.66741 13.106C8.51338 13.2408 8.31549 13.3152 8.11044 13.3152ZM4.93092 1.33557C4.05655 1.33557 3.25331 1.68462 2.66897 2.31849C2.07594 2.96194 1.7493 3.85138 1.7493 4.82309C1.7493 5.84835 2.13025 6.76529 2.98439 7.79616C3.80995 8.79261 5.03789 9.83932 6.45966 11.0513L6.4623 11.0535C6.95935 11.4772 7.5228 11.9576 8.10924 12.4705C8.69918 11.9566 9.26352 11.4755 9.76156 11.0511C11.1832 9.8391 12.4111 8.79261 13.2366 7.79616C14.0906 6.76529 14.4716 5.84835 14.4716 4.82309C14.4716 3.85138 14.145 2.96194 13.5519 2.31849C12.9677 1.68462 12.1643 1.33557 11.2901 1.33557C10.6496 1.33557 10.0615 1.53924 9.54222 1.94085C9.07948 2.29892 8.75712 2.75156 8.56813 3.06828C8.47094 3.23115 8.29987 3.32836 8.11044 3.32836C7.92101 3.32836 7.74994 3.23115 7.65276 3.06828C7.46387 2.75156 7.14152 2.29892 6.67867 1.94085C6.15941 1.53924 5.57133 1.33557 4.93092 1.33557Z" fill="white"/>
</svg>
