<svg width="21" height="15" viewBox="0 0 21 15" fill="none" xmlns="http://www.w3.org/2000/svg">
<path d="M16.3984 14.1172C16.625 14.3438 16.9844 14.3594 17.2109 14.1172C17.4531 13.875 17.4375 13.5312 17.2109 13.3047L4.79688 0.898438C4.57031 0.671875 4.20312 0.671875 3.97656 0.898438C3.75781 1.11719 3.75781 1.49219 3.97656 1.71094L16.3984 14.1172ZM17.0938 11.9375C19.25 10.5078 20.6484 8.54688 20.6484 7.67188C20.6484 6.17188 16.5625 1.375 10.625 1.375C9.36719 1.375 8.19531 1.58594 7.125 1.94531L9.07812 3.89844C9.55469 3.69531 10.0781 3.58594 10.625 3.58594C12.8984 3.58594 14.7344 5.39062 14.7344 7.67188C14.7344 8.21875 14.6172 8.75 14.3984 9.21094L17.0938 11.9375ZM10.625 13.9688C11.9922 13.9688 13.25 13.7266 14.3672 13.3125L12.3984 11.3438C11.8672 11.6172 11.2656 11.7656 10.625 11.7656C8.34375 11.7656 6.52344 9.89844 6.51562 7.67188C6.51562 7.02344 6.66406 6.41406 6.92969 5.875L4.35938 3.28906C2.03906 4.75 0.59375 6.78906 0.59375 7.67188C0.59375 9.16406 4.75781 13.9688 10.625 13.9688ZM12.9844 7.51562C12.9844 6.22656 11.9453 5.17969 10.6406 5.17969C10.5469 5.17969 10.4531 5.17969 10.375 5.19531L12.9688 7.78906C12.9766 7.70312 12.9844 7.60938 12.9844 7.51562ZM8.26562 7.52344C8.26562 8.8125 9.33594 9.86719 10.625 9.86719C10.7188 9.86719 10.8125 9.85938 10.9141 9.85156L8.28125 7.21875C8.27344 7.32031 8.26562 7.42188 8.26562 7.52344Z" fill="#9F98AD"/>
</svg>
