<svg width="87" height="32" viewBox="0 0 87 32" fill="none" xmlns="http://www.w3.org/2000/svg">
<path d="M41.4008 28.5691H38.0088V5.74561H41.4008V28.5691Z" fill="white"/>
<path d="M65.6298 17.4717V26.3879C64.4668 27.2116 63.2553 27.8416 61.947 28.2293C60.6386 28.6169 59.2334 28.8592 57.6827 28.8592C55.8413 28.8592 54.1453 28.5685 52.6916 27.987C51.1894 27.4055 49.9295 26.6302 48.8635 25.5641C47.7974 24.5465 47.0221 23.2866 46.4406 21.8813C45.8591 20.4276 45.5684 18.877 45.5684 17.1809C45.5684 15.4365 45.8591 13.8858 46.3921 12.4321C46.9252 10.9784 47.7005 9.76694 48.7181 8.74934C49.7357 7.73173 50.9471 6.90795 52.4009 6.37492C53.8546 5.79343 55.4537 5.50269 57.2951 5.50269C58.2158 5.50269 59.0395 5.55114 59.8149 5.69652C60.5902 5.84189 61.317 6.03572 61.9954 6.27801C62.6739 6.52029 63.3038 6.85949 63.8368 7.1987C64.4183 7.5379 64.9513 7.97402 65.4359 8.41013L64.4668 9.96077C64.3214 10.2031 64.1276 10.3484 63.8853 10.4453C63.643 10.4938 63.4007 10.4454 63.11 10.2515C62.8192 10.1061 62.5285 9.91232 62.1893 9.71849C61.8501 9.52466 61.4624 9.33083 60.9778 9.137C60.4933 8.94317 59.9602 8.79779 59.3787 8.65242C58.7488 8.50705 58.0219 8.45859 57.1982 8.45859C55.9383 8.45859 54.8237 8.65242 53.8061 9.08854C52.7885 9.4762 51.9163 10.1061 51.2379 10.833C50.511 11.6083 49.978 12.529 49.5903 13.5951C49.2027 14.6612 49.0088 15.8726 49.0088 17.2294C49.0088 18.6347 49.2027 19.8946 49.5903 21.0091C49.978 22.1236 50.5595 23.0443 51.2863 23.8196C52.0132 24.5949 52.9339 25.1764 53.9515 25.5641C55.0176 25.9517 56.1805 26.1456 57.4889 26.1456C57.9735 26.1456 58.458 26.0971 58.8942 26.0487C59.3303 26.0002 59.7664 25.9033 60.1541 25.8064C60.5417 25.7095 60.9294 25.5641 61.317 25.4187C61.7047 25.2733 62.0439 25.0795 62.4316 24.8857V20.0884H59.0395C58.8457 20.0884 58.6519 20.0399 58.5065 19.8946C58.3611 19.7492 58.3127 19.6038 58.3127 19.41V17.4717H65.6298Z" fill="white"/>
<path d="M85.691 8.55541H78.4224V28.5683H75.0303V8.55541H67.7617V5.74487H85.691V8.55541Z" fill="white"/>
<path d="M81.524 26.3394H83.3654V26.7755H82.687V28.5684H82.154V26.7755H81.4756V26.3394H81.524ZM86.2729 26.3394V28.5684H85.8368V27.26L85.8852 26.9693L85.2068 28.1807C85.2068 28.2292 85.1584 28.2292 85.1099 28.2777C85.0614 28.2777 85.0614 28.3261 85.013 28.3261H84.9161C84.8191 28.3261 84.7707 28.2777 84.7222 28.2292L84.0438 27.0178L84.0923 27.3085V28.6169H83.6562V26.3878H84.0923C84.1407 26.3878 84.1892 26.3878 84.1892 26.3878C84.1892 26.3878 84.2377 26.4363 84.2861 26.4363L84.8676 27.5023C84.9161 27.5508 84.9161 27.6477 84.9645 27.6962C84.9645 27.6477 85.013 27.5992 85.013 27.5992C85.013 27.5508 85.0614 27.5508 85.0614 27.5023L85.6429 26.4363C85.6914 26.3878 85.6914 26.3878 85.6914 26.3878C85.6914 26.3878 85.7398 26.3878 85.7883 26.3878H86.2729V26.3394Z" fill="white"/>
<path d="M15.767 30.8944C23.8492 30.8944 30.4011 24.017 30.4011 15.5334C30.4011 7.04973 23.8492 0.172363 15.767 0.172363C7.68475 0.172363 1.13281 7.04973 1.13281 15.5334C1.13281 24.017 7.68475 30.8944 15.767 30.8944Z" fill="white"/>
<path d="M0.308594 15.2911C0.308594 19.7976 2.29535 23.8681 5.44509 26.6301C5.59046 26.6301 5.73583 26.6301 5.88121 26.6301C16.8326 26.6301 25.7003 17.7624 25.7003 6.81104C25.7003 5.89035 25.6519 4.96965 25.5065 4.04896C22.8413 1.62609 19.3039 0.172363 15.4273 0.172363C7.09264 0.172363 0.308594 6.90795 0.308594 15.2911Z" fill="#E6A331"/>
<path d="M26.0875 27.3087C29.2373 24.5467 31.224 20.4762 31.224 15.9697C31.224 11.5116 29.2857 7.48962 26.1844 4.72754C26.3298 5.64823 26.3783 6.52047 26.3783 7.48962C26.3783 18.441 17.5106 27.3087 6.55916 27.3087C6.41379 27.3087 6.26842 27.3087 6.12305 27.3087C8.78821 29.6831 12.2771 31.0884 16.1053 31.0884C17.559 31.0884 18.9643 30.8946 20.2726 30.5069C20.3211 30.5069 20.418 30.4585 20.4665 30.4585C22.5501 29.8285 24.44 28.7625 26.0391 27.3572C26.0875 27.3572 26.0875 27.3572 26.0875 27.3087Z" fill="#5698D6"/>
<path d="M22.5987 19.0707C24.8278 16.6478 28.8497 12.1897 28.8497 12.1897C28.8497 11.9959 28.9466 12.0928 28.7528 12.0928C28.7528 12.0928 24.2463 16.1632 21.8234 18.3923C21.6296 13.9827 21.0965 3.37047 21.0965 3.37047C20.9027 3.17664 21.0965 3.17664 20.8542 3.37047C20.8542 3.37047 20.3212 13.8373 20.1274 18.2954L14.3125 10.9298C14.1187 10.8814 14.2156 10.8329 14.1671 11.0268L19.2067 18.7799L4.91173 14.8549C4.62099 15.0003 4.66944 14.8064 4.81482 15.0972L18.5767 20.1852C15.427 21.2028 9.95131 23.0442 9.95131 23.0442C9.85439 23.238 9.80594 23.0927 9.99977 23.1896C9.99977 23.1896 15.8631 21.8812 19.0613 21.1544L12.8103 27.9869C12.8103 28.1807 12.7134 28.1322 12.9557 28.1322L20.1758 21.542L20.612 30.5067L21.4842 30.2159L21.8234 22.2689C23.0348 23.8195 25.9907 27.5023 25.9907 27.5023L26.2815 27.26C26.2815 27.26 23.6163 23.1411 22.5503 21.4936C24.2947 21.9781 29.3828 23.3834 29.3828 23.3834L29.8673 22.5112C29.8673 22.5112 24.9247 20.6213 23.1802 19.9914L31.2726 17.3262C31.2726 17.2293 31.2726 17.1809 31.2726 17.0839L22.5987 19.0707Z" fill="white"/>
</svg>
