<svg width="94" height="43" viewBox="0 0 94 43" fill="none" xmlns="http://www.w3.org/2000/svg">
<path d="M12.8639 27.9389C12.7673 27.8424 12.719 27.6493 12.719 27.4078C12.719 27.1664 12.7673 26.7802 12.9122 26.2491L16.0505 14.4681C16.1954 13.8888 16.3885 13.4542 16.5334 13.1645C16.6782 12.8748 16.9196 12.73 17.2093 12.5851C17.499 12.4886 17.9335 12.4403 18.5129 12.392L18.6095 11.9092C17.4507 11.9575 15.954 11.9575 14.1675 11.9575C12.2362 11.9575 10.836 11.9575 9.96694 11.9092L9.8221 12.392C10.2084 12.392 10.5463 12.4403 10.7877 12.4886C11.0292 12.5369 11.174 12.6334 11.2706 12.73C11.3671 12.8748 11.4154 13.0197 11.4154 13.2611C11.4154 13.5025 11.3671 13.8888 11.2223 14.4199L8.08393 26.2008C7.93908 26.7802 7.74595 27.2147 7.6011 27.5044C7.40797 27.7941 7.21484 27.9872 6.92515 28.0838C6.63546 28.1804 6.2492 28.2286 5.66981 28.2769L5.57324 28.7598C6.49061 28.7115 7.8908 28.7115 9.77381 28.7115C11.7051 28.7115 13.2019 28.7115 14.2158 28.7598L14.3124 28.2769C13.9261 28.2769 13.5881 28.2286 13.3467 28.1804C13.1536 28.1321 12.9605 28.0838 12.8639 27.9389Z" fill="white"/>
<path d="M54.2907 18.9584C54.2907 19.5378 54.4356 20.0206 54.677 20.4069C54.9667 20.7931 55.3047 20.938 55.7875 20.938C56.1255 20.938 56.4634 20.8414 56.7049 20.6483C56.9463 20.4552 57.1394 20.1655 57.2842 19.8275C57.4291 19.4895 57.4774 19.1515 57.4774 18.8136C57.4774 17.8479 57.0911 17.1237 56.3186 16.6891C55.5461 16.2546 54.5804 16.0615 53.4216 16.0615C52.4077 16.0615 51.5386 16.2063 50.8144 16.5443C50.0902 16.834 49.5591 17.2685 49.2211 17.8479C48.8831 18.379 48.69 19.0067 48.69 19.6826C48.69 20.0689 48.7383 20.5035 48.8831 20.8414C48.9797 21.2277 49.1245 21.5657 49.3176 21.8554C49.5108 22.1451 49.7522 22.6279 50.1384 23.2073C50.573 23.9315 50.911 24.5592 51.1524 25.1386C51.3938 25.718 51.4904 26.2491 51.4904 26.7319C51.4904 27.263 51.3455 27.6975 51.0075 28.0355C50.6696 28.3735 50.2833 28.5183 49.8005 28.5183C49.4625 28.5183 49.2211 28.4701 48.9797 28.3252C49.0762 28.1321 49.1728 27.9389 49.2694 27.6493C49.3659 27.3596 49.4625 27.1181 49.5591 26.8285C49.6556 26.5388 49.6556 26.2491 49.6556 25.9111C49.6556 25.2834 49.5108 24.8006 49.2211 24.4143C48.9314 24.0281 48.5451 23.8349 48.1106 23.8349C48.014 23.8349 47.9174 23.8349 47.8209 23.8832C48.352 22.5796 48.6417 21.3243 48.6417 20.0689C48.6417 18.7653 48.3037 17.7514 47.5795 17.0754C46.8552 16.3994 45.793 16.0132 44.4411 16.0132C42.6547 16.0132 41.1579 16.496 39.9026 17.4134C39.468 17.7514 39.0335 18.1376 38.6955 18.5239C38.6955 18.4756 38.6955 18.379 38.6955 18.3307C38.6955 17.8962 38.5989 17.5099 38.4058 17.172C38.2127 16.834 37.9713 16.5443 37.6333 16.3512C37.2953 16.158 36.8608 16.0615 36.3779 16.0615C35.8468 16.0615 35.4123 16.158 35.026 16.3029C34.6398 16.496 34.2535 16.7374 33.9155 17.172C33.5776 17.5582 33.2396 18.0893 32.9499 18.7653C32.9499 18.5722 32.9499 18.4273 32.9499 18.3307C32.9499 17.6548 32.7568 17.1237 32.4188 16.6891C32.0808 16.2546 31.5014 16.0615 30.7289 16.0615C29.8598 16.0615 29.1356 16.2546 28.5562 16.6409C28.6045 16.4477 28.6528 16.2546 28.7493 16.0615C27.4457 16.2546 26.0455 16.3994 24.4522 16.3994L24.1625 17.4134C24.0659 16.496 23.5831 16.0615 22.6657 16.0615C21.5552 16.0615 20.4447 16.5926 19.2377 17.6065C18.0306 18.6204 17.065 19.9241 16.2442 21.5174C15.4234 23.1107 15.0371 24.6075 15.0371 26.1042C15.0371 27.0699 15.2785 27.7941 15.7613 28.3252C16.2442 28.808 16.9684 29.0977 17.9823 29.0977C18.8031 29.0977 19.5274 28.9046 20.1068 28.4701C20.5896 28.1321 21.0724 27.7458 21.4104 27.2147L20.2516 31.029C20.0102 31.9947 19.6722 32.6223 19.3342 32.912C19.0928 33.1052 18.8031 33.2017 18.4169 33.2017C18.272 33.2017 18.1272 33.1535 17.9341 33.1052C18.4652 32.912 18.8514 32.6223 19.1894 32.1878C19.4791 31.8015 19.6239 31.3187 19.6239 30.8359C19.6239 30.4014 19.4791 30.1117 19.2377 29.8702C18.8997 29.6771 18.5134 29.5323 18.0789 29.5323C17.6926 29.5323 17.3064 29.6288 17.0167 29.822C16.727 30.0151 16.4373 30.2565 16.2925 30.5462C16.0993 30.8359 16.051 31.1256 16.051 31.4636C16.051 31.8981 16.1476 32.2844 16.389 32.5741C16.6304 32.912 16.8236 33.2017 17.3064 33.3466C17.7409 33.5397 18.4169 33.7811 19.0446 33.7811C19.1894 33.7811 19.286 33.7811 19.3825 33.7811C22.5692 33.25 23.9694 32.8155 25.4661 27.3113C25.8524 25.9594 25.7075 26.4422 28.3148 17.7031C28.5079 17.5582 28.701 17.4617 28.8942 17.4617C29.0873 17.4617 29.1839 17.6065 29.1839 17.8479C29.1839 17.9928 29.1356 18.1859 29.0873 18.4756L26.1904 28.7597H30.3909L32.1291 22.0968C32.6602 20.4552 33.1913 19.1998 33.6741 18.379C34.157 17.5582 34.6398 17.0754 35.026 16.8823C35.4123 16.6891 35.8951 16.5926 36.3779 16.5926C36.4262 16.5926 36.5711 16.6409 36.7159 16.6891C36.2331 16.7857 35.7986 16.9788 35.4123 17.2685C35.026 17.5582 34.6881 17.8962 34.4467 18.3307C34.2052 18.7653 34.1087 19.1998 34.1087 19.6344C34.1087 20.2138 34.2535 20.6483 34.5432 20.9863C34.8329 21.276 35.2675 21.4208 35.8468 21.4208C36.2331 21.4208 36.5711 21.3725 36.8608 21.2277C36.2814 22.5313 36.04 23.8349 36.04 25.1386C36.04 26.4422 36.3779 27.4078 37.1022 28.1321C37.8264 28.808 38.8886 29.1943 40.2405 29.1943C42.027 29.1943 43.5238 28.7115 44.7791 27.7941C45.4068 27.3596 45.9379 26.8285 46.3724 26.2491C46.4207 27.263 46.807 28.0355 47.6278 28.4701C48.4486 28.9529 49.5108 29.1943 50.7661 29.1943C51.78 29.1943 52.6491 29.0494 53.3251 28.7115C54.0493 28.3735 54.5804 27.9872 54.9184 27.4078C55.3047 26.8767 55.4495 26.2491 55.4495 25.6214C55.4495 25.0903 55.353 24.5592 55.1598 23.9798C54.9667 23.4004 54.5804 22.6762 54.0493 21.8071C53.9528 21.6139 53.7596 21.3243 53.5182 20.938C53.2768 20.5517 53.0837 20.1655 52.8905 19.7792C52.6974 19.393 52.6491 19.0067 52.6491 18.6204C52.6491 17.9928 52.794 17.5099 53.0837 17.2202C53.3734 16.8823 53.8079 16.7374 54.339 16.7374C54.5804 16.7374 54.7736 16.7857 54.9184 16.834C54.7253 17.0271 54.5321 17.3651 54.3873 17.7514C54.3873 18.0893 54.2907 18.5239 54.2907 18.9584ZM23.8728 18.2825L22.0381 24.4143C21.6518 25.5731 21.3138 26.3456 20.9758 26.7802C20.6379 27.2147 20.3482 27.4561 20.0585 27.4561C19.8654 27.4561 19.7205 27.3596 19.6239 27.1664C19.5274 26.9733 19.5274 26.6353 19.5274 26.2008C19.5274 24.8489 19.7688 23.497 20.2033 22.0968C20.6862 20.6966 21.2173 19.5378 21.8449 18.6204C22.4726 17.7031 23.0037 17.2685 23.4865 17.2685C23.7762 17.2685 23.9211 17.5099 23.9211 17.9445C23.9211 18.041 23.9211 18.1376 23.8728 18.2825ZM43.91 22.7244C43.4272 24.366 42.7995 25.8145 42.1718 26.925C41.4959 28.0838 40.9648 28.6149 40.5302 28.6149C40.3854 28.6149 40.2405 28.5183 40.1923 28.3252C40.0957 28.1321 40.0957 27.7941 40.0957 27.3113C40.0957 25.9111 40.3371 24.366 40.8682 22.7244C41.351 21.0346 41.9787 19.5861 42.6547 18.4273C43.3306 17.2202 43.91 16.6409 44.3446 16.6409C44.4894 16.6409 44.586 16.7374 44.6342 16.9306C44.6825 17.1237 44.7308 17.4617 44.7308 18.041C44.6342 19.4412 44.3928 21.0346 43.91 22.7244Z" fill="white"/>
<path d="M67.52 24.2213C68.1476 22.8211 68.4373 21.4692 68.4373 20.1656C68.4373 18.862 68.0994 17.848 67.3751 17.1721C66.6509 16.4961 65.5887 16.1099 64.2368 16.1099C62.4503 16.1099 60.9536 16.5927 59.6982 17.5101C58.4429 18.4274 57.5255 19.5862 56.8978 20.9864C56.2702 22.3866 55.9805 23.7385 55.9805 25.0904C55.9805 26.394 56.3184 27.3597 57.0427 28.0839C57.7669 28.7599 58.8291 29.1461 60.181 29.1461C61.9675 29.1461 63.4643 28.6633 64.7196 27.7459C65.9267 26.7803 66.8923 25.6215 67.52 24.2213ZM63.7539 22.7246C63.2711 24.3662 62.6434 25.8146 62.0158 26.9251C61.3398 28.0839 60.8087 28.615 60.3742 28.615C60.2293 28.615 60.0845 28.5184 60.0362 28.3253C59.9396 28.1322 59.9396 27.7942 59.9396 27.3114C59.9396 25.9112 60.181 24.3662 60.7121 22.7246C61.195 21.0347 61.8226 19.5862 62.4986 18.4274C63.1746 17.2204 63.7539 16.641 64.1885 16.641C64.3333 16.641 64.4299 16.7375 64.4782 16.9307C64.5265 17.1238 64.5747 17.4618 64.5747 18.0412C64.4782 19.4413 64.2368 21.0347 63.7539 22.7246Z" fill="white"/>
<path d="M82.6807 12.6336C81.9565 12.7785 81.1357 12.8267 80.2183 12.875C80.2183 12.3439 80.0735 11.8611 79.7838 11.4748C79.4941 11.0886 79.0596 10.7506 78.4802 10.5575C77.9008 10.3643 77.2731 10.2195 76.5006 10.2195C75.0521 10.2195 73.8451 10.5575 72.9277 11.2817C71.6241 12.2473 70.6101 14.0338 69.9342 16.5928H68.0994L67.9546 17.0756H69.8376L65.4922 33.2502C66.7958 33.0571 68.2443 32.9605 69.7893 32.9122L74.0382 17.0756H75.1004H76.404H77.2731L74.9556 25.0422C74.8107 25.5733 74.7141 26.1044 74.7141 26.5389C74.7141 27.3115 74.9555 27.9391 75.3901 28.422C75.8246 28.9048 76.5006 29.0979 77.3697 29.0979C78.287 29.0979 79.0596 28.8565 79.6872 28.3254C80.3149 27.8426 80.7977 27.1183 81.1357 26.201L81.5702 24.8973H81.1357L80.7494 25.9113C80.5563 26.4424 80.3149 26.8769 79.9769 27.2149C79.6389 27.5529 79.3493 27.746 79.0113 27.746C78.6733 27.746 78.5285 27.5529 78.5285 27.2149C78.5285 27.0701 78.5285 26.9252 78.5767 26.7804L81.4254 17.0756H83.8395L83.8878 16.5928H81.522L82.6807 12.6336ZM76.2592 14.8063C76.5972 15.096 77.08 15.2409 77.6594 15.2409H77.7077L77.3214 16.5445H76.5006H75.1487H74.0865L74.9556 13.4061C75.2935 12.1991 75.6315 11.4265 76.1143 11.0403C76.404 10.7989 76.7903 10.654 77.2731 10.654C77.4662 10.654 77.6594 10.7023 77.9008 10.7989C77.2248 11.0403 76.742 11.4265 76.3557 11.9094C75.9695 12.3922 75.7764 12.9716 75.7764 13.5993C75.7281 14.1304 75.9212 14.5649 76.2592 14.8063Z" fill="white"/>
<path d="M77.5144 6.8879C68.9684 3.02531 57.622 0.900879 45.5514 0.900879C33.4808 0.900879 22.1344 3.02531 13.5884 6.8879C4.8493 10.8471 0.0693359 16.1098 0.0693359 21.8072C0.0693359 27.5045 4.89758 32.8156 13.5884 36.7264C22.1344 40.589 33.4808 42.7135 45.5514 42.7135C57.622 42.7135 68.9684 40.589 77.5144 36.7264C86.2535 32.7673 91.0335 27.5045 91.0335 21.8072C91.0335 16.1098 86.2535 10.7988 77.5144 6.8879ZM45.5514 41.265C21.2653 41.265 1.51781 32.5259 1.51781 21.8072C1.51781 11.0885 21.2653 2.34935 45.5514 2.34935C69.8375 2.34935 89.585 11.0885 89.585 21.8072C89.585 32.5259 69.8375 41.265 45.5514 41.265Z" fill="white"/>
<path d="M90.0196 7.17764C89.9713 7.12935 89.923 7.08107 89.8747 7.03279C90.261 6.93622 90.5024 6.79138 90.6955 6.54996C90.8887 6.30855 90.9852 6.01886 90.9852 5.72916C90.9852 5.29462 90.8404 4.95664 90.5507 4.76351C90.261 4.5221 89.7782 4.42554 89.1988 4.42554H87.6055V9.10893H88.5228V7.2742H88.9091C89.0057 7.2742 89.0539 7.2742 89.1022 7.32248C89.1505 7.37077 89.1988 7.37077 89.1988 7.41905L90.1644 8.96409C90.2127 9.06065 90.3093 9.10893 90.4541 9.10893H91.3232L90.2127 7.37077C90.1161 7.32248 90.0679 7.22592 90.0196 7.17764ZM89.5368 6.59825C89.3919 6.64653 89.2471 6.64653 89.0539 6.64653H88.4746V5.10149H89.1505C89.3436 5.10149 89.4885 5.10149 89.585 5.14977C89.6816 5.19806 89.7782 5.24634 89.8747 5.29462C89.923 5.3429 90.0196 5.43947 90.0196 5.53603C90.0679 5.6326 90.0679 5.72916 90.0679 5.87401C90.0679 6.01886 90.0679 6.11542 90.0196 6.21199C89.9713 6.30855 89.923 6.40512 89.8747 6.4534C89.8265 6.50168 89.6816 6.54996 89.5368 6.59825Z" fill="white"/>
<path d="M92.772 5.29461C92.5789 4.81178 92.2892 4.42552 91.9512 4.08755C91.6132 3.74957 91.1787 3.45988 90.7441 3.26675C90.2613 3.07362 89.7785 2.97705 89.2474 2.97705C88.9094 2.97705 88.5714 3.02533 88.2334 3.1219C87.8955 3.21846 87.6058 3.36331 87.3161 3.50816C87.0264 3.65301 86.785 3.89442 86.5435 4.13583C86.3021 4.37724 86.109 4.61865 85.9159 4.90835C85.771 5.19804 85.6262 5.48774 85.5296 5.82571C85.433 6.16369 85.3848 6.50167 85.3848 6.83965C85.3848 7.17762 85.433 7.5156 85.5296 7.85358C85.6262 8.19156 85.771 8.48125 85.9159 8.77094C86.0607 9.06064 86.3021 9.30205 86.5435 9.54346C86.785 9.78488 87.0264 9.978 87.3161 10.1229C87.6058 10.2677 87.8955 10.4125 88.2334 10.5091C88.5714 10.6057 88.9094 10.654 89.2474 10.654C89.7785 10.654 90.2613 10.5574 90.7441 10.3643C91.2269 10.1711 91.6132 9.88144 91.9512 9.54346C92.2892 9.20549 92.5789 8.77094 92.772 8.3364C92.9651 7.85358 93.0617 7.37075 93.0617 6.83965C93.0617 6.26026 92.9651 5.72915 92.772 5.29461ZM92.3857 7.66045C92.2892 7.95014 92.1926 8.19155 92.0477 8.43297C91.9029 8.67438 91.7581 8.91579 91.5166 9.10892C91.3235 9.30205 91.0821 9.49518 90.8407 9.64003C90.5993 9.78487 90.3096 9.88144 90.0682 9.97801C89.7785 10.0746 89.4888 10.0746 89.1991 10.0746C88.9094 10.0746 88.6197 10.0263 88.33 9.97801C88.0403 9.88144 87.7989 9.78487 87.5575 9.64003C87.3161 9.49518 87.0747 9.30205 86.8815 9.10892C86.6884 8.91579 86.4953 8.67438 86.3504 8.43297C86.2056 8.19155 86.109 7.90186 86.0124 7.61217C85.9159 7.32247 85.9159 7.03278 85.9159 6.74308C85.9159 6.45339 85.9642 6.11541 86.0124 5.82571C86.109 5.53602 86.2056 5.29461 86.3504 5.00491C86.4953 4.71522 86.6401 4.52209 86.8815 4.32896C87.1229 4.13583 87.3161 3.9427 87.5575 3.79785C87.7989 3.653 88.0403 3.55644 88.33 3.45988C88.6197 3.36331 88.9094 3.36331 89.1991 3.36331C89.4888 3.36331 89.7785 3.41159 90.0682 3.45988C90.3579 3.50816 90.5993 3.653 90.8407 3.79785C91.0821 3.9427 91.3235 4.13583 91.5166 4.32896C91.7098 4.52209 91.9029 4.7635 92.0477 5.00491C92.1926 5.24633 92.2892 5.53602 92.3857 5.82571C92.4823 6.11541 92.4823 6.4051 92.4823 6.74308C92.4823 7.08106 92.4823 7.37075 92.3857 7.66045Z" fill="white"/>
</svg>
