<svg xmlns="http://www.w3.org/2000/svg" width="87" height="31" viewBox="0 0 87 31"><g><g><g><g><path fill="#fff" d="M41.402 28.573H38.01V5.75h3.392z"/></g><g><path fill="#fff" d="M65.631 17.469v8.916c-1.163.824-2.374 1.454-3.682 1.842a14.85 14.85 0 0 1-4.265.63c-1.841 0-3.537-.291-4.99-.873-1.503-.581-2.763-1.357-3.829-2.423-1.066-1.017-1.841-2.277-2.423-3.682-.581-1.454-.872-3.005-.872-4.7 0-1.745.29-3.296.824-4.75.533-1.453 1.308-2.665 2.326-3.682a10.062 10.062 0 0 1 3.683-2.375c1.453-.581 3.052-.872 4.894-.872.92 0 1.744.048 2.52.194.775.145 1.502.339 2.18.581a9.335 9.335 0 0 1 1.842.921c.581.34 1.114.775 1.599 1.211l-.97 1.551c-.145.242-.339.388-.581.485-.242.048-.485 0-.775-.194-.291-.146-.582-.34-.921-.533a9.526 9.526 0 0 0-1.211-.582c-.485-.194-1.018-.339-1.6-.484-.63-.146-1.356-.194-2.18-.194-1.26 0-2.375.194-3.392.63a6.904 6.904 0 0 0-2.568 1.744c-.727.776-1.26 1.696-1.648 2.762-.388 1.066-.582 2.278-.582 3.635 0 1.405.194 2.665.582 3.78a7.795 7.795 0 0 0 1.696 2.81c.727.775 1.648 1.357 2.665 1.744 1.066.388 2.23.582 3.538.582.484 0 .969-.049 1.405-.097a9.688 9.688 0 0 0 1.26-.242c.387-.097.775-.243 1.163-.388.387-.145.727-.34 1.114-.533v-4.797h-3.392c-.194 0-.387-.049-.533-.194a.622.622 0 0 1-.194-.485V17.47z"/></g><g><path fill="#fff" d="M85.69 8.55h-7.27v20.014H75.03V8.55H67.76V5.74h17.93z"/></g><g><path fill="#fff" d="M81.47 26.34v.436h.678v1.793h.533v-1.793h.679v-.436zm4.797.048h-.581l-.049.049-.581 1.066c0 .048-.049.048-.049.097 0 0-.048.048-.048.097-.049-.049-.049-.146-.097-.194l-.581-1.066c-.049 0-.097-.049-.097-.049h-.533v2.23h.436v-1.309l-.049-.29.679 1.21c.048.05.097.098.193.098h.097c.049 0 .049-.049.097-.049.049-.048.097-.048.097-.097l.679-1.211-.049.29v1.31h.436z"/></g></g><g><path fill="#fff" d="M15.764 30.892c8.082 0 14.634-6.877 14.634-15.361C30.398 7.047 23.846.17 15.764.17S1.13 7.047 1.13 15.531c0 8.484 6.552 15.361 14.634 15.361z"/></g><g><path fill="#e6a331" d="M.31 15.289c0 4.506 1.987 8.577 5.136 11.339h.437c10.951 0 19.819-8.868 19.819-19.82 0-.92-.049-1.84-.194-2.761A14.918 14.918 0 0 0 15.428.17C7.095.17.31 6.906.31 15.289z"/></g><g><path fill="#5698d6" d="M26.084 27.311a15.061 15.061 0 0 0 5.137-11.339c0-4.458-1.938-8.48-5.04-11.242.146.92.194 1.793.194 2.762 0 10.951-8.868 19.82-19.819 19.82H6.12c2.665 2.374 6.154 3.779 9.982 3.779 1.454 0 2.86-.194 4.168-.582.048 0 .145-.048.193-.048a15.017 15.017 0 0 0 5.573-3.101c.048 0 .048 0 .048-.049z"/></g><g><path fill="#fff" d="M22.6 19.076c2.228-2.423 6.25-6.881 6.25-6.881 0-.194.097-.097-.096-.097 0 0-4.507 4.07-6.93 6.3-.194-4.41-.727-15.023-.727-15.023-.194-.193 0-.193-.242 0 0 0-.533 10.467-.727 14.925l-5.815-7.365c-.194-.049-.097-.097-.145.097l5.04 7.753L4.912 14.86c-.291.145-.243-.049-.097.242l13.761 5.088c-3.15 1.018-8.625 2.86-8.625 2.86-.097.193-.145.048.049.145 0 0 5.863-1.309 9.061-2.036l-6.25 6.833c0 .194-.098.145.144.145l7.22-6.59.437 8.965.872-.291.34-7.947a777.772 777.772 0 0 0 4.166 5.233l.291-.242-3.731-5.766c1.744.484 6.832 1.89 6.832 1.89l.485-.873s-4.942-1.89-6.687-2.52l8.092-2.665v-.242z"/></g></g></g></svg>