<svg width="35" height="28" viewBox="0 0 35 28" fill="none" xmlns="http://www.w3.org/2000/svg">
<path d="M34.2937 26.7322V26.8018H34.3584C34.3707 26.8018 34.3829 26.7984 34.3934 26.7931C34.4021 26.7879 34.4074 26.7775 34.4074 26.767C34.4074 26.7566 34.4021 26.7461 34.3934 26.7409C34.3829 26.7339 34.3707 26.7322 34.3584 26.7322H34.2937ZM34.3602 26.6834C34.3881 26.6817 34.4161 26.6904 34.4389 26.7061C34.4581 26.7217 34.4669 26.7444 34.4669 26.767C34.4669 26.7879 34.4599 26.8071 34.4441 26.821C34.4266 26.8367 34.4039 26.8454 34.3811 26.8471L34.4686 26.9464H34.4021L34.3217 26.8471H34.2954V26.9464H34.2395V26.6834H34.3602ZM34.3427 27.037C34.3724 27.037 34.4021 27.0317 34.4284 27.0195C34.4546 27.0091 34.4773 26.9917 34.4983 26.9725C34.5193 26.9534 34.5351 26.929 34.5456 26.9029C34.5683 26.8471 34.5683 26.7862 34.5456 26.7304C34.5351 26.7043 34.5176 26.6817 34.4983 26.6608C34.4773 26.6416 34.4546 26.6242 34.4284 26.6138C34.4004 26.6033 34.3724 26.5963 34.3427 26.5981C34.3129 26.5981 34.2832 26.6033 34.2552 26.6138C34.229 26.6242 34.2045 26.6416 34.1835 26.6608C34.1205 26.7252 34.1013 26.821 34.1363 26.9046C34.1468 26.9307 34.1625 26.9551 34.1835 26.9743C34.2045 26.9952 34.229 27.0108 34.2552 27.0213C34.2814 27.0335 34.3112 27.0387 34.3427 27.037ZM34.3427 26.5336C34.4196 26.5336 34.4931 26.5632 34.5491 26.6172C34.5753 26.6434 34.5963 26.673 34.6103 26.7078C34.64 26.7775 34.64 26.8576 34.6103 26.929C34.5963 26.9621 34.5753 26.9934 34.5491 27.0195C34.5228 27.0457 34.4913 27.0666 34.4564 27.0805C34.4214 27.0962 34.3811 27.1031 34.3427 27.1031C34.3024 27.1031 34.264 27.0962 34.2272 27.0805C34.1922 27.0666 34.1608 27.0457 34.1345 27.0195C34.1083 26.9934 34.0873 26.9603 34.0733 26.9255C34.0436 26.8558 34.0436 26.7757 34.0733 26.7043C34.0873 26.6712 34.1083 26.6399 34.1345 26.6138C34.1608 26.5876 34.1922 26.5667 34.2272 26.5528C34.264 26.5371 34.3024 26.5302 34.3427 26.5302V26.5336ZM7.55981 25.5165C7.55981 25.015 7.8904 24.6005 8.43088 24.6005C8.94688 24.6005 9.29496 24.9958 9.29496 25.5165C9.29496 26.0373 8.94688 26.4326 8.43088 26.4326C7.8904 26.4326 7.55981 26.0199 7.55981 25.5165ZM9.88267 25.5165V24.0867H9.25823V24.435C9.06058 24.1772 8.75972 24.0153 8.35217 24.0153C7.54757 24.0153 6.91613 24.644 6.91613 25.5165C6.91613 26.3891 7.54757 27.0178 8.35217 27.0178C8.75972 27.0178 9.06058 26.8558 9.25823 26.5981V26.9447H9.88267V25.5165ZM30.9773 25.5165C30.9773 25.015 31.3079 24.6005 31.8484 24.6005C32.3661 24.6005 32.7125 24.9958 32.7125 25.5165C32.7125 26.0373 32.3644 26.4326 31.8484 26.4326C31.3079 26.4326 30.9773 26.0199 30.9773 25.5165ZM33.3019 25.5165V22.939H32.6775V24.435C32.4798 24.1772 32.179 24.0153 31.7714 24.0153C30.9668 24.0153 30.3354 24.644 30.3354 25.5165C30.3354 26.3891 30.9668 27.0178 31.7714 27.0178C32.179 27.0178 32.4798 26.8558 32.6775 26.5981V26.9447H33.3019V25.5165ZM17.6314 24.5726C18.0337 24.5726 18.2925 24.8234 18.3573 25.2657H16.867C16.9352 24.853 17.1871 24.5726 17.6314 24.5726ZM17.6436 24.0153C16.8023 24.0153 16.2128 24.6248 16.2128 25.5165C16.2128 26.4257 16.825 27.0178 17.6838 27.0178C18.1159 27.0178 18.5129 26.9098 18.861 26.6172L18.5549 26.1575C18.3135 26.349 18.0074 26.457 17.7188 26.457C17.3165 26.457 16.951 26.2707 16.86 25.7569H18.9922C18.9974 25.6803 19.0044 25.6019 19.0044 25.5183C19.0009 24.6248 18.4465 24.0153 17.6436 24.0153ZM25.1807 25.5148C25.1807 25.0132 25.5113 24.5987 26.0517 24.5987C26.5677 24.5987 26.9158 24.9941 26.9158 25.5148C26.9158 26.0355 26.5677 26.4309 26.0517 26.4309C25.5113 26.4309 25.1807 26.0181 25.1807 25.5148ZM27.5053 25.5148V24.0867H26.8808V24.435C26.6814 24.1772 26.3823 24.0153 25.9748 24.0153C25.1702 24.0153 24.5387 24.644 24.5387 25.5165C24.5387 26.3891 25.1702 27.0178 25.9748 27.0178C26.3823 27.0178 26.6832 26.8558 26.8808 26.5981V26.9447H27.5053V25.5148ZM21.6544 25.5148C21.6544 26.3821 22.2613 27.0161 23.1866 27.0161C23.6187 27.0161 23.9073 26.9203 24.2186 26.6747L23.9195 26.1731C23.6851 26.3403 23.4385 26.4309 23.1674 26.4309C22.6689 26.4257 22.3033 26.0669 22.3033 25.5148C22.3033 24.9627 22.6689 24.6057 23.1674 24.5987C23.4385 24.5987 23.6851 24.6893 23.9195 24.8565L24.2186 24.3549C23.9073 24.1093 23.6187 24.0135 23.1866 24.0135C22.2613 24.0153 21.6544 24.6475 21.6544 25.5148ZM29.7022 24.0153C29.3419 24.0153 29.1075 24.1825 28.9448 24.435V24.0867H28.3256V26.9447H28.9501V25.3424C28.9501 24.8687 29.1547 24.6074 29.5623 24.6074C29.6952 24.6057 29.8281 24.6301 29.9523 24.6788L30.1447 24.0936C30.01 24.0379 29.8299 24.0153 29.7022 24.0153ZM12.9699 24.3148C12.6691 24.118 12.2563 24.0153 11.7997 24.0153C11.0721 24.0153 10.6051 24.3619 10.6051 24.9296C10.6051 25.3964 10.9531 25.6837 11.5951 25.7726L11.8907 25.8144C12.2335 25.8631 12.3944 25.9519 12.3944 26.1139C12.3944 26.3351 12.1671 26.4605 11.7403 26.4605C11.3082 26.4605 10.9951 26.3229 10.7852 26.1609L10.4914 26.6451C10.8342 26.8959 11.2662 27.0161 11.735 27.0161C12.5641 27.0161 13.0451 26.6277 13.0451 26.0826C13.0451 25.581 12.6673 25.318 12.0429 25.2274L11.749 25.1856C11.4779 25.1508 11.2627 25.0968 11.2627 24.9052C11.2627 24.6962 11.4674 24.5708 11.8085 24.5708C12.1758 24.5708 12.5291 24.7084 12.704 24.8164L12.9699 24.3148ZM21.0247 24.0153C20.6644 24.0153 20.43 24.1825 20.2691 24.435V24.0867H19.6499V26.9447H20.2743V25.3424C20.2743 24.8687 20.479 24.6074 20.8865 24.6074C21.0195 24.6057 21.1524 24.6301 21.2766 24.6788L21.469 24.0936C21.3308 24.0379 21.1506 24.0153 21.0247 24.0153ZM15.6968 24.0867H14.6753V23.2194H14.0456V24.0867H13.4632V24.6544H14.0456V25.9589C14.0456 26.6225 14.3045 27.0178 15.0426 27.0178C15.3138 27.0178 15.6251 26.9342 15.8245 26.7966L15.6443 26.2637C15.4572 26.3717 15.2543 26.4257 15.0916 26.4257C14.7803 26.4257 14.6771 26.2341 14.6771 25.9467V24.6544H15.6986L15.6968 24.0867ZM6.36515 26.9464V25.1525C6.36515 24.4768 5.93311 24.0222 5.2352 24.017C4.86788 24.0118 4.49007 24.125 4.22595 24.5256C4.0283 24.2086 3.7152 24.017 3.27791 24.017C2.97181 24.017 2.67096 24.1076 2.43658 24.442V24.0867H1.81213V26.9447H2.44182V25.3598C2.44182 24.8634 2.71819 24.6005 3.14498 24.6005C3.55953 24.6005 3.76942 24.8687 3.76942 25.3546V26.9447H4.40086V25.3598C4.40086 24.8634 4.68947 24.6005 5.10402 24.6005C5.53081 24.6005 5.73371 24.8687 5.73371 25.3546V26.9447L6.36515 26.9464Z" fill="white"/>
<path d="M34.6487 17.437V17.019H34.5402L34.4143 17.3064L34.2884 17.019H34.1782V17.437H34.2551V17.1218L34.3741 17.3935H34.4545L34.5735 17.1218V17.437H34.6487ZM33.956 17.437V17.0904H34.096V17.0208H33.7391V17.0904H33.8791V17.437H33.956Z" fill="#F79410"/>
<path d="M22.2245 19.2311H12.7634V2.30273H22.2245V19.2311Z" fill="#FF5F00"/>
<path d="M13.3634 10.7666C13.3634 7.33217 14.9779 4.27391 17.4932 2.30241C15.5901 0.808116 13.2357 -0.00347204 10.8114 1.11654e-05C4.83987 1.11654e-05 0 4.82077 0 10.7666C0 16.7124 4.83987 21.5332 10.8114 21.5332C13.2357 21.5367 15.5901 20.7251 17.4932 19.2308C14.9779 17.2593 13.3634 14.1993 13.3634 10.7666Z" fill="#EB001B"/>
<path d="M34.9863 10.7671C34.9863 16.7129 30.1465 21.5337 24.1749 21.5337C21.7506 21.5372 19.3962 20.7256 17.4932 19.2313C20.0084 17.2598 21.6229 14.2015 21.6229 10.7671C21.6229 7.33266 20.0084 4.2744 17.4932 2.3029C19.3962 0.808604 21.7523 -0.00298376 24.1766 0.000499447C30.1464 0.000499447 34.9863 4.82126 34.9863 10.7671Z" fill="#F79E1B"/>
</svg>
