<svg xmlns="http://www.w3.org/2000/svg" width="59" height="45" viewBox="0 0 59 45"><g><g><g><path fill="#fff" d="M57.509 44.186v.115h.107c.02 0 .04-.005.058-.014a.05.05 0 0 0 .023-.043.05.05 0 0 0-.023-.043.102.102 0 0 0-.058-.015zm.11-.08a.209.209 0 0 1 .13.037.128.128 0 0 1 .046.1.115.115 0 0 1-.038.09.177.177 0 0 1-.104.043l.145.164h-.11l-.133-.164h-.043v.164h-.093v-.434zm-.03.584c.05 0 .1-.009.142-.029a.39.39 0 0 0 .116-.078.313.313 0 0 0 .078-.115.374.374 0 0 0 0-.285.386.386 0 0 0-.078-.115.343.343 0 0 0-.257-.104.414.414 0 0 0-.145.027.401.401 0 0 0-.118.077.371.371 0 0 0 0 .518c.034.035.075.06.118.078.044.02.093.029.145.026zm0-.832a.49.49 0 0 1 .342.138.472.472 0 0 1 0 .665.457.457 0 0 1-.153.1.466.466 0 0 1-.188.038.48.48 0 0 1-.445-.293.472.472 0 0 1 .101-.515.48.48 0 0 1 .344-.138zm-42.805-.167c.852 0 1.427-.653 1.427-1.513 0-.86-.575-1.513-1.427-1.513-.893 0-1.439.684-1.439 1.513 0 .832.546 1.513 1.439 1.513zm2.398.846h-1.031v-.572c-.327.426-.824.693-1.497.693-1.33 0-2.372-1.038-2.372-2.48 0-1.441 1.043-2.48 2.372-2.48.673 0 1.17.268 1.497.693v-.575h1.031zm36.287-.846c.853 0 1.428-.653 1.428-1.513 0-.86-.572-1.513-1.428-1.513-.893 0-1.439.684-1.439 1.513 0 .832.546 1.513 1.44 1.513zm2.401.846H54.84v-.572c-.327.426-.824.693-1.497.693-1.329 0-2.372-1.038-2.372-2.48 0-1.441 1.043-2.48 2.372-2.48.673 0 1.17.268 1.497.693V37.92h1.032zm-27.15-2.773h2.462c-.107-.731-.534-1.145-1.199-1.145-.734 0-1.15.463-1.263 1.145zm3.531.417c0 .138-.011.268-.02.394H28.71c.15.849.754 1.157 1.418 1.157.477 0 .983-.179 1.382-.495l.505.76c-.575.483-1.23.661-1.944.661-1.419 0-2.43-.978-2.43-2.48 0-1.473.973-2.48 2.363-2.48 1.327 0 2.243 1.007 2.248 2.483zm11.642 1.508c.853 0 1.428-.654 1.428-1.514s-.575-1.513-1.428-1.513c-.893 0-1.439.685-1.439 1.513 0 .832.546 1.514 1.44 1.514zm2.402.848h-1.032v-.572c-.326.426-.823.693-1.497.693-1.329 0-2.372-1.038-2.372-2.48 0-1.441 1.043-2.48 2.372-2.48.674 0 1.168.268 1.497.693v-.575h1.032zm-7.135-4.842c.714 0 1.19.158 1.705.564l-.494.829c-.387-.277-.795-.426-1.243-.426-.823.011-1.427.601-1.427 1.513 0 .912.604 1.505 1.427 1.514.448 0 .856-.15 1.243-.426l.494.828c-.514.406-.991.564-1.705.564-1.528 0-2.531-1.047-2.531-2.48s1.003-2.477 2.531-2.48zm11.495.133l-.318.966a1.705 1.705 0 0 0-.644-.118c-.674 0-1.012.432-1.012 1.214v2.647H47.65v-4.721h1.023v.575c.268-.417.656-.693 1.25-.693.212 0 .51.037.732.13zm-28.812 1.194a3.063 3.063 0 0 0-1.48-.406c-.563 0-.9.207-.9.552 0 .317.355.406.802.463l.486.07c1.031.15 1.656.584 1.656 1.412 0 .9-.795 1.542-2.165 1.542-.774 0-1.488-.198-2.054-.613l.485-.8c.347.268.864.495 1.578.495.705 0 1.08-.207 1.08-.572 0-.268-.265-.414-.831-.495l-.489-.069c-1.06-.147-1.635-.621-1.635-1.392 0-.938.771-1.511 1.973-1.511.754 0 1.436.17 1.933.495zm14.48-1.194l-.318.966a1.705 1.705 0 0 0-.645-.118c-.673 0-1.01.432-1.01 1.214v2.647h-1.032v-4.721h1.023v.575c.265-.417.653-.693 1.248-.693.208 0 .506.037.734.13zm-9.533.926h-1.687v2.135c0 .474.17.79.684.79.27.001.604-.088.913-.267l.298.88c-.33.228-.844.366-1.292.366-1.219 0-1.647-.653-1.647-1.75v-2.154h-.962v-.938h.962v-1.433h1.04v1.433h1.688zm-16.462 3.783v-2.626c0-.803-.335-1.246-1.04-1.246-.685 0-1.161.434-1.161 1.254v2.618H7.083v-2.626c0-.803-.346-1.246-1.031-1.246-.705 0-1.162.434-1.162 1.254v2.618H3.85v-4.721h1.032v.587c.387-.552.884-.702 1.39-.702.722 0 1.24.316 1.566.84.436-.662 1.06-.849 1.667-.84 1.153.009 1.866.76 1.866 1.876v2.963z"/></g><g><path fill="#f79410" d="M57.968 28.83v-.52l-.196.449h-.133l-.197-.45v.521h-.127v-.69h.182l.208.475.208-.475h.18v.69zm-1.147 0v-.572h-.231v-.115h.59v.115h-.232v.572z"/></g><g><path fill="#ff5f00" d="M37.57 31.795H21.94V3.83h15.63z"/></g><g><path fill="#eb001b" d="M22.926 17.806c0-5.673 2.667-10.726 6.822-13.982A17.834 17.834 0 0 0 18.71.02C8.845.02.85 7.984.85 17.806c0 9.823 7.995 17.786 17.86 17.786a17.834 17.834 0 0 0 11.038-3.803c-4.155-3.257-6.822-8.312-6.822-13.983z"/></g><g><path fill="#f79e1b" d="M58.648 17.806c0 9.823-7.995 17.786-17.86 17.786A17.833 17.833 0 0 1 29.75 31.79c4.155-3.257 6.822-8.31 6.822-13.983S33.905 7.08 29.75 3.824A17.842 17.842 0 0 1 40.791.02c9.862 0 17.857 7.964 17.857 17.786z"/></g></g></g></svg>