<svg xmlns="http://www.w3.org/2000/svg" width="41" height="42" viewBox="0 0 41 42"><g><g><g><g><path fill="#33a457" d="M20.384.78c.418 0 .79 0 1.207.07v20.947h-4.71v19.277C7.325 39.452.04 31.1.04 21.102.04 9.897 9.18.78 20.385.78zm-1.16 14.963a2.495 2.495 0 0 0-2.505-2.506h-.023a2.5 2.5 0 0 0-2.459 2.506c0 1.368 1.16 2.435 2.505 2.435 1.37 0 2.506-1.067 2.483-2.435z"/></g><g><g/><g><path fill="#425297" d="M23.74 1.06c9.557 1.647 16.98 9.998 16.98 20.043 0 11.204-9.14 20.275-20.345 20.275H19.03v-17.19h4.71zm2.296 28.533c0-1.368-1.16-2.436-2.506-2.436-1.368 0-2.505 1.09-2.505 2.436A2.495 2.495 0 0 0 23.53 32.1c1.346 0 2.483-1.067 2.506-2.506zm5.915 0c0-1.368-1.067-2.436-2.505-2.436a2.42 2.42 0 0 0-2.436 2.436c0 1.438 1.09 2.506 2.436 2.506 1.415 0 2.505-1.067 2.505-2.506zm3.526 2.575c1.369 0 2.46-1.113 2.482-2.505 0-1.369-1.16-2.436-2.505-2.436-1.369 0-2.505 1.09-2.505 2.436a2.495 2.495 0 0 0 2.505 2.505z"/></g></g></g><g><path fill="#fff" d="M16.734 18.458a2.714 2.714 0 1 0 0-5.428 2.714 2.714 0 0 0 0 5.428z"/></g><g><path fill="#fff" d="M23.514 32.428a2.714 2.714 0 1 0 0-5.428 2.714 2.714 0 0 0 0 5.428z"/></g><g><path fill="#fff" d="M29.474 32.428a2.714 2.714 0 1 0 0-5.428 2.714 2.714 0 0 0 0 5.428z"/></g><g><path fill="#fff" d="M35.434 32.428a2.714 2.714 0 1 0 0-5.428 2.714 2.714 0 0 0 0 5.428z"/></g></g></g></svg>