<svg width="18" height="19" viewBox="0 0 18 19" fill="none" xmlns="http://www.w3.org/2000/svg">
<path d="M6.60527 18.0665C6.82457 18.0665 7.00159 17.8912 7.00159 17.6742C7.00159 17.4571 6.82457 17.2819 6.60527 17.2819C6.15876 17.2819 5.72017 17.2662 5.29215 17.2348C4.17982 17.1537 3.15996 16.968 2.34091 16.6934C1.7068 16.4816 0.977581 16.1155 0.821696 15.7362C0.803201 15.6892 0.792633 15.6421 0.792633 15.5924V14.5829C1.89703 15.3413 3.98959 15.7467 5.97645 15.8121C5.98174 15.8121 5.98438 15.8121 5.98966 15.8121C6.20367 15.8121 6.37805 15.6447 6.38598 15.4329C6.39391 15.2158 6.22217 15.0353 6.00287 15.0275C5.53258 15.0118 5.0887 14.9804 4.67918 14.9333C2.4096 14.6823 1.0727 14.0232 0.832265 13.5106C0.805843 13.4557 0.792633 13.4008 0.792633 13.3485V12.4488C1.04628 12.624 1.3739 12.794 1.79663 12.9562C2.82177 13.3459 4.21945 13.5995 5.73338 13.6702C5.73866 13.6702 5.74659 13.6702 5.75187 13.6702C5.96324 13.6702 6.13762 13.5054 6.14819 13.2962C6.15876 13.0791 5.98966 12.896 5.77037 12.8856C4.33834 12.8202 3.0305 12.5848 2.08198 12.2239C1.45844 11.9885 0.792633 11.5988 0.792633 11.2196V10.265C1.89703 11.0235 3.98959 11.4288 5.97645 11.4942C5.98174 11.4942 5.98438 11.4942 5.98966 11.4942C6.20367 11.4942 6.37805 11.3269 6.38598 11.115C6.39391 10.8979 6.22217 10.7175 6.00287 10.7096C5.53258 10.6939 5.0887 10.6626 4.67918 10.6155C2.4096 10.3644 1.0727 9.70537 0.832265 9.19277C0.805843 9.13785 0.792633 9.08293 0.792633 9.03062V8.07604C1.10176 8.28788 1.52186 8.49448 2.08727 8.6854C3.3 9.09077 4.90376 9.31569 6.60527 9.31569C6.82457 9.31569 7.00159 9.14046 7.00159 8.92339C7.00159 8.70632 6.82457 8.5311 6.60527 8.5311C6.15876 8.5311 5.72017 8.51541 5.29215 8.48402C4.17982 8.40295 3.15996 8.21726 2.34091 7.94266C1.7068 7.73082 0.977581 7.36468 0.821696 6.98546C0.803201 6.93838 0.792633 6.89131 0.792633 6.84162V5.88703C1.10176 6.09887 1.52186 6.30548 2.08727 6.4964C3.3 6.90177 4.90376 7.12668 6.60527 7.12668C8.30679 7.12668 9.91055 6.90177 11.1233 6.4964C11.6913 6.30548 12.1114 6.09887 12.4179 5.88703V6.84162C12.4179 7.05869 12.5949 7.23391 12.8142 7.23391C13.0335 7.23391 13.2105 7.05869 13.2105 6.84162V2.47146C13.2105 1.95101 12.8486 1.20827 11.1233 0.627671C9.91055 0.224916 8.30679 0 6.60527 0C4.90376 0 3.3 0.224916 2.08727 0.630287C0.361969 1.20827 0 1.95101 0 2.47146V15.5924C0 16.1128 0.361969 16.8556 2.08727 17.4362C3.3 17.8416 4.90376 18.0665 6.60527 18.0665ZM2.34091 1.37303C3.47437 0.993813 4.9883 0.784589 6.60527 0.784589C8.22225 0.784589 9.73617 0.993813 10.8696 1.37303C11.5857 1.61364 12.4179 2.04516 12.4179 2.47146C12.4179 2.90036 11.583 3.33189 10.8696 3.56988C9.73617 3.9491 8.22225 4.15832 6.60527 4.15832C4.9883 4.15832 3.47437 3.9491 2.34091 3.56988C1.6249 3.32927 0.792633 2.89775 0.792633 2.47146C0.792633 2.04516 1.62754 1.61364 2.34091 1.37303ZM2.08727 4.31524C2.49151 4.45124 2.94067 4.56631 3.42153 4.66046C4.38062 4.84615 5.47181 4.94553 6.60527 4.94553C7.73874 4.94553 8.82993 4.84615 9.78902 4.66046C10.2699 4.56631 10.719 4.45124 11.1233 4.31524C11.6913 4.12432 12.1114 3.91771 12.4179 3.70588V4.66046C12.4179 5.08937 11.583 5.52089 10.8696 5.75888C9.73617 6.1381 8.22225 6.34733 6.60527 6.34733C4.9883 6.34733 3.47437 6.1381 2.34091 5.75888C1.62754 5.51828 0.792633 5.08675 0.792633 4.65784V3.70326C1.10176 3.91772 1.52186 4.12432 2.08727 4.31524Z" fill="#BEFF06"/>
<path d="M13.1108 7.75439H10.6827C9.58892 7.75439 8.60869 8.36376 7.9191 9.47265C7.28235 10.4952 6.93359 11.8813 6.93359 13.3773C6.93359 14.8732 7.28499 16.2593 7.9191 17.2819C8.60869 18.3908 9.58892 19.0002 10.6827 19.0002H13.1108C14.2839 19.0002 15.3804 18.3987 16.1942 17.3081C16.9842 16.2541 17.4175 14.8575 17.4175 13.3773C17.4175 11.897 16.9842 10.5005 16.1942 9.44649C15.3778 8.3533 14.2839 7.75439 13.1108 7.75439ZM9.04464 17.4624H10.1464C10.3815 17.7527 10.6352 18.0037 10.9073 18.2156H10.6827C10.2309 18.2156 9.62062 18.0691 9.04464 17.4624ZM10.6827 8.53898H10.9073C10.6352 8.75082 10.3815 9.00189 10.1464 9.29219H9.04464C9.62062 8.68282 10.2309 8.53898 10.6827 8.53898ZM15.4676 15.8854C15.8507 15.2812 16.0859 14.5489 16.144 13.7696H16.6116C16.5562 14.7346 16.292 15.6421 15.8507 16.3953L15.4676 15.8854ZM8.47923 16.6778C8.04328 15.888 7.78171 14.8758 7.73151 13.7696H8.81213C8.86762 14.8262 9.14504 15.8278 9.61798 16.6778H8.47923ZM8.47923 10.0768H9.61798C9.14768 10.9267 8.86762 11.9284 8.81213 12.985H7.73151C7.78171 11.8787 8.04328 10.864 8.47923 10.0768ZM14.6697 15.6526C14.2443 16.2201 13.6921 16.5339 13.1108 16.5339C12.5296 16.5339 11.9774 16.2201 11.552 15.6526C11.1002 15.0485 10.8518 14.2403 10.8518 13.3747C10.8518 12.509 11.1002 11.7009 11.552 11.0967C11.9774 10.5292 12.5296 10.2154 13.1108 10.2154C13.6868 10.2154 14.2364 10.524 14.6591 11.0837C14.6618 11.0889 14.6671 11.0941 14.6697 11.0994C15.1136 11.693 15.3593 12.4881 15.3672 13.3354C15.3672 13.3485 15.3646 13.3616 15.3646 13.3747C15.3646 13.3877 15.3646 13.4008 15.3672 13.4139C15.3593 14.2665 15.1136 15.0589 14.6697 15.6526ZM10.3604 16.3823C9.92446 15.6317 9.66289 14.7294 9.60741 13.7696H10.0751C10.1332 14.5437 10.3657 15.2708 10.7435 15.8723L10.3604 16.3823ZM10.3604 10.3697L10.7435 10.8823C10.3631 11.4838 10.1332 12.2109 10.0751 12.985H9.60741C9.66289 12.0252 9.92446 11.1229 10.3604 10.3697ZM12.704 9.46741C12.1703 9.55633 11.6735 9.82309 11.2508 10.2442L10.8386 9.69233C11.3723 9.06727 12.017 8.68021 12.704 8.57037V9.46741ZM10.8386 17.0622L11.2508 16.5104C11.6735 16.9315 12.1703 17.1956 12.704 17.2845V18.1816C12.017 18.0717 11.3723 17.6847 10.8386 17.0622ZM16.1466 12.985C16.0885 12.2056 15.8534 11.4733 15.4703 10.8692L15.8534 10.3566C16.2946 11.1098 16.5588 12.0173 16.6143 12.985H16.1466ZM14.9577 10.2337C14.5323 9.81525 14.0329 9.5511 13.4966 9.4648V8.56775C14.1862 8.67236 14.8361 9.05681 15.3699 9.67925L14.9577 10.2337ZM13.4966 18.1842V17.2872C14.0303 17.2008 14.5323 16.9367 14.9577 16.5183L15.3699 17.0701C14.8361 17.6951 14.1862 18.0796 13.4966 18.1842Z" fill="#BEFF06"/>
<path d="M13.3091 12.9609C12.8916 12.7308 12.778 12.5948 12.778 12.3385C12.778 12.2679 12.7965 11.9122 13.1585 11.9122C13.2985 11.9122 13.4253 11.9436 13.5468 12.0116C13.6182 12.0508 13.7001 12.056 13.7741 12.0247C13.8613 11.988 13.9299 11.907 13.959 11.8024C14.0092 11.6271 13.9405 11.4388 13.8005 11.363C13.6763 11.295 13.5363 11.2505 13.3883 11.2296V10.921C13.3883 10.7353 13.2641 10.5889 13.1056 10.5889C12.9471 10.5889 12.8229 10.7353 12.8229 10.921V11.2741C12.3764 11.4205 12.0937 11.8573 12.0937 12.4143C12.0937 13.0995 12.5111 13.4134 12.9603 13.6488C13.3038 13.8344 13.4385 14.0201 13.4385 14.3052C13.4385 14.606 13.2615 14.8073 12.9946 14.8073C12.7991 14.8073 12.6353 14.7341 12.5323 14.6713C12.4583 14.6269 12.3711 14.619 12.2918 14.6504C12.1994 14.687 12.1307 14.7707 12.1016 14.8806C12.0567 15.0479 12.1175 15.2284 12.2469 15.3095C12.4055 15.4089 12.5957 15.4742 12.7886 15.5004V15.8325C12.7886 16.0182 12.9127 16.1647 13.0713 16.1647H13.0765C13.2351 16.1647 13.3593 16.0182 13.3593 15.8325V15.4585C13.8216 15.3042 14.1228 14.8361 14.1228 14.2607C14.1281 13.6618 13.8824 13.2722 13.3091 12.9609Z" fill="#BEFF06"/>
</svg>
