<svg width="17" height="18" viewBox="0 0 17 18" fill="none" xmlns="http://www.w3.org/2000/svg">
<path d="M3.9457 8.48795C4.27052 10.5168 6.057 12.0732 8.20557 12.0732H8.79396C10.9425 12.0732 12.729 10.5168 13.0538 8.48795C15.237 8.44858 16.9995 6.68748 16.9995 4.52481V2.74533C16.9995 1.88184 16.286 1.17844 15.4101 1.17844H13.1071V0.91861C13.1071 0.412062 12.6891 0 12.1752 0H4.82696C4.31311 0 3.89511 0.412062 3.89511 0.91861V1.18107H1.58946C0.713528 1.18107 0 1.88446 0 2.74796V4.52743C0 6.68748 1.76252 8.44858 3.9457 8.48795ZM0.798725 2.74796C0.798725 2.31752 1.15283 1.96845 1.58946 1.96845H3.89245V7.70057C2.17519 7.63496 0.798725 6.23605 0.798725 4.52743V2.74796ZM12.1726 0.78738C12.2471 0.78738 12.3057 0.845121 12.3057 0.91861V1.57476V7.82131C12.3057 9.73201 10.7295 11.2858 8.7913 11.2858H8.2029C6.26467 11.2858 4.68852 9.73201 4.68852 7.82131V1.57476V0.91861C4.68852 0.845121 4.74709 0.78738 4.82164 0.78738H12.1726ZM16.2008 2.74796V4.52743C16.2008 6.23605 14.8243 7.63496 13.1071 7.70057V1.96845H15.4101C15.844 1.96845 16.2008 2.31752 16.2008 2.74796Z" fill="#FFF774"/>
<path d="M13.5578 18.0003C13.7788 18.0003 13.9572 17.8245 13.9572 17.6067C13.9572 16.2314 12.823 15.1133 11.4279 15.1133H10.3896L10.0807 12.8089C10.0514 12.5937 9.85174 12.4414 9.63342 12.4703C9.43374 12.4966 9.28731 12.6672 9.28731 12.8614C9.28731 12.8797 9.28731 12.8955 9.28997 12.9139L9.5855 15.1133H7.4183L7.71382 12.9139C7.71649 12.8955 7.71649 12.8797 7.71649 12.8614C7.71649 12.6672 7.57005 12.4966 7.37037 12.4703C7.15205 12.4414 6.94971 12.5937 6.92309 12.8089L6.61158 15.1107H5.57324C4.17813 15.1107 3.04395 16.2287 3.04395 17.604C3.04395 17.8219 3.22233 17.9977 3.44331 17.9977H13.5578V18.0003ZM11.4279 15.9007C12.2453 15.9007 12.9322 16.4623 13.1132 17.213H3.88793C4.06898 16.4623 4.75588 15.9007 5.57324 15.9007H11.4279Z" fill="#FFF774"/>
<path d="M7.21967 8.16302H9.77558C9.99656 8.16302 10.1749 7.98717 10.1749 7.76933C10.1749 7.55149 9.99656 7.37564 9.77558 7.37564H8.89699V3.25502C8.89699 3.03718 8.71861 2.86133 8.49763 2.86133H7.48591C7.26493 2.86133 7.08655 3.03718 7.08655 3.25502C7.08655 3.47286 7.26493 3.64871 7.48591 3.64871H8.09827V7.37564H7.21967C6.99869 7.37564 6.82031 7.55149 6.82031 7.76933C6.82031 7.98717 6.99869 8.16302 7.21967 8.16302Z" fill="#FFF774"/>
</svg>
