<svg width="24" height="19" viewBox="0 0 24 23" fill="none" xmlns="http://www.w3.org/2000/svg">
<path d="M10.2126 5.55689C9.44004 5.09929 8.60775 5.06282 7.86831 5.45741C7.39413 5.71274 7.07912 6.07417 6.90006 6.33281C6.88348 6.35934 6.8669 6.38255 6.85032 6.40907C6.82711 6.38918 6.8039 6.36928 6.78069 6.34939C6.53531 6.15043 6.13409 5.89511 5.60354 5.78569C4.78452 5.61657 3.99533 5.88848 3.38521 6.54834C2.93093 7.0391 2.74524 7.68238 2.85135 8.41188C2.96409 9.21101 3.41173 10.0566 4.17771 10.9286C4.99342 11.8538 6.14072 12.7623 7.58314 13.6311C7.66272 13.6775 7.75225 13.7007 7.83846 13.7007C7.97441 13.7007 8.11037 13.6444 8.20653 13.5383C9.34388 12.2948 10.1828 11.0978 10.7034 9.97698C11.1908 8.92584 11.3798 7.98744 11.2605 7.18831C11.1477 6.46213 10.7863 5.89511 10.2126 5.55689ZM9.79484 9.55918C9.36046 10.4943 8.67075 11.5056 7.7423 12.5601C6.55189 11.8107 5.60354 11.0414 4.92047 10.2655C4.29376 9.55255 3.91575 8.86284 3.83285 8.26929C3.77317 7.84154 3.86601 7.48674 4.1147 7.22147C4.41977 6.8932 4.75799 6.7274 5.13269 6.7274C5.22222 6.7274 5.31174 6.73735 5.40459 6.75724C6.00145 6.87993 6.44578 7.34416 6.52868 7.56964C6.60826 7.79181 6.83374 7.92776 7.06917 7.8946C7.3046 7.86144 7.48034 7.6658 7.49361 7.43037C7.50687 7.19163 7.80199 6.62129 8.33916 6.33281C8.77023 6.1007 9.23114 6.12722 9.70863 6.41239C10.0203 6.59808 10.2126 6.90978 10.2756 7.33753C10.3619 7.93107 10.1961 8.69705 9.79484 9.55918Z" fill="#BE6AFF"/>
<path d="M23.0914 11.3963L17.7462 8.92591C17.3284 8.73359 16.8509 8.73359 16.4331 8.92591L11.0812 11.3963C10.5308 11.6516 10.1727 12.2087 10.1727 12.8155V16.8642L3.94874 17.7694C3.72989 17.8026 3.51104 17.7462 3.3353 17.6136C3.15624 17.4809 3.0435 17.2886 3.01034 17.0698L1.00422 3.23582C0.937904 2.78486 1.25291 2.36043 1.70388 2.29742L10.6137 1.00422C11.0647 0.937904 11.4891 1.25291 11.5521 1.70388L12.5999 8.91928C12.6397 9.19118 12.8917 9.38019 13.1636 9.3404C13.4355 9.30061 13.6245 9.0486 13.5848 8.7767L12.5369 1.56129C12.391 0.566523 11.4659 -0.1265 10.4711 0.0193992L1.56129 1.3126C0.566523 1.4585 -0.1265 2.38364 0.0193992 3.37841L2.02552 17.209C2.15816 18.1143 2.93739 18.7708 3.82937 18.7708C3.91558 18.7708 4.00511 18.7642 4.09133 18.7509L10.1727 17.8689V18.9499C10.1727 19.5766 10.5441 20.1436 11.1244 20.389L16.4795 22.6703C16.6752 22.7532 16.8841 22.7963 17.093 22.7963C17.3019 22.7963 17.5108 22.7532 17.7064 22.6703L23.0517 20.389C23.6286 20.1436 24 19.5799 24 18.9499V12.8155C24 12.2087 23.6452 11.6516 23.0914 11.3963ZM23.0052 18.9499C23.0052 19.1787 22.8693 19.3843 22.6604 19.4738L17.3151 21.7551C17.1726 21.8148 17.0101 21.8148 16.8675 21.7551L11.5156 19.4738C11.3067 19.3843 11.1708 19.1787 11.1708 18.9499V12.8155C11.1708 12.5933 11.3001 12.391 11.5024 12.2982L16.8542 9.82784C16.9305 9.79136 17.0101 9.77478 17.093 9.77478C17.1759 9.77478 17.2555 9.79136 17.3317 9.82784L22.6736 12.3015C22.8726 12.3943 23.0052 12.5966 23.0052 12.8188V18.9499Z" fill="#BE6AFF"/>
<path d="M13.8831 16.6424C13.5913 16.5164 13.3525 16.6955 13.3525 17.037C13.3525 17.3786 13.588 17.7566 13.8831 17.8826C14.1749 18.0086 14.4136 17.8295 14.4136 17.488C14.4103 17.1465 14.1749 16.7684 13.8831 16.6424Z" fill="#BE6AFF"/>
<path d="M15.6741 15.1805C15.3823 15.0545 15.1436 15.2336 15.1436 15.5751C15.1436 15.9167 15.379 16.2947 15.6741 16.4207C15.9659 16.5467 16.2046 16.3676 16.2046 16.0261C16.2046 15.6845 15.9659 15.3065 15.6741 15.1805Z" fill="#BE6AFF"/>
<path d="M15.6741 19.6332C15.3823 19.5072 15.1436 19.6862 15.1436 20.0278C15.1436 20.3693 15.379 20.7473 15.6741 20.8733C15.9659 20.9993 16.2046 20.8203 16.2046 20.4787C16.2046 20.1372 15.9659 19.7592 15.6741 19.6332Z" fill="#BE6AFF"/>
<path d="M12.6197 14.4973C12.6197 14.1557 12.3843 13.7777 12.0891 13.6517C11.7973 13.5257 11.5586 13.7048 11.5586 14.0463C11.5586 14.3878 11.794 14.7659 12.0891 14.8919C12.3809 15.0179 12.6197 14.8388 12.6197 14.4973Z" fill="#BE6AFF"/>
<path d="M12.0891 18.1044C11.7973 17.9784 11.5586 18.1574 11.5586 18.4989C11.5586 18.8405 11.794 19.2185 12.0891 19.3445C12.3809 19.4705 12.6197 19.2914 12.6197 18.9499C12.6197 18.6084 12.3809 18.2304 12.0891 18.1044Z" fill="#BE6AFF"/>
<path d="M20.2923 16.6431C20.0005 16.7691 19.7617 17.1471 19.7617 17.4886C19.7617 17.8302 19.9971 18.0059 20.2923 17.8832C20.5841 17.7572 20.8228 17.3792 20.8228 17.0377C20.8228 16.6961 20.5841 16.5204 20.2923 16.6431Z" fill="#BE6AFF"/>
<path d="M22.0862 13.6504C21.7944 13.7764 21.5557 14.1544 21.5557 14.496C21.5557 14.8375 21.7911 15.0132 22.0862 14.8905C22.378 14.7645 22.6168 14.3865 22.6168 14.045C22.6168 13.7035 22.378 13.5277 22.0862 13.6504Z" fill="#BE6AFF"/>
<path d="M18.4983 19.6333C18.2065 19.7593 17.9678 20.1373 17.9678 20.4789C17.9678 20.8204 18.2032 20.9961 18.4983 20.8735C18.7901 20.7474 19.0289 20.3694 19.0289 20.0279C19.0289 19.6864 18.7934 19.5106 18.4983 19.6333Z" fill="#BE6AFF"/>
<path d="M18.3405 14.8704L22.2765 13.1893C22.5285 13.0798 22.6479 12.788 22.5384 12.536C22.429 12.284 22.1372 12.1646 21.8852 12.2741L17.7237 14.0514C17.3159 14.2271 16.8483 14.2271 16.4405 14.0514L12.2823 12.2807C12.0303 12.1746 11.7385 12.2907 11.6291 12.5427C11.523 12.7947 11.6391 13.0865 11.8911 13.1959L15.8867 14.9003C15.8967 14.9069 15.9066 14.9102 15.9199 14.9168C16.3277 15.0893 16.5897 15.4872 16.5897 15.9315V16.8898V21.0347C16.5897 21.3099 16.8119 21.5321 17.0871 21.5321C17.3623 21.5321 17.5845 21.3099 17.5845 21.0347V16.8898V15.9315C17.5845 15.4905 17.8464 15.0926 18.2543 14.9168C18.2874 14.9003 18.3173 14.887 18.3405 14.8704Z" fill="#BE6AFF"/>
<path d="M17.086 12.3422C17.4706 12.3422 17.7823 12.1366 17.7823 11.8813C17.7823 11.626 17.4706 11.4204 17.086 11.4204C16.7013 11.4204 16.3896 11.626 16.3896 11.8813C16.3896 12.1333 16.7013 12.3422 17.086 12.3422Z" fill="#BE6AFF"/>
</svg>
