<svg width="23" height="19" viewBox="0 0 23 19" fill="none" xmlns="http://www.w3.org/2000/svg">
<path d="M15.8002 9.96992C15.3065 9.76195 15.2206 9.65331 15.2206 9.48569C15.2206 9.33359 15.331 9.16907 15.6438 9.16907C15.8033 9.16907 15.9566 9.19701 16.0946 9.25599C16.1805 9.29324 16.2756 9.29013 16.3614 9.25288C16.4473 9.21563 16.5148 9.14424 16.5454 9.05733C16.6098 8.8835 16.524 8.68174 16.3553 8.61035C16.2204 8.55447 16.0732 8.51722 15.9137 8.5017V8.28442C15.9137 8.10439 15.7696 7.9585 15.5917 7.9585C15.4138 7.9585 15.2697 8.10439 15.2697 8.28442V8.54206C14.7668 8.67243 14.4509 9.05733 14.4509 9.55087C14.4509 9.82403 14.546 10.0475 14.7392 10.2338C14.8956 10.3859 15.1133 10.5131 15.4445 10.6435C15.8984 10.8297 15.9628 10.9974 15.9628 11.1526C15.9628 11.3823 15.7634 11.5344 15.469 11.5344C15.2421 11.5344 15.055 11.4692 14.9385 11.4164C14.8496 11.3761 14.7484 11.3729 14.6594 11.4133C14.5705 11.4505 14.503 11.525 14.4693 11.6182C14.408 11.7889 14.4846 11.9751 14.6472 12.0527C14.8189 12.1334 15.0274 12.1893 15.236 12.211V12.4501C15.236 12.6301 15.3801 12.776 15.558 12.776H15.5641C15.742 12.776 15.8861 12.6301 15.8861 12.4501V12.1738C16.4044 12.0372 16.7448 11.6244 16.7448 11.1153C16.7356 10.7646 16.6282 10.3145 15.8002 9.96992Z" fill="#0FFFF1"/>
<path d="M3.41627 18.2083H17.112C18.9949 18.2083 20.5283 16.6563 20.5283 14.7504V13.5895C21.9481 13.2232 23 11.9195 23 10.3706C23 9.34628 22.5431 8.39334 21.7457 7.75701C21.5464 7.5987 21.2581 7.63285 21.0987 7.83461C21.0649 7.87807 21.0435 7.92153 21.0251 7.97119C20.9637 8.15433 21.0159 8.3623 21.1753 8.48957C21.7488 8.94586 22.0769 9.63186 22.0769 10.3706C22.0769 11.6898 21.0159 12.7638 19.7125 12.7638H18.7527V7.9774H19.6052V10.3706C19.6052 10.6283 19.8107 10.8362 20.0652 10.8362C20.3197 10.8362 20.5252 10.6283 20.5252 10.3706V7.79736V3.7621C21.344 3.55413 21.9512 2.80295 21.9512 1.90899C21.9512 0.856717 21.1048 0 20.0652 0C19.0256 0 18.1792 0.856717 18.1792 1.90899C18.1792 2.80295 18.7864 3.55413 19.6052 3.7621V7.04619H18.7527V6.03427C18.7527 5.09374 17.9952 4.32704 17.066 4.32704H3.4592C2.53 4.32704 1.77253 5.09374 1.77253 6.03427V14.707C1.77253 15.6475 2.53 16.4142 3.4592 16.4142H17.0691C17.9983 16.4142 18.7557 15.6475 18.7557 14.707V13.6951H19.6083V14.7535C19.6083 16.1472 18.4889 17.2802 17.112 17.2802H3.41627C2.03933 17.2802 0.92 16.1472 0.92 14.7535V5.9877C0.92 4.59399 2.03933 3.46101 3.41627 3.46101H17.112C17.3665 3.46101 17.572 3.25304 17.572 2.9954C17.572 2.73777 17.3665 2.5298 17.112 2.5298H3.41627C1.53333 2.5329 0 4.08182 0 5.9877V14.7504C0 16.6594 1.53333 18.2083 3.41627 18.2083ZM19.1023 1.90899C19.1023 1.36888 19.5347 0.931214 20.0683 0.931214C20.6019 0.931214 21.0343 1.36888 21.0343 1.90899C21.0343 2.44909 20.6019 2.88676 20.0683 2.88676C19.5347 2.88987 19.1023 2.44909 19.1023 1.90899ZM12.4813 5.25825V15.483H8.04693V5.25825H12.4813ZM2.69253 14.707V6.03427C2.69253 5.60591 3.036 5.25825 3.4592 5.25825H7.12693V15.483H3.4592C3.036 15.483 2.69253 15.1353 2.69253 14.707ZM17.8357 14.707C17.8357 15.1353 17.4923 15.483 17.0691 15.483H13.4013V5.25825H17.0691C17.4923 5.25825 17.8357 5.60591 17.8357 6.03427V7.51179V13.2294V14.707Z" fill="#0FFFF1"/>
<path d="M9.96403 10.6505C10.4179 10.8368 10.4823 11.0044 10.4823 11.1596C10.4823 11.3893 10.283 11.5414 9.98856 11.5414C9.76163 11.5414 9.57456 11.4762 9.45803 11.4234C9.3691 11.3831 9.2679 11.38 9.17896 11.4203C9.09003 11.4576 9.02256 11.5321 8.98883 11.6252C8.9275 11.7959 9.00416 11.9821 9.1667 12.0597C9.33843 12.1404 9.54696 12.1963 9.7555 12.2181V12.4571C9.7555 12.6371 9.89963 12.783 10.0775 12.783H10.0836C10.2615 12.783 10.4056 12.6371 10.4056 12.4571V12.1808C10.9239 12.0442 11.2643 11.6314 11.2643 11.1223C11.2643 10.7685 11.157 10.3153 10.329 9.97382C9.83523 9.76585 9.74936 9.65721 9.74936 9.48959C9.74936 9.3375 9.85976 9.17298 10.1726 9.17298C10.332 9.17298 10.4854 9.20092 10.6234 9.25989C10.7092 9.29714 10.8043 9.29404 10.8902 9.25679C10.976 9.21954 11.0435 9.14815 11.0742 9.06123C11.1386 8.88741 11.0527 8.68565 10.884 8.61425C10.7491 8.55838 10.6019 8.52113 10.4424 8.50561V8.28833C10.4424 8.10829 10.2983 7.9624 10.1204 7.9624C9.94256 7.9624 9.79843 8.10829 9.79843 8.28833V8.54596C9.2955 8.67633 8.97963 9.06123 8.97963 9.55478C8.97963 9.82793 9.0747 10.0514 9.2679 10.2377C9.4151 10.3929 9.63283 10.517 9.96403 10.6505Z" fill="#0FFFF1"/>
<path d="M5.00642 9.96992C4.51269 9.76195 4.42682 9.65331 4.42682 9.48569C4.42682 9.33359 4.53722 9.16907 4.85002 9.16907C5.00949 9.16907 5.16282 9.19701 5.30082 9.25599C5.38669 9.29324 5.48176 9.29013 5.56762 9.25288C5.65349 9.21563 5.72096 9.14424 5.75162 9.05733C5.81602 8.8835 5.73016 8.68174 5.56149 8.61035C5.42656 8.55447 5.27936 8.51722 5.11989 8.5017V8.28442C5.11989 8.10439 4.97576 7.9585 4.79789 7.9585C4.62002 7.9585 4.47589 8.10439 4.47589 8.28442V8.54206C3.97296 8.67243 3.65709 9.05733 3.65709 9.55087C3.65709 9.82403 3.75216 10.0475 3.94536 10.2338C4.10176 10.3859 4.31949 10.5131 4.64762 10.6435C5.10149 10.8297 5.16589 10.9974 5.16589 11.1526C5.16589 11.3823 4.96656 11.5344 4.67216 11.5344C4.44522 11.5344 4.25816 11.4692 4.14162 11.4164C4.05269 11.3761 3.95149 11.3729 3.86256 11.4133C3.77362 11.4505 3.70616 11.525 3.67242 11.6182C3.61109 11.7889 3.68776 11.9751 3.85029 12.0527C4.02202 12.1334 4.23056 12.1893 4.43909 12.211V12.4501C4.43909 12.6301 4.58322 12.776 4.76109 12.776H4.76722C4.94509 12.776 5.08922 12.6301 5.08922 12.4501V12.1738C5.60749 12.0372 5.94789 11.6244 5.94789 11.1153C5.94176 10.7646 5.83442 10.3145 5.00642 9.96992Z" fill="#0FFFF1"/>
</svg>
