<svg width="25" height="19" viewBox="0 0 25 16" fill="none" xmlns="http://www.w3.org/2000/svg">
<path d="M22.9699 2.21191H18.8568C18.5773 2.21191 18.3516 2.44425 18.3516 2.73208C18.3516 3.0199 18.5773 3.25224 18.8568 3.25224H22.9699C23.3943 3.25224 23.7379 3.60596 23.7379 4.04289V12.5875C23.7379 13.0244 23.3943 13.3781 22.9699 13.3781H18.8568C18.5773 13.3781 18.3516 13.6105 18.3516 13.8983C18.3516 14.1861 18.5773 14.4185 18.8568 14.4185H22.9699C23.9501 14.4185 24.7485 13.5966 24.7485 12.5875V4.04289C24.7485 3.03377 23.9501 2.21191 22.9699 2.21191Z" fill="#FF71E8"/>
<path d="M18.8819 6.64178C19.1143 6.64178 19.2996 6.44758 19.2996 6.21177V5.67427H21.6711C21.1793 6.44065 20.7751 7.27985 20.455 8.19187C20.135 9.10389 19.9396 10.0333 19.8689 10.98H19.3771C19.1447 10.98 18.9594 11.1741 18.9594 11.41C18.9594 11.6492 19.148 11.84 19.3771 11.84H21.25C21.4825 11.84 21.6677 11.6458 21.6677 11.41C21.6677 11.1707 21.4791 10.98 21.25 10.98H20.8694V10.9626C20.8694 10.4563 20.9536 9.86333 21.1186 9.18365C21.2871 8.50397 21.5128 7.83122 21.8025 7.16888C22.0686 6.56202 22.3515 6.04532 22.6547 5.62225C22.7086 5.54943 22.7356 5.45927 22.7356 5.36564V5.22346C22.7356 4.98418 22.5469 4.79346 22.3179 4.79346H18.8718C18.8684 4.79346 18.8617 4.79346 18.8583 4.79346C18.6326 4.80039 18.4541 4.99112 18.4541 5.22346V6.21177C18.4541 6.44411 18.6326 6.63484 18.8583 6.64178C18.8617 6.64178 18.8684 6.64178 18.8718 6.64178H18.8819Z" fill="#FF71E8"/>
<path d="M1.93681 14.4185H6.04984C6.32943 14.4185 6.55513 14.1861 6.55513 13.8983C6.55513 13.6105 6.32943 13.3781 6.04984 13.3781H1.93681C1.51237 13.3781 1.16878 13.0244 1.16878 12.5875V4.04289C1.16878 3.60596 1.51237 3.25224 1.93681 3.25224H6.04984C6.32943 3.25224 6.55513 3.0199 6.55513 2.73208C6.55513 2.44425 6.32943 2.21191 6.04984 2.21191H1.93681C0.956556 2.21191 0.158203 3.03377 0.158203 4.04289V12.5875C0.158203 13.5966 0.956556 14.4185 1.93681 14.4185Z" fill="#FF71E8"/>
<path d="M2.58567 4.79346C2.35324 4.79346 2.16797 4.98765 2.16797 5.22346V6.21177C2.16797 6.45105 2.35661 6.64178 2.58567 6.64178H2.59578C2.82821 6.64178 3.01348 6.44758 3.01348 6.21177V5.67427H5.38496C4.89315 6.44065 4.48892 7.28331 4.1689 8.19534C3.84889 9.10736 3.65351 10.0367 3.58277 10.9834H3.09096C2.85853 10.9834 2.67325 11.1776 2.67325 11.4134C2.67325 11.6527 2.8619 11.8434 3.09096 11.8434H4.96389C5.19632 11.8434 5.38159 11.6492 5.38159 11.4134C5.38159 11.1741 5.19295 10.9834 4.96389 10.9834H4.58324V10.9661C4.58324 10.4598 4.66745 9.8668 4.83251 9.18712C5.00094 8.50743 5.22664 7.83469 5.51633 7.17235C5.68476 6.78742 5.8633 6.43718 6.0452 6.12508C6.14962 5.94822 6.25742 5.78177 6.36858 5.62572C6.42248 5.5529 6.44943 5.46274 6.44943 5.36911V5.22693C6.44943 4.99459 6.27089 4.80386 6.0452 4.79692C6.04183 4.79692 6.03509 4.79692 6.03172 4.79692H2.58567V4.79346Z" fill="#FF71E8"/>
<path d="M9.12323 0.630859C8.10255 0.630859 7.27051 1.4874 7.27051 2.53813V14.0927C7.27051 15.1435 8.10255 16 9.12323 16H15.7896C16.8103 16 17.6424 15.1435 17.6424 14.0927V2.53813C17.6424 1.4874 16.8103 0.630859 15.7896 0.630859H9.12323ZM16.6284 2.53813V14.0927C16.6284 14.5713 16.2511 14.9597 15.7863 14.9597H9.12323C8.65836 14.9597 8.28108 14.5713 8.28108 14.0927V2.53813C8.28108 2.05958 8.65836 1.67119 9.12323 1.67119H15.7896C16.2511 1.67119 16.6284 2.05958 16.6284 2.53813Z" fill="#FF71E8"/>
<path d="M10.8914 12.7685C10.632 12.7685 10.4231 12.55 10.4231 12.2864C10.4231 12.0229 10.6354 11.8044 10.8914 11.8044H11.5853L11.5887 11.742C11.6762 10.5387 11.9289 9.3423 12.3365 8.18407C12.7441 7.02583 13.2662 5.94042 13.8894 4.96598L13.9568 4.85848H10.7229V5.61792C10.7229 5.88494 10.5107 6.09994 10.2547 6.09994H10.2446C9.98522 6.09994 9.77637 5.88147 9.77637 5.61792V4.34872C9.77637 4.0817 9.98859 3.8667 10.2446 3.8667H14.6709C14.9303 3.8667 15.1391 4.08517 15.1391 4.34872V4.52904C15.1391 4.63308 15.1088 4.73364 15.0482 4.81687C14.6574 5.36131 14.2869 6.03405 13.9467 6.8143C13.5761 7.6639 13.2797 8.53778 13.0641 9.40819C12.8485 10.2821 12.7407 11.0554 12.7407 11.7073V11.8009H13.2965C13.5559 11.8009 13.7648 12.0194 13.7648 12.283C13.7648 12.5465 13.5525 12.7685 13.2965 12.7685H10.8914Z" fill="#FF71E8"/>
</svg>
