<svg xmlns="http://www.w3.org/2000/svg" width="82" height="26" viewBox="0 0 82 26"><defs><radialGradient id="95zxa" cx="10.63" cy="9.15" r="9.38" gradientUnits="userSpaceOnUse"><stop offset="0" stop-color="#fff"/><stop offset="1" stop-color="#fdf1ab"/></radialGradient></defs><g><g><g><g><path fill="#fff" d="M20.285 13.493c.323-3.882-2.577-7.289-6.476-7.61-3.9-.321-7.323 2.565-7.646 6.447-.322 3.882 2.577 7.289 6.477 7.61 3.9.321 7.322-2.565 7.645-6.447z"/></g><g><path fill="#f1cb0d" d="M20.497 13.88l5.148 2.179-5.353.094 2.409 5.971-5.275-3.4.599 6.864-3.732-4.64-1.558 4.436-1.465-4.42-3.558 4.295 1.04-6.473L2.91 21.56l3.873-4.984-6.156.752 4.566-2.71-5.463-1.882 6.33-1.238-4.52-4.325L6.5 8.239 4.138 2.753l5.29 3.887L8.94.67l3.228 4.764L15.364-.24l.346 5.266 3.48-3.15-1.37 5.5 6.093-2.695-3.92 5.094 6.376.376zm-.19-.971c0-3.887-3.18-7.053-7.084-7.053-3.905 0-7.085 3.166-7.085 7.053s3.18 7.052 7.085 7.052c3.904 0 7.085-3.165 7.085-7.052z"/></g><g><path fill="url(#95zxa)" d="M13.22 6.28c3.668 0 6.66 2.978 6.66 6.63 0 3.65-2.992 6.629-6.66 6.629-3.669 0-6.66-2.978-6.66-6.63a6.667 6.667 0 0 1 6.66-6.629z"/></g><g><path d="M18.039 15.134s-.363-.267-.504-.502c0 0-1.449 3.229-4.645 3.056 0 0-.803 0-1.385-.313 0 0-.898-.33-1.716-1.238 0 0-.756-.815-1.213-1.662 0 0-.299.251-.582.392-.142.047-.173 0-.173 0-.048-.063.078-.125.078-.125s.614-.298 1.04-1.113c0 0 .015-.094.094-.063 0 0 .047.016.016.11 0 0-.126.33-.315.627 0 0 4.109 1.066 8.69.094 0 0-.047-.125-.188-.643 0 0-.032-.094.047-.11 0 0 .079-.015.11.095 0 0 .158.72.756 1.27 0 0 .063.172-.11.125zm-.772-.486l-.236.047c-1.536.31-3.412.353-3.521.35-.458.019-2.242.046-4.398-.444l-.205-.047s1.464 2.868 4.125 2.9c2.818.03 4.235-2.806 4.235-2.806zm-3.668.392a3.996 3.996 0 0 0 0 0z"/></g><g><path d="M12.042 12.847l.976.015c.252-.047.142.267.142.267-.095.11.016.14.016.14.157 0 .204-.297.204-.297.032-.33-.236-.282-.236-.282l-1.008-.016c-.991-.078-.928-1.066-.928-1.066 0-.642.614-1.206.614-1.206.488-.455 1.37-.706 1.37-.706.125-.062.078-.078.078-.078-.031-.094-.504.078-.504.078s-1.669.486-1.779 1.881c-.016 0-.094 1.144 1.055 1.27z"/></g><g><path d="M7.68 10.655s.567-1.16 1.543-.91c.96.251.96 1.427.96 1.427s.174-1.38-.913-1.662c-1.212-.297-1.59 1.145-1.59 1.145z"/></g><g><path d="M16.575 9.904c1.402.11 1.402 1.645 1.402 1.645s-.22-1.348-1.402-1.457c-.818-.079-1.275.94-1.275.94s.252-1.207 1.275-1.128z"/></g><g><g><g/><g/><g/><g><path d="M8.895 10.652c-.677 0-1.008 2.053-.205 2.116"/></g></g><g><path fill="#fff" d="M8.703 10.956s-.189.094-.236.423c-.047.313-.047.392-.047.392s.063.047.157.031c.095-.016.174-.094.174-.094s-.032-.094.015-.345c.063-.25.126-.392.126-.392s-.031-.015-.078-.031c-.063 0-.11.016-.11.016z"/></g></g><g><g><path d="M17.052 11.754c-.015-.282-.078-.564-.236-.674 0 0-.094-.062-.126-.078-.047-.016-.126-.031-.126-.031-.708-.047-1.023 2.163-.315 2.24.504.048.85-.814.803-1.457z"/></g><g><path fill="#fff" d="M16.393 11.236s-.189.094-.236.423c-.047.313-.047.392-.047.392s.063.047.157.031c.095-.016.174-.094.174-.094s-.032-.094.015-.345c.063-.25.126-.392.126-.392s-.031-.015-.078-.031c-.063 0-.11.016-.11.016z"/></g></g></g><g><g><path fill="#fff" d="M76.325 5.89V3.602h.173c.866 0 1.402.423 1.402 1.16 0 .69-.457 1.16-1.197 1.16-.063 0-.189 0-.378-.032zM73.57 2.771v7.304h2.74V7.05s1.905.595 2.471 3.025h2.803c-.173-.862-.709-2.649-1.638-3.448 0-.032 1.103-.674 1.071-1.865-.047-1.035-.74-1.787-1.842-1.96-.157-.03-.598-.062-1.228-.062 0 0-3.543 0-4.377.031z"/></g><g><path fill="#fff" d="M37.956 2.74v7.335h-2.74V5.216s-1.432 1.661-1.794 2.1l-1.843-2.053v4.812H28.84V2.74h2.897c.236.266 1.669 1.959 1.669 1.959s1.401-1.661 1.637-1.959h2.913z"/></g><g><path fill="#fff" d="M45.37 2.74v1.128h-3.165v1.99h2.204v1.098h-2.204v1.99h3.165v1.129h-5.92V2.77h5.904V2.74z"/></g><g><path fill="#fff" d="M49.565 5.89V3.602h.173c.866 0 1.402.423 1.402 1.16 0 .69-.457 1.16-1.197 1.16-.063 0-.236 0-.378-.032zM46.81 2.771v7.304h2.74V7.05s1.905.595 2.471 3.025h2.803c-.173-.862-.709-2.649-1.638-3.448 0-.032 1.103-.674 1.071-1.865-.047-1.035-.74-1.787-1.842-1.96-.158-.03-.598-.062-1.228-.062 0 0-3.574 0-4.377.031z"/></g><g><path fill="#fff" d="M64.027 2.74c-.33 2.053-1.873 3.652-1.873 3.652s1.464 1.567 2.062 3.651H61.21c-.44-1.927-1.637-3.056-2.204-3.056h-.567v3.056H55.73V2.74h2.708v2.727h.504c1.307-.33 1.936-1.865 2.235-2.696h2.834V2.74z"/></g><g><path fill="#fff" d="M68.564 10.133c-1.197 0-2.377-.36-3.007-1.364-.33-.501-.536-1.065-.567-1.598v-.893V2.72h2.74v3.887c.031.768.472.924.897.924.394 0 .866-.172.897-.924V2.72h2.74v4.451c-.032.533-.236 1.097-.567 1.598-.661 1.035-1.795 1.364-3.007 1.364h-.126z"/></g></g><g><g><path fill="#fff" d="M35.838 16.704v2.883c-.41.282-.835.502-1.307.658a4.856 4.856 0 0 1-1.559.236c-.645 0-1.228-.094-1.732-.298-.52-.204-.96-.47-1.322-.83a3.56 3.56 0 0 1-.835-1.317 4.924 4.924 0 0 1-.283-1.709c0-.626.094-1.19.283-1.708.19-.517.457-.94.82-1.3.361-.361.786-.643 1.29-.831.504-.204 1.07-.298 1.7-.298.315 0 .599.016.866.063a5.1 5.1 0 0 1 .74.188c.22.078.441.188.63.298.19.125.378.266.567.423l-.157.25c-.048.094-.142.11-.237.063-.063-.016-.141-.078-.252-.157a3.205 3.205 0 0 0-.44-.266 4.343 4.343 0 0 0-.693-.25c-.284-.08-.614-.11-1.024-.11-.535 0-1.007.078-1.432.25a3.062 3.062 0 0 0-1.087.721c-.299.314-.535.69-.692 1.144a4.593 4.593 0 0 0-.252 1.52c0 .565.078 1.082.252 1.536a3 3 0 0 0 .708 1.16c.315.314.677.564 1.118.721.44.172.945.25 1.496.25.236 0 .472-.015.677-.046.204-.032.393-.079.582-.126.19-.062.362-.125.536-.203.173-.079.346-.173.535-.282v-2.179h-1.559a.143.143 0 0 1-.11-.047c-.032-.031-.047-.063-.047-.094v-.313h2.22z"/></g><g><path fill="#fff" d="M45.338 20.372h-.457a.18.18 0 0 1-.125-.047c-.032-.03-.063-.062-.08-.11l-.96-2.35h-3.999l-.96 2.35c-.016.048-.047.08-.079.11-.031.032-.078.047-.141.047h-.457l3.338-8.102H42zm-3.464-7.036c-.063-.141-.11-.298-.173-.486-.016.094-.047.172-.079.266a1.896 1.896 0 0 0-.078.22l-1.653 4.09h3.636z"/></g><g><path fill="#fff" d="M56.125 12.27v8.102h-.52v-6.91c0-.095 0-.205.016-.314L52.41 18.82c-.048.094-.126.157-.236.157h-.095c-.094 0-.173-.047-.236-.157l-3.26-5.673c.017.11.017.219.017.329v6.911h-.52V12.27h.41c.047 0 .094 0 .125.016a.267.267 0 0 1 .095.094L52 18.022c.063.11.11.22.158.344a.956.956 0 0 1 .078-.188c.032-.062.063-.11.08-.172l3.195-5.626a.267.267 0 0 1 .095-.094c.031-.016.078-.016.126-.016z"/></g><g><path fill="#fff" d="M60.518 20.372h-.598V12.27h.598z"/></g><g><path fill="#fff" d="M70.608 12.27v8.102h-.284a.298.298 0 0 1-.126-.03.267.267 0 0 1-.094-.095l-5.29-7.037c.016.11.016.22.016.33v6.817h-.52V12.27h.3c.046 0 .094 0 .125.016a.267.267 0 0 1 .095.094l5.274 7.02c-.016-.109-.016-.219-.016-.328V12.27z"/></g><g><path fill="#fff" d="M80.908 16.704v2.883c-.41.282-.835.502-1.307.658a4.789 4.789 0 0 1-1.559.236c-.645 0-1.228-.094-1.732-.298-.52-.204-.96-.47-1.322-.83a3.56 3.56 0 0 1-.835-1.317 4.924 4.924 0 0 1-.283-1.709c0-.626.094-1.19.283-1.708.19-.517.457-.94.82-1.3.361-.361.786-.643 1.29-.831.504-.204 1.07-.298 1.7-.298.315 0 .599.016.866.063a5.1 5.1 0 0 1 .74.188c.22.078.441.188.63.298.19.125.378.266.567.423l-.157.25c-.048.094-.142.11-.237.063-.063-.016-.141-.078-.252-.157a3.205 3.205 0 0 0-.44-.266 4.344 4.344 0 0 0-.693-.25c-.268-.08-.614-.11-1.024-.11-.535 0-1.007.078-1.432.25a3.062 3.062 0 0 0-1.087.721c-.299.314-.535.69-.692 1.144a4.593 4.593 0 0 0-.252 1.52c0 .565.078 1.082.252 1.536a3 3 0 0 0 .708 1.16c.315.314.677.564 1.118.721.44.172.945.25 1.496.25.236 0 .472-.015.677-.046.204-.032.393-.079.582-.126a3.14 3.14 0 0 0 .536-.203c.173-.079.346-.173.535-.282v-2.179h-1.59a.143.143 0 0 1-.11-.047c-.032-.031-.048-.063-.048-.094v-.313h2.252z"/></g></g></g></g></svg>