<svg xmlns="http://www.w3.org/2000/svg" width="95" height="24" viewBox="0 0 95 24"><g><g><g><g><g><path fill="#fff" d="M11.88.25C5.407.25.16 5.519.16 12.04c0 1.166.172 2.31.516 3.412.215-.303.43-.605.624-.929.817-1.21 1.613-2.418 2.408-3.65l.581-.928c.194-.302.387-.626.56-.928.386-.626.752-1.253 1.096-1.879.172-.324.344-.626.538-.95.193-.324.344-.626.516-.95.172-.324.344-.648.494-.95l.473-.972.043-.065a1.087 1.087 0 0 1 1.42-.496c.387.216.623.626.602 1.08 0 .56-.108 1.144-.15 1.705-.044.562-.065 1.145-.108 1.728a92.565 92.565 0 0 0-.065 3.455c0 1.144.065 2.288.172 3.39.065.54.15 1.08.258 1.62.087.474.237.95.452 1.381.065.13.15.26.258.367.065.043.022.022.065.022h.043l.043-.022h.021l.065-.021c.021-.022.064-.043.086-.065.172-.13.322-.28.473-.453.344-.41.667-.821.946-1.274.301-.454.58-.95.86-1.447a50.697 50.697 0 0 0 1.57-3.045c.237-.518.495-1.036.731-1.576a50.06 50.06 0 0 0 .689-1.576 1.06 1.06 0 0 1 1.376-.583c.344.13.58.431.645.798 0 .13.022.303.043.476l.065.496c.043.324.086.648.15.972.108.648.237 1.295.409 1.922.172.626.387 1.252.645 1.857.258.604.58 1.166.989 1.684.086.13.065.302-.043.389-.107.086-.258.086-.344 0a9.089 9.089 0 0 1-1.42-1.598c-.408-.583-.752-1.21-1.075-1.836-.215-.432-.387-.863-.58-1.295-.13.259-.237.518-.366.755-.516 1.059-1.032 2.117-1.634 3.175a19.49 19.49 0 0 1-.946 1.598 13.47 13.47 0 0 1-1.14 1.533c-.237.28-.516.518-.796.755-.086.065-.172.13-.28.173l-.193.108-.108.043h-.021l-.065.022h-.043l-.086.022c-.064.021-.107.043-.172.043l-.387.064c-.28.022-.58-.021-.838-.108a2.345 2.345 0 0 1-.71-.41 3.328 3.328 0 0 1-.796-1.015 7.49 7.49 0 0 1-.645-1.922 18.022 18.022 0 0 1-.28-1.835c-.129-1.21-.172-2.397-.193-3.606V8.995c-.215.41-.43.82-.645 1.21-.172.323-.344.647-.538.971l-.538.972A100.091 100.091 0 0 1 3.6 15.99a93.04 93.04 0 0 1-1.526 2.44 11.696 11.696 0 0 0 16.236 3.39c5.42-3.562 6.925-10.86 3.377-16.302C19.515 2.259 15.837.25 11.88.25z"/></g><g><path fill="#fff" d="M33.752 16.267V8.451h-.193l-2.495 7.838h-.624L27.946 8.45h-.194v7.816H26.72V7.63h1.828l2.215 6.867 2.172-6.867h1.85v8.659h-1.033z"/></g><g><path fill="#fff" d="M37.408 8.753V7.63H36.29v1.123zm0 7.514V9.595h-1.096v6.672z"/></g><g><path fill="#fff" d="M44.055 14.09c0 1.297-.494 2.29-2.645 2.29-2.71 0-2.86-1.555-2.86-3.455 0-1.9.15-3.455 2.86-3.455 2.15 0 2.645.993 2.645 2.289h-1.032c0-1.058-.366-1.576-1.613-1.576-1.677 0-1.763.906-1.763 2.72s.086 2.721 1.763 2.721c1.247 0 1.613-.518 1.613-1.576z"/></g><g><path fill="#fff" d="M46.18 10.309c.517-.324 1.184-.756 1.807-.777.13-.022.258-.022.387-.022.172 0 .323 0 .516.022l-.086.799c-.172-.022-.322-.022-.473-.022-.129 0-.258 0-.408.022-.581.021-1.205.453-1.656.712v5.247H45.17V9.596h.86z"/></g><g><path fill="#fff" d="M55.046 12.945c0 1.9-.15 3.455-2.903 3.455-2.752 0-2.903-1.555-2.903-3.455 0-1.9.15-3.455 2.903-3.455s2.903 1.555 2.903 3.455zm-4.71 0c0 1.814.087 2.72 1.807 2.72s1.807-.885 1.807-2.72c0-1.836-.086-2.72-1.807-2.72-1.72 0-1.806.884-1.806 2.72z"/></g><g><path fill="#fff" d="M57.04 17.825c.41.043.947.065 1.55.065 1.677 0 1.892-.454 1.913-2.224-.495.28-1.183.604-1.892.626-2.43.043-2.581-1.274-2.581-3.347s.129-3.455 2.473-3.455c.796 0 1.527.367 2.108.734l.107-.604h.86v5.916c0 2.397-.537 3.131-2.73 3.131-.646 0-1.291-.065-1.915-.151zm3.463-6.996c-.473-.303-1.075-.605-1.656-.605-1.613 0-1.72.907-1.72 2.72 0 1.772.107 2.614 1.72 2.614.58 0 1.204-.324 1.656-.562z"/></g><g><path fill="#fff" d="M67.54 16.27l-.108-.604c-.538.345-1.247.734-2.021.734-2.43.043-2.581-1.339-2.581-3.455s.129-3.455 2.538-3.455c.795 0 1.505.367 2.043.691l.107-.583h.86v6.672zm-.215-5.484c-.452-.26-1.076-.562-1.656-.562-1.613 0-1.72.907-1.72 2.72 0 1.815.107 2.722 1.72 2.722.58 0 1.182-.324 1.656-.605z"/></g><g><path fill="#fff" d="M70.698 10.185c.494-.302 1.161-.67 1.87-.69 1.119-.044 1.7.258 1.98.733.515-.324 1.203-.712 1.956-.734 2.28-.065 2.43 1.101 2.43 2.72v4.06h-1.097V12.28c0-1.382-.086-2.052-1.57-2.052-.537 0-1.096.324-1.548.605.108.475.15.972.13 1.468v3.995h-.947V12.28c0-1.382-.086-2.052-1.57-2.052-.516 0-1.075.324-1.505.562v5.484H69.73V9.602h.86z"/></g><g><path fill="#fff" d="M81.408 8.753V7.63H80.29v1.123zm0 7.514V9.595h-1.096v6.672z"/></g><g><path fill="#fff" d="M83.728 10.184c.537-.303 1.247-.67 2.021-.691 2.43-.065 2.58 1.1 2.58 2.72v4.06h-1.096v-3.995c0-1.382-.107-2.051-1.72-2.051-.581 0-1.205.324-1.656.583v5.484H82.76V9.601h.86z"/></g><g><path fill="#fff" d="M90.46 17.825c.41.043.947.065 1.55.065 1.677 0 1.892-.454 1.913-2.224-.495.28-1.183.604-1.892.626-2.43.043-2.581-1.274-2.581-3.347s.129-3.455 2.473-3.455c.796 0 1.527.367 2.108.734l.107-.604h.86v5.916c0 2.397-.537 3.131-2.73 3.131-.646 0-1.291-.065-1.915-.151zm3.442-6.996c-.474-.303-1.076-.605-1.656-.605-1.613 0-1.72.907-1.72 2.72 0 1.772.107 2.614 1.72 2.614.58 0 1.204-.324 1.656-.562z"/></g></g></g></g></g></svg>