<svg xmlns="http://www.w3.org/2000/svg" width="71" height="26" viewBox="0 0 71 26"><g><g><g><path fill="#fff" d="M37.34.86h-.72v24.921h.72v-4.795h9.083v-2.903h-6.99v-3.344h5.976v-2.925h-5.975V8.58h6.99V5.655h-9.085z"/></g><g><path fill="#fff" d="M9.066 15.061l-2.582-4.177-3.308-5.172-.033-.052H.4v15.33h3.044v-9.422l2.27 3.671 3.65 5.752h2.765V5.66H9.066z"/></g><g><path fill="#fff" d="M13.84 20.99h10.052v-2.902h-6.99v-3.344h5.976V11.82h-5.975V8.585h6.99V5.66H13.84z"/></g><g><path fill="#fff" d="M25.13 8.607h3.514v12.384h3.063V8.607h3.492V5.66H25.13z"/></g><g><path fill="#fff" d="M56.626 15.081l-2.582-4.174-3.308-5.172-.033-.055H47.96v15.33H51v-9.422l2.27 3.671 3.654 5.752h2.765V5.68h-3.063z"/></g><g><path fill="#fff" d="M60.94 5.68v2.947h3.514v12.384h3.063V8.627h3.492V5.68z"/></g></g></g></svg>