<svg width="97" height="20" viewBox="0 0 97 20" fill="none" xmlns="http://www.w3.org/2000/svg">
<path d="M0.509766 14.7329H3.70959V14.4585C3.57451 14.4585 3.38876 14.4585 3.38876 14.2305V4.81681L12.2073 14.1377C12.3424 14.4585 11.9793 14.4121 11.7978 14.4121V14.7329H15.1792V14.4585C15.0398 14.4585 14.8583 14.4585 14.8119 14.1377V1.34259C14.8119 1.16107 14.9934 1.11463 15.1792 1.11463V0.84024H11.7978V1.11463C12.1186 1.11463 12.2073 1.16107 12.2073 1.4819V10.0725L4.11907 1.34681C4.0262 1.16529 4.0262 1.07242 4.39346 1.11886V0.844466H0.509766V1.11886C0.737722 1.07242 0.877028 1.07242 0.877028 1.30037L0.830592 14.2305C0.830592 14.4121 0.737722 14.4121 0.509766 14.4585V14.7329ZM94.3136 13.3652C95.0439 12.9092 94.7695 13.0021 95.3648 12.6349C95.5041 12.542 96.0064 12.1325 96.2344 12.542L96.4623 12.4069L94.4994 9.57433L94.2714 9.70942C94.3643 10.2582 94.1363 10.6255 93.7226 10.8956C88.7878 15.1466 81.6621 11.4444 83.7643 5.73285C85.4993 1.75629 90.8014 2.12355 93.5875 3.95142C93.8155 4.17938 93.8619 4.27224 93.8619 4.63529L94.1828 4.72816L95.9642 1.84916L95.7827 1.71407C95.0988 2.12355 95.1875 1.98847 94.5036 1.66764C92.2663 0.523639 89.6152 0.20703 87.1921 0.709378C82.6246 1.66764 80.3366 4.9139 81.1597 9.34215C82.8019 14.7793 89.6532 16.4257 94.3136 13.3652ZM29.9372 13.0443H32.4954V12.8164C32.2674 12.8164 32.221 12.6771 32.2674 12.4955L36.1511 3.63059C36.244 3.30977 36.3791 3.30976 36.4719 3.30976V3.12825H33.9602V3.30976C34.1417 3.30976 34.281 3.40263 34.2346 3.58415L31.402 10.4397L28.2486 3.67703C28.2022 3.54194 28.1558 3.30976 28.4766 3.30976V3.12825H25.7791V3.30976C26.1464 3.3562 26.0999 3.49129 26.1886 3.63059L30.1187 12.5378C30.1651 12.6306 30.1187 12.8122 29.9372 12.8122V13.0443ZM68.5462 12.4955L65.988 7.01194L64.481 3.72346C64.3881 3.58838 64.3459 3.31399 64.7089 3.31399V3.13247H61.8763V3.31399C62.1972 3.31399 62.1972 3.54194 62.1507 3.68125C61.6062 4.77881 61.0869 5.89327 60.5973 7.01616C60.4157 7.42564 60.1878 7.83933 60.002 8.24881L58.0391 12.5884C57.9927 12.7235 57.9927 12.8164 57.8111 12.8164V13.0443H60.1413V12.8164C59.8205 12.8164 59.9598 12.542 60.0063 12.3605L60.9645 10.2582H65.5321L66.5368 12.3605C66.5832 12.5884 66.6296 12.8164 66.2624 12.8164V13.0443H68.867V12.8164C68.6348 12.8164 68.6348 12.7235 68.5462 12.4955ZM64.5232 8.61185H61.737C61.6906 8.61185 61.6906 8.56541 61.6906 8.51898L62.3745 7.01194L63.1048 5.36559L63.8815 7.01194L64.5654 8.51898C64.5696 8.61185 64.5232 8.61185 64.5232 8.61185Z" fill="white"/>
<path d="M57.9878 12.8163C57.8062 12.8163 57.6669 12.7699 57.6669 12.5419V3.54187C57.6669 3.40678 57.802 3.36035 57.9413 3.31392V3.13239H55.0623V3.31392C55.1974 3.31392 55.3832 3.49544 55.3367 3.58831L52.3226 9.16056L49.4436 3.67696C49.4436 3.67696 49.3086 3.30969 49.718 3.30969V3.12817H46.8855V3.30969C47.2527 3.30969 47.2063 3.63052 47.2063 3.67696V12.5883C47.2063 12.7234 47.0712 12.8163 46.8855 12.8163V13.0443H49.0764V12.8163C48.8949 12.8163 48.7556 12.7699 48.7556 12.5883V6.42087L52.2298 13.0443L55.8391 6.28156V12.5419C55.8391 12.8163 55.5647 12.8163 55.5647 12.8163V13.0443H57.9878V12.8163ZM72.8387 13.0443V12.8163C72.7036 12.7699 72.5178 12.8163 72.4714 12.5883L72.5179 5.00248H75.8992C76.1736 5.00248 76.22 5.09535 76.22 5.27687H76.448V3.12817H76.22C76.22 3.30969 76.1736 3.3097 75.8063 3.35613H67.3551C67.22 3.3097 67.0807 3.30969 67.0342 3.17461L66.8992 3.12817V5.27687H67.0807C67.0807 5.09535 67.0807 5.00248 67.3551 5.00248H70.5549V12.5883C70.5549 12.7699 70.3734 12.8163 70.2341 12.8163V13.0443H72.8387ZM79.9222 13.0443V12.8163C79.7407 12.8163 79.5549 12.7234 79.5549 12.4955V3.63052C79.5549 3.40257 79.6478 3.30969 79.8758 3.30969V3.12817H77.2711V3.30969C77.6342 3.30969 77.592 3.44478 77.592 3.63052L77.6384 12.5377C77.592 12.7192 77.4569 12.8121 77.2754 12.8121V13.04L79.9222 13.0443ZM26.9182 8.01656C26.7367 5.31908 24.4951 3.12817 21.346 3.12817C18.1039 3.12817 15.7273 5.23043 15.6344 8.01656V8.15165C15.6344 10.9842 17.9182 13.04 21.1644 13.04C24.4994 13.04 26.9689 11.1657 26.9689 8.33316C26.9647 8.24451 26.9647 8.10943 26.9182 8.01656ZM25.2761 8.2023C25.2761 10.1653 23.5411 11.4908 21.2573 11.4908C18.9271 11.4908 17.3272 10.0259 17.3272 8.01656C17.3736 6.05361 19.0622 4.54234 21.346 4.54234C23.5833 4.54234 25.1832 6.09582 25.2761 8.01656V8.2023ZM46.704 8.01656C46.5224 5.31908 44.2809 3.12817 41.1317 3.12817C37.8432 3.12817 35.513 5.23043 35.4201 8.01656V8.15165C35.4201 10.9842 37.6575 13.04 40.9502 13.04C44.2387 13.04 46.7082 11.1657 46.7082 8.33316V8.01656H46.704ZM45.0576 8.2023C45.0576 10.1653 43.3226 11.4908 40.9924 11.4908C38.6622 11.4908 37.1087 10.0259 37.1087 8.01656C37.1087 6.05361 38.8015 4.54234 41.1275 4.54234C43.3648 4.54234 44.9647 6.09582 45.0576 8.01656V8.2023ZM17.6438 18.1142H17.0064C16.9599 18.1142 16.9135 18.1606 16.9135 18.207H16.8671V17.5232H16.9135C16.9135 17.5696 16.9599 17.616 17.0064 17.616H18.5134V17.6625C18.467 17.6625 18.4205 17.7089 18.4205 17.7553V18.625C18.4205 18.6714 18.4205 18.7178 18.467 18.7178H18.5134V18.7643C18.0575 18.9922 17.5087 19.1315 16.8671 19.1315C16.0439 19.1315 15.2207 18.6756 15.2207 17.7596C15.2207 16.8477 16.0439 16.3876 16.8671 16.3876C17.1879 16.3876 17.3694 16.3876 17.6902 16.4805C17.8718 16.5269 18.0575 16.6156 18.0575 16.6156C18.1039 16.6156 18.1504 16.6156 18.1504 16.5691L18.1968 16.6156L17.876 17.2994L17.8295 17.253V17.2066C17.8295 17.1137 17.3272 16.9322 16.9177 16.9322C16.4154 16.9322 15.9595 17.2066 15.9595 17.7553C15.9595 18.3041 16.5082 18.5785 16.9641 18.5785C17.2385 18.5785 17.4665 18.5321 17.648 18.4856L17.6438 18.1142ZM20.3877 16.9744H21.2573C21.5781 16.9744 21.6668 17.1095 21.6668 17.2488C21.6668 17.3881 21.5739 17.5232 21.2573 17.5232H20.3877V16.9744ZM20.3877 18.0677H20.8901C20.9829 18.2028 21.5275 18.8909 21.5275 18.9373C21.5275 19.0302 21.4811 19.0302 21.3924 19.0302V19.1231H22.4435V19.0302C22.3971 19.0302 22.3507 19.0302 22.3084 18.9373L21.7132 18.1142C22.1227 17.9791 22.4435 17.7005 22.4435 17.2446C22.4435 16.6493 22.1227 16.3749 21.346 16.3749H19.5181V16.4678C19.611 16.4678 19.6532 16.5143 19.6532 16.5607V18.9373C19.6532 18.9838 19.6067 19.0302 19.5181 19.0302V19.1231H20.5692V19.0302C20.4341 19.0302 20.3877 18.9838 20.3877 18.9373V18.0677ZM25.0017 16.9744C25.4576 16.9744 25.8249 17.2488 25.8249 17.7511C25.8249 18.2535 25.4576 18.5279 25.0017 18.5279C24.5458 18.5279 24.1785 18.2535 24.1785 17.7511C24.1785 17.2488 24.5458 16.9744 25.0017 16.9744ZM25.0017 16.3792C24.1321 16.3792 23.4018 16.8351 23.4018 17.7511C23.4018 18.6672 24.1321 19.1231 25.0017 19.1231C25.8713 19.1231 26.6016 18.6672 26.6016 17.7511C26.6016 16.8351 25.8671 16.3792 25.0017 16.3792ZM29.8437 16.5607C29.8437 16.5143 29.8437 16.4678 29.7086 16.4678V16.3749H30.7597V16.4678C30.6246 16.4678 30.6246 16.5143 30.6246 16.5607V17.9326C30.6246 18.8487 29.9872 19.1189 29.2062 19.1189C28.4295 19.1189 27.8343 18.8445 27.8343 17.9326V16.5607C27.8343 16.5143 27.7878 16.4678 27.6992 16.4678V16.3749H28.7039V16.4678C28.611 16.4678 28.5688 16.5143 28.5688 16.5607V17.9326C28.5688 18.3463 28.7967 18.4814 29.2062 18.4814C29.6157 18.4814 29.8437 18.3463 29.8437 17.9326V16.5607ZM32.9042 16.9744H33.6809C33.9553 16.9744 34.0904 17.0673 34.0904 17.2488C34.0904 17.4767 33.9553 17.5696 33.6809 17.5696H32.9042V16.9744ZM32.9042 18.1142H33.816C34.4534 18.1142 34.8207 17.7005 34.8207 17.2446C34.8207 16.7886 34.4534 16.3749 33.816 16.3749H32.0346V16.4678C32.1274 16.4678 32.1697 16.5143 32.1697 16.5607V18.9373C32.1697 18.9838 32.1232 19.0302 32.0346 19.0302V19.1231H33.0857V19.0302C32.9506 19.0302 32.9042 18.9838 32.9042 18.9373V18.1142ZM39.211 16.9744C39.6204 16.9744 40.0341 17.2488 40.0341 17.7511C40.0341 18.2535 39.6247 18.5279 39.211 18.5279C38.755 18.5279 38.3878 18.2535 38.3878 17.7511C38.3878 17.2488 38.755 16.9744 39.211 16.9744ZM39.211 16.3792C38.3414 16.3792 37.611 16.8351 37.611 17.7511C37.611 18.6672 38.3414 19.1231 39.211 19.1231C40.0806 19.1231 40.8109 18.6672 40.8109 17.7511C40.8109 16.8351 40.0763 16.3792 39.211 16.3792ZM44.6017 17.1559H44.5553C44.5553 17.063 44.5088 17.0208 44.4624 17.0208H42.7738V17.4767H43.9178C43.9643 17.4767 44.0107 17.4767 44.0107 17.3839H44.0571V18.2535H44.0107C44.0107 18.1184 43.9643 18.072 43.9178 18.072H42.7738V18.9416C42.7738 18.988 42.7738 19.0344 42.9089 19.0344V19.1273H41.8578V19.0344C41.9929 19.0344 41.9929 18.988 41.9929 18.9416V16.5649C41.9929 16.5185 41.9929 16.472 41.8578 16.472V16.3792H44.4624C44.5088 16.3792 44.5553 16.3792 44.5553 16.2441H44.6017V17.1559ZM50.0853 17.3839L50.0389 17.3374V17.291C50.0389 17.1981 49.6716 17.063 49.2157 17.063C48.8062 17.063 48.3039 17.2446 48.3039 17.7469C48.3039 18.2957 48.8062 18.4308 49.2157 18.4308C49.3972 18.4308 50.0853 18.2957 50.0853 18.1564C50.0853 18.1099 50.0853 18.1099 50.0389 18.0635H50.1317L50.6341 18.8402L50.5876 18.8867C50.5412 18.8402 50.5412 18.8402 50.4948 18.8402C50.4019 18.8402 49.946 19.1146 49.1693 19.1146C48.3461 19.1146 47.4807 18.6587 47.4807 17.7427C47.4807 16.8309 48.3503 16.3707 49.1693 16.3707C49.4774 16.3707 49.7814 16.4003 50.0853 16.4636C50.2668 16.51 50.3597 16.5565 50.4061 16.5565C50.4526 16.5565 50.499 16.5565 50.499 16.51L50.5454 16.5565L50.0853 17.3839ZM53.0994 16.9744C53.5553 16.9744 53.969 17.2488 53.969 17.7511C53.969 18.2535 53.5553 18.5279 53.0994 18.5279C52.6899 18.5279 52.2762 18.2535 52.2762 17.7511C52.2762 17.2488 52.6899 16.9744 53.0994 16.9744ZM53.0994 16.3792C52.2298 16.3792 51.5459 16.8351 51.5459 17.7511C51.5459 18.6672 52.2298 19.1231 53.0994 19.1231C53.969 19.1231 54.6993 18.6672 54.6993 17.7511C54.6993 16.8351 53.969 16.3792 53.0994 16.3792ZM58.1735 19.1189V19.026C58.3086 19.026 58.3086 18.9796 58.3086 18.9331V17.063L57.3926 19.026L56.5272 17.0166H56.4807V18.9331C56.4807 18.9796 56.5272 19.026 56.6622 19.026V19.1189H55.7462V19.026C55.8813 19.026 55.8813 18.9796 55.8813 18.9331V16.5565C55.8813 16.51 55.8813 16.4636 55.7462 16.4636V16.3707H57.0717V16.4636C56.9789 16.4636 56.9366 16.4636 56.9366 16.5565C56.9366 16.6029 57.3925 17.5147 57.439 17.654C57.6669 17.1517 57.9413 16.6029 57.9413 16.5565C57.9413 16.4636 57.8949 16.4636 57.8063 16.4636V16.3707H59.1782V16.4636C59.0853 16.4636 59.0431 16.51 59.0431 16.5565V18.9331C59.0431 18.9796 59.0896 19.026 59.1782 19.026V19.1189H58.1735ZM61.3227 16.9744H62.0994C62.3738 16.9744 62.5131 17.0673 62.5131 17.2488C62.5131 17.4767 62.378 17.5696 62.0994 17.5696H61.3227V16.9744ZM61.3227 18.1142H62.2345C62.8762 18.1142 63.1928 17.7005 63.1928 17.2446C63.1928 16.7886 62.8719 16.3749 62.2345 16.3749H60.4066V16.4678C60.5459 16.4678 60.5459 16.5143 60.5459 16.5607V18.9373C60.5459 18.9838 60.5459 19.0302 60.4066 19.0302V19.1231H61.4578V19.0302C61.3227 19.0302 61.3227 18.9838 61.3227 18.9373V18.1142ZM65.2992 16.8815L65.7552 18.1142H64.8433L65.2992 16.8815ZM65.8945 18.5279C65.9409 18.5743 66.076 18.9373 66.076 18.9838C66.076 19.0302 66.0295 19.0302 65.9831 19.0302V19.1231H66.9878V19.0302C66.9414 19.0302 66.8949 19.0302 66.8527 18.8951C66.5319 18.1184 65.8945 16.5649 65.8945 16.5185C65.8945 16.472 65.9409 16.472 65.9873 16.472V16.3792H64.6618V16.472C64.7082 16.472 64.7547 16.472 64.7547 16.5185C64.7547 16.5649 63.8893 18.8023 63.8893 18.9416C63.8429 18.988 63.7964 19.0344 63.75 19.0344V19.1273H64.6196V19.0344C64.5732 19.0344 64.5267 19.0344 64.5267 18.988C64.5267 18.9416 64.5732 18.8951 64.7083 18.5321H65.8945V18.5279ZM68.1318 16.5607C68.1318 16.5143 68.1318 16.4678 67.9967 16.4678V16.3749H69.2294V16.4678C69.1787 16.4636 69.1281 16.4805 69.0901 16.5143C69.0901 16.5607 69.9597 17.5189 70.3227 17.9284V16.5565C70.3227 16.4636 70.2763 16.4636 70.2298 16.4636V16.3707H71.1417V16.4636C71.0066 16.4636 71.0066 16.51 71.0066 16.5565V18.9331C71.0066 18.9796 71.0066 19.026 71.1417 19.026V19.1189H70.1834V19.026C70.2763 19.026 70.3185 19.026 70.3185 18.9796C70.3185 18.9331 70.1834 18.8445 68.8115 17.3332V18.9331C68.8115 18.9796 68.8579 19.026 68.9465 19.026V19.1189H67.9883V19.026C68.1234 19.026 68.1234 18.9796 68.1234 18.9331V16.5607H68.1318ZM72.4292 19.1189V19.026C72.5643 19.026 72.5643 18.9796 72.5643 18.9331V16.5565C72.5643 16.51 72.5643 16.4636 72.4292 16.4636V16.3707H73.4803V16.4636C73.3452 16.4636 73.3452 16.51 73.3452 16.5565V18.9331C73.3452 18.9796 73.3452 19.026 73.4803 19.026V19.1189H72.4292ZM76.811 18.1142H76.7646C76.7646 18.0677 76.7181 17.9791 76.6253 17.9791H75.6712V18.4814H77.3176C77.364 18.4814 77.364 18.435 77.4105 18.3463H77.4569V19.2117H77.4105C77.364 19.1189 77.364 19.1189 77.3176 19.1189H74.7594V19.026C74.8945 19.026 74.8945 18.9796 74.8945 18.9331V16.5565C74.8945 16.51 74.8945 16.4636 74.7594 16.4636V16.3707H77.3176C77.364 16.3707 77.364 16.3707 77.4105 16.2356H77.4569V17.1517H77.4105C77.364 17.0166 77.364 17.0166 77.3176 17.0166H75.6712V17.4261H76.6295C76.7224 17.4261 76.7688 17.3796 76.7688 17.291H76.8152V18.1142H76.811ZM78.7318 18.0255L78.7782 18.072V18.1648C78.7782 18.2999 79.327 18.5321 79.8293 18.5321C80.3317 18.5321 80.5596 18.4392 80.5596 18.2113C80.5596 17.8018 78.5038 18.2577 78.5038 17.253C78.5038 16.7507 78.9597 16.3834 79.7365 16.3834C80.4203 16.3834 80.9227 16.5649 81.062 16.5649C81.1084 16.5649 81.1548 16.5649 81.1971 16.5185H81.2435L80.8762 17.2488L80.8298 17.2023V17.1559C80.8298 17.0208 80.2346 16.8815 79.7787 16.8815C79.3228 16.8815 79.1834 17.0208 79.1834 17.1095C79.1834 17.5654 81.2857 17.0166 81.2857 18.207C81.2857 18.6629 80.9649 19.1231 79.8673 19.1231C78.9977 19.1231 78.6347 18.8951 78.4954 18.8951C78.4489 18.8951 78.4489 18.9416 78.4025 18.988L78.356 18.9416L78.7318 18.0255ZM14.4482 17.7511C14.4482 18.0255 14.2667 18.207 13.9923 18.207H0.829935C0.576651 18.207 0.374023 18.0044 0.374023 17.7511C0.374023 17.4767 0.601979 17.2952 0.829935 17.2952H13.9881C14.2624 17.291 14.4482 17.4767 14.4482 17.7511ZM96.5967 17.7511C96.5967 18.0044 96.3941 18.207 96.1408 18.207H82.9827C82.7083 18.207 82.5268 18.0255 82.5268 17.7511C82.5268 17.4767 82.7083 17.2952 82.9827 17.2952H96.1408C96.3688 17.291 96.5967 17.4767 96.5967 17.7511Z" fill="white"/>
</svg>
