<svg width="32" height="32" viewBox="0 0 32 32" fill="none" xmlns="http://www.w3.org/2000/svg">
<rect width="32" height="32" rx="5" fill="#FF8514"/>
<path d="M20.9619 24.2921C19.9774 25.3422 18.8616 24.3577 18.074 23.6358C17.4176 22.9794 16.63 22.1918 15.9081 21.6667C14.0703 23.5701 12.5607 25.9329 11.0512 24.6203C9.21342 23.1107 12.7576 20.8135 13.6765 19.5008C12.8233 19.2383 11.3137 18.7789 10.5917 18.2538C9.86975 17.7287 9.73849 16.4817 10.5917 15.8253C11.6419 15.1034 12.2982 15.891 13.5452 16.2848C18.2053 17.7943 19.9774 13.5938 21.3557 16.0222C22.5371 18.1225 18.5334 19.0414 18.074 19.3696C19.9774 21.2073 22.4058 22.8481 20.9619 24.2921Z" fill="white"/>
<path d="M16.4984 5.06148C14.0043 4.66767 10.9851 6.17725 10.5257 9.26204C9.47553 16.0223 19.7144 17.6632 20.6989 10.8373C21.0927 8.27753 19.4519 5.58655 16.4984 5.06148ZM15.7107 12.2156C12.8885 12.2812 12.6916 8.2119 15.5138 8.015C18.4017 7.8181 18.4674 12.2156 15.7107 12.2156Z" fill="white"/>
</svg>
