<svg width="18" height="18" viewBox="0 0 18 18" fill="none" xmlns="http://www.w3.org/2000/svg">
<path fill-rule="evenodd" clip-rule="evenodd" d="M13.1997 10.8002C12.0003 12.0029 12.0003 13.1972 10.8 13.1972C9.59972 13.1972 8.40028 12.0029 7.2 10.8002C5.99973 9.59743 4.80028 8.40257 4.80028 7.19984C4.80028 5.99711 5.99973 5.99737 7.2 4.80282C8.40028 3.60828 4.80027 0 3.59999 0C2.39972 0 0 3.59992 0 3.59992C0 5.99719 2.466 10.8654 4.80028 13.1972C7.13455 15.529 12.0003 18 14.4 18C14.4 18 18 15.6028 18 14.4001C18 13.1974 14.4 9.59743 13.1997 10.8002Z" fill="white"/>
</svg>
