<svg width="105" height="24" viewBox="0 0 105 24" fill="none" xmlns="http://www.w3.org/2000/svg">
<path d="M24.6457 8.4561C24.6457 8.38368 24.6457 8.38368 24.5732 8.31126C23.5576 5.9214 19.8581 5.12478 15.5057 6.2835L14.7803 5.84898C16.884 4.90752 19.0602 4.473 20.8011 4.54542C23.4851 4.76268 24.7908 6.2835 24.6457 8.4561ZM20.8011 13.5255C18.0446 17.0741 12.9669 19.5364 9.55749 19.2467C6.14812 18.957 5.64035 15.9154 8.39685 12.3668C8.46939 12.2944 8.54193 12.2219 8.54193 12.1495V16.5671C8.54193 17.7259 9.63003 18.2328 10.3554 17.7983L20.5835 11.5702C21.3815 11.0632 21.3089 9.9045 20.511 9.46998L16.3762 7.08012C17.4643 6.71802 18.5524 6.57318 19.4954 6.6456C23.0499 6.93528 23.5576 10.0493 20.8011 13.5255ZM7.81654 21.202C4.69733 20.9848 3.46415 18.8846 4.26209 16.0602C4.26209 16.4947 4.33463 17.0017 4.47971 17.3638C5.71288 20.4054 11.2259 20.7675 16.7389 18.3052C16.884 18.2328 16.9565 18.2328 17.1016 18.1604C13.9824 20.1881 10.5005 21.3469 7.81654 21.202ZM11.371 5.41446L18.2622 9.75966C18.77 10.0493 18.8426 10.846 18.2622 11.2081L11.2984 15.4084C10.7907 15.6981 9.99273 15.336 10.0653 14.6118V6.21108C10.0653 5.5593 10.7907 5.12478 11.371 5.41446ZM27.2572 7.0077C25.8064 3.45912 19.8581 2.73492 13.4021 4.97994L10.5005 3.16944C9.63003 2.6625 8.61447 3.31428 8.54193 4.32816V7.22496C2.95638 10.5563 -0.235369 15.336 1.14289 18.7397C2.73876 22.6504 9.84765 23.1574 17.1016 19.8985C24.283 16.712 28.853 10.9184 27.2572 7.0077Z" fill="white"/>
<path d="M32.9875 12.0772L32.3347 14.3946C32.2621 14.7567 32.1896 15.0464 32.117 15.3361C32.0445 15.6257 32.0445 15.843 32.0445 15.9878C32.0445 16.2051 32.117 16.4224 32.2621 16.5672C32.4072 16.712 32.6248 16.7845 32.8424 16.7845C33.2051 16.7845 33.5678 16.5672 34.0031 16.1327C34.3658 15.6982 34.801 15.1188 35.1637 14.3946C35.599 13.3807 35.9616 12.4393 36.2518 11.4254C36.542 10.4839 36.687 9.68729 36.687 9.18035C36.687 8.81825 36.6145 8.45615 36.4694 8.23889C36.3243 8.02163 36.1067 7.87679 35.8891 7.87679C35.3813 7.87679 34.8736 8.23889 34.3658 8.89067C33.7855 9.54245 33.4228 10.6288 32.9875 12.0772ZM29.0704 6.79049C30.0134 6.71807 30.9564 6.64565 31.8269 6.50081C32.6974 6.35597 33.5678 6.28355 34.3658 6.06629L33.7129 8.52857C34.3658 7.58711 35.0186 6.86291 35.6715 6.42839C36.2518 5.99387 36.9047 5.77661 37.6301 5.77661C38.5731 5.77661 39.2259 6.06629 39.7337 6.64565C40.2415 7.22501 40.4591 8.02163 40.4591 9.10793C40.4591 9.97697 40.314 10.9184 39.9513 11.9323C39.5886 12.9462 39.1534 13.8152 38.5005 14.6843C37.7751 15.6982 37.0497 16.4224 36.2518 16.9293C35.4539 17.4362 34.5834 17.6535 33.7129 17.6535C33.3502 17.6535 32.9875 17.5811 32.6974 17.5086C32.4072 17.3638 32.117 17.219 31.8269 17.0017L31.1015 19.6812C31.0289 19.8261 31.029 20.0434 31.029 20.1882C31.029 20.333 31.029 20.5503 31.029 20.6951C31.029 20.9848 31.1015 21.2745 31.3191 21.3469C31.5367 21.4918 31.8994 21.5642 32.4797 21.5642V22.216H25.9512V21.5642H26.0237C26.0963 21.5642 26.0963 21.5642 26.0963 21.5642C26.5315 21.5642 26.8216 21.4917 27.0393 21.2745C27.2569 21.0572 27.4745 20.4779 27.6921 19.6088L30.3036 9.03551C30.3761 8.89067 30.3761 8.67341 30.3761 8.52857C30.3761 8.38373 30.4486 8.23889 30.4486 8.16647C30.4486 7.87679 30.3761 7.65953 30.1585 7.58711C30.0134 7.44227 29.6507 7.44227 29.2155 7.44227L29.0704 6.79049Z" fill="white"/>
<path d="M41.1127 0.924395C42.0557 0.851975 42.9987 0.707134 43.9418 0.634714C44.8122 0.489874 45.6827 0.345035 46.4807 0.200195L42.8537 14.3945C42.8537 14.4669 42.7811 14.5394 42.7811 14.6842C42.7086 14.9015 42.7086 14.9739 42.7086 15.0463C42.7086 15.1911 42.7086 15.336 42.7811 15.4084C42.8537 15.4808 42.9262 15.5532 43.0713 15.5532C43.2164 15.5532 43.3614 15.4808 43.5065 15.2636C43.6516 15.1187 44.0143 14.6118 44.4495 13.8876L45.0299 14.3221C44.3045 15.5532 43.5791 16.4223 42.9262 16.9292C42.2734 17.4362 41.6205 17.7258 40.8951 17.7258C40.2422 17.7258 39.807 17.581 39.4443 17.2189C39.0816 16.8568 38.9365 16.3499 38.9365 15.6981C38.9365 15.4084 39.0816 14.5394 39.4443 13.1634V13.0185L41.8381 3.74877C41.8381 3.67635 41.9107 3.53151 41.9107 3.38667C42.0557 2.80731 42.1283 2.37279 42.1283 2.22795C42.1283 2.01069 42.0557 1.79343 41.9107 1.72101C41.7656 1.57617 41.4754 1.57617 41.1853 1.57617H40.9676L41.1127 0.924395Z" fill="white"/>
<path d="M52.356 8.31116C52.356 7.94906 52.2835 7.7318 52.1384 7.51454C51.9933 7.29728 51.7757 7.22486 51.5581 7.22486C51.1954 7.22486 50.9052 7.3697 50.5426 7.7318C50.2524 8.0939 49.8897 8.67326 49.4545 9.39746C48.9467 10.3389 48.584 11.2804 48.2938 12.1494C48.0037 13.0909 47.8586 13.8151 47.8586 14.4669C47.8586 14.829 47.9311 15.1911 48.0762 15.4083C48.2213 15.6256 48.4389 15.698 48.7291 15.698C49.0918 15.698 49.527 15.4807 49.8897 14.9738C50.3249 14.5393 50.6876 13.8875 51.0503 13.0185C51.413 12.077 51.7032 11.1355 51.9933 10.2665C52.211 9.39745 52.356 8.74568 52.356 8.31116ZM56.7084 6.21098L54.8224 13.2357C54.5322 14.322 54.3872 14.9738 54.3872 15.1186C54.3872 15.2635 54.3872 15.4083 54.4597 15.5532C54.5322 15.6256 54.6048 15.698 54.7499 15.698C55.04 15.698 55.4752 15.3359 55.983 14.6117C56.1281 14.3944 56.2732 14.2496 56.3457 14.1048L56.926 14.5393C56.2732 15.6256 55.6929 16.4222 55.04 16.9291C54.3872 17.4361 53.7343 17.7258 53.0089 17.7258C52.4286 17.7258 51.9208 17.5809 51.6306 17.2912C51.3405 17.0016 51.1229 16.6395 51.1229 16.0601C51.1229 15.9153 51.1229 15.698 51.1954 15.4807C51.1954 15.2635 51.2679 14.9014 51.3405 14.5393C50.7602 15.6256 50.1073 16.3498 49.4545 16.8567C48.8016 17.3637 48.0037 17.6533 47.2057 17.6533C46.3353 17.6533 45.6824 17.3637 45.1746 16.8567C44.6668 16.2774 44.4492 15.5532 44.4492 14.6117C44.4492 13.5254 44.6668 12.3667 45.1746 11.208C45.3922 10.0492 46.0451 8.96294 46.843 8.0939C47.4959 7.3697 48.1487 6.79034 48.8741 6.42824C49.5995 6.06614 50.2524 5.84888 50.9052 5.84888C51.4856 5.84888 51.9933 5.99372 52.356 6.2834C52.7187 6.57308 52.9364 7.0076 53.0814 7.65938L53.4441 6.2834L56.7084 6.21098Z" fill="white"/>
<path d="M55.5474 7.15253V6.50075C56.4905 6.42833 57.4335 6.28349 58.3765 6.13865C59.3195 5.99381 59.8273 5.92139 59.8998 5.92139C60.2625 5.92139 60.7703 7.58705 61.4232 10.9908C61.6408 12.3668 61.8584 13.4531 62.0035 14.2497C62.7289 12.8013 63.2366 11.715 63.5268 11.0632C63.817 10.4114 63.962 9.90449 63.962 9.61481C63.962 9.39755 63.7444 9.03545 63.3092 8.74577C62.874 8.38367 62.6563 8.02157 62.6563 7.58705C62.6563 7.08011 62.8014 6.64559 63.0916 6.35591C63.3817 6.06623 63.817 5.92139 64.3247 5.92139C64.8325 5.92139 65.2678 6.06623 65.5579 6.35591C65.8481 6.64559 65.9932 7.08011 65.9932 7.65947C65.9932 8.38367 65.6305 9.46997 64.9776 10.9908C64.3247 12.5116 63.3817 14.2497 62.2936 16.205C60.9879 18.3776 59.8273 19.9709 58.7392 20.9847C57.6511 21.9986 56.6355 22.5056 55.6925 22.5056C55.0397 22.5056 54.5319 22.3607 54.1692 22.071C53.8065 21.7814 53.5889 21.3468 53.5889 20.8399C53.5889 20.4054 53.7339 19.9709 54.0966 19.6812C54.3868 19.3915 54.822 19.2467 55.3298 19.2467C55.6925 19.2467 56.1278 19.3915 56.563 19.6812C56.9982 19.9709 57.2884 20.1157 57.4335 20.1157C57.7236 20.1157 58.0138 19.8984 58.3765 19.4639C58.7392 19.0294 58.8843 18.5949 58.8843 18.1604C58.8843 17.8707 58.8843 17.5086 58.8117 17.0016C58.7392 16.5671 58.6666 15.9878 58.5941 15.2636C58.3765 13.8152 58.1589 12.5116 57.9412 11.3529C57.7236 10.1942 57.506 9.25271 57.2884 8.52851C57.1433 7.94915 56.9257 7.58705 56.7806 7.36979C56.6355 7.22495 56.3454 7.08011 55.9827 7.08011C55.7651 7.15253 55.6925 7.15253 55.5474 7.15253Z" fill="white"/>
<path d="M70.5635 14.5393C69.8381 15.5532 69.1127 16.3498 68.4599 16.8567C67.807 17.4361 67.1542 17.6533 66.5738 17.6533C66.1386 17.6533 65.7759 17.5085 65.4857 17.2188C65.1956 16.9291 65.123 16.4946 65.123 15.9877C65.123 15.8428 65.123 15.6256 65.1956 15.4083C65.1956 15.1911 65.2681 14.9738 65.3407 14.6841L67.3718 6.64551H65.1956L65.4132 5.92131C66.3562 5.70405 67.1542 5.26953 67.8796 4.61775C68.605 3.89355 69.2578 2.95209 69.8381 1.72095H70.5635L69.6205 5.77647H71.5065L71.2889 6.64551H69.2578L67.2992 14.3944C67.2267 14.5393 67.2267 14.7565 67.2267 14.9014C67.2267 15.0462 67.2267 15.1911 67.2267 15.2635C67.2267 15.5532 67.2992 15.698 67.3718 15.8428C67.4443 15.9877 67.6619 16.0601 67.807 16.0601C68.0972 16.0601 68.3873 15.9153 68.75 15.6256C69.1127 15.3359 69.548 14.829 70.1283 14.1048L70.5635 14.5393Z" fill="white"/>
<path d="M72.5948 11.8598C74.1907 11.7874 75.569 11.3529 76.5845 10.5563C77.6726 9.75965 78.1804 8.89061 78.1804 7.87673C78.1804 7.51463 78.1079 7.29737 77.8902 7.08011C77.7452 6.93527 77.455 6.86285 77.0923 6.86285C76.1493 6.86285 75.2063 7.29737 74.4083 8.16641C73.6829 9.10787 73.0301 10.339 72.5948 11.8598ZM72.3772 12.7289C72.3047 13.0185 72.2321 13.3082 72.2321 13.5979C72.1596 13.8876 72.1596 14.1048 72.1596 14.3221C72.1596 14.9739 72.3047 15.4808 72.6674 15.8429C73.0301 16.205 73.4653 16.4947 74.1182 16.4947C74.771 16.4947 75.4964 16.205 76.2944 15.7705C77.0923 15.336 78.0353 14.6842 78.9783 13.8152L79.4861 14.6118C78.3255 15.6981 77.1648 16.4947 76.1493 17.0016C75.1337 17.5086 74.0456 17.7983 73.1026 17.7983C72.0871 17.7983 71.3617 17.5086 70.7813 16.9292C70.201 16.3499 69.9834 15.4808 69.9834 14.3945C69.9834 13.3806 70.201 12.2943 70.6363 11.208C71.0715 10.1217 71.6518 9.18029 72.3772 8.38367C73.1026 7.58705 73.9005 7.00769 74.6985 6.57317C75.569 6.13865 76.4394 5.92139 77.3099 5.92139C78.1079 5.92139 78.7607 6.13865 79.2685 6.50075C79.7763 6.86285 79.9939 7.44221 79.9939 8.09399C79.9939 9.32513 79.2685 10.339 77.8902 11.208C76.4394 12.0047 74.6259 12.584 72.3772 12.7289Z" fill="white"/>
<path d="M87.9726 12.8736V14.3944C87.2472 15.4807 86.3767 16.2774 85.5062 16.8567C84.6357 17.3637 83.6202 17.6533 82.6046 17.6533C81.444 17.6533 80.501 17.2912 79.7756 16.4946C79.0502 15.698 78.6875 14.6841 78.6875 13.453C78.6875 12.5115 78.9051 11.5701 79.2678 10.6286C79.7031 9.68713 80.2108 8.8181 80.9362 8.02148C81.5891 7.29728 82.3145 6.79034 83.185 6.42824C83.9829 6.06614 84.8534 5.84888 85.6513 5.84888C86.5218 5.84888 87.2472 6.06614 87.755 6.50066C88.2627 6.93518 88.5529 7.44212 88.5529 8.16632C88.5529 8.60084 88.4078 8.89051 88.1177 9.18019C87.8275 9.46987 87.5373 9.61471 87.1021 9.61471C86.8119 9.61471 86.5218 9.54229 86.3767 9.32504C86.1591 9.10778 86.0865 8.89051 86.0865 8.52841C86.0865 8.31116 86.1591 8.02148 86.3042 7.7318C86.4492 7.44212 86.5218 7.22486 86.5218 7.15244C86.5218 7.0076 86.4492 6.86276 86.3042 6.79034C86.1591 6.71792 85.9415 6.6455 85.6513 6.6455C85.071 6.6455 84.5632 6.79034 83.9829 7.15244C83.4026 7.51454 82.8948 7.94906 82.4596 8.60084C81.9518 9.32504 81.5165 10.1217 81.2264 10.9183C80.9362 11.7149 80.7911 12.5115 80.7911 13.3081C80.7911 14.1772 81.0088 14.9014 81.444 15.4083C81.8792 15.9153 82.5321 16.2774 83.33 16.2774C83.9104 16.2774 84.5632 15.9877 85.1435 15.6256C85.9415 15.3359 86.8845 14.5393 87.9726 12.8736Z" fill="white"/>
<path d="M86.5947 17.7259L90.6569 3.0246C90.6569 2.95218 90.7295 2.87976 90.7295 2.73492C90.7295 2.6625 90.7295 2.51766 90.7295 2.44524C90.7295 2.15556 90.6569 2.01072 90.5119 1.9383C90.3668 1.86588 90.0041 1.79346 89.4238 1.79346H88.4808L88.6258 1.14168C89.3512 1.14168 90.0766 0.996841 90.7295 0.924421C91.3823 0.779581 91.9627 0.63474 92.543 0.41748H93.2684L90.4393 10.5563C91.8901 9.10788 93.1958 7.94916 94.429 7.15254C95.6622 6.35592 96.6052 5.9214 97.3306 5.9214C97.6933 5.9214 97.9834 5.99382 98.1285 6.21108C98.2736 6.42834 98.4187 6.6456 98.4187 7.08012C98.4187 7.22496 98.4187 7.3698 98.3461 7.51464C98.3461 7.65948 98.2736 7.87674 98.2011 8.094L96.17 14.9739C96.17 15.1187 96.0974 15.2636 96.0974 15.4084C96.0974 15.5533 96.0249 15.6981 96.0249 15.8429C96.0249 15.9154 96.0974 15.9878 96.17 16.0602C96.2425 16.1326 96.315 16.2775 96.4601 16.2775C96.6777 16.2775 96.9679 16.0602 97.258 15.7705C97.6207 15.4808 97.9834 15.1187 98.3461 14.6842L98.7814 15.0463C98.056 15.9154 97.4031 16.5671 96.7503 17.0741C96.0974 17.5086 95.5171 17.7983 94.9368 17.7983C94.5741 17.7983 94.2839 17.7259 94.0663 17.5086C93.8487 17.3638 93.7761 17.0741 93.7761 16.7844C93.7761 16.712 93.7761 16.5671 93.7761 16.4223C93.7761 16.2775 93.8487 16.1326 93.9212 15.9878L96.0249 8.8182C96.0974 8.67336 96.0974 8.52852 96.0974 8.4561C96.0974 8.38368 96.0974 8.31126 96.0974 8.23884C96.0974 8.02158 96.0249 7.94916 95.9523 7.80432C95.8798 7.7319 95.7347 7.65948 95.5171 7.65948C95.2269 7.65948 94.7917 7.87674 94.2114 8.23884C93.6311 8.60094 92.9782 9.1803 92.1803 9.83208C91.4549 10.4839 90.9471 10.9908 90.6569 11.4253C90.3668 11.8598 90.0766 12.2944 89.9316 12.8013L88.5533 17.7259C88.4082 17.7259 87.8279 17.6534 87.6828 17.6534C87.5377 17.6534 87.7554 17.6534 87.6103 17.6534C87.4652 17.6534 87.2476 17.6534 87.1025 17.6534C86.9574 17.6534 86.8123 17.6534 86.5947 17.7259Z" fill="white"/>
<path d="M62.512 21.7815V21.9987C62.512 22.0711 62.512 22.216 62.5845 22.2884C62.657 22.5057 62.8021 22.6505 63.1648 22.6505C63.3099 22.6505 63.3824 22.6505 63.455 22.5781C63.6726 22.5057 63.8177 22.3608 63.8177 22.0711C63.8177 21.9263 63.7451 21.7815 63.6 21.6366C63.5275 21.5642 63.3824 21.4918 63.2374 21.4194L62.8021 21.2021C62.657 21.1297 62.512 21.0573 62.3669 20.9848C62.1493 20.84 62.0042 20.6227 62.0042 20.2606C62.0042 19.8985 62.1493 19.6813 62.3669 19.5364C62.5845 19.464 62.8021 19.3916 63.1648 19.3916C63.6 19.3916 63.8902 19.464 64.0353 19.6089C64.1804 19.7537 64.2529 19.971 64.2529 20.3331V20.4055H63.6726V20.3331V20.1882C63.6726 19.8985 63.455 19.8261 63.1648 19.8261C62.8021 19.8261 62.5845 19.971 62.5845 20.3331C62.5845 20.5503 62.7296 20.6952 62.9472 20.84C63.0923 20.9124 63.2374 20.9848 63.455 21.0573C63.6726 21.1297 63.8177 21.2021 63.8902 21.2745C64.1804 21.4194 64.3254 21.709 64.3254 22.0711C64.3254 22.7229 63.8902 23.0126 63.0923 23.0126C62.7296 23.0126 62.4394 22.9402 62.2943 22.8678C62.0767 22.7229 61.9316 22.5057 61.9316 22.2884V21.9987V21.8539L62.512 21.7815Z" fill="white"/>
<path d="M64.7598 20.5503C64.7598 20.2606 64.7598 20.0434 64.8323 19.8985C64.9048 19.6813 65.0499 19.5364 65.3401 19.464C65.5577 19.3916 65.7028 19.3916 65.9929 19.3916C66.2106 19.3916 66.4282 19.3916 66.6458 19.464C66.936 19.5364 67.081 19.6813 67.1536 19.8985C67.1536 20.1158 67.1536 20.3331 67.1536 20.5503V21.709C67.1536 21.9263 67.1536 22.0711 67.1536 22.216C67.081 22.6505 66.7183 22.8678 65.9929 22.8678C65.4852 22.8678 65.1225 22.7953 64.9774 22.5781C64.8323 22.4332 64.7598 22.1436 64.7598 21.709V20.5503ZM65.3401 21.709C65.3401 21.9987 65.3401 22.216 65.4126 22.2884C65.4852 22.3608 65.5577 22.4332 65.6302 22.5057C65.7753 22.5781 65.8479 22.5781 65.9929 22.5781C66.0655 22.5781 66.2106 22.5781 66.2831 22.5057C66.5007 22.4332 66.5733 22.2884 66.5733 22.1436C66.5733 22.0711 66.5733 21.9263 66.5733 21.7815V20.5503C66.5733 20.3331 66.5733 20.1158 66.5007 20.0434C66.4282 19.8985 66.2106 19.8261 65.9204 19.8261C65.8479 19.8261 65.7028 19.8261 65.6302 19.8985C65.4126 19.971 65.3401 20.1158 65.3401 20.3331C65.3401 20.4055 65.3401 20.5503 65.3401 20.6227V21.709Z" fill="white"/>
<path d="M67.6621 19.464H68.2424V21.7815V22.0711C68.2424 22.4332 68.46 22.5781 68.8227 22.5781C69.1854 22.5781 69.4031 22.4332 69.4031 22.0711C69.4031 21.9263 69.4031 21.8539 69.4031 21.709V19.3916H70.0559V21.709C70.0559 21.9263 70.0559 22.0711 70.0559 22.1436C70.0559 22.2884 69.9834 22.4332 69.8383 22.5781C69.6207 22.7953 69.3305 22.8678 68.8953 22.8678C68.46 22.8678 68.0973 22.7953 67.8797 22.5781C67.7346 22.4332 67.7346 22.3608 67.6621 22.1436C67.6621 22.0711 67.6621 21.9263 67.6621 21.709V19.464Z" fill="white"/>
<path d="M71.5785 19.4639H71.9412C72.0863 19.4639 72.2313 19.4639 72.3039 19.4639C72.7391 19.5363 72.9567 19.826 72.9567 20.2605C72.9567 20.4777 72.8842 20.695 72.8117 20.8398C72.6666 20.9847 72.5215 21.0571 72.1588 21.1295C72.3764 21.1295 72.5215 21.2019 72.594 21.2019C72.7391 21.2744 72.8117 21.3468 72.8117 21.4916C72.8117 21.564 72.8117 21.7089 72.8842 21.7813V22.2158C72.8842 22.3607 72.8842 22.5055 72.9567 22.5779C72.9567 22.7228 72.9567 22.7952 73.0293 22.8676H72.449L72.3764 22.6503C72.3764 22.5779 72.3764 22.5055 72.3764 22.4331V22.1434V21.8537C72.3764 21.6365 72.2313 21.4916 72.0137 21.4192C71.9412 21.4192 71.7961 21.4192 71.7236 21.4192H71.2883V22.94H70.708V19.5363L71.5785 19.4639ZM71.2158 19.826V20.9123H71.651C71.7961 20.9123 71.8686 20.9123 71.9412 20.9123C72.0863 20.9123 72.2313 20.8398 72.3039 20.695C72.3764 20.6226 72.3764 20.4777 72.3764 20.3329C72.3764 20.1156 72.3039 20.0432 72.1588 19.9708C72.0863 19.8984 71.8686 19.8984 71.651 19.8984L71.2158 19.826Z" fill="white"/>
<path d="M75.1335 20.4055V20.2606C75.1335 19.971 74.9885 19.8261 74.6258 19.8261C74.3356 19.8261 74.1905 19.8985 74.118 20.0434C74.0454 20.1158 74.0454 20.1882 74.0454 20.2606V20.5503V21.9263C74.0454 22.1436 74.0454 22.3608 74.118 22.4332C74.1905 22.5781 74.4081 22.6505 74.6258 22.6505C74.9159 22.6505 75.1335 22.5057 75.1335 22.216V21.9987V21.8539H75.7139V21.9987V22.216C75.7139 22.5057 75.6413 22.6505 75.4237 22.7953C75.3512 22.8678 75.2061 22.9402 75.061 22.9402C74.9159 23.0126 74.7708 23.0126 74.5532 23.0126C74.4081 23.0126 74.2631 23.0126 74.118 22.9402C73.6102 22.8678 73.3926 22.5057 73.3926 21.9987V20.5503C73.3926 20.4055 73.3926 20.2606 73.3926 20.1158C73.3926 19.971 73.4651 19.8261 73.5377 19.7537C73.7553 19.5364 74.0454 19.3916 74.5532 19.3916C75.2061 19.3916 75.5688 19.6089 75.6413 20.0434C75.6413 20.1158 75.6413 20.1882 75.6413 20.3331V20.4779H75.1335V20.4055Z" fill="white"/>
<path d="M76.2217 19.4639H78.1077V19.826H76.802V20.9123H78.0352V21.2744H76.802V22.4331H78.1803V22.7952H76.2217V19.4639Z" fill="white"/>
<path d="M79.7031 20.5503C79.7031 20.2606 79.7031 20.0434 79.7757 19.8985C79.8482 19.6813 79.9933 19.5364 80.2834 19.464C80.5011 19.3916 80.6461 19.3916 80.9363 19.3916C81.1539 19.3916 81.3715 19.3916 81.5892 19.464C81.8793 19.5364 82.0244 19.6813 82.0969 19.8985C82.1695 20.0434 82.1695 20.2606 82.1695 20.5503V21.709C82.1695 21.9263 82.1695 22.0711 82.1695 22.216C82.0244 22.7229 81.6617 22.9402 80.9363 22.9402C80.4285 22.9402 80.0658 22.8678 79.9207 22.6505C79.7757 22.5057 79.7031 22.216 79.7031 21.7815V20.5503ZM80.2834 21.709C80.2834 21.9987 80.2834 22.216 80.356 22.2884C80.4285 22.3608 80.5011 22.4332 80.5736 22.5057C80.7187 22.5781 80.7912 22.5781 80.9363 22.5781C81.0088 22.5781 81.1539 22.5781 81.2265 22.5057C81.4441 22.4332 81.5166 22.2884 81.5166 22.1436C81.5166 22.0711 81.5166 21.9263 81.5166 21.7815V20.5503C81.5166 20.3331 81.5166 20.1158 81.4441 20.0434C81.3715 19.8985 81.1539 19.8261 80.9363 19.8261C80.8638 19.8261 80.7187 19.8261 80.6461 19.8985C80.4285 19.971 80.356 20.1158 80.356 20.3331C80.356 20.4055 80.356 20.5503 80.356 20.6227L80.2834 21.709Z" fill="white"/>
<path d="M84.4905 19.4639V19.826H83.1848V20.9123H84.418V21.2744H83.1848V22.8676H82.6045V19.4639H84.4905Z" fill="white"/>
<path d="M86.4495 21.7815V21.9987C86.4495 22.0711 86.4495 22.216 86.4495 22.2884C86.522 22.5057 86.6671 22.6505 87.0298 22.6505C87.1749 22.6505 87.2474 22.6505 87.3925 22.5781C87.6101 22.5057 87.7552 22.3608 87.7552 22.0711C87.7552 21.9263 87.6826 21.7815 87.5376 21.6366C87.465 21.5642 87.3199 21.4918 87.1749 21.4194L86.7396 21.2021C86.5945 21.1297 86.4495 21.0573 86.3044 20.9848C86.0868 20.84 85.9417 20.6227 85.9417 20.2606C85.9417 19.8985 86.0868 19.6813 86.3044 19.5364C86.522 19.464 86.7396 19.3916 87.1023 19.3916C87.5376 19.3916 87.8277 19.464 87.9728 19.6089C88.1179 19.7537 88.1904 19.971 88.1904 20.3331V20.4055H87.6101V20.3331V20.1882C87.6101 19.8985 87.465 19.8261 87.1023 19.8261C86.7396 19.8261 86.522 19.971 86.522 20.3331C86.522 20.5503 86.6671 20.6952 86.8847 20.84C87.0298 20.9124 87.1749 20.9848 87.3925 21.0573C87.6101 21.1297 87.7552 21.2021 87.8277 21.2745C88.1179 21.4194 88.263 21.709 88.263 22.0711C88.263 22.7229 87.8277 23.0126 87.0298 23.0126C86.6671 23.0126 86.3769 22.9402 86.2318 22.8678C86.0142 22.7229 85.8691 22.5057 85.8691 22.2884V21.9987V21.8539L86.4495 21.7815Z" fill="white"/>
<path d="M88.6982 19.464H89.2786V21.7815V22.0711C89.2786 22.4332 89.4962 22.5781 89.8589 22.5781C90.2216 22.5781 90.4392 22.4332 90.4392 22.0711C90.4392 21.9263 90.4392 21.8539 90.4392 21.709V19.3916H91.092V21.709C91.092 21.9263 91.092 22.0711 91.092 22.1436C91.092 22.2884 91.0195 22.4332 90.8744 22.5781C90.6568 22.7953 90.3666 22.8678 89.9314 22.8678C89.4962 22.8678 89.1335 22.7953 88.9159 22.5781C88.7708 22.4332 88.7708 22.3608 88.6982 22.1436C88.6982 22.0711 88.6982 21.9263 88.6982 21.709V19.464Z" fill="white"/>
<path d="M93.4138 20.4055V20.2606C93.4138 19.971 93.2687 19.8261 92.906 19.8261C92.6159 19.8261 92.4708 19.8985 92.3983 20.0434C92.3257 20.1158 92.3257 20.1882 92.3257 20.2606V20.5503V21.9263C92.3257 22.1436 92.3257 22.3608 92.3983 22.4332C92.4708 22.5781 92.6884 22.6505 92.906 22.6505C93.1962 22.6505 93.4138 22.5057 93.4138 22.216V21.9987V21.8539H93.9941V21.9987V22.216C93.9941 22.5057 93.9216 22.6505 93.704 22.7953C93.6314 22.8678 93.4864 22.9402 93.3413 22.9402C93.1962 23.0126 93.0511 23.0126 92.8335 23.0126C92.6884 23.0126 92.5433 23.0126 92.3983 22.9402C91.8905 22.8678 91.6729 22.5057 91.6729 21.9987V20.5503C91.6729 20.4055 91.6729 20.2606 91.6729 20.1158C91.6729 19.971 91.7454 19.8261 91.8179 19.7537C92.0356 19.5364 92.3257 19.3916 92.8335 19.3916C93.4864 19.3916 93.8491 19.6089 93.9216 20.0434C93.9216 20.1158 93.9216 20.1882 93.9216 20.3331V20.4779H93.3413L93.4138 20.4055Z" fill="white"/>
<path d="M96.1697 20.4055V20.2606C96.1697 19.971 96.0246 19.8261 95.6619 19.8261C95.3717 19.8261 95.2267 19.8985 95.1541 20.0434C95.0816 20.1158 95.0816 20.1882 95.0816 20.2606V20.5503V21.9263C95.0816 22.1436 95.0816 22.3608 95.1541 22.4332C95.2267 22.5781 95.4443 22.6505 95.6619 22.6505C95.9521 22.6505 96.1697 22.5057 96.1697 22.216V21.9987V21.8539H96.75V21.9987V22.216C96.75 22.5057 96.6775 22.6505 96.4598 22.7953C96.3873 22.8678 96.2422 22.9402 96.0971 22.9402C95.9521 23.0126 95.807 23.0126 95.5893 23.0126C95.4443 23.0126 95.2992 23.0126 95.1541 22.9402C94.6463 22.8678 94.4287 22.5057 94.4287 21.9987V20.5503C94.4287 20.4055 94.4287 20.2606 94.4287 20.1158C94.4287 19.971 94.5013 19.8261 94.5738 19.7537C94.7914 19.5364 95.0816 19.3916 95.5893 19.3916C96.2422 19.3916 96.6049 19.6089 96.6774 20.0434C96.6774 20.1158 96.6774 20.1882 96.6774 20.3331V20.4779H96.1697V20.4055Z" fill="white"/>
<path d="M97.2578 19.4639H99.1438V19.826H97.8381V20.9123H99.0713V21.2744H97.8381V22.4331H99.2164V22.7952H97.2578V19.4639Z" fill="white"/>
<path d="M100.087 21.7815V21.9987C100.087 22.0711 100.087 22.216 100.159 22.2884C100.232 22.5057 100.377 22.6505 100.74 22.6505C100.885 22.6505 100.957 22.6505 101.102 22.5781C101.32 22.5057 101.465 22.3608 101.465 22.0711C101.465 21.9263 101.393 21.7815 101.248 21.6366C101.175 21.5642 101.03 21.4918 100.885 21.4194L100.45 21.2021C100.305 21.1297 100.159 21.0573 100.014 20.9848C99.7967 20.84 99.6516 20.6227 99.6516 20.2606C99.6516 19.8985 99.7967 19.6813 100.014 19.5364C100.232 19.464 100.45 19.3916 100.812 19.3916C101.248 19.3916 101.538 19.464 101.683 19.6089C101.828 19.7537 101.9 19.971 101.9 20.3331V20.4055H101.32V20.3331V20.1882C101.32 19.8985 101.102 19.8261 100.812 19.8261C100.45 19.8261 100.232 19.971 100.232 20.3331C100.232 20.5503 100.377 20.6952 100.595 20.84C100.74 20.9124 100.885 20.9848 101.102 21.0573C101.32 21.1297 101.465 21.2021 101.538 21.2745C101.828 21.4194 101.973 21.709 101.973 22.0711C101.973 22.7229 101.538 23.0126 100.74 23.0126C100.377 23.0126 100.087 22.9402 99.9418 22.8678C99.7242 22.7229 99.5791 22.5057 99.5791 22.2884V21.9987V21.8539L100.087 21.7815Z" fill="white"/>
<path d="M102.771 21.7815V21.9987C102.771 22.0711 102.771 22.216 102.771 22.2884C102.844 22.5057 102.989 22.6505 103.351 22.6505C103.496 22.6505 103.569 22.6505 103.642 22.5781C103.859 22.5057 104.004 22.3608 104.004 22.0711C104.004 21.9263 103.932 21.7815 103.787 21.6366C103.714 21.5642 103.569 21.4918 103.424 21.4194L102.989 21.2021C102.844 21.1297 102.698 21.0573 102.553 20.9848C102.336 20.84 102.191 20.6227 102.191 20.2606C102.191 19.8985 102.336 19.6813 102.553 19.5364C102.771 19.464 102.989 19.3916 103.351 19.3916C103.787 19.3916 104.077 19.464 104.222 19.6089C104.367 19.7537 104.439 19.971 104.439 20.3331V20.4055H103.859V20.3331V20.1882C103.859 19.8985 103.642 19.8261 103.351 19.8261C102.989 19.8261 102.771 19.971 102.771 20.3331C102.771 20.5503 102.916 20.6952 103.134 20.84C103.279 20.9124 103.424 20.9848 103.642 21.0573C103.859 21.1297 104.004 21.2021 104.077 21.2745C104.367 21.4194 104.512 21.709 104.512 22.0711C104.512 22.7229 104.077 23.0126 103.279 23.0126C102.916 23.0126 102.626 22.9402 102.481 22.8678C102.263 22.7229 102.118 22.5057 102.118 22.2884V21.9987V21.8539L102.771 21.7815Z" fill="white"/>
</svg>
