<svg width="40" height="47" viewBox="0 0 40 47" fill="none" xmlns="http://www.w3.org/2000/svg">
<path d="M0.648438 23.6397C0.648438 23.6397 7.7297 23.2294 9.185 19.2151C10.6225 15.183 5.91945 8.34974 5.91945 8.34974C5.91945 8.34974 11.0307 15.183 14.598 13.6843C18.1652 12.1678 17.5618 0 17.5618 0C17.5618 0 19.0171 12.6495 22.1407 13.9341C25.2642 15.2186 28.8847 8.79577 28.8847 8.79577C28.8847 8.79577 26.1161 14.8797 27.2697 15.8431C28.4411 16.7887 34.5994 12.364 34.5994 12.364C34.5994 12.364 26.6663 17.8413 27.5359 19.6611C28.4056 21.4809 34.7059 19.786 34.7059 19.786C34.7059 19.786 29.4882 23.5149 30.411 25.2276C31.3339 26.9404 39.2848 30.7406 39.2848 30.7406C39.2848 30.7406 31.4581 28.1358 28.3701 30.7763C25.282 33.4346 28.7428 38.9476 28.7428 38.9476C28.7428 38.9476 25.7434 34.8798 23.9332 35.2901C22.1052 35.7005 21.768 46.0128 21.768 46.0128C21.768 46.0128 19.869 35.6291 17.2424 35.3437C14.6157 35.0403 9.87715 42.2661 9.87715 42.2661C9.87715 42.2661 12.5215 34.5586 10.8 32.2571C9.09626 29.9734 0.84366 35.2366 0.84366 35.2366C0.84366 35.2366 12.3263 27.5113 0.648438 23.6397Z" fill="url(#paint0_radial)"/>
<path d="M24.4997 21.4459C25.4048 21.4459 25.884 21.3388 25.6178 21.1069C24.3399 19.9472 27.3215 16.8428 27.3215 16.8428C27.3215 16.8428 25.9372 17.5029 25.2983 17.1461C24.6417 16.7893 25.884 14.1131 25.884 14.1131C25.884 14.1131 23.6123 17.1461 21.1986 16.5216C18.785 15.8972 18.3235 10.6519 18.3235 10.6519C18.3235 10.6519 17.7024 15.3798 15.4129 16.0399C13.1235 16.7001 11.0648 14.8981 11.0648 14.8981C12.3071 17.2531 10.8341 20.0542 10.8341 20.0542C10.8341 20.0542 12.4669 20.2862 14.6321 20.5538L11.8634 22.0168C11.8634 22.0168 6.37945 24.122 4.48047 24.0685C4.48047 24.0685 6.57468 24.5146 7.08935 25.924C7.60403 27.3335 7.87025 29.2782 6.7344 30.4736C6.7344 30.4736 11.7392 28.9927 12.6798 30.2951C12.6798 30.2951 13.8334 32.8108 13.017 35.1837C13.017 35.1837 15.4484 32.8465 17.5959 33.2925C19.7256 33.7207 20.9147 37.8777 20.9147 37.8777C20.9147 37.8777 21.1099 33.9348 22.6184 33.1498C24.1447 32.3469 25.9905 34.4879 25.9905 34.4879C25.9905 34.4879 24.2512 31.2407 25.9905 28.957C27.7297 26.6555 25.6355 22.1417 25.6355 22.1417L24.4997 21.4459Z" fill="url(#paint1_radial)"/>
<path d="M15.751 29.2778C15.751 29.2778 16.4077 30.1521 15.4671 31.3653C15.4671 31.3653 17.1531 30.1164 18.6084 30.7408C20.0459 31.3653 20.2766 34.1128 20.2766 34.1128C20.2766 34.1128 20.2766 30.4197 21.2882 30.3305C22.2999 30.2413 23.9681 32.0432 23.9681 32.0432C23.9681 32.0432 22.2289 29.367 22.5661 28.5285C22.9033 27.69 21.9981 21.7488 21.9981 21.7488L24.607 18.3233C24.607 18.3233 23.5599 18.0913 23.8084 17.2171C23.8084 17.2171 22.4418 18.4303 20.7026 18.1092C18.9811 17.788 18.1469 14.416 18.1469 14.416C18.1469 14.416 18.2712 17.788 16.4432 18.3946C14.6152 19.0012 12.5742 16.9673 12.5742 16.9673C12.5742 16.9673 13.852 19.8041 12.4145 20.8389C10.9769 21.8737 10.4268 24.1574 10.4268 24.1574L13.5681 28.9567L15.751 29.2778Z" fill="url(#paint2_radial)"/>
<path opacity="0.3" d="M35.5399 23.3009C35.4334 23.0868 35.2381 22.9084 35.0074 22.8371L32.8955 22.1234C32.4873 21.9807 32.0436 22.1412 31.8306 22.4981L30.6593 24.3536L30.6238 22.3018C30.6238 21.8915 30.3398 21.5346 29.9494 21.4276L27.9262 20.8388C27.6777 20.7675 27.4292 20.8031 27.2163 20.928C27.0033 21.0529 26.8613 21.2492 26.7903 21.4811C26.6483 21.2313 26.5064 21.0172 26.3644 20.8388C25.7255 20.0717 24.8736 19.6256 23.8975 19.5543C22.7439 19.4829 21.7145 19.804 20.9336 20.5177C20.6142 20.821 20.3302 21.1778 20.0818 21.5882C19.6913 20.8031 19.2476 20.3036 18.8394 19.9646C18.0585 19.3402 17.1357 19.0725 16.1773 19.1974C15.0237 19.358 14.1008 19.8932 13.4619 20.7496C13.2135 21.0886 13.0182 21.4633 12.8763 21.8736C12.6633 21.6952 12.4326 21.5525 12.1841 21.4276C11.3145 20.9994 10.2319 20.8924 8.95407 21.0886C8.11993 21.2135 7.48102 21.4454 7.35679 21.499C7.35679 21.499 7.35679 21.499 7.33904 21.499L4.90763 22.391C4.64142 22.4981 4.42845 22.7122 4.33971 22.9976C4.28647 23.1939 4.28647 23.3901 4.35746 23.5864L8.45714 34.7194C8.54587 34.9513 8.72335 35.1476 8.95407 35.2368C9.0783 35.2903 9.20253 35.3081 9.32676 35.3081C9.451 35.3081 9.55748 35.2903 9.66397 35.2368L11.8824 34.3447C13.7281 33.7381 14.9705 32.6319 15.4319 31.2582C16.0176 31.6685 16.6387 31.8826 17.2599 31.8826C17.3664 31.8826 17.4729 31.8826 17.5794 31.8648C18.5555 31.7577 19.3896 31.1333 19.993 30.0985C20.6674 31.383 21.6435 32.1502 22.7616 32.2394C22.8504 32.2394 22.9214 32.2573 23.0101 32.2573C23.4715 32.2573 23.933 32.1324 24.3767 31.9004C24.4831 32.1502 24.7139 32.3643 24.9978 32.4357L26.8968 32.9174C27.3937 33.0423 27.8907 32.7568 28.0149 32.2573L28.4763 30.4731L29.062 30.6516L28.4941 32.3822C28.4231 32.6141 28.4408 32.8817 28.5473 33.0958C28.6538 33.3099 28.8668 33.4883 29.0975 33.5597L31.0675 34.1663C31.1562 34.202 31.245 34.202 31.3337 34.202C31.7064 34.202 32.0613 33.97 32.2033 33.5775L35.5576 23.9611C35.6641 23.7826 35.6463 23.515 35.5399 23.3009ZM23.5248 25.7452C23.4538 26.2983 23.3296 26.7265 23.2231 27.0119C23.1521 26.7086 23.0811 26.2626 23.1166 25.7095C23.1698 24.7104 23.3651 24.3179 23.4538 24.1752C23.5425 24.3714 23.6313 24.871 23.5248 25.7452ZM16.9937 26.6551C16.8517 26.3696 16.7097 25.9593 16.621 25.3884C16.4613 24.4071 16.5855 23.9789 16.6565 23.8183C16.7807 24.0146 16.9582 24.4606 17.0469 25.3527C17.1002 25.9058 17.0647 26.3518 16.9937 26.6551Z" fill="url(#paint3_linear)"/>
<path d="M35.4158 22.3195C35.3093 22.1054 35.1141 21.927 34.8834 21.8556L32.7714 21.142C32.3633 20.9992 31.9196 21.1598 31.7066 21.5166L30.5353 23.3721L30.4998 21.3204C30.4998 20.91 30.2158 20.5532 29.8254 20.4461L27.8021 19.8574C27.5537 19.786 27.3052 19.8217 27.0922 19.9466C26.8793 20.0715 26.7373 20.2677 26.6663 20.4997C26.5243 20.2499 26.3823 20.0358 26.2404 19.8574C25.6014 19.0902 24.7496 18.6442 23.7735 18.5728C22.6199 18.5014 21.5905 18.8226 20.8096 19.5362C20.4902 19.8395 20.2062 20.1964 19.9577 20.6067C19.5673 19.8217 19.1236 19.3221 18.7154 18.9832C17.9345 18.3587 17.0116 18.0911 16.0533 18.216C14.8997 18.3766 13.9768 18.9118 13.3379 19.7682C13.0894 20.1072 12.8942 20.4818 12.7522 20.8922C12.5393 20.7138 12.3086 20.571 12.0601 20.4461C11.1905 20.018 10.1079 19.9109 8.83004 20.1072C7.99591 20.2321 7.357 20.464 7.23276 20.5175C7.23276 20.5175 7.23276 20.5175 7.21502 20.5175L4.78361 21.4096C4.51739 21.5166 4.30442 21.7307 4.21569 22.0162C4.16244 22.2124 4.16244 22.4087 4.23343 22.6049L8.33311 33.7379C8.42185 33.9699 8.59932 34.1661 8.83004 34.2553C8.95427 34.3089 9.07851 34.3267 9.20274 34.3267C9.32697 34.3267 9.43346 34.3089 9.53994 34.2553L11.7584 33.3633C13.6041 32.7567 14.8464 31.6505 15.3079 30.2767C15.8936 30.6871 16.5147 30.9012 17.1359 30.9012C17.2424 30.9012 17.3489 30.9012 17.4553 30.8833C18.4314 30.7763 19.2656 30.1518 19.869 29.117C20.5434 30.4016 21.5195 31.1688 22.6376 31.258C22.7264 31.258 22.7973 31.2758 22.8861 31.2758C23.3475 31.2758 23.8089 31.1509 24.2526 30.919C24.3591 31.1688 24.5898 31.3829 24.8738 31.4542L26.7728 31.936C27.2697 32.0608 27.7666 31.7754 27.8909 31.2758L28.3523 29.4917L28.938 29.6701L28.3701 31.4007C28.2991 31.6327 28.3168 31.9003 28.4233 32.1144C28.5298 32.3285 28.7428 32.5069 28.9735 32.5782L30.9435 33.1849C31.0322 33.2205 31.1209 33.2205 31.2097 33.2205C31.5824 33.2205 31.9373 32.9886 32.0793 32.5961L35.4336 22.9796C35.5401 22.8012 35.5223 22.5514 35.4158 22.3195ZM23.4008 24.7637C23.3298 25.3168 23.2055 25.745 23.099 26.0305C23.0281 25.7272 22.9571 25.2811 22.9926 24.7281C23.0458 23.729 23.241 23.3364 23.3298 23.1937C23.4185 23.4078 23.5072 23.8895 23.4008 24.7637ZM16.8697 25.6737C16.7277 25.3882 16.5857 24.9778 16.497 24.4069C16.3372 23.4256 16.4615 22.9975 16.5325 22.8369C16.6567 23.0331 16.8342 23.4792 16.9229 24.3712C16.9762 24.9422 16.9407 25.3704 16.8697 25.6737Z" fill="#230622"/>
<path d="M35.2547 22.07C35.1482 21.8559 34.953 21.6775 34.7223 21.6061L32.6103 20.8924C32.2021 20.7497 31.7584 20.9103 31.5455 21.2671L30.3741 23.1226L30.3386 21.0709C30.3386 20.6605 30.0547 20.3037 29.6642 20.1966L27.641 19.6079C27.3925 19.5365 27.1441 19.5722 26.9311 19.6971C26.7181 19.822 26.5762 20.0182 26.5052 20.2502C26.3632 20.0004 26.2212 19.7863 26.0792 19.6079C25.4403 18.8407 24.5884 18.3947 23.6123 18.3233C22.4587 18.2519 21.4294 18.5731 20.6485 19.2867C20.329 19.59 20.0451 19.9469 19.7966 20.3572C19.4062 19.5722 18.9625 19.0726 18.5543 18.7336C17.7734 18.1092 16.8505 17.8416 15.8922 17.9665C14.7386 18.127 13.8157 18.6623 13.1768 19.5187C12.9283 19.8577 12.7331 20.2323 12.5911 20.6427C12.3781 20.4643 12.1474 20.3215 11.899 20.1966C11.0293 19.7684 9.94673 19.6614 8.66891 19.8577C7.83478 19.9825 7.19586 20.2145 7.07163 20.268C7.07163 20.268 7.07163 20.268 7.05388 20.268L4.62247 21.1601C4.35626 21.2671 4.14329 21.4812 4.05455 21.7667C4.00131 21.9629 4.00131 22.1592 4.0723 22.3554L8.17198 33.4884C8.26072 33.7204 8.43819 33.9166 8.66891 34.0058C8.79314 34.0593 8.91737 34.0772 9.04161 34.0772C9.16584 34.0772 9.27233 34.0593 9.37881 34.0058L11.5972 33.1138C13.443 32.5071 14.6853 31.401 15.1468 30.0272C15.7324 30.4376 16.3536 30.6517 16.9747 30.6517C17.0812 30.6517 17.1877 30.6516 17.2942 30.6338C18.2703 30.5268 19.1045 29.9023 19.7079 28.8675C20.3823 30.1521 21.3584 30.9193 22.4765 31.0085C22.5652 31.0085 22.6362 31.0263 22.7249 31.0263C23.1864 31.0263 23.6478 30.9014 24.0915 30.6695C24.198 30.9193 24.4287 31.1334 24.7127 31.2047L26.6117 31.6864C27.1086 31.8113 27.6055 31.5259 27.7297 31.0263L28.1912 29.2422L28.7768 29.4206L28.2089 31.1512C28.1379 31.3831 28.1557 31.6508 28.2622 31.8649C28.3687 32.079 28.5816 32.2574 28.8123 32.3287L30.7823 32.9353C30.8711 32.971 30.9598 32.971 31.0485 32.971C31.4212 32.971 31.7762 32.7391 31.9182 32.3466L35.2724 22.7301C35.3789 22.5339 35.3612 22.2841 35.2547 22.07ZM23.2574 24.5142C23.1864 25.0673 23.0621 25.4955 22.9557 25.781C22.8847 25.4777 22.8137 25.0316 22.8492 24.4786C22.9024 23.4794 23.0976 23.0869 23.1864 22.9442C23.2574 23.1405 23.3461 23.6222 23.2574 24.5142ZM16.7263 25.4241C16.5843 25.1387 16.4423 24.7283 16.3536 24.1574C16.1939 23.1761 16.3181 22.7479 16.3891 22.5874C16.5133 22.7836 16.6908 23.2297 16.7795 24.1217C16.815 24.6748 16.7795 25.103 16.7263 25.4241Z" fill="url(#paint4_linear)"/>
<path d="M16.0189 18.9117C13.8892 19.1972 12.7178 21.0349 13.3567 24.728C13.8537 27.6897 15.5397 29.9555 17.2612 29.7593C18.9827 29.563 19.9766 26.9939 19.7636 23.9787C19.4619 20.1071 17.7226 18.6798 16.0189 18.9117ZM16.8885 26.7441C16.2851 26.8154 15.6639 25.7271 15.4509 24.3177C15.1847 22.5692 15.5574 21.7128 16.3028 21.6058C16.9062 21.5166 17.5274 22.2124 17.6871 24.05C17.8114 25.4774 17.4919 26.6727 16.8885 26.7441Z" fill="url(#paint5_linear)"/>
<path d="M23.5417 19.2687C21.3943 19.1259 19.8857 20.696 19.7615 24.4426C19.6728 27.4578 20.8618 29.9913 22.5833 30.1519C24.3049 30.3124 25.7956 27.9752 26.1683 24.9957C26.683 21.1242 25.2632 19.3935 23.5417 19.2687ZM24.1629 24.6389C24.0031 26.0484 23.453 27.1724 22.8496 27.1188C22.2461 27.0653 21.8557 25.8699 21.9267 24.4605C22.0154 22.6942 22.5478 21.927 23.311 21.9805C23.8967 21.9984 24.3758 22.8012 24.1629 24.6389Z" fill="url(#paint6_linear)"/>
<path d="M12.1663 26.0836C12.9649 25.1202 13.2134 23.9427 12.8407 22.7116C11.8646 19.4467 7.39218 21.1594 7.39218 21.1594L6.20309 21.6055L4.97852 22.0515L9.07819 33.1845L11.2966 32.2924C13.6925 31.5074 14.8284 29.8838 14.3847 27.9927C14.1007 26.6902 13.1424 26.2085 12.1663 26.0836ZM9.0072 25.6911L8.97171 25.6555L8.15532 23.3361L8.31505 23.2826C8.31505 23.2826 9.91233 22.676 10.2673 23.8356C10.5157 24.6028 10.0543 25.3165 9.0072 25.6911ZM10.6577 30.4726L9.84134 28.1354L10.1253 28.0462C10.1253 28.0462 11.7403 27.5466 12.0065 28.7242C12.184 29.5092 11.7048 30.1693 10.6577 30.4726Z" fill="url(#paint7_linear)"/>
<path d="M32.3281 21.7848L29.4885 26.2808L29.4175 21.1068L27.3943 20.5181L24.9629 30.3486L26.8619 30.8482L27.98 26.6198L28.1397 28.3147L29.4175 28.7072L30.4469 27.4405L29.1158 31.5083L31.0858 32.0971L34.4401 22.4985L32.3281 21.7848Z" fill="url(#paint8_linear)"/>
<g opacity="0.5">
<path opacity="0.5" d="M15.6092 25.1029C15.5382 24.8709 15.4849 24.6033 15.4494 24.3357C15.1832 22.5872 15.5559 21.7309 16.3013 21.6238C16.6563 21.5703 17.029 21.8022 17.2952 22.391C17.029 21.374 16.5498 20.9815 16.0883 21.0351C15.3429 21.1421 14.9525 21.9985 15.2365 23.7469C15.3252 24.2465 15.4494 24.7104 15.6092 25.1029Z" fill="#FF75F6"/>
<path opacity="0.5" d="M25.0862 28.439C25.6186 27.5291 26.009 26.3338 26.1865 24.9957C26.2575 24.4961 26.2752 24.0322 26.293 23.5862C26.293 22.5336 26.1333 21.695 25.867 21.0527C26.0978 21.9091 26.1688 23.0153 25.9913 24.4069C25.6186 27.4042 24.1278 29.7236 22.4063 29.563C21.4479 29.4738 20.6493 28.6531 20.1523 27.4042C20.6138 28.9743 21.5189 30.0626 22.6192 30.1518C23.5421 30.241 24.4295 29.563 25.0862 28.439Z" fill="#FF75F6"/>
<path opacity="0.5" d="M21.9084 24.461C21.9971 22.6947 22.5296 21.9275 23.2927 21.981C23.5412 21.9989 23.7719 22.1416 23.9316 22.4449C23.7896 21.7491 23.4702 21.4279 23.0797 21.3923C22.3343 21.3387 21.7842 22.1059 21.6954 23.8722C21.6599 24.7286 21.7842 25.5136 22.0326 25.9953C21.9439 25.5671 21.8906 25.0319 21.9084 24.461Z" fill="#FF75F6"/>
<path opacity="0.5" d="M8.3141 23.2833C8.3141 23.2833 10.0001 22.6232 10.3018 23.9434C10.3018 23.8542 10.2486 23.3725 9.82264 23.0157C9.16599 22.4448 8.10113 22.6945 8.10113 22.6945L7.94141 22.7481L8.15438 23.3368L8.3141 23.2833Z" fill="#FF75F6"/>
<path opacity="0.5" d="M9.64551 27.5645L9.85848 28.1532L10.1424 28.064C10.1424 28.064 11.6865 27.5466 12.0237 28.7063C12.0237 28.635 11.9704 28.2781 11.7752 28.0105C11.1363 27.1184 9.94722 27.4753 9.94722 27.4753L9.64551 27.5645Z" fill="#FF75F6"/>
<path opacity="0.5" d="M12.1652 26.0841C13.0881 24.9423 13.1413 23.7647 12.8396 22.7299C12.7863 22.5694 12.7331 22.4445 12.6799 22.3018C12.9816 23.4793 12.6089 25.2099 11.3311 26.2268C11.6683 26.0841 12.0764 26.0663 12.1652 26.0841Z" fill="#FF75F6"/>
<path opacity="0.5" d="M14.1885 27.4037C14.1885 27.4215 14.1885 27.4215 14.1885 27.4037C14.6322 29.3127 13.4963 30.9184 11.1004 31.7034L8.88199 32.5955L4.99529 22.0513H4.97754L9.07722 33.1843L11.2957 32.2922C13.6916 31.5072 14.8274 29.8836 14.3837 27.9924C14.3305 27.7783 14.2772 27.5821 14.1885 27.4037Z" fill="#FF75F6"/>
<path opacity="0.5" d="M26.6647 30.2767L25.0852 29.8663L24.9609 30.3659L26.8599 30.8655L27.978 26.6192L27.8715 25.6201L26.6647 30.2767Z" fill="#FF75F6"/>
<path opacity="0.5" d="M29.4859 26.281L29.415 21.1248L29.2197 21.0713L29.2907 26.5843L29.4859 26.281Z" fill="#FF75F6"/>
<path opacity="0.5" d="M29.771 28.279L30.4454 27.4405L30.6406 26.709L29.2208 28.1363L28.085 27.7795L28.1382 28.3147L29.416 28.7251L29.771 28.279Z" fill="#FF75F6"/>
<path opacity="0.5" d="M34.0648 22.3906L30.8703 31.5254L29.2553 31.0437L29.1133 31.5075L31.0833 32.1141L34.4375 22.5155L34.0648 22.3906Z" fill="#FF75F6"/>
<path opacity="0.5" d="M19.7425 23.9969C19.7248 23.6401 19.6715 23.3011 19.636 22.9978C19.5295 22.302 19.3698 21.7132 19.1568 21.1958C19.3521 21.8202 19.4763 22.5517 19.5295 23.4081C19.5473 23.6936 19.565 23.9612 19.565 24.2288C19.565 26.8693 18.6067 29.0103 17.0449 29.1887C15.7316 29.3314 14.436 28.0469 13.6729 26.0843C13.7261 26.2449 13.7793 26.3876 13.8326 26.5482C13.9391 26.8337 14.0633 27.1191 14.1875 27.3867C14.9684 28.9389 16.1043 29.9202 17.2579 29.7953C18.5889 29.6348 19.494 28.0469 19.7248 25.9238C19.8135 26.459 19.9555 26.9764 20.1507 27.4224C19.92 26.6552 19.7957 25.781 19.7957 24.8354C19.7603 24.55 19.7603 24.2824 19.7425 23.9969Z" fill="#FF75F6"/>
</g>
<path d="M5.1377 22.1054C5.1377 22.1054 7.17866 21.3382 8.03054 21.1063C8.88242 20.8743 10.6927 20.6602 11.7398 21.3917C12.4497 21.8913 12.3964 22.2124 12.3964 22.2124C12.3964 22.2124 11.0831 20.6602 8.26126 21.3204C7.24965 21.5523 5.72336 22.1411 5.72336 22.1411L5.1377 22.1054Z" fill="white"/>
<path d="M9.06152 25.8341C9.06152 25.8341 9.9134 25.4951 10.1264 25.1026C10.3571 24.7101 10.4103 24.3354 10.4103 24.3354C10.4103 24.3354 10.5878 25.0848 10.0376 25.62C9.50521 26.1731 9.16801 26.1553 9.16801 26.1553L9.06152 25.8341Z" fill="white"/>
<path d="M10.7275 30.5978C10.7275 30.5978 11.5262 30.2945 11.7924 29.9377C12.1651 29.4381 12.0941 29.0991 12.0941 29.0991C12.0941 29.0991 12.3603 29.6344 11.8811 30.2053C11.3842 30.794 10.834 30.9011 10.834 30.9011L10.7275 30.5978Z" fill="white"/>
<path d="M11.3682 26.3159C11.3682 26.3159 12.0248 26.1018 12.6282 26.2624C13.2317 26.4229 13.9771 27.1009 14.0125 27.4756C14.0303 27.4756 12.7347 26.1553 11.3682 26.3159Z" fill="white"/>
<path d="M15.751 19.1972C15.751 19.1972 16.4076 18.9831 17.011 19.1437C17.6145 19.3043 18.3599 19.9822 18.3954 20.3569C18.4131 20.3748 17.1353 19.0545 15.751 19.1972Z" fill="white"/>
<path d="M22.8857 19.5361C22.8857 19.5361 23.5424 19.322 24.1458 19.4826C24.7492 19.6431 25.4946 20.3211 25.5301 20.6958C25.5479 20.7136 24.2523 19.3934 22.8857 19.5361Z" fill="white"/>
<path d="M27.4456 20.7139L29.0961 21.1242V21.9806C29.0961 21.9806 28.9719 21.4275 28.9186 21.3562C28.8654 21.2669 27.6408 21.0885 27.6408 21.0885C27.6408 21.0885 25.5466 28.9744 25.3691 29.6167L27.4456 20.7139Z" fill="white"/>
<path d="M32.3451 21.9629L33.9069 22.4446L33.7649 22.9263C33.7649 22.9263 33.7471 22.6944 33.6939 22.6052C33.6406 22.516 32.558 22.3019 32.558 22.3019C32.558 22.3019 29.5942 26.2983 29.2393 26.9585L32.3451 21.9629Z" fill="white"/>
<path d="M15.751 25.8342C15.751 25.8342 16.0704 26.9404 16.8868 26.9047C17.7032 26.869 17.7919 25.6201 17.7919 25.6201C17.7919 25.6201 17.9339 27.1188 16.8868 27.2615C16.0704 27.3507 15.751 25.8342 15.751 25.8342Z" fill="white"/>
<path d="M21.9092 26.0662C21.9092 26.0662 22.0689 27.2259 22.8853 27.2616C23.7904 27.2794 24.2164 25.3169 24.2164 25.3169C24.2164 25.3169 24.0744 27.7612 22.7788 27.672C21.9447 27.6006 21.9092 26.0662 21.9092 26.0662Z" fill="white"/>
<path d="M30.7484 26.7622L29.4883 30.8657L30.8016 27.119L30.7484 26.7622Z" fill="white"/>
<defs>
<radialGradient id="paint0_radial" cx="0" cy="0" r="1" gradientUnits="userSpaceOnUse" gradientTransform="translate(18.7385 23.3644) scale(18.6313 18.7297)">
<stop stop-color="#F5691E"/>
<stop offset="0.5065" stop-color="#FF0636"/>
<stop offset="1" stop-color="#E6330B"/>
</radialGradient>
<radialGradient id="paint1_radial" cx="0" cy="0" r="1" gradientUnits="userSpaceOnUse" gradientTransform="translate(18.5439 25.5006) scale(14.82 14.8983)">
<stop offset="0.5351" stop-color="#F2DF01"/>
<stop offset="1" stop-color="#FF0636"/>
</radialGradient>
<radialGradient id="paint2_radial" cx="0" cy="0" r="1" gradientUnits="userSpaceOnUse" gradientTransform="translate(18.2068 24.4324) scale(13.2782 13.3484)">
<stop stop-color="#F7D25B"/>
<stop offset="0.4279" stop-color="#FBE7A7"/>
<stop offset="0.8168" stop-color="#FEF8E6"/>
<stop offset="1" stop-color="white"/>
</radialGradient>
<linearGradient id="paint3_linear" x1="19.9775" y1="30.3216" x2="19.9775" y2="21.8924" gradientUnits="userSpaceOnUse">
<stop stop-color="#3E023D"/>
<stop offset="0.5818" stop-color="#411C65"/>
<stop offset="1" stop-color="#432B7E"/>
</linearGradient>
<linearGradient id="paint4_linear" x1="19.7006" y1="29.0869" x2="19.7006" y2="20.6577" gradientUnits="userSpaceOnUse">
<stop stop-color="#3E023D"/>
<stop offset="0.5818" stop-color="#411C65"/>
<stop offset="1" stop-color="#432B7E"/>
</linearGradient>
<linearGradient id="paint5_linear" x1="16.4719" y1="30.7369" x2="16.4719" y2="18.362" gradientUnits="userSpaceOnUse">
<stop stop-color="#F274F2"/>
<stop offset="0.0181909" stop-color="#F375DF"/>
<stop offset="0.1161" stop-color="#F9777A"/>
<stop offset="0.1842" stop-color="#FD793B"/>
<stop offset="0.2162" stop-color="#FF7A22"/>
<stop offset="0.2181" stop-color="#FF7B22"/>
<stop offset="0.3929" stop-color="#F9B94B"/>
<stop offset="0.4757" stop-color="#F7D25B"/>
<stop offset="0.6491" stop-color="#FBE7A7"/>
<stop offset="0.8068" stop-color="#FEF8E6"/>
<stop offset="0.8811" stop-color="white"/>
</linearGradient>
<linearGradient id="paint6_linear" x1="23.0259" y1="30.737" x2="23.0259" y2="18.3621" gradientUnits="userSpaceOnUse">
<stop stop-color="#F274F2"/>
<stop offset="0.0181909" stop-color="#F375DF"/>
<stop offset="0.1161" stop-color="#F9777A"/>
<stop offset="0.1842" stop-color="#FD793B"/>
<stop offset="0.2162" stop-color="#FF7A22"/>
<stop offset="0.2181" stop-color="#FF7B22"/>
<stop offset="0.3929" stop-color="#F9B94B"/>
<stop offset="0.4757" stop-color="#F7D25B"/>
<stop offset="0.6491" stop-color="#FBE7A7"/>
<stop offset="0.8068" stop-color="#FEF8E6"/>
<stop offset="0.8811" stop-color="white"/>
</linearGradient>
<linearGradient id="paint7_linear" x1="9.72756" y1="30.7366" x2="9.72756" y2="18.3617" gradientUnits="userSpaceOnUse">
<stop stop-color="#F274F2"/>
<stop offset="0.0181909" stop-color="#F375DF"/>
<stop offset="0.1161" stop-color="#F9777A"/>
<stop offset="0.1842" stop-color="#FD793B"/>
<stop offset="0.2162" stop-color="#FF7A22"/>
<stop offset="0.2181" stop-color="#FF7B22"/>
<stop offset="0.3929" stop-color="#F9B94B"/>
<stop offset="0.4757" stop-color="#F7D25B"/>
<stop offset="0.6491" stop-color="#FBE7A7"/>
<stop offset="0.8068" stop-color="#FEF8E6"/>
<stop offset="0.8811" stop-color="white"/>
</linearGradient>
<linearGradient id="paint8_linear" x1="29.6982" y1="30.7375" x2="29.6982" y2="18.3626" gradientUnits="userSpaceOnUse">
<stop stop-color="#F274F2"/>
<stop offset="0.0181909" stop-color="#F375DF"/>
<stop offset="0.1161" stop-color="#F9777A"/>
<stop offset="0.1842" stop-color="#FD793B"/>
<stop offset="0.2162" stop-color="#FF7A22"/>
<stop offset="0.2181" stop-color="#FF7B22"/>
<stop offset="0.3929" stop-color="#F9B94B"/>
<stop offset="0.4757" stop-color="#F7D25B"/>
<stop offset="0.6491" stop-color="#FBE7A7"/>
<stop offset="0.8068" stop-color="#FEF8E6"/>
<stop offset="0.8811" stop-color="white"/>
</linearGradient>
</defs>
</svg>
