<svg width="20" height="20" viewBox="0 0 20 20" fill="none" xmlns="http://www.w3.org/2000/svg">
<path fill-rule="evenodd" clip-rule="evenodd" d="M15.1045 10.514C13.7046 11.7612 11.8859 12.4515 10.0003 12.4515C8.11457 12.4515 6.29589 11.7612 4.89601 10.514C2.42211 12.5238 0.603411 15.9479 0 20H20C19.3958 15.9479 17.5771 12.5238 15.104 10.514H15.1045ZM15.1486 5.04224C15.1567 6.04919 14.8617 7.03583 14.3009 7.87699C13.7401 8.71815 12.9388 9.37591 11.9987 9.76683C11.0586 10.1577 10.0221 10.2642 9.02064 10.0727C8.01917 9.88116 7.09789 9.4003 6.3737 8.69111C5.64951 7.98192 5.15504 7.07636 4.95302 6.08932C4.751 5.10229 4.85054 4.07825 5.23901 3.14715C5.62748 2.21604 6.28738 1.41983 7.13497 0.859523C7.98256 0.299216 8.97965 7.0698e-05 9.99974 3.87239e-05C11.3598 -0.00520873 12.6663 0.523045 13.6319 1.46861C14.5975 2.41418 15.143 3.69963 15.1486 5.04224Z" fill="#FFF774"/>
</svg>
