<svg width="30" height="32" viewBox="0 0 30 32" fill="none" xmlns="http://www.w3.org/2000/svg">
<path d="M29.3243 30.0447C29.1861 29.6648 28.9357 29.4058 28.7544 29.0691C28.314 28.4906 27.7959 27.9899 27.2778 27.4891C27.0964 27.4287 27.0187 27.256 26.846 27.1869C26.7338 27.0401 26.5524 26.9624 26.4056 26.8502C26.112 26.6257 25.7925 26.4358 25.4644 26.2458C24.8427 25.8487 24.0741 25.5983 23.3142 25.3393C22.4939 25.1407 21.6304 24.9939 20.7323 24.8731C19.8429 24.7436 18.9535 24.6227 18.2799 24.2687C17.8914 24.1565 17.6064 23.9406 17.2696 23.7679C16.9588 23.5607 16.622 23.3881 16.3629 23.129C16.0434 22.9391 15.8448 22.6196 15.5944 22.3606C15.5081 22.188 15.3613 22.0844 15.2922 21.8944C15.2058 21.8599 15.1799 21.7563 15.1281 21.6958C15.0677 21.6268 15.0677 21.4886 14.964 21.4627C14.9122 21.8167 14.9295 22.2398 14.964 22.6024C15.0072 22.7578 15.0245 22.9477 15.0677 23.1031C15.0936 23.2413 15.2231 23.4658 15.1713 23.5694C12.4771 23.4312 10.5083 22.5765 8.79855 21.4541C7.95231 20.8929 7.22696 20.2108 6.55341 19.4769C6.25982 19.0712 5.94032 18.6826 5.68126 18.2337C5.41357 17.7934 5.18906 17.2926 4.94728 16.8264C4.55006 15.8162 4.17875 14.7802 4.04059 13.511C3.85925 12.3282 3.90242 10.8173 4.17011 9.72078C4.2651 9.11641 4.46371 8.60702 4.63641 8.08036C4.74867 7.83861 4.86956 7.59687 4.97318 7.34649C5.11998 7.13928 5.1977 6.85436 5.37903 6.67305C5.87124 5.74924 6.60522 5.05854 7.35648 4.39373C8.16819 3.798 9.09215 3.31451 10.2061 3.02096C11.2768 2.77922 12.7362 2.73605 13.8933 2.98643C16.2421 3.46992 18.0123 4.52324 19.4975 5.87011C21 7.19108 22.1571 8.86603 22.9516 10.9036C23.7719 12.8376 24.0569 15.8508 23.3229 18.0437C23.0206 17.8711 22.7184 17.707 22.4162 17.543C22.0535 17.4394 21.6995 17.3185 21.2763 17.2753C20.7669 17.2667 20.266 17.2753 19.9379 17.4394C20.6028 17.3703 21.1382 17.5516 21.5527 17.707C21.7944 17.802 21.9326 17.8624 22.1226 17.9747C22.4939 18.1905 22.822 18.3891 23.0984 18.6826C23.8842 19.3733 24.4454 20.2885 24.7131 21.4973C24.7131 21.5318 24.7563 21.5232 24.7477 21.4627C24.7822 21.4541 24.7995 21.4282 24.8167 21.3936C24.8599 21.3418 24.9117 21.29 24.9549 21.2296C25.0413 21.126 25.1276 21.0224 25.1881 20.8929C25.3694 20.677 25.5162 20.4353 25.6544 20.1849C25.9739 19.7187 26.2156 19.1834 26.492 18.674C26.9669 17.5862 27.3555 16.412 27.5973 15.0824C28.0808 12.1296 27.5023 9.33226 26.492 7.26878C25.4558 5.18804 24.005 3.52172 22.1312 2.26983C20.2401 1.02656 18.0295 0.11138 14.99 0.0250422C14.9727 -0.0353943 14.9468 0.033676 14.8863 0.0250422C13.2802 -0.0267605 11.9849 0.197718 10.6983 0.525801C10.1025 0.724378 9.48073 0.897054 8.95398 1.1647C8.34952 1.36328 7.86596 1.69136 7.31331 1.93311C7.1147 2.12305 6.81247 2.21802 6.60522 2.39933C6.33753 2.52884 6.13893 2.73605 5.87124 2.86556C5.43948 3.24544 4.98182 3.58216 4.55869 3.97068C4.14421 4.35057 3.78153 4.78226 3.38431 5.17941C3.32387 5.31755 3.22025 5.41252 3.11662 5.51613C3.04754 5.64563 2.96119 5.75787 2.84894 5.85284C2.80576 6.00825 2.6676 6.06869 2.61579 6.2241C2.50353 6.31043 2.47762 6.48311 2.3481 6.56081C2.23584 6.8371 2.03723 7.03567 1.9077 7.29469C1.75227 7.54507 1.63138 7.82135 1.47595 8.06309C1.23416 8.62429 0.975108 9.16822 0.7765 9.77258C0.569256 10.3597 0.396553 10.9813 0.275661 11.6547C0.146134 12.285 0.025242 13.1052 0.0425123 13.77C-0.0438392 14.0118 0.025242 14.4607 0.0425123 14.7456C0.0425123 14.7974 0.0079717 14.8147 0.0079717 14.8492C0.0079717 15.1687 0.0943232 15.5572 0.111593 15.7558C0.180675 16.4897 0.310202 17.1717 0.517445 17.7675C0.646973 18.4323 0.923297 18.9503 1.12191 19.546C1.42414 20.0468 1.63138 20.6425 1.99406 21.0915C2.26175 21.6181 2.64169 22.0326 3.00437 22.4642C3.39295 22.8787 3.78153 23.3017 4.24783 23.6384C5.10271 24.3809 6.10439 24.9767 7.20105 25.4861C9.24758 26.4789 12.3044 27.1265 15.0504 26.9624C15.7498 26.8675 16.4579 26.7811 17.0969 26.6257C17.6841 26.4099 18.3663 26.2804 19.0744 26.194C20.6891 26.0904 22.088 26.2372 23.3315 26.5998C24.5922 26.9365 25.6803 27.4459 26.6215 28.1107C27.1223 28.4043 27.5368 28.7842 27.9599 29.1468C28.3917 29.518 28.7371 29.9756 29.1343 30.39C29.1861 30.5455 29.2898 30.6577 29.3675 30.7958C29.4711 30.9081 29.4193 31.1671 29.6697 31.1326C29.8251 30.9771 29.6438 30.7527 29.6352 30.5627C29.4797 30.3987 29.4452 30.1828 29.3243 30.0447Z" fill="#FCB316"/>
<path d="M23.0551 20.8582C23.0206 20.8582 23.0119 20.8841 22.986 20.8928C22.9256 21.0223 22.9515 21.2295 22.986 21.359C23.1674 21.7302 23.2278 22.2137 23.625 22.3691C23.815 22.3087 23.7977 22.0324 23.7891 21.7648C23.7028 21.4367 23.5819 21.1431 23.3833 20.9273C23.2451 20.8755 23.1501 20.7892 23.0551 20.8582ZM20.7064 21.7993C20.7064 21.782 20.6805 21.7648 20.6718 21.7993C20.3437 21.7561 20.2314 21.9375 20.0674 22.067C19.7824 22.8181 20.2401 23.552 21.0431 23.5433C21.3626 23.4656 21.5612 23.2584 21.613 22.9044C21.5699 22.2742 21.3022 21.8684 20.7064 21.7993Z" fill="#FCB316" fill-opacity="0.75"/>
</svg>
