<svg xmlns="http://www.w3.org/2000/svg" width="103" height="44" viewBox="0 0 103 44"><g><g><g><path fill="#fcb316" d="M41.603 42.453c-.195-.538-.55-.905-.806-1.38-.623-.82-1.356-1.528-2.09-2.237-.256-.085-.366-.33-.61-.427-.16-.208-.416-.318-.624-.477-.415-.317-.867-.586-1.331-.855-.88-.562-1.968-.916-3.043-1.282a35.962 35.962 0 0 0-3.653-.66c-1.259-.183-2.517-.354-3.47-.855-.55-.16-.953-.465-1.43-.709-.44-.293-.916-.537-1.283-.904-.452-.269-.733-.72-1.087-1.087-.122-.245-.33-.391-.428-.66-.122-.049-.159-.195-.232-.28-.086-.099-.086-.294-.232-.33-.073.5-.05 1.099 0 1.612.06.22.085.489.146.708.037.196.22.513.147.66-3.812-.195-6.598-1.405-9.017-2.993-1.198-.794-2.224-1.76-3.177-2.798-.415-.574-.868-1.123-1.234-1.759-.379-.623-.697-1.331-1.039-1.991-.562-1.43-1.087-2.895-1.283-4.691-.256-1.674-.195-3.812.184-5.363.134-.855.415-1.576.66-2.321.158-.342.33-.685.476-1.039.208-.293.318-.696.574-.953.697-1.307 1.735-2.284 2.798-3.225a11.793 11.793 0 0 1 4.032-1.942c1.516-.342 3.58-.404 5.218-.05 3.323.685 5.828 2.175 7.93 4.081 2.126 1.87 3.763 4.24 4.887 7.122 1.16 2.737 1.564 7 .525 10.104-.427-.245-.855-.477-1.283-.71-.513-.146-1.014-.317-1.612-.378-.721-.012-1.43 0-1.894.232.94-.097 1.698.16 2.285.379.342.134.537.22.806.379.525.305.99.586 1.38 1.002 1.113.977 1.907 2.272 2.286 3.982 0 .049.06.037.048-.049.05-.012.074-.049.098-.097.061-.074.135-.147.196-.233.122-.146.244-.293.33-.476.256-.305.464-.647.66-1.002.451-.66.794-1.417 1.185-2.138.672-1.539 1.221-3.2 1.564-5.082.684-4.178-.135-8.136-1.564-11.056-1.467-2.944-3.52-5.302-6.17-7.073C28.748 1.392 25.62.098 21.32-.025c-.024-.085-.06.013-.146 0-2.273-.073-4.106.245-5.926.709-.843.281-1.723.525-2.468.904-.856.281-1.54.745-2.322 1.087-.28.27-.709.403-1.002.66-.379.183-.66.476-1.038.66-.611.537-1.259 1.014-1.858 1.563-.586.538-1.1 1.149-1.661 1.71-.086.196-.232.33-.379.477-.098.183-.22.342-.379.477-.06.22-.256.305-.33.525-.159.122-.195.366-.378.476-.16.391-.44.672-.624 1.039-.22.354-.39.745-.61 1.087-.343.794-.71 1.564-.99 2.419-.294.83-.538 1.71-.709 2.663-.183.892-.354 2.053-.33 2.993-.122.342-.024.978 0 1.38 0 .074-.049.098-.049.147 0 .452.122 1.002.147 1.283.098 1.038.28 2.004.574 2.846.183.941.574 1.674.855 2.517.428.709.721 1.552 1.235 2.187.378.745.916 1.331 1.43 1.942.549.587 1.099 1.185 1.759 1.662 1.21 1.05 2.627 1.893 4.178 2.614 2.896 1.405 7.222 2.321 11.107 2.09.99-.135 1.992-.257 2.896-.477.83-.306 1.796-.489 2.798-.611 2.285-.147 4.264.061 6.024.574 1.783.477 3.323 1.197 4.655 2.138.709.415 1.295.953 1.894 1.466.61.525 1.1 1.173 1.661 1.76.074.22.22.378.33.573.147.16.074.526.428.477.22-.22-.037-.538-.049-.807-.22-.232-.269-.537-.44-.733z"/></g><g><path fill="#fcb316" d="M32.728 29.456c-.049 0-.061.037-.098.05-.085.182-.049.476 0 .659.257.525.342 1.21.904 1.43.27-.086.245-.477.233-.856-.123-.464-.294-.88-.575-1.185-.195-.073-.33-.195-.464-.098zm-3.323 1.332c0-.024-.037-.049-.05 0-.464-.061-.622.195-.855.379-.403 1.063.245 2.101 1.381 2.089.452-.11.733-.403.806-.904-.06-.892-.44-1.466-1.282-1.564z"/></g><g><path fill="#fff" d="M56.799 28.534c.183.77.574 1.32 1.014 1.832.44.513.953.941 1.576 1.259a7.505 7.505 0 0 0 1.955.88c.354.121.696.268 1.136.317.306.17.672.256.697.696-.013.525-.367.721-.819.819-.452-.098-1.014-.086-1.393-.257-.953-.11-1.723-.415-2.53-.696a11.373 11.373 0 0 1-3.91-2.529c-.219-.366-.524-.66-.757-1.014-.232-.354-.39-.782-.635-1.136-1.882-.244-3.165-1.1-4.289-2.09-1.038-1.184-1.87-2.601-2.211-4.483-.403-1.808-.281-4.068.195-5.815 1.039-3.384 3.214-5.632 7.32-5.937 1.135.037 2.125.171 3.03.513.916.33 1.783.94 2.467 1.576.062.049.086.061.123.122.146.208.5.501.696.758.037.048.025.134.061.195.074.11.183.159.257.257.036.06.024.134.06.183.05.073.11.183.184.318.025.048.11.085.122.122.11.207.16.464.257.696.098.244.232.452.318.696.244.721.403 1.576.5 2.456.245 2.541-.256 4.813-1.197 6.5-.44.879-1.05 1.6-1.772 2.21-.66.697-1.563 1.112-2.455 1.552zm-3.03-15.906c-.55.037-.88.293-1.332.44-.294.268-.66.476-.88.818-.367.208-.464.672-.758.94-.244.612-.476 1.296-.635 2.09a15.15 15.15 0 0 0-.257 2.529c-.012 2.174.452 4.337 1.32 5.62a5.771 5.771 0 0 0 1.894 1.514c.44.037.782.183 1.258.196.27-.098.709 0 .88-.196.391.025.477-.232.819-.256a1.97 1.97 0 0 1 .635-.44c.232-.257.452-.513.697-.758.122-.183.195-.44.378-.574 1.1-2.101 1.222-5.95.501-8.393a7.458 7.458 0 0 0-1.075-2.21 6.22 6.22 0 0 0-1.637-1.198c-.501-.11-.978-.244-1.638-.183-.036 0-.073.012-.06.06h-.11zm13.33-1.772c.99.037 2.15-.085 3.03.062.195.305.122.671.122 1.014.073 4.63 0 9.602 0 14.33 0 .378.012.77 0 1.136-.012.317.073.66-.122.953-.44.11-1.075.06-1.637.06-.599 0-1.186.086-1.577-.122-.11-5.595-.11-11.63 0-17.237a.27.27 0 0 1 .184-.196zm10.544 0c.27.367.355.917.44 1.454.892 3.396 1.772 6.805 2.59 10.287.196.024.135-.208.196-.318.086-.086.037-.293.122-.379.037-.28.208-.427.196-.757.22-.428.293-1.014.5-1.454.257-1.026.6-1.979.893-2.969.28-1.026.66-1.954.88-3.03.415-.867.513-2.052 1.014-2.834h1.258c.452.856.623 1.992 1.014 2.908.257 1.026.611 1.955.88 2.969.623 1.967 1.27 3.909 1.833 5.937.256-.379.256-1.014.44-1.454.11-.5.207-1.014.378-1.454.49-2.003.953-4.019 1.515-5.937.208-1.002.416-2.028.758-2.907.733-.11 1.857-.11 2.59 0 .061.745-.28 1.551-.5 2.21-.123.807-.416 1.43-.575 2.212-.452 1.43-.794 2.944-1.258 4.361-.355 1.515-.831 2.908-1.198 4.423-.244.696-.415 1.466-.635 2.21-.245.685-.33 1.528-.697 2.09h-1.771c-.452-.794-.611-1.87-1.015-2.712-.88-2.786-1.857-5.461-2.712-8.27-.293.305-.293.928-.5 1.319a15.45 15.45 0 0 1-.44 1.392c-.245.965-.612 1.784-.82 2.773-.354.868-.61 1.833-.88 2.786-.366.83-.5 1.893-.952 2.65-.465.147-1.198.025-1.772.062-.44-.501-.489-1.405-.758-2.09-.207-.708-.354-1.49-.623-2.15-.342-1.538-.855-2.895-1.197-4.422-.452-1.417-.843-2.895-1.259-4.361-.232-.696-.403-1.442-.635-2.15-.11-.758-.623-1.442-.44-2.272.025-.061.098-.098.171-.123zm21.97 0c.989.037 2.138-.085 3.03.062.22.66.122 1.368.122 2.076V26.25c0 .721.085 1.417-.122 2.09-.685.073-1.687.11-2.53.06-.244-.012-.537.062-.696-.122-.22-.66-.122-1.356-.122-2.089v-13.12c0-.794-.074-1.564.122-2.09a.41.41 0 0 1 .195-.122z"/></g></g></g></svg>