<svg width="82" height="21" viewBox="0 0 82 21" fill="none" xmlns="http://www.w3.org/2000/svg">
<path d="M45.4602 0.387068C45.2416 0.221279 44.9682 0.166016 44.7496 0.166016C44.3669 0.166016 43.9842 0.387068 43.7109 0.718647L36.9869 10.7765C36.6042 11.3844 36.7136 12.2134 37.3149 12.6002C37.5336 12.766 37.8069 12.8213 38.0256 12.8213C38.4082 12.8213 38.7909 12.6002 39.0642 12.2687L45.7336 2.21075C46.1162 1.60286 46.0069 0.77391 45.4602 0.387068Z" fill="white"/>
<path d="M81.7588 16.6897L74.5975 0.9397C74.3788 0.442332 73.9415 0.166016 73.4495 0.166016C73.2855 0.166016 73.0668 0.221279 72.9028 0.276542C72.3015 0.608121 72.0282 1.38181 72.3015 2.04496L79.4628 17.795C79.6815 18.2923 80.1188 18.5686 80.6108 18.5686C80.7748 18.5686 80.9935 18.5134 81.1575 18.4581C81.8135 18.1265 82.0868 17.3529 81.7588 16.6897Z" fill="white"/>
<path d="M66.147 6.5767C66.147 6.52144 66.147 6.46618 66.147 6.35565V4.91881C66.147 4.86354 66.147 4.80828 66.147 4.75302C66.147 2.26617 64.2337 0.221436 61.8284 0.221436H58.7124C58.0017 0.221436 57.4551 0.829331 57.4551 1.54775C57.4551 2.26617 58.0017 2.87407 58.7124 2.87407H61.8284C62.8123 2.87407 63.6323 3.75828 63.6323 4.80828C63.6323 4.86354 63.6323 4.91881 63.6323 4.97407C63.6323 4.97407 63.6323 4.97407 63.6323 5.02933V6.41091C63.6323 6.46618 63.6323 6.46618 63.6323 6.52144C63.6323 7.57144 62.8123 8.45565 61.8284 8.45565H58.7124C58.0017 8.45565 57.4551 9.06355 57.4551 9.78197C57.4551 10.5004 58.0017 11.1083 58.7124 11.1083H61.8284C64.179 10.9425 66.0376 9.00828 66.147 6.5767Z" fill="white"/>
<path d="M51.0589 0.166016C48.7082 0.166016 46.7402 2.21075 46.7402 4.69759C46.7402 5.41602 47.2869 6.02391 47.9976 6.02391C48.7082 6.02391 49.2549 5.41602 49.2549 4.69759C49.2549 3.64759 50.0749 2.76338 51.0589 2.76338C52.0429 2.76338 52.8629 3.64759 52.8629 4.69759C52.8629 5.41602 53.4096 6.02391 54.1202 6.02391C54.8309 6.02391 55.3776 5.41602 55.3776 4.69759C55.3776 2.21075 53.4642 0.166016 51.0589 0.166016Z" fill="white"/>
<mask id="mask0" mask-type="alpha" maskUnits="userSpaceOnUse" x="0" y="0" width="56" height="21">
<path d="M0 0.148438H55.3773V20.9827H0V0.148438Z" fill="white"/>
</mask>
<g mask="url(#mask0)">
<path d="M54.1202 12.6919C53.4096 12.6919 52.8629 13.2998 52.8629 14.0182C52.8629 15.0682 52.0429 15.9524 51.0589 15.9524C50.0749 15.9524 49.2549 15.0682 49.2549 14.0182C49.2549 13.2998 48.7082 12.6919 47.9976 12.6919C47.2869 12.6919 46.7402 13.2998 46.7402 14.0182C46.7402 16.5051 48.6536 18.5498 51.0589 18.5498C53.4096 18.5498 55.3776 16.5051 55.3776 14.0182C55.3776 13.2998 54.8309 12.6919 54.1202 12.6919Z" fill="white"/>
</g>
<mask id="mask1" mask-type="alpha" maskUnits="userSpaceOnUse" x="0" y="0" width="56" height="21">
<path d="M0 0.148438H55.3773V20.9827H0V0.148438Z" fill="white"/>
</mask>
<g mask="url(#mask1)">
<path d="M4.31867 0.148438C1.91333 0.148438 0 2.19317 0 4.73528C0 5.4537 0.546667 6.06159 1.25733 6.06159C1.968 6.06159 2.51467 5.4537 2.51467 4.73528C2.51467 3.68528 3.33467 2.80107 4.31867 2.80107C5.30267 2.80107 6.12267 3.68528 6.12267 4.73528C6.12267 5.4537 6.66933 6.06159 7.38 6.06159C8.09067 6.06159 8.63733 5.4537 8.63733 4.73528C8.58267 2.19317 6.66933 0.148438 4.31867 0.148438Z" fill="white"/>
</g>
<mask id="mask2" mask-type="alpha" maskUnits="userSpaceOnUse" x="0" y="0" width="56" height="21">
<path d="M0 0.148438H55.3773V20.9827H0V0.148438Z" fill="white"/>
</mask>
<g mask="url(#mask2)">
<path d="M7.38 12.6919C6.66933 12.6919 6.12267 13.2998 6.12267 14.0182C6.12267 15.0682 5.30267 15.9524 4.31867 15.9524C3.33467 15.9524 2.51467 15.0682 2.51467 14.0182C2.51467 13.2998 1.968 12.6919 1.25733 12.6919C0.546667 12.6919 0 13.2998 0 14.0182C0 16.5051 1.91333 18.5498 4.31867 18.5498C4.64667 18.5498 4.97467 18.4945 5.30267 18.4393L6.232 20.3182C6.45067 20.7603 6.888 20.9814 7.27067 20.9814C7.27067 20.9814 7.27067 20.9814 7.32533 20.9814C7.544 20.9814 7.708 20.9261 7.92667 20.8156C8.528 20.484 8.74667 19.6551 8.41867 19.0472L7.43467 17.1129C8.14533 16.284 8.58267 15.234 8.58267 14.0182C8.58267 13.2998 8.036 12.6919 7.38 12.6919Z" fill="white"/>
</g>
<path d="M33.8937 12.7109C33.183 12.7109 32.6363 13.3188 32.6363 14.0373C32.6363 15.0873 31.8163 15.9715 30.8323 15.9715C29.8483 15.9715 29.0283 15.0873 29.0283 14.0373C29.0283 13.3188 28.4817 12.7109 27.771 12.7109C27.0603 12.7109 26.5137 13.3188 26.5137 14.0373C26.5137 16.5241 28.427 18.5688 30.8323 18.5688C33.2377 18.5688 35.151 16.5241 35.151 14.0373C35.151 13.3188 34.5497 12.7109 33.8937 12.7109Z" fill="white"/>
<path d="M18.1496 12.7109C17.4936 12.7109 16.9469 13.3188 16.9469 14.0373C16.9469 15.0873 16.1269 15.9715 15.1429 15.9715C14.1589 15.9715 13.3389 15.0873 13.3389 14.0373C13.3389 13.3188 12.7922 12.7109 12.0816 12.7109C11.3709 12.7109 10.8242 13.3188 10.8242 14.0373C10.8242 16.5241 12.7376 18.5688 15.1429 18.5688C17.4936 18.5688 19.4616 16.5241 19.4616 14.0373C19.4069 13.3188 18.8602 12.7109 18.1496 12.7109Z" fill="white"/>
<path d="M30.8323 0.166016C28.4817 0.166016 26.5137 2.21075 26.5137 4.69759C26.5137 5.41602 27.0603 6.02391 27.771 6.02391C28.4817 6.02391 29.0283 5.41602 29.0283 4.69759C29.0283 3.64759 29.8483 2.76338 30.8323 2.76338C31.8163 2.76338 32.6363 3.64759 32.6363 4.69759C32.6363 5.41602 33.183 6.02391 33.8937 6.02391C34.6043 6.02391 35.151 5.41602 35.151 4.69759C35.151 2.21075 33.183 0.166016 30.8323 0.166016Z" fill="white"/>
<path d="M47.997 6.79768C47.9423 6.79768 47.833 6.79768 47.7783 6.79768L52.2063 13.4845C52.425 12.6003 53.1903 11.9924 54.065 11.9924C54.1197 11.9924 54.1743 11.9924 54.229 11.9924L49.801 5.36084C49.637 6.18979 48.8717 6.79768 47.997 6.79768Z" fill="white"/>
<path d="M39.2511 6.07917V1.49233C39.2511 0.77391 38.7044 0.166016 37.9937 0.166016C37.283 0.166016 36.7363 0.77391 36.7363 1.49233V9.83707L39.2511 6.07917Z" fill="white"/>
<path d="M27.771 11.9924C28.263 11.9924 28.7003 12.1582 29.0283 12.4898V6.30029C28.7003 6.57661 28.263 6.79766 27.771 6.79766C27.279 6.79766 26.8417 6.63187 26.5137 6.30029V12.4345C26.8417 12.1582 27.279 11.9924 27.771 11.9924Z" fill="white"/>
<path d="M81.8907 15.2529V1.43716C81.8907 0.718735 81.344 0.11084 80.6333 0.11084C79.9226 0.11084 79.376 0.718735 79.376 1.43716V9.72663L81.8907 15.2529Z" fill="white"/>
<path d="M58.7124 7.57137H59.9697V3.53716H58.7124C58.2204 3.53716 57.7831 3.37137 57.4551 3.03979V8.01348C57.7831 7.73716 58.2204 7.57137 58.7124 7.57137Z" fill="white"/>
<path d="M68.9898 0.166016C68.2791 0.166016 67.7324 0.773911 67.7324 1.49233V17.2423C67.7324 17.9608 68.2791 18.5686 68.9898 18.5686C69.7005 18.5686 70.2472 17.9608 70.2472 17.2423V1.49233C70.2472 0.773911 69.7005 0.166016 68.9898 0.166016Z" fill="white"/>
<path d="M37.9937 13.595C37.611 13.595 37.2284 13.4845 36.8457 13.2082C36.791 13.1529 36.791 13.1529 36.7363 13.0977V17.2424C36.7363 17.9608 37.283 18.5687 37.9937 18.5687C38.7044 18.5687 39.2511 17.9608 39.2511 17.2424V13.0977C38.9231 13.4292 38.4857 13.595 37.9937 13.595Z" fill="white"/>
<path d="M22.9605 0.166016C22.2498 0.166016 21.7031 0.773911 21.7031 1.49233V17.2423C21.7031 17.9608 22.2498 18.5686 22.9605 18.5686C23.6712 18.5686 24.2179 17.9608 24.2179 17.2423V1.49233C24.2179 0.773911 23.6712 0.166016 22.9605 0.166016Z" fill="white"/>
<path d="M42.2572 8.73193L40.6172 11.2188L43.5692 17.8504C43.7879 18.3477 44.2252 18.624 44.7172 18.624C44.8812 18.624 45.0999 18.5688 45.2639 18.5135C45.8652 18.1819 46.1385 17.4082 45.8652 16.7451L42.2572 8.73193Z" fill="white"/>
<path d="M72.2695 3.53711V17.2976C72.2695 18.0161 72.8162 18.624 73.5269 18.624C74.2375 18.624 74.7842 18.0161 74.7842 17.2976V9.00816L72.2695 3.53711Z" fill="white"/>
<path d="M58.7124 11.7161C58.2204 11.7161 57.7831 11.5503 57.4551 11.2188V17.2424C57.4551 17.9609 58.0017 18.5687 58.7124 18.5687C59.4231 18.5687 59.9697 17.9609 59.9697 17.2424V11.7161H58.7124Z" fill="white"/>
<path d="M12.0816 11.9923C12.5736 11.9923 13.0109 12.1581 13.3389 12.4897V1.49233C13.3389 0.773911 12.7922 0.166016 12.0816 0.166016C11.3709 0.166016 10.8242 0.773911 10.8242 1.49233V12.4344C11.1522 12.1581 11.5896 11.9923 12.0816 11.9923Z" fill="white"/>
<mask id="mask3" mask-type="alpha" maskUnits="userSpaceOnUse" x="0" y="0" width="20" height="13">
<path d="M0 0.148438H19.4067V12.4721H0V0.148438Z" fill="white"/>
</mask>
<g mask="url(#mask3)">
<path d="M18.149 11.9735C18.641 11.9735 19.0783 12.1393 19.4063 12.4709V1.47353C19.4063 0.755112 18.8596 0.147217 18.149 0.147217C17.493 0.147217 16.9463 0.755112 16.9463 1.47353V12.4156C17.2743 12.1393 17.7116 11.9735 18.149 11.9735Z" fill="white"/>
</g>
<mask id="mask4" mask-type="alpha" maskUnits="userSpaceOnUse" x="0" y="0" width="20" height="13">
<path d="M0 0.148438H19.4067V12.4721H0V0.148438Z" fill="white"/>
</mask>
<g mask="url(#mask4)">
<path d="M1.25733 11.9736C1.74933 11.9736 2.18667 12.1394 2.51467 12.471V6.33676C2.132 6.61307 1.69467 6.77886 1.25733 6.77886C0.765333 6.77886 0.328 6.61307 0 6.28149V12.4157C0.328 12.1394 0.765333 11.9736 1.25733 11.9736Z" fill="white"/>
</g>
<path d="M7.38038 6.79766C6.88838 6.79766 6.45105 6.63187 6.12305 6.30029V12.4345C6.45105 12.1582 6.88838 11.9371 7.38038 11.9371C7.87238 11.9371 8.30971 12.1029 8.63771 12.4345V6.30029C8.25505 6.63187 7.81771 6.79766 7.38038 6.79766Z" fill="white"/>
</svg>
