<svg width="16" height="12" viewBox="0 0 16 12" fill="none" xmlns="http://www.w3.org/2000/svg">
<path d="M8.75 1.89701H0.972222C0.388889 1.89701 0 1.51761 0 0.948506C0 0.474253 0.388889 0 0.972222 0H8.75C9.23611 0 9.72222 0.379402 9.72222 0.948506C9.72222 1.51761 9.33333 1.89701 8.75 1.89701Z" fill="white"/>
<path d="M11.6667 11.6661H0.972222C0.486111 11.6661 0 11.2867 0 10.7176C0 10.2433 0.388889 9.76906 0.972222 9.76906H11.6667C12.1528 9.76906 12.6389 10.1485 12.6389 10.7176C12.6389 11.2867 12.25 11.6661 11.6667 11.6661Z" fill="white"/>
<path d="M14.5833 6.82902H0.972222C0.486111 6.82902 0 6.44962 0 5.88051C0 5.40626 0.388889 4.93201 0.972222 4.93201H14.5833C15.0694 4.93201 15.5556 5.31141 15.5556 5.88051C15.5556 6.35476 15.1667 6.82902 14.5833 6.82902Z" fill="white"/>
</svg>
