<svg width="25" height="26" viewBox="0 0 25 26" fill="none" xmlns="http://www.w3.org/2000/svg">
<g clip-path="url(#clip0)">
<path d="M23.8044 12.304C24.1964 11.9158 24.3023 10.9021 24.0904 10.2551C24.0269 9.85608 23.7197 9.48943 23.2641 9.42473L16.929 8.48654C16.6112 8.4434 16.3358 8.23851 16.1875 7.93656L13.3589 2.09175C12.9987 1.34767 11.9605 1.34767 11.6003 2.09175L8.76118 7.94735C8.62346 8.23851 8.33743 8.4434 8.01961 8.49732L1.68451 9.42473C1.176 9.50021 0.858188 9.93156 0.847594 10.3845C0.805219 10.5894 0.773438 10.7943 0.773438 10.9992V11.0099C0.773438 11.0207 0.773438 11.0423 0.773438 11.0531C0.773438 11.5599 0.900563 12.056 1.14422 12.304L5.73135 16.8548C5.8055 16.9302 5.86907 17.0165 5.92204 17.1136L4.93681 22.9799C4.93681 23.0123 4.92622 23.0339 4.92622 23.0662L4.82028 23.5946C4.79909 23.6809 4.7779 23.7779 4.76731 23.8534C4.58721 25.1151 5.68897 25.5681 6.36698 25.2014L12.0347 22.1712C12.183 22.0957 12.3419 22.0525 12.5008 22.0525C12.6491 22.0525 12.808 22.0957 12.9457 22.1712L18.6134 25.2014C19.3338 25.5896 20.478 25.0073 20.2131 23.7995L20.0118 22.829L19.0478 17.1028C19.1008 17.0057 19.1643 16.9195 19.2385 16.844L23.8044 12.304Z" fill="#0F0E0F"/>
<path d="M13.3799 1.73617L16.2084 7.58098C16.3462 7.87215 16.6322 8.07704 16.95 8.13096L23.5605 8.14174C24.3657 8.26036 24.4081 10.2014 23.8254 10.773L19.2383 15.3237C19.0052 15.5502 18.8993 15.8845 18.9522 16.208L20.2129 22.2793C20.4777 23.4871 19.3336 24.0586 18.6132 23.6812L12.9561 20.6294C12.6701 20.4784 12.3311 20.4784 12.0451 20.6294L6.37736 23.6596C5.65698 24.0478 4.45988 23.5086 4.83066 22.0528L6.02777 16.1864C6.08073 15.8629 5.9748 15.5286 5.74173 15.3022L1.17579 10.7622C0.593133 10.1799 0.688477 8.17409 1.49361 8.04469L8.05119 8.12017C8.369 8.07704 8.64444 7.87214 8.79275 7.5702L11.6213 1.72539C11.9815 0.992093 13.0197 0.992093 13.3799 1.73617Z" fill="url(#paint0_linear)"/>
<path opacity="0.4" d="M13.3806 0.862748L16.2092 6.70756C16.3469 6.99872 16.6329 7.20361 16.9507 7.25753L23.2858 8.19572C24.091 8.31434 24.4088 9.31723 23.8261 9.89956L19.239 14.4503C19.0059 14.6768 18.9 15.0111 18.953 15.3346L20.0335 21.7509C20.1712 22.5705 19.3343 23.1852 18.6139 22.8077L12.9569 19.7667C12.6708 19.6157 12.3318 19.6157 12.0458 19.7667L6.37809 22.797C5.65771 23.1852 4.8208 22.5597 4.95852 21.7402L6.03908 15.3238C6.09205 15.0003 5.98612 14.666 5.75305 14.4395L1.17652 9.88877C0.593861 9.31723 0.911676 8.30356 1.71681 8.18494L8.05191 7.24675C8.36973 7.20361 8.64516 6.99872 8.79348 6.69677L11.622 0.862748C11.9822 0.118667 13.0204 0.118667 13.3806 0.862748Z" fill="#A72D00"/>
<path d="M13.3806 0.625822L16.2092 6.47063C16.3469 6.7618 16.6329 6.96669 16.9507 7.02061L23.2858 7.9588C24.091 8.07742 24.4088 9.08031 23.8261 9.66263L19.239 14.2134C19.0059 14.4398 18.9 14.7741 18.953 15.0977L20.0335 21.514C20.1712 22.3336 19.3343 22.9483 18.6139 22.5708L12.9569 19.519C12.6708 19.368 12.3318 19.368 12.0458 19.519L6.37809 22.5493C5.65771 22.9375 4.8208 22.312 4.95852 21.4924L6.03908 15.0761C6.09205 14.7526 5.98612 14.4183 5.75305 14.1918L1.17652 9.65185C0.593861 9.06952 0.911676 8.06663 1.71681 7.94801L8.05191 7.00982C8.36973 6.96669 8.64516 6.7618 8.79348 6.45985L11.622 0.615039C11.9822 -0.118259 13.0204 -0.118259 13.3806 0.625822Z" fill="url(#paint1_linear)"/>
<mask id="mask0" mask-type="alpha" maskUnits="userSpaceOnUse" x="0" y="0" width="25" height="23">
<path d="M13.3806 0.560881L16.2092 6.40569C16.3469 6.69685 16.6329 6.90175 16.9507 6.95566L23.2858 7.89385C24.091 8.01248 24.4088 9.01537 23.8261 9.59769L19.239 14.1484C19.0059 14.3749 18.9 14.7092 18.953 15.0327L20.0335 21.4491C20.1712 22.2686 19.3343 22.8833 18.6139 22.5059L12.9569 19.4541C12.6708 19.3031 12.3318 19.3031 12.0458 19.4541L6.37809 22.4843C5.65771 22.8725 4.8208 22.2471 4.95852 21.4275L6.03908 15.0111C6.09205 14.6876 5.98612 14.3533 5.75305 14.1269L1.17652 9.58691C0.593861 9.00458 0.911676 8.00169 1.71681 7.88307L8.05191 6.94488C8.36973 6.90175 8.64516 6.69685 8.79348 6.39491L11.622 0.550097C11.9822 -0.1832 13.0204 -0.1832 13.3806 0.560881Z" fill="url(#paint2_linear)"/>
</mask>
<g mask="url(#mask0)">
<path opacity="0.6" d="M13.3806 0.560881L16.2092 6.40569C16.3469 6.69685 16.6329 6.90175 16.9507 6.95566L23.2858 7.89385C24.091 8.01248 24.4088 9.01537 23.8261 9.59769L19.239 14.1484C19.0059 14.3749 18.9 14.7092 18.953 15.0327L20.0335 21.4491C20.1712 22.2686 19.3343 22.8833 18.6139 22.5059L12.9569 19.4541C12.6708 19.3031 12.3318 19.3031 12.0458 19.4541L6.37809 22.4843C5.65771 22.8725 4.8208 22.2471 4.95852 21.4275L6.03908 15.0111C6.09205 14.6876 5.98612 14.3533 5.75305 14.1269L1.17652 9.58691C0.593861 9.00458 0.911676 8.00169 1.71681 7.88307L8.05191 6.94488C8.36973 6.90175 8.64516 6.69685 8.79348 6.39491L11.622 0.550097C11.9822 -0.1832 13.0204 -0.1832 13.3806 0.560881Z" fill="url(#paint3_linear)"/>
</g>
<mask id="mask1" mask-type="alpha" maskUnits="userSpaceOnUse" x="0" y="0" width="25" height="23">
<path d="M13.3806 0.560881L16.2092 6.40569C16.3469 6.69685 16.6329 6.90175 16.9507 6.95566L23.2858 7.89385C24.091 8.01248 24.4088 9.01537 23.8261 9.59769L19.239 14.1484C19.0059 14.3749 18.9 14.7092 18.953 15.0327L20.0335 21.4491C20.1712 22.2686 19.3343 22.8833 18.6139 22.5059L12.9569 19.4541C12.6708 19.3031 12.3318 19.3031 12.0458 19.4541L6.37809 22.4843C5.65771 22.8725 4.8208 22.2471 4.95852 21.4275L6.03908 15.0111C6.09205 14.6876 5.98612 14.3533 5.75305 14.1269L1.17652 9.58691C0.593861 9.00458 0.911676 8.00169 1.71681 7.88307L8.05191 6.94488C8.36973 6.90175 8.64516 6.69685 8.79348 6.39491L11.622 0.550097C11.9822 -0.1832 13.0204 -0.1832 13.3806 0.560881Z" fill="url(#paint4_linear)"/>
</mask>
<g mask="url(#mask1)">
<path opacity="0.6" d="M13.3806 0.560881L16.2092 6.40569C16.3469 6.69685 16.6329 6.90175 16.9507 6.95566L23.2858 7.89385C24.091 8.01248 24.4088 9.01537 23.8261 9.59769L19.239 14.1484C19.0059 14.3749 18.9 14.7092 18.953 15.0327L20.0335 21.4491C20.1712 22.2686 19.3343 22.8833 18.6139 22.5059L12.9569 19.4541C12.6708 19.3031 12.3318 19.3031 12.0458 19.4541L6.37809 22.4843C5.65771 22.8725 4.8208 22.2471 4.95852 21.4275L6.03908 15.0111C6.09205 14.6876 5.98612 14.3533 5.75305 14.1269L1.17652 9.58691C0.593861 9.00458 0.911676 8.00169 1.71681 7.88307L8.05191 6.94488C8.36973 6.90175 8.64516 6.69685 8.79348 6.39491L11.622 0.550097C11.9822 -0.1832 13.0204 -0.1832 13.3806 0.560881Z" fill="url(#paint5_linear)"/>
</g>
<mask id="mask2" mask-type="alpha" maskUnits="userSpaceOnUse" x="0" y="0" width="25" height="23">
<path d="M13.3806 0.625822L16.2092 6.47063C16.3469 6.7618 16.6329 6.96669 16.9507 7.02061L23.2858 7.9588C24.091 8.07742 24.4088 9.08031 23.8261 9.66263L19.239 14.2134C19.0059 14.4398 18.9 14.7741 18.953 15.0977L20.0335 21.514C20.1712 22.3336 19.3343 22.9483 18.6139 22.5708L12.9569 19.519C12.6708 19.368 12.3318 19.368 12.0458 19.519L6.37809 22.5493C5.65771 22.9375 4.8208 22.312 4.95852 21.4924L6.03908 15.0761C6.09205 14.7526 5.98612 14.4183 5.75305 14.1918L1.17652 9.65185C0.593861 9.06952 0.911676 8.06663 1.71681 7.94801L8.05191 7.00982C8.36973 6.96669 8.64516 6.7618 8.79348 6.45985L11.622 0.615039C11.9822 -0.118259 13.0204 -0.118259 13.3806 0.625822Z" fill="url(#paint6_linear)"/>
</mask>
<g mask="url(#mask2)">
<path opacity="0.6" d="M12.5013 0.0429688V19.3891C12.3424 19.3891 12.1835 19.4322 12.0458 19.5077L6.37809 22.5379C5.65771 22.9262 4.8208 22.3007 4.95852 21.4811L6.03909 15.0648C6.09205 14.7413 5.98612 14.407 5.75305 14.1805L1.17652 9.62975C0.593861 9.05821 0.911676 8.04453 1.71681 7.92591L8.05191 6.98772C8.36973 6.94459 8.64517 6.7397 8.79348 6.43775L11.622 0.592942C11.8021 0.237077 12.1517 0.0429688 12.5013 0.0429688Z" fill="url(#paint7_linear)"/>
<path d="M24.1118 9.11281C24.0483 8.71381 23.7411 8.35795 23.2855 8.29325L16.9504 7.35506C16.6326 7.31192 16.3572 7.10703 16.2088 6.80508L13.3803 0.960271C13.0201 0.21619 11.9819 0.21619 11.6217 0.960271L8.79316 6.80508C8.65544 7.09624 8.36941 7.30114 8.05159 7.35506L1.71649 8.28246C1.26095 8.34716 0.953731 8.70303 0.890168 9.10203C0.805418 8.58441 1.13383 8.02365 1.71649 7.93738L8.05159 7.00997C8.36941 6.96684 8.64485 6.76195 8.79316 6.46L11.6217 0.61519C11.9819 -0.128891 13.0201 -0.128891 13.3803 0.61519L16.2088 6.46C16.3572 6.75116 16.6326 6.95606 16.9504 7.00997L23.2855 7.94816C23.8682 8.03443 24.1966 8.58441 24.1118 9.11281Z" fill="url(#paint8_linear)"/>
<path d="M12.7445 3.64488L15.1281 8.5515C15.1705 8.62699 15.2446 8.69169 15.3294 8.70247L20.6475 9.48969C20.87 9.52204 20.9547 9.80242 20.7958 9.95339L16.9397 13.7709C16.8761 13.8356 16.8443 13.9218 16.8655 14.0081L17.7766 19.4C17.8189 19.6264 17.5859 19.7882 17.3846 19.6912L12.628 17.1462C12.5538 17.103 12.4585 17.103 12.3737 17.1462L7.61709 19.6912C7.41581 19.799 7.19334 19.6264 7.22512 19.4L8.13619 14.0081C8.14678 13.9218 8.1256 13.8248 8.06203 13.7709L4.20588 9.95339C4.04697 9.79164 4.13172 9.52204 4.35419 9.48969L9.67229 8.70247C9.75704 8.69169 9.8312 8.63777 9.87358 8.5515L12.2572 3.64488C12.3631 3.43999 12.6492 3.43999 12.7445 3.64488Z" fill="url(#paint9_linear)"/>
<path opacity="0.5" d="M20.5308 10.2233L20.1812 10.6115L15.3186 9.88901C15.2339 9.87823 15.1597 9.82431 15.1174 9.73804L12.7443 4.83142C12.649 4.62652 12.363 4.62652 12.2676 4.83142L9.88401 9.74882C9.84164 9.82431 9.76748 9.88901 9.68273 9.89979L4.83076 10.6115L4.37522 10.137C4.37522 10.137 4.30107 10.04 4.35404 10.04L9.67214 9.25277C9.75689 9.24198 9.83104 9.18806 9.87342 9.10179L12.257 4.19517C12.3524 3.99028 12.6384 3.99028 12.7338 4.19517L15.1174 9.10179C15.1597 9.17728 15.2339 9.24198 15.3186 9.25277L20.6367 10.04C20.7109 10.04 20.6897 10.0616 20.5308 10.2233Z" fill="#5D0032"/>
<path d="M20.796 9.95339L20.6265 10.1259L15.3295 9.33872C15.2448 9.32793 15.1706 9.27402 15.1283 9.18775L12.7447 4.28112C12.6493 4.07623 12.3633 4.07623 12.2679 4.28112L9.88432 9.18775C9.84194 9.26323 9.76779 9.32793 9.68304 9.33872L4.38612 10.1259L4.21662 9.95339C4.05772 9.79164 4.14247 9.52204 4.36494 9.48969L9.68304 8.70247C9.76779 8.69169 9.84194 8.63777 9.88432 8.5515L12.2679 3.64488C12.3633 3.43999 12.6493 3.43999 12.7447 3.64488L15.1283 8.5515C15.1706 8.62699 15.2448 8.69169 15.3295 8.70247L20.6476 9.48969C20.8701 9.52204 20.9549 9.79164 20.796 9.95339Z" fill="url(#paint10_linear)"/>
</g>
<mask id="mask3" mask-type="alpha" maskUnits="userSpaceOnUse" x="4" y="10" width="5" height="5">
<path d="M8.06212 14.4184C8.06212 14.4184 8.10449 14.0086 7.73371 13.6312C7.42649 13.3292 4.95813 10.8705 4.95813 10.8705C4.79922 10.7088 4.31191 10.0833 4.26953 10.0078L8.06212 13.7714C8.12568 13.8361 8.15746 13.9223 8.13628 14.0086L8.06212 14.4184Z" fill="url(#paint11_linear)"/>
</mask>
<g mask="url(#mask3)">
<path d="M8.06212 14.4184C8.06212 14.4184 8.10449 14.0086 7.73371 13.6312C7.42649 13.3292 4.95813 10.8705 4.95813 10.8705C4.79922 10.7088 4.31191 10.0833 4.26953 10.0078L8.06212 13.7714C8.12568 13.8361 8.15746 13.9223 8.13628 14.0086L8.06212 14.4184Z" fill="url(#paint12_linear)"/>
</g>
<mask id="mask4" mask-type="alpha" maskUnits="userSpaceOnUse" x="16" y="10" width="5" height="5">
<path d="M16.9293 14.4184C16.9293 14.4184 16.887 14.0086 17.2577 13.6312C17.565 13.3292 20.0333 10.8705 20.0333 10.8705C20.1922 10.7088 20.6795 10.0833 20.7219 10.0078L16.9293 13.7714C16.8658 13.8361 16.834 13.9223 16.8552 14.0086L16.9293 14.4184Z" fill="url(#paint13_linear)"/>
</mask>
<g mask="url(#mask4)">
<path d="M16.9293 14.4184C16.9293 14.4184 16.887 14.0086 17.2577 13.6312C17.565 13.3292 20.0333 10.8705 20.0333 10.8705C20.1922 10.7088 20.6795 10.0833 20.7219 10.0078L16.9293 13.7714C16.8658 13.8361 16.834 13.9223 16.8552 14.0086L16.9293 14.4184Z" fill="url(#paint14_linear)"/>
</g>
<mask id="mask5" mask-type="alpha" maskUnits="userSpaceOnUse" x="5" y="15" width="2" height="7">
<path d="M6.20818 15.0435C6.20818 15.0435 5.61493 18.6237 5.38186 19.8746C5.1488 21.1255 5.02167 21.6431 5.12761 21.8912C5.12761 21.8804 5.87977 19.8854 6.20818 15.0435Z" fill="url(#paint15_linear)"/>
</mask>
<g mask="url(#mask5)">
<path opacity="0.6" d="M6.20818 15.0435C6.20818 15.0435 5.61493 18.6237 5.38186 19.8746C5.1488 21.1255 5.02167 21.6431 5.12761 21.8912C5.12761 21.8804 5.87977 19.8854 6.20818 15.0435Z" fill="url(#paint16_linear)"/>
</g>
<mask id="mask6" mask-type="alpha" maskUnits="userSpaceOnUse" x="18" y="15" width="2" height="7">
<path d="M18.8672 15.0435C18.8672 15.0435 19.4604 18.6237 19.6935 19.8746C19.9266 21.1255 20.0537 21.6431 19.9478 21.8912C19.9478 21.8804 19.2062 19.8854 18.8672 15.0435Z" fill="url(#paint17_linear)"/>
</mask>
<g mask="url(#mask6)">
<path opacity="0.6" d="M18.8672 15.0435C18.8672 15.0435 19.4604 18.6237 19.6935 19.8746C19.9266 21.1255 20.0537 21.6431 19.9478 21.8912C19.9478 21.8804 19.2062 19.8854 18.8672 15.0435Z" fill="url(#paint18_linear)"/>
</g>
<mask id="mask7" mask-type="alpha" maskUnits="userSpaceOnUse" x="2" y="11" width="5" height="4">
<path d="M2.95605 11.2261C2.95605 11.2261 5.54095 13.7926 5.7952 14.0514C6.04945 14.3102 6.17658 14.4181 6.20836 14.6445C6.20836 14.6445 6.36727 14.1485 5.89054 13.7063C5.40323 13.275 2.95605 11.2261 2.95605 11.2261Z" fill="url(#paint19_linear)"/>
</mask>
<g mask="url(#mask7)">
<path opacity="0.2" d="M2.95605 11.2261C2.95605 11.2261 5.54095 13.7926 5.7952 14.0514C6.04945 14.3102 6.17658 14.4181 6.20836 14.6445C6.20836 14.6445 6.36727 14.1485 5.89054 13.7063C5.40323 13.275 2.95605 11.2261 2.95605 11.2261Z" fill="url(#paint20_linear)"/>
</g>
<mask id="mask8" mask-type="alpha" maskUnits="userSpaceOnUse" x="18" y="11" width="4" height="4">
<path d="M21.9398 11.2261C21.9398 11.2261 19.3549 13.7926 19.1007 14.0514C18.8464 14.3102 18.7193 14.4181 18.6875 14.6445C18.6875 14.6445 18.5286 14.1485 19.0053 13.7063C19.4821 13.275 21.9398 11.2261 21.9398 11.2261Z" fill="url(#paint21_linear)"/>
</mask>
<g mask="url(#mask8)">
<path opacity="0.2" d="M21.9398 11.2261C21.9398 11.2261 19.3549 13.7926 19.1007 14.0514C18.8464 14.3102 18.7193 14.4181 18.6875 14.6445C18.6875 14.6445 18.5286 14.1485 19.0053 13.7063C19.4821 13.275 21.9398 11.2261 21.9398 11.2261Z" fill="url(#paint22_linear)"/>
</g>
</g>
<defs>
<linearGradient id="paint0_linear" x1="0.710565" y1="12.48" x2="23.8493" y2="12.48" gradientUnits="userSpaceOnUse">
<stop stop-color="#CE5800"/>
<stop offset="0.2189" stop-color="#942200"/>
<stop offset="0.2838" stop-color="#CC4500"/>
<stop offset="0.4135" stop-color="#892D00"/>
<stop offset="0.6027" stop-color="#892D00"/>
<stop offset="0.727" stop-color="#CC4500"/>
<stop offset="0.8189" stop-color="#863400"/>
<stop offset="1" stop-color="#B54800"/>
</linearGradient>
<linearGradient id="paint1_linear" x1="12.5025" y1="0.0265568" x2="12.5025" y2="21.1365" gradientUnits="userSpaceOnUse">
<stop stop-color="#FFE554"/>
<stop offset="0.8135" stop-color="#943400"/>
<stop offset="1" stop-color="#FF7600"/>
</linearGradient>
<linearGradient id="paint2_linear" x1="20.6854" y1="15.8835" x2="15.2318" y2="13.7817" gradientUnits="userSpaceOnUse">
<stop stop-color="white"/>
<stop offset="1"/>
</linearGradient>
<linearGradient id="paint3_linear" x1="20.6854" y1="15.8835" x2="15.2318" y2="13.7817" gradientUnits="userSpaceOnUse">
<stop stop-color="#FAFF01"/>
<stop offset="1" stop-color="#FFD600"/>
</linearGradient>
<linearGradient id="paint4_linear" x1="12.5025" y1="20.545" x2="12.5025" y2="5.90291" gradientUnits="userSpaceOnUse">
<stop stop-color="white"/>
<stop offset="0.7649"/>
<stop offset="1" stop-color="white"/>
</linearGradient>
<linearGradient id="paint5_linear" x1="12.5025" y1="20.545" x2="12.5025" y2="5.90291" gradientUnits="userSpaceOnUse">
<stop stop-color="#FAFF01"/>
<stop offset="0.7649" stop-color="#FFD600"/>
<stop offset="1" stop-color="#FAFF01"/>
</linearGradient>
<linearGradient id="paint6_linear" x1="12.5025" y1="20.6086" x2="12.5025" y2="5.96653" gradientUnits="userSpaceOnUse">
<stop/>
<stop offset="1" stop-color="white"/>
</linearGradient>
<linearGradient id="paint7_linear" x1="10.3896" y1="10.8948" x2="5.33418" y2="13.7918" gradientUnits="userSpaceOnUse">
<stop stop-color="#FFE554"/>
<stop offset="1" stop-color="#FF7600"/>
</linearGradient>
<linearGradient id="paint8_linear" x1="12.5022" y1="-0.485781" x2="12.5022" y2="10.0307" gradientUnits="userSpaceOnUse">
<stop stop-color="#FFFEB1"/>
<stop offset="0.5405" stop-color="#FFFE54"/>
<stop offset="1" stop-color="#E0931A"/>
</linearGradient>
<linearGradient id="paint9_linear" x1="12.502" y1="3.49062" x2="12.502" y2="19.7322" gradientUnits="userSpaceOnUse">
<stop stop-color="#950D43"/>
<stop offset="0.4568" stop-color="#440231"/>
<stop offset="0.7649" stop-color="#2A0231"/>
<stop offset="1" stop-color="#6C073A"/>
</linearGradient>
<linearGradient id="paint10_linear" x1="4.12763" y1="6.80672" x2="20.8768" y2="6.80672" gradientUnits="userSpaceOnUse">
<stop stop-color="#CE5800"/>
<stop offset="0.1324" stop-color="#943400"/>
<stop offset="0.4135" stop-color="#892D00"/>
<stop offset="0.6027" stop-color="#892D00"/>
<stop offset="0.8892" stop-color="#943400"/>
<stop offset="1" stop-color="#B54800"/>
</linearGradient>
<linearGradient id="paint11_linear" x1="6.20463" y1="9.88509" x2="6.20463" y2="13.9664" gradientUnits="userSpaceOnUse">
<stop stop-color="white"/>
<stop offset="0.5405" stop-color="white"/>
<stop offset="1"/>
</linearGradient>
<linearGradient id="paint12_linear" x1="6.20463" y1="9.88509" x2="6.20463" y2="13.9664" gradientUnits="userSpaceOnUse">
<stop stop-color="#FFFEB1"/>
<stop offset="0.5405" stop-color="#FFFE54"/>
<stop offset="1" stop-color="#E0931A"/>
</linearGradient>
<linearGradient id="paint13_linear" x1="18.7887" y1="9.88509" x2="18.7887" y2="13.9664" gradientUnits="userSpaceOnUse">
<stop stop-color="white"/>
<stop offset="0.5405" stop-color="white"/>
<stop offset="1"/>
</linearGradient>
<linearGradient id="paint14_linear" x1="18.7887" y1="9.88509" x2="18.7887" y2="13.9664" gradientUnits="userSpaceOnUse">
<stop stop-color="#FFFEB1"/>
<stop offset="0.5405" stop-color="#FFFE54"/>
<stop offset="1" stop-color="#E0931A"/>
</linearGradient>
<linearGradient id="paint15_linear" x1="5.64325" y1="14.6256" x2="5.64325" y2="22.5836" gradientUnits="userSpaceOnUse">
<stop stop-color="white"/>
<stop offset="1"/>
</linearGradient>
<linearGradient id="paint16_linear" x1="5.64325" y1="14.6256" x2="5.64325" y2="22.5836" gradientUnits="userSpaceOnUse">
<stop stop-color="#FFFEB1"/>
<stop offset="1" stop-color="#E0931A"/>
</linearGradient>
<linearGradient id="paint17_linear" x1="19.4324" y1="14.6256" x2="19.4324" y2="22.5836" gradientUnits="userSpaceOnUse">
<stop stop-color="white"/>
<stop offset="1"/>
</linearGradient>
<linearGradient id="paint18_linear" x1="19.4324" y1="14.6256" x2="19.4324" y2="22.5836" gradientUnits="userSpaceOnUse">
<stop stop-color="#FFFEB1"/>
<stop offset="1" stop-color="#E0931A"/>
</linearGradient>
<linearGradient id="paint19_linear" x1="2.9554" y1="12.9344" x2="6.23184" y2="12.9344" gradientUnits="userSpaceOnUse">
<stop/>
<stop offset="1" stop-color="white"/>
</linearGradient>
<linearGradient id="paint20_linear" x1="2.9554" y1="12.9344" x2="6.23184" y2="12.9344" gradientUnits="userSpaceOnUse">
<stop stop-color="#C94200"/>
<stop offset="1" stop-color="#B30031"/>
</linearGradient>
<linearGradient id="paint21_linear" x1="21.9357" y1="12.9344" x2="18.6593" y2="12.9344" gradientUnits="userSpaceOnUse">
<stop/>
<stop offset="1" stop-color="white"/>
</linearGradient>
<linearGradient id="paint22_linear" x1="21.9357" y1="12.9344" x2="18.6593" y2="12.9344" gradientUnits="userSpaceOnUse">
<stop stop-color="#C94200"/>
<stop offset="1" stop-color="#B30031"/>
</linearGradient>
<clipPath id="clip0">
<rect width="23.4547" height="25.3311" fill="white" transform="translate(0.773438)"/>
</clipPath>
</defs>
</svg>
