<svg xmlns="http://www.w3.org/2000/svg" width="71" height="27" viewBox="0 0 71 27"><g><g><g><path fill="#fff" d="M10.926 7.832v4.13L.6 13.103V9.277zM7.68 12.96v13.47H3.906V13.347zm8.632-5.881v19.352h-3.98V7.649zm6.51-.916v4.497l-5.755.631V6.977zm-1.98 8.038v4.518l-3.775.203v-4.395zm1.98 7.712v4.518h-5.755v-4.335zm20.1-18.558v23.076h-5.224V4.088zm8.59-1.22v5.392l-7.61.834V3.213zM48.903 11.8v5.392l-5 .265v-5.23zm2.612 9.259v5.372h-7.612v-5.148zm-22.63-15.73v21.102h-4.552V5.96zm7.447 16.177v4.925h-6.59V21.71zM70.695 7.425c-.346 3.968-2.265 7.122-7.631 12.352l-8.775.285s6.101-5.535 8.407-8.242c1.49-1.75 2.122-3.642 1.51-4.904-.388-.793-1.245-1.2-2.326-1.14V.08c2.632-.387 5.06.265 6.714 1.811a6.755 6.755 0 0 1 2.102 5.535zm.306 13.044v5.962l-17.794-5.433zM53.207 26.43h17.794l-17.794-5.433zM60.86 6c-1.082.468-2.143 1.281-1.898 4.781l-5.51.489C53.146 5.085 55.697 1.3 60.86.2z"/></g></g></g></svg>