<svg width="32" height="32" viewBox="0 0 32 32" fill="none" xmlns="http://www.w3.org/2000/svg">
<rect width="32" height="32" rx="5" fill="#12B8FF"/>
<path fill-rule="evenodd" clip-rule="evenodd" d="M25 10.6566C24.3639 10.94 23.6894 11.1261 22.9987 11.2088C23.7263 10.7656 24.2699 10.0721 24.5286 9.25663C23.8442 9.66896 23.0938 9.95852 22.3109 10.1122C21.9861 9.76064 21.5926 9.4803 21.1551 9.28891C20.7177 9.09753 20.2456 8.99918 19.7686 9.00001C18.8404 9.00248 17.951 9.3758 17.2961 10.0379C16.6412 10.7 16.2742 11.5968 16.2759 12.5311C16.2753 12.8034 16.3064 13.0748 16.3686 13.3399C14.9798 13.2685 13.6217 12.9025 12.3832 12.2658C11.1447 11.6291 10.0539 10.7362 9.1823 9.64551C8.73675 10.4244 8.60062 11.3442 8.80131 12.22C9.002 13.0958 9.52465 13.8628 10.2641 14.3666C9.70888 14.3458 9.16621 14.1939 8.68 13.9232V13.9699C8.6794 14.7827 8.9573 15.5708 9.46688 16.2013C9.97646 16.8318 10.6865 17.2661 11.4773 17.4309C11.1781 17.5157 10.8686 17.5577 10.5578 17.5554C10.3374 17.5543 10.1175 17.5335 9.90088 17.4932C10.1216 18.1941 10.5548 18.8079 11.1396 19.2487C11.7244 19.6894 12.4315 19.9349 13.1619 19.9508C11.9274 20.9318 10.3995 21.4636 8.82678 21.4598C8.55052 21.4599 8.27451 21.4443 8 21.413C9.50248 22.3865 11.2385 22.9328 13.0243 22.9942C14.8101 23.0555 16.5792 22.6296 18.1441 21.7616C19.709 20.8935 21.0116 19.6156 21.9138 18.0632C22.816 16.5108 23.2843 14.7416 23.2691 12.9432C23.2691 12.7877 23.2614 12.6321 23.2614 12.4844C23.943 11.9825 24.5315 11.3638 25 10.6566Z" fill="white"/>
</svg>
