<svg xmlns="http://www.w3.org/2000/svg" width="69" height="23" viewBox="0 0 69 23"><g><g><g><g><path fill="#fff" d="M30.24 21.855h-5.535L28.164.6h5.534zM26.006.604l-8.803 21.254h-5.766L6.63 3.388C3.506 1.513.84.958.84.958l.103-.36h8.72c2.397 0 2.623 1.914 2.623 1.914l1.863 9.557.625 3.149L20.051.6zM62.93 18.699h-7.033l-1.154 3.156h-5.77l8.252-19.672S57.727.6 59.78.6h4.448l4.429 21.255h-5.084zm-.903-4.361l-1.634-7.955-2.907 7.955zM49.405 5.712c-2.37-1.305-7.758-1.614-7.755.787 0 2.404 7.723 2.917 7.723 8.445 0 5.321-5.696 7.278-9.473 7.278-3.775 0-6.247-1.199-6.247-1.199l.822-4.774c2.266 1.818 9.131 2.337 9.131-.548 0-2.885-7.655-2.952-7.655-8.445 0-5.837 6.52-7.036 9.267-7.036 2.54 0 4.977.928 4.977.928z"/></g></g><g><path fill="#e6a540" d="M14.152 12.072L12.29 2.515S12.063.6 9.665.6H.943L.84.961s4.193.87 8.213 4.123c3.845 3.11 5.1 6.988 5.1 6.988z"/></g></g></g></svg>