<svg width="250" height="248" viewBox="0 0 250 248" fill="none" xmlns="http://www.w3.org/2000/svg">
<path d="M213.495 158.164L219.976 151.743L221.522 173.444L233.806 175.217L224.41 188.44L236.274 189.638L222.53 214.698L217.239 218.122L224.011 198.691L215.488 196.496L220.08 182.621L209.657 181.618L213.495 158.164Z" fill="#FF009E"/>
<path d="M219.974 151.743L232.063 154.319L224.631 170.708L236.848 172.628L227.452 185.85L239.383 186.902L222.528 214.698L228.446 193.028L219.193 192.443L225.166 179.273L214.809 178.124L219.974 151.743Z" fill="#EAFC00"/>
<path d="M35.984 156.374L29.0368 150.529L29.142 172.292L17.0332 175.11L27.4017 187.486L15.6671 189.696L31.268 213.498L36.8024 216.458L28.5778 197.669L36.9066 194.753L31.2759 181.316L41.5892 179.424L35.984 156.374Z" fill="#FF009E"/>
<path d="M29.0372 150.528L17.1825 154.13L25.8344 169.83L13.8029 172.788L24.1714 185.164L12.3595 187.234L31.2684 213.497L23.7252 192.404L32.9038 191.029L25.9514 178.413L36.1874 176.382L29.0372 150.528Z" fill="#F9FF00"/>
<g filter="url(#filter0_d)">
<rect x="67.8105" y="173" width="114.902" height="37" rx="5" fill="#FF06A4"/>
</g>
<path d="M52.7422 153L199.666 158L188.364 210L61.2186 216L52.7422 153Z" fill="#FF009E"/>
<path d="M92.253 169.662V200.342H81.5228V180.185L75.3457 182.363V172.728L82.3575 169.662H92.253Z" fill="#EAFC00"/>
<path d="M112.455 169.662V200.342H101.74V180.185L95.5625 182.379V172.728L102.574 169.662H112.455Z" fill="#EAFC00"/>
<path d="M116.566 184.994C116.566 175.568 122.759 169 130.59 169C138.421 169 144.614 175.568 144.614 184.994C144.614 194.419 138.437 200.987 130.59 200.987C122.743 200.987 116.566 194.419 116.566 184.994ZM127.281 184.994C127.281 189.383 128.936 191.126 130.575 191.126C132.229 191.126 133.868 189.367 133.868 184.994C133.868 180.604 132.214 178.861 130.575 178.861C128.936 178.861 127.281 180.62 127.281 184.994Z" fill="#EAFC00"/>
<path d="M147.074 176.231C147.074 172.293 149.958 169.211 153.676 169.211C157.379 169.211 160.278 172.277 160.278 176.231C160.278 180.169 157.395 183.252 153.676 183.252C149.958 183.252 147.074 180.185 147.074 176.231ZM148.729 200.343L168.095 169.663H176.336L156.97 200.343H148.729ZM152.022 176.231C152.022 177.539 152.842 178.426 153.676 178.426C154.511 178.426 155.331 177.555 155.331 176.231C155.331 174.924 154.511 174.036 153.676 174.036C152.842 174.036 152.022 174.924 152.022 176.231ZM164.801 193.774C164.801 189.836 167.685 186.754 171.403 186.754C175.106 186.754 178.005 189.82 178.005 193.774C178.005 197.712 175.122 200.794 171.403 200.794C167.685 200.778 164.801 197.712 164.801 193.774ZM169.749 193.774C169.749 195.081 170.568 195.969 171.403 195.969C172.238 195.969 173.057 195.097 173.057 193.774C173.057 192.467 172.238 191.579 171.403 191.579C170.568 191.579 169.749 192.451 169.749 193.774Z" fill="#EAFC00"/>
<path d="M155.676 85.9373L143.153 75.308L120.825 89L106.733 75.308L86.4812 85.9373L90.2785 59.544L75.3418 48L93.2364 31.8893L86.4812 21.26L90.2785 10L110.699 27.8357L127.407 13.3328L136.014 31.8893L166.698 21.26L146.92 43L162.46 79L155.676 85.9373Z" fill="#06FFF0"/>
<path d="M162.461 79L147.065 62.5716L127.346 79L106.869 66.8807L93.976 76.0375L97.5994 55.6591L86.6445 43.5398L100.301 32.5L90.0153 10.3239L109.397 14.3636L128.105 0L147.065 20.6477H166.699L154.48 41.2955L162.461 79Z" fill="#FF009E"/>
<path fill-rule="evenodd" clip-rule="evenodd" d="M111.301 37.9943L111.893 36.3886L111.21 40.9905H111.986L112.955 34.4561H112.007L110.9 37.1537L110.374 38.5912L110.986 34.4558H110.217L109.248 40.9903H110.135L111.301 37.9943ZM113.556 35.3898H114.459L113.627 40.9907H114.491L115.321 35.3898H116.224L116.361 34.4563H113.696L113.556 35.3898ZM117.731 35.3898H119.222L119.361 34.4563H117.006L116.037 40.9907H118.392L118.529 40.0572H117.039L117.323 38.1434H118.508L118.645 37.2101H117.462L117.731 35.3898ZM119.187 41H119.321C120.183 41 120.615 40.5332 120.822 39.3383L121.504 35.3898H122.255L121.425 40.9907H122.303L123.272 34.4563H120.834L119.96 39.3943C119.853 40.0012 119.72 40.0665 119.327 40.0665L119.187 41ZM124.765 40.9907C125.629 40.9907 126.137 40.4213 126.291 39.3757L126.417 38.5263C126.572 37.4808 126.234 36.9114 125.369 36.9114H124.963L125.326 34.4563H124.463L123.494 40.9907H124.765ZM124.496 40.0572L124.824 37.8449H125.232C125.507 37.8449 125.633 37.9943 125.564 38.461L125.419 39.441C125.348 39.9078 125.179 40.0572 124.904 40.0572H124.496ZM128.167 38.1901H129.147L128.731 40.9907H129.611L130.58 34.4563H129.701L129.287 37.2568H128.306L128.722 34.4563H127.858L126.888 40.9907H127.753L128.167 38.1901ZM131.887 40.9907C132.75 40.9907 133.259 40.4213 133.414 39.3757L133.54 38.5263C133.694 37.4808 133.357 36.9114 132.492 36.9114H132.086L132.448 34.4563H131.586L130.617 40.9907H131.887ZM131.618 40.0572L131.947 37.8449H132.355C132.63 37.8449 132.756 37.9943 132.687 38.461L132.542 39.441C132.471 39.9078 132.302 40.0572 132.027 40.0572H131.618ZM134.532 40.9907L135.501 34.4563H134.637L133.668 40.9907H134.532ZM136.566 40.9907H135.681L136.648 34.4563H137.417L136.805 38.5916L137.331 37.1541L138.438 34.4565H139.386L138.417 40.9909H137.64L138.323 36.3891L137.732 37.9947L136.566 40.9907ZM138.638 33C138.633 33.0642 138.617 33.1265 138.591 33.1831C138.565 33.2397 138.529 33.2896 138.487 33.3296C138.444 33.3697 138.395 33.3992 138.343 33.4164C138.291 33.4336 138.236 33.438 138.182 33.4296C137.955 33.4296 137.848 33.3455 137.877 33H137.343C137.264 33.6347 137.488 34.0362 138.093 34.0362C138.349 34.0614 138.604 33.9675 138.803 33.7743C139.003 33.5811 139.132 33.3036 139.163 33H138.638Z" fill="#F9FF00"/>
<path d="M113.245 18.9834L113.245 18.9834C113.339 18.4082 113.52 18.026 113.759 17.7879C113.995 17.5521 114.298 17.4474 114.661 17.4474C115.026 17.4474 115.28 17.5527 115.428 17.7728C115.58 17.9992 115.637 18.3726 115.542 18.951L114.081 27.8241L114.081 27.8241C113.987 28.3994 113.806 28.7816 113.567 29.0197C113.331 29.2555 113.029 29.3602 112.667 29.3602C112.303 29.3602 112.048 29.2549 111.9 29.0346C111.747 28.8081 111.689 28.4348 111.784 27.8566L113.245 18.9834ZM116.714 27.6924L116.616 27.6762L116.714 27.6924L118.12 19.1476C118.338 17.8203 118.188 16.7564 117.664 16.0217C117.137 15.2833 116.25 14.9 115.047 14.9C113.843 14.9 112.841 15.2834 112.086 16.0076C111.331 16.7306 110.831 17.7854 110.612 19.1151L110.612 19.1151L109.207 27.66C108.988 28.9873 109.139 30.0512 109.663 30.7858C110.19 31.5243 111.077 31.9076 112.281 31.9076C113.486 31.9076 114.487 31.5242 115.242 30.7999C115.996 30.0769 116.496 29.0221 116.714 27.6924ZM125.668 17.6352L123.369 31.6037L123.35 31.7199H123.467H125.92H126.004L126.018 31.6362L128.723 15.2041L128.742 15.0878H128.624H121.028H120.943L120.929 15.1716L118.227 31.6039L118.208 31.7201H118.325H120.731H120.816L120.83 31.6364L123.135 17.6352H125.668ZM139.448 15.223L139.498 15.0878H139.354H136.837H136.766L136.743 15.1541L134.721 20.788L134.721 20.788L134.72 20.7919L133.699 24.0488L133.606 20.7955L133.606 20.7955L133.606 20.7914L133.216 15.1809L133.21 15.0878H133.117H130.731H130.621L130.632 15.1976L131.87 27.8534L131.832 27.9736C131.832 27.9738 131.832 27.974 131.832 27.9742C131.639 28.556 131.369 28.8879 131.015 29.0688C130.655 29.2523 130.19 29.2895 129.59 29.2432L129.498 29.2362L129.483 29.3267L129.105 31.6273L129.087 31.7356L129.196 31.7433C130.868 31.8618 132.021 31.5486 132.89 30.8162C133.753 30.088 134.32 28.9571 134.848 27.4759C134.848 27.4757 134.848 27.4754 134.848 27.4752L139.448 15.223ZM117.358 42.4679H117.295L117.268 42.5252L114.553 48.2761L113.78 42.5545L113.768 42.4679H113.681H111.186H111.07L111.087 42.5828L112.285 50.5335L108.217 58.9565L108.147 59.1H108.307H110.56H110.624L110.651 59.0426L113.568 52.8447L114.423 59.0137L114.435 59.1H114.522H117.061H117.178L117.16 58.9848L115.863 50.5646L119.68 42.6112L119.748 42.4679H119.589H117.358ZM127.401 42.5695L127.402 42.4679H127.301H123.776H123.702L123.68 42.538L118.525 58.9701L118.484 59.1H118.62H120.831H120.905L120.927 59.0291L121.811 56.1184H124.59L124.518 58.9975L124.516 59.1H124.618H127.046H127.145L127.146 59.0015L127.401 42.5695ZM135.053 59.019L135.069 59.1H135.151H137.624H137.746L137.722 58.9801L135.881 49.9111L140.413 42.6207L140.508 42.4679H140.328H137.921H137.864L137.835 42.5162L133.775 49.232L134.867 42.5841L134.887 42.4679H134.769H132.361H132.276L132.262 42.5517L129.56 58.9838L129.54 59.1H129.658H132.066H132.151L132.165 59.0162L132.991 53.9903L133.835 52.7106L135.053 59.019ZM124.634 53.6887H122.546L124.821 46.2114L124.634 53.6887Z" fill="white" stroke="white" stroke-width="0.2"/>
<defs>
<filter id="filter0_d" x="43.8105" y="163" width="162.902" height="85" filterUnits="userSpaceOnUse" color-interpolation-filters="sRGB">
<feFlood flood-opacity="0" result="BackgroundImageFix"/>
<feColorMatrix in="SourceAlpha" type="matrix" values="0 0 0 0 0 0 0 0 0 0 0 0 0 0 0 0 0 0 127 0"/>
<feOffset dy="14"/>
<feGaussianBlur stdDeviation="12"/>
<feColorMatrix type="matrix" values="0 0 0 0 0.310326 0 0 0 0 0.104479 0 0 0 0 0.491667 0 0 0 0.4 0"/>
<feBlend mode="normal" in2="BackgroundImageFix" result="effect1_dropShadow"/>
<feBlend mode="normal" in="SourceGraphic" in2="effect1_dropShadow" result="shape"/>
</filter>
</defs>
</svg>
