<svg width="32" height="32" viewBox="0 0 32 32" fill="none" xmlns="http://www.w3.org/2000/svg">
<rect width="32" height="32" rx="5" fill="#3D6CB1"/>
<path fill-rule="evenodd" clip-rule="evenodd" d="M24.8884 19.6282C25.0724 19.9961 25.195 20.3028 25.0724 20.5481C25.011 20.7934 24.8271 20.9773 24.5204 20.9773L21.4541 21.1C21.0249 21.1 20.4729 20.8547 19.8597 20.3028C19.2464 19.7508 18.8171 19.2602 18.6331 18.8923C18.5105 18.647 18.2652 18.5243 17.9586 18.5243C17.6519 18.5243 17.4066 18.647 17.3453 18.9536L17.2227 20.1801C17.2227 20.4254 17.1 20.6094 16.916 20.732C16.7934 20.8547 16.6094 20.916 16.5481 20.916C16.4254 20.916 16.2414 20.9773 15.9961 20.9773C15.1989 21.0387 14.463 20.9773 13.911 20.8547C13.2978 20.732 12.7459 20.4867 12.2552 20.1801C11.7646 19.8122 11.3967 19.5055 11.0901 19.2602C10.7834 19.0149 10.3541 18.5243 9.80221 17.911C8.33039 15.7646 7.22652 13.9249 6.49061 12.3304C6.18398 11.7171 6.06133 11.1652 6 10.7359C6.12265 10.6133 6.36796 10.5519 6.67459 10.4906C7.04254 10.4293 7.53315 10.4293 8.14641 10.4906C8.82099 10.4906 9.18895 10.4906 9.3116 10.4906C9.67956 10.4906 9.92486 10.6746 10.1088 11.0425C10.9061 12.7597 11.642 14.1088 12.3779 15.0901C12.8685 15.5193 13.1751 15.458 13.3591 14.8448C13.4204 14.8448 13.4818 14.1088 13.4818 12.5757C13.4818 11.5945 13.1138 10.9812 12.3166 10.7972C12.4392 10.2453 13.1138 10 14.2177 10C14.5243 10 14.8309 10 15.2602 10.0613C15.6282 10.0613 15.8735 10.1227 15.9348 10.1227C16.8547 10.1227 17.3453 10.4906 17.3453 11.2265C17.3453 11.3492 17.3453 11.5331 17.284 11.9011C17.2227 12.2691 17.2227 12.5757 17.2227 12.9436C17.2227 13.2503 17.2227 13.6182 17.2227 13.9862C17.2227 14.3541 17.284 14.6608 17.3453 14.9061C17.468 15.1514 17.5906 15.3354 17.7133 15.3967C17.8972 15.274 18.0199 15.1514 18.2039 15.0287C18.3265 14.9061 18.5105 14.7221 18.6945 14.4768C18.8785 14.2315 19.0011 14.0475 19.0624 13.9249C19.1851 13.8022 19.3077 13.5569 19.4917 13.2503C19.6757 12.8823 19.7983 12.6983 19.7983 12.5757C19.8597 12.453 19.921 12.2077 20.105 11.8398C20.2889 11.4105 20.4116 11.2265 20.4116 11.2265L20.4729 11.1039C20.5956 10.7972 20.7182 10.6746 20.7796 10.6133C20.8409 10.5519 21.0249 10.5519 21.3928 10.5519H24.2751C24.6431 10.5519 24.8271 10.5519 24.8884 10.5519C24.9497 10.5519 25.011 10.6133 25.195 10.7359C25.4403 11.0425 25.195 11.5945 24.6431 12.5144C24.0298 13.4343 23.4779 14.2315 22.926 14.8448C22.1287 15.7033 22.0674 16.3779 22.6193 16.9298C23.6006 18.0337 24.4591 18.9536 24.8884 19.6282Z" fill="white"/>
</svg>
