<svg xmlns="http://www.w3.org/2000/svg" width="71" height="36" viewBox="0 0 71 36"><g><g><g><path fill="#fff" d="M20.177 22.341L.857 3.021C-.233 1.931.29.71 1.642.71h19.015c.872 0 1.57.698 1.57 1.57v19.015c0 1.482-1.09 2.006-2.05 1.046z"/></g><g><path fill="#fff" d="M45.781 2.887l-19.32 19.276c-1.09 1.09-2.311.567-2.311-.785V2.32c0-.872.698-1.57 1.57-1.57h19.015c1.482.044 2.006 1.134 1.046 2.137z"/></g><g><path fill="#fff" d="M69.418 2.887L50.14 22.163c-1.09 1.09-2.311.567-2.311-.785V2.32c0-.872.698-1.57 1.57-1.57h19.015c1.439.044 2.006 1.134 1.003 2.137z"/></g><g><g><path fill="#fff" d="M35.793 26.87h2.268l2.617 8.373H38.67l-.511-2.006h.773v-1.482h-1.152l-.2-.785c-.218-.83-.48-1.832-.654-2.704h-.044c-.218.872-.436 1.875-.654 2.704l-.202.785H34.92v1.482h.724l-.506 1.963H33.22zm2.367 6.367l-.379-1.482h-1.754l-.382 1.482z"/></g><g><path fill="#fff" d="M41.5 34.066l3.925-5.626h-3.532v-1.57h5.887v1.134l-3.925 5.626h3.969v1.57H41.5z"/></g><g><path fill="#fff" d="M51.705 26.87c2.442 0 4.012 1.265 4.012 4.143s-1.613 4.23-3.925 4.23H49.35V26.87zm-.13 6.847c1.308 0 2.18-.698 2.18-2.704 0-2.006-.872-2.617-2.18-2.617h-.306v5.321z"/></g><g><path fill="#fff" d="M58.903 26.87h2.268l2.617 8.373H61.78l-.517-2.006h.78v-1.482h-1.162l-.19-.742c-.219-.829-.48-1.832-.655-2.704h-.044c-.218.872-.436 1.875-.654 2.704l-.19.742H58.03v1.482h.735l-.517 2.006H56.33zm2.361 6.367l-.382-1.482h-1.734l-.382 1.482z"/></g><g><path fill="#fff" d="M64.75 26.874h1.963l1.744 4.143.698 1.831h.043c-.087-.872-.261-2.05-.261-3.052V26.83h1.788v8.373h-1.963l-1.744-4.186-.698-1.832h-.044c.088.916.262 2.05.262 3.053v2.965H64.75z"/></g><g><path fill="#fff" d="M32.65 35.253h-2.487l-1.003-2.965-.349-1.178h-.043l-.35 1.178-1.002 2.965H24.93V26.88h2.006v2.573c0 .96-.218 2.966-.305 3.882h.043l.785-2.268.83-2.006h1.133l.829 2.006.741 2.268h.044c-.131-.916-.306-2.966-.306-3.882V26.88h1.963v8.373z"/></g></g></g></g></svg>