<svg width="22" height="28" viewBox="0 0 22 28" fill="none" xmlns="http://www.w3.org/2000/svg">
<path opacity="0.75" d="M21.3889 11.0865H15.8889V0.588483C15.8889 0.355193 15.7667 0.180226 15.5222 0.0635813C15.3389 -0.0530634 15.0333 0.00525892 14.85 0.121904C14.7889 0.180226 6.11111 6.82898 3.54444 8.69529C0.366667 11.0282 0 12.078 0 13.886V25.0839C0 26.7169 1.34444 28 3.05556 28H21.3889C21.7556 28 22 27.7667 22 27.4168V11.6697C22 11.3198 21.7556 11.0865 21.3889 11.0865ZM9.71667 11.2615C10.3889 10.5616 11.3667 10.3283 11.8556 10.7366C12.4056 11.1448 12.2833 12.0197 11.6111 12.7195C10.9389 13.4194 10.0222 13.6527 9.47222 13.2444C8.98333 12.8362 9.10556 11.9613 9.71667 11.2615ZM4.27778 25.0839L15.5833 18.2602C15.7667 18.1435 15.8889 17.9686 15.8889 17.7936V12.253H18.9444V20.5347C18.9444 20.768 18.7611 21.0013 18.5167 21.118L4.27778 25.0839Z" fill="#F3CE31"/>
</svg>
