<svg xmlns="http://www.w3.org/2000/svg" width="30" height="39" viewBox="0 0 30 39"><g><g><path fill="#f3ce31" d="M29.167 15.442c.5 0 .833.325.833.812v21.934c0 .487-.333.812-.833.812h-25C1.833 39 0 37.213 0 34.938V19.341c0-2.518.5-3.98 4.833-7.23C8.333 9.511 20.167.251 20.25.17c.25-.163.667-.244.917-.081.333.162.5.406.5.73v14.623zm-16.25 3.006c.75.568 2 .243 2.916-.731.917-.975 1.084-2.194.334-2.762-.667-.57-2-.244-2.917.73-.833.975-1 2.194-.333 2.763zM25.25 29.414c.333-.162.583-.487.583-.812V17.067h-4.166v7.717c0 .244-.167.487-.417.65L5.833 34.938z"/></g></g></svg>